<svg width="738" height="738" viewBox="0 0 738 738" fill="none" xmlns="http://www.w3.org/2000/svg">
<path d="M66.3167 421.177C65.9367 416.607 65.8086 412.019 65.9329 407.435C65.8084 402.846 65.9365 398.254 66.3167 393.679C66.7058 398.253 66.8339 402.846 66.7004 407.435C66.8337 412.019 66.7055 416.607 66.3167 421.177Z" fill="#E0E0E0"/>
<path d="M80.5306 407.376C75.8028 407.756 71.0581 407.884 66.3167 407.76C61.5802 407.884 56.8404 407.756 52.1176 407.376C56.8399 406.987 61.5802 406.859 66.3167 406.992C71.0581 406.859 75.8032 406.987 80.5306 407.376Z" fill="#E0E0E0"/>
<path d="M614.636 562.489C614.247 557.919 614.119 553.331 614.252 548.747C614.119 544.158 614.247 539.565 614.636 534.991C615.016 539.566 615.144 544.158 615.02 548.747C615.144 553.331 615.016 557.919 614.636 562.489Z" fill="#E0E0E0"/>
<path d="M628.85 548.733C624.123 549.131 619.378 549.264 614.636 549.131C609.894 549.264 605.149 549.131 600.422 548.733C605.15 548.352 609.895 548.224 614.636 548.349C619.377 548.225 624.122 548.353 628.85 548.733Z" fill="#E0E0E0"/>
<path d="M531.227 90.7003C530.838 86.1258 530.71 81.533 530.843 76.944C530.71 72.3599 530.838 67.7719 531.227 63.2024C531.607 67.7724 531.735 72.3599 531.611 76.944C531.735 81.533 531.607 86.1253 531.227 90.7003Z" fill="#E0E0E0"/>
<path d="M545.441 76.944C540.714 77.333 535.969 77.4611 531.227 77.3277C526.486 77.4611 521.741 77.333 517.013 76.944C521.741 76.5638 526.486 76.4357 531.227 76.5602C535.969 76.4357 540.713 76.5638 545.441 76.944Z" fill="#E0E0E0"/>
<path d="M417.354 649.794C417.357 651.459 416.866 653.087 415.943 654.473C415.02 655.858 413.707 656.939 412.17 657.578C410.633 658.217 408.941 658.385 407.308 658.062C405.675 657.74 404.175 656.939 402.997 655.763C401.819 654.587 401.016 653.088 400.69 651.456C400.364 649.823 400.53 648.131 401.166 646.593C401.803 645.055 402.881 643.74 404.265 642.815C405.649 641.89 407.276 641.396 408.941 641.396C410.045 641.394 411.138 641.61 412.159 642.031C413.18 642.452 414.107 643.07 414.889 643.851C415.67 644.631 416.29 645.557 416.713 646.577C417.136 647.597 417.354 648.69 417.354 649.794Z" fill="#FF725E"/>
<path d="M495.523 491.036C495.526 492.696 495.037 494.319 494.118 495.701C493.198 497.083 491.89 498.162 490.359 498.801C488.827 499.44 487.14 499.611 485.511 499.292C483.882 498.974 482.384 498.179 481.207 497.01C480.029 495.84 479.224 494.348 478.894 492.721C478.564 491.095 478.723 489.407 479.351 487.871C479.98 486.334 481.049 485.019 482.425 484.09C483.8 483.161 485.42 482.661 487.08 482.652C488.185 482.646 489.281 482.859 490.304 483.277C491.327 483.696 492.258 484.312 493.042 485.091C493.826 485.87 494.449 486.796 494.875 487.816C495.301 488.836 495.521 489.93 495.523 491.036Z" fill="#FF725E"/>
<path d="M281.517 573.898C283.841 573.898 285.724 572.015 285.724 569.692C285.724 567.369 283.841 565.485 281.517 565.485C279.194 565.485 277.311 567.369 277.311 569.692C277.311 572.015 279.194 573.898 281.517 573.898Z" fill="#FF725E"/>
<path d="M184.367 548.733C184.37 549.565 184.126 550.38 183.665 551.074C183.205 551.767 182.549 552.309 181.781 552.63C181.012 552.95 180.166 553.036 179.349 552.875C178.532 552.714 177.781 552.315 177.191 551.727C176.602 551.139 176.199 550.39 176.036 549.574C175.872 548.757 175.955 547.911 176.273 547.141C176.591 546.372 177.13 545.714 177.822 545.251C178.514 544.788 179.328 544.541 180.161 544.541C180.712 544.539 181.259 544.646 181.769 544.856C182.28 545.065 182.743 545.374 183.134 545.763C183.525 546.153 183.835 546.616 184.047 547.125C184.258 547.635 184.367 548.181 184.367 548.733Z" fill="#FF725E"/>
<path d="M472.955 308.396C472.955 309.228 472.708 310.041 472.246 310.733C471.783 311.424 471.127 311.964 470.358 312.282C469.589 312.6 468.743 312.684 467.927 312.521C467.111 312.359 466.362 311.958 465.774 311.37C465.185 310.782 464.785 310.032 464.622 309.216C464.46 308.4 464.543 307.554 464.862 306.786C465.18 306.017 465.719 305.36 466.411 304.898C467.103 304.436 467.916 304.189 468.748 304.189C469.3 304.189 469.847 304.298 470.358 304.509C470.868 304.721 471.332 305.03 471.723 305.421C472.113 305.812 472.423 306.275 472.634 306.786C472.846 307.296 472.955 307.843 472.955 308.396Z" fill="#FF725E"/>
<path d="M163.172 208.116C163.34 207.656 163.547 207.212 163.792 206.788L165.622 203.245C167.172 200.293 169.282 196.116 171.526 191.437C173.769 186.758 175.629 182.581 176.972 179.482L178.581 175.821C178.757 175.367 178.97 174.928 179.216 174.508C179.103 174.982 178.95 175.446 178.758 175.895C178.419 176.781 177.932 178.05 177.282 179.615C176.013 182.729 174.168 186.995 171.939 191.659C169.71 196.323 167.511 200.426 165.947 203.378C165.12 204.854 164.471 206.035 163.969 206.847C163.742 207.293 163.475 207.718 163.172 208.116Z" fill="#E0E0E0"/>
<path d="M583.847 336.528C583.74 336.347 583.656 336.154 583.596 335.952C583.448 335.495 583.241 334.934 583.005 334.255C582.503 332.779 581.824 330.609 581.027 327.923C579.419 322.565 577.426 315.096 575.345 306.816C573.264 298.536 571.345 291.038 569.854 285.65C569.131 283.038 568.526 280.883 568.068 279.274C567.876 278.58 567.729 278.005 567.596 277.532C567.529 277.331 567.485 277.123 567.463 276.912C567.578 277.094 567.663 277.294 567.714 277.503L568.304 279.2C568.821 280.676 569.5 282.846 570.297 285.517C571.906 290.89 573.884 298.359 575.965 306.639C578.046 314.919 579.965 322.403 581.455 327.805C582.193 330.417 582.799 332.572 583.241 334.181L583.728 335.908C583.804 336.106 583.844 336.316 583.847 336.528Z" fill="#E0E0E0"/>
<path d="M300.676 118.523C245.961 122.493 186.212 129.741 142.404 146.567L156.249 240.19C156.249 240.19 241.149 209.799 310.24 211.909L300.676 118.523Z" fill="#313950"/>
<g opacity="0.8">
<path d="M300.676 118.523C245.961 122.493 186.212 129.741 142.404 146.567L156.249 240.19C156.249 240.19 241.149 209.799 310.24 211.909L300.676 118.523Z" fill="white"/>
</g>
<path d="M296.676 199.555L296.145 199.644L294.595 199.865L288.691 200.603C286.093 200.913 282.92 201.297 279.244 201.828C275.569 202.36 271.377 202.891 266.772 203.659C248.307 206.507 222.891 211.216 195.29 218.419C185.696 220.898 176.441 223.452 167.984 226.109L167.556 226.227V225.799C164.604 204.338 161.74 185.829 159.541 172.663C158.419 166.139 157.519 160.855 156.899 157.297C156.589 155.541 156.353 154.168 156.176 153.194C156.176 152.751 156.057 152.397 156.013 152.131C155.994 152.009 155.994 151.885 156.013 151.762C156.062 151.876 156.097 151.995 156.117 152.117C156.117 152.382 156.249 152.737 156.353 153.165C156.545 154.139 156.825 155.497 157.194 157.253C157.902 160.81 158.891 166.021 160.043 172.574C162.375 185.681 165.327 204.19 168.338 225.71L167.851 225.415C176.338 222.729 185.563 220.16 195.201 217.681C218.793 211.601 242.688 206.763 266.787 203.186C271.407 202.463 275.643 201.976 279.289 201.489C282.934 201.002 286.152 200.648 288.75 200.382L294.742 199.777L296.307 199.644C296.427 199.603 296.551 199.573 296.676 199.555Z" fill="#313950"/>
<path d="M298.595 176.795C298.595 176.795 298.388 176.146 297.96 174.921C297.255 173.186 296.306 171.561 295.141 170.094C293.298 167.765 291.048 165.789 288.499 164.264C287.79 163.792 286.949 163.438 286.137 163.01C285.269 162.63 284.377 162.31 283.466 162.05C281.498 161.425 279.421 161.224 277.37 161.46C275.124 161.705 272.983 162.546 271.171 163.895C269.215 165.387 267.536 167.21 266.211 169.283C263.259 173.548 261.473 178.744 259.259 184.131C258.178 186.979 256.409 189.514 254.108 191.511C252.878 192.538 251.412 193.243 249.843 193.563C248.218 193.837 246.549 193.643 245.031 193.002C238.802 190.537 236.027 183.349 229.725 181.194C226.63 180.212 223.274 180.488 220.382 181.961C218.97 182.662 217.711 183.635 216.677 184.825C215.697 186.038 214.87 187.367 214.212 188.781C212.81 191.555 211.747 194.685 209.371 196.825C208.204 197.913 206.708 198.582 205.12 198.729C203.585 198.821 202.055 198.494 200.692 197.784C198.148 196.373 196.036 194.296 194.581 191.777C193.318 189.402 192.238 186.935 191.349 184.397C190.521 182.07 189.447 179.839 188.146 177.74C186.931 175.834 185.249 174.269 183.26 173.194C181.54 172.284 179.634 171.781 177.689 171.725C175.744 171.668 173.812 172.06 172.043 172.869C169.297 174 166.855 175.759 164.913 178.006C163.701 179.436 162.792 181.098 162.242 182.891C161.858 184.116 161.814 184.81 161.755 184.795C161.79 184.135 161.904 183.481 162.094 182.847C162.584 181.003 163.465 179.287 164.677 177.814C166.618 175.491 169.081 173.66 171.865 172.471C173.695 171.612 175.697 171.188 177.718 171.231C179.738 171.275 181.721 171.785 183.511 172.722C185.596 173.821 187.365 175.437 188.648 177.415C189.984 179.544 191.088 181.81 191.939 184.175C192.835 186.668 193.916 189.09 195.171 191.423C196.578 193.836 198.62 195.817 201.075 197.149C202.325 197.802 203.728 198.103 205.134 198.02C206.565 197.874 207.908 197.262 208.957 196.279C211.142 194.286 212.205 191.275 213.607 188.456C214.29 186.978 215.153 185.59 216.175 184.323C217.275 183.059 218.614 182.025 220.116 181.282C223.191 179.713 226.761 179.421 230.049 180.471C233.4 181.578 235.806 184.161 238.035 186.493C240.045 188.965 242.561 190.978 245.415 192.397C246.811 192.989 248.347 193.168 249.843 192.913C251.291 192.614 252.644 191.966 253.783 191.024C255.988 189.101 257.691 186.669 258.743 183.939C260.942 178.611 262.876 173.342 265.828 169.017C267.191 166.881 268.932 165.01 270.964 163.497C272.867 162.11 275.102 161.25 277.444 161.002C279.563 160.78 281.705 161.007 283.731 161.666C284.664 161.943 285.576 162.283 286.462 162.685C290.009 164.41 293.107 166.937 295.51 170.065C296.665 171.576 297.585 173.253 298.241 175.039C298.396 175.523 298.524 176.016 298.624 176.515C298.619 176.609 298.609 176.702 298.595 176.795Z" fill="#313950"/>
<path d="M153.578 164.5C153.578 164.707 152.899 165.017 151.984 165.194C151.069 165.371 150.286 165.342 150.257 165.194C150.227 165.046 150.921 164.677 151.836 164.5C152.751 164.323 153.504 164.294 153.578 164.5Z" fill="#313950"/>
<path d="M155.998 181.548C156.087 181.755 155.556 182.183 154.803 182.537C154.05 182.891 153.327 183.009 153.327 182.817C153.327 182.626 153.784 182.197 154.537 181.843C155.29 181.489 155.91 181.4 155.998 181.548Z" fill="#313950"/>
<path d="M159.024 200.279C159.024 200.485 158.537 200.854 157.784 201.12C157.032 201.386 156.308 201.43 156.308 201.238C156.308 201.046 156.795 200.662 157.548 200.397C158.301 200.131 158.95 200.087 159.024 200.279Z" fill="#313950"/>
<path d="M162.655 218.64C162.655 218.847 162.08 219.23 161.179 219.481C160.279 219.732 159.615 219.806 159.556 219.599C159.497 219.393 160.117 219.024 160.943 218.758C161.77 218.492 162.581 218.448 162.655 218.64Z" fill="#313950"/>
<path d="M265.842 130.419C266.419 130.211 267.019 130.072 267.628 130.006C268.809 129.814 270.58 129.549 272.721 129.239C277.149 128.619 283.362 127.763 290.816 126.892H291.171V127.246C291.746 133.534 292.425 140.766 293.134 148.441V148.766V149.135H292.765L268.307 152.087H267.968V151.762C267.289 145.342 266.713 139.954 266.3 136.132C266.123 134.331 265.99 132.899 265.872 131.807C265.813 131.317 265.783 130.824 265.783 130.331C265.903 130.847 265.992 131.369 266.049 131.895C266.211 132.988 266.403 134.449 266.654 136.323C267.141 140.132 267.805 145.416 268.617 151.762L268.248 151.467L292.706 148.353L292.366 148.766V148.456C291.687 140.781 291.052 133.534 290.492 127.246L290.875 127.556L265.842 130.419Z" fill="#313950"/>
<path d="M288.573 134.139C288.573 134.375 284.366 134.36 279.23 134.921C274.093 135.482 269.975 136.397 269.916 136.117C275.929 134.166 282.284 133.492 288.573 134.139Z" fill="#313950"/>
<path d="M288.838 139.63C288.838 139.851 284.912 139.999 280.115 140.471C275.318 140.943 271.422 141.534 271.377 141.312C274.184 140.405 277.096 139.864 280.041 139.703C282.958 139.294 285.916 139.27 288.838 139.63Z" fill="#313950"/>
<path d="M282.979 144.412C281.38 145.013 279.696 145.357 277.99 145.43C276.325 145.768 274.619 145.858 272.927 145.696C274.523 145.104 276.201 144.761 277.901 144.677C279.572 144.34 281.282 144.25 282.979 144.412Z" fill="#313950"/>
<path d="M567.419 146.124C513.84 129.799 468.63 115.851 408.011 116.235L398.741 211.629C461.781 217.208 482.873 221.341 541.057 242.404L567.419 146.124Z" fill="#313950"/>
<g opacity="0.8">
<path d="M567.419 146.124C513.84 129.799 468.63 115.851 408.011 116.235L398.741 211.629C461.781 217.208 482.873 221.341 541.057 242.404L567.419 146.124Z" fill="white"/>
</g>
<path d="M446.121 162.463L448.483 142.227C442.599 141.638 436.708 143.27 431.966 146.803C428.825 149.104 426.269 152.112 424.505 155.584C422.741 159.056 421.818 162.894 421.811 166.788C421.786 167.773 421.81 168.758 421.885 169.74L445.501 167.083L446.121 162.463Z" fill="#313950"/>
<path d="M470.549 159.157C469.422 155.233 467.266 151.681 464.305 148.871C461.344 146.06 457.685 144.093 453.708 143.172L452.999 143.024L452.542 142.921L451.154 142.714H451.036L448.704 162.862L448.143 167.614L470.46 175.762C471.023 174.08 471.408 172.343 471.611 170.581C472.054 166.741 471.692 162.85 470.549 159.157Z" fill="#313950"/>
<g opacity="0.3">
<path d="M470.549 159.157C469.422 155.233 467.266 151.681 464.305 148.871C461.344 146.06 457.685 144.093 453.708 143.172L452.999 143.024L452.542 142.921L451.154 142.714H451.036L448.704 162.862L448.143 167.614L470.46 175.762C471.023 174.08 471.408 172.343 471.611 170.581C472.054 166.741 471.692 162.85 470.549 159.157Z" fill="#313950"/>
</g>
<path d="M446.46 169.888L422.844 172.544C423.833 183.998 432.188 193.489 443.405 194.876C454.623 196.264 465.147 188.972 468.837 178.05L446.519 169.902" fill="#313950"/>
<path d="M546.71 164.249C545.993 164.031 545.297 163.749 544.629 163.408C543.316 162.803 541.397 161.932 539.006 160.973C532.805 158.379 526.457 156.151 519.995 154.301C513.523 152.444 506.949 150.966 500.305 149.873C497.766 149.46 495.685 149.165 494.253 148.973C493.505 148.918 492.763 148.789 492.039 148.589C492.793 148.559 493.548 148.589 494.298 148.678C495.774 148.781 497.825 149.002 500.393 149.342C513.799 151.164 526.875 154.892 539.227 160.412C541.589 161.474 543.478 162.39 544.762 163.069C545.444 163.406 546.096 163.801 546.71 164.249Z" fill="#313950"/>
<path d="M545.087 174.168C544.371 173.939 543.675 173.653 543.006 173.312C541.692 172.722 539.773 171.836 537.382 170.891C524.973 165.667 511.979 161.96 498.681 159.851C496.143 159.438 494.061 159.142 492.63 158.95C491.883 158.877 491.143 158.749 490.416 158.567C491.17 158.518 491.926 158.548 492.674 158.655C494.15 158.744 496.202 158.965 498.77 159.305C505.463 160.221 512.082 161.612 518.578 163.467C525.073 165.328 531.431 167.642 537.603 170.389C539.965 171.452 541.854 172.367 543.138 173.046C543.825 173.352 544.477 173.728 545.087 174.168Z" fill="#313950"/>
<path d="M543.463 184.161C542.746 183.942 542.05 183.66 541.382 183.319C540.068 182.729 538.15 181.843 535.758 180.884C529.556 178.282 523.208 176.039 516.748 174.168C510.274 172.318 503.7 170.84 497.058 169.74C494.519 169.341 492.453 169.032 491.006 168.84C490.257 168.785 489.516 168.656 488.792 168.456C489.546 168.426 490.301 168.456 491.05 168.544C492.526 168.648 494.578 168.869 497.146 169.209C503.839 170.125 510.458 171.516 516.954 173.371C523.454 175.219 529.812 177.533 535.98 180.293C538.341 181.356 540.231 182.271 541.515 182.95C542.202 183.289 542.855 183.694 543.463 184.161Z" fill="#313950"/>
<path d="M540.216 194.124C539.522 193.895 538.846 193.613 538.194 193.282C536.925 192.677 535.065 191.806 532.762 190.862C520.748 185.646 508.136 181.933 495.213 179.806C492.733 179.393 490.785 179.098 489.309 178.906C488.58 178.85 487.858 178.721 487.154 178.522C487.888 178.483 488.624 178.513 489.353 178.611C490.755 178.699 492.777 178.921 495.257 179.275C501.771 180.191 508.208 181.582 514.519 183.437C520.833 185.315 527.003 187.643 532.984 190.404C535.271 191.467 537.102 192.382 538.327 193.061C538.989 193.355 539.621 193.711 540.216 194.124Z" fill="#313950"/>
<path d="M533.161 202.064C532.536 201.876 531.928 201.634 531.345 201.341L526.46 199.171C515.768 194.324 504.417 191.085 492.777 189.563L487.478 188.825C486.826 188.765 486.179 188.651 485.545 188.485C486.197 188.408 486.856 188.408 487.508 188.485C488.777 188.485 490.593 188.721 492.836 188.972C504.59 190.216 516.04 193.482 526.681 198.625C528.733 199.599 530.356 200.426 531.478 201.031C532.074 201.315 532.638 201.661 533.161 202.064Z" fill="#313950"/>
<path d="M509.353 203.186C508.065 203.024 506.792 202.763 505.545 202.404C503.213 201.858 499.98 201.149 496.379 200.544C492.777 199.939 489.486 199.467 487.11 199.068C485.814 198.957 484.53 198.735 483.272 198.404C484.571 198.302 485.878 198.342 487.169 198.522C489.574 198.729 492.881 199.083 496.512 199.718C499.604 200.243 502.664 200.943 505.678 201.813C506.951 202.129 508.184 202.589 509.353 203.186Z" fill="#313950"/>
<path d="M417.236 127.482L418.476 127.408L422.166 127.29C425.413 127.29 430.136 127.29 436.158 127.6C452.821 128.709 469.307 131.679 485.309 136.456L485.575 136.545V136.825C481.885 157.976 477.486 183.113 472.792 210.005C472.6 211.098 472.409 212.19 472.217 213.253V213.666L471.803 213.562C460.992 210.731 450.04 208.47 438.992 206.788C428.409 205.164 418.328 204.013 408.911 203.422H408.542V203.068C411.125 180.5 413.295 161.607 414.815 148.309C415.583 141.726 416.202 136.501 416.616 132.958C416.822 131.216 417 129.873 417.103 128.929C417.103 128.501 417.206 128.161 417.236 127.895C417.265 127.63 417.236 127.556 417.236 127.571C417.249 127.693 417.249 127.817 417.236 127.94C417.236 128.205 417.236 128.56 417.132 129.002C417.044 129.962 416.896 131.335 416.719 133.106C416.35 136.707 415.789 141.962 415.095 148.545C413.619 161.829 411.612 180.648 409.191 203.157L408.867 202.788C418.298 203.349 428.424 204.485 439.021 206.094C450.099 207.771 461.08 210.027 471.921 212.854L471.449 213.164C471.641 212.101 471.833 211.009 472.025 209.917C476.763 183.024 481.191 157.903 484.91 136.766L485.132 137.135C469.186 132.342 452.764 129.308 436.158 128.087C430.165 127.689 425.413 127.585 422.225 127.6H417.265L417.236 127.482Z" fill="#313950"/>
<path d="M358.727 322.417L410.977 333.989L418.963 322.417L417.678 307.524L409.738 300.262H382.373L356.808 323.288" fill="#313950"/>
<g opacity="0.3">
<path d="M358.727 322.417L410.977 333.989L418.963 322.417L417.678 307.524L409.738 300.262H382.373L356.808 323.288" fill="#313950"/>
</g>
<path d="M438.372 214.817L504.334 205.961L514.666 203.009C514.666 203.009 538.445 197.784 540.659 196.987C543.227 196.072 544.29 197.09 544.555 198.05C544.983 199.526 543.537 201.253 541.352 202.109C540.614 202.404 528.556 206.537 528.556 206.537C529.94 206.832 531.301 207.227 532.629 207.717C535.507 208.692 538.268 212.411 539.655 216.751C541.042 221.09 541.057 222.418 539.389 223.038C539.069 223.135 538.732 223.161 538.401 223.116C538.07 223.07 537.752 222.953 537.471 222.773C536.537 222.208 535.835 221.329 535.493 220.293C533.175 213.37 528.851 212.824 528.851 212.824L527.493 213.208C527.493 213.208 531.921 216.322 531.921 220.101C531.91 220.655 531.789 221.202 531.567 221.71C531.894 222.649 531.972 223.657 531.79 224.635C531.609 225.612 531.176 226.526 530.533 227.285C529.891 228.044 529.061 228.621 528.127 228.961C527.192 229.301 526.185 229.391 525.205 229.223C524.26 229.046 523.227 228.485 523.094 227.54C523.068 227.03 523.175 226.521 523.404 226.064C523.498 225.808 523.577 225.547 523.64 225.282L519.685 225.828C519.685 225.828 510.725 226.566 506.873 227.304L445.117 245.902C443.087 246.518 440.955 246.725 438.844 246.51C436.733 246.295 434.686 245.662 432.822 244.648C430.958 243.635 429.315 242.26 427.987 240.605C426.659 238.95 425.674 237.048 425.088 235.009C424.465 232.802 424.323 230.488 424.674 228.223C425.024 225.957 425.857 223.793 427.117 221.878C428.377 219.963 430.034 218.341 431.976 217.123C433.918 215.904 436.099 215.118 438.372 214.817Z" fill="#FFBE9D"/>
<path d="M505.884 207.614C506.024 208.295 506.374 208.915 506.886 209.386C507.397 209.858 508.043 210.157 508.733 210.241C510.091 210.522 511.508 210.345 512.88 210.522C516.984 211.083 520.187 214.817 524.305 215.171C524.88 215.171 525.618 215.171 525.781 214.551C525.943 213.931 525.5 213.562 525.102 213.208L514.77 204.101" fill="#FFBE9D"/>
<path d="M514.814 204.101C515.247 204.348 515.653 204.64 516.024 204.972C516.762 205.577 517.84 206.448 519.139 207.57L523.7 211.481L524.998 212.618C525.397 213.016 526.076 213.356 526.194 214.3C526.198 214.532 526.133 214.76 526.006 214.954C525.88 215.149 525.699 215.301 525.486 215.392C525.135 215.537 524.756 215.598 524.379 215.57C523.705 215.518 523.041 215.384 522.401 215.171C520.126 214.215 517.921 213.1 515.803 211.835C514.875 211.36 513.879 211.032 512.851 210.861C511.892 210.714 510.947 210.743 510.091 210.684C509.383 210.704 508.679 210.569 508.029 210.289C507.379 210.008 506.798 209.589 506.327 209.06C505.722 208.219 505.84 207.584 505.87 207.584C506.03 208.033 506.265 208.452 506.563 208.824C507.032 209.273 507.589 209.617 508.199 209.836C508.81 210.055 509.459 210.142 510.106 210.094C511.051 210.075 511.997 210.104 512.94 210.182C514.035 210.34 515.1 210.663 516.098 211.142C518.204 212.361 520.383 213.45 522.622 214.404C523.203 214.584 523.802 214.703 524.408 214.758C524.984 214.758 525.471 214.595 525.412 214.3C525.353 214.005 524.939 213.533 524.497 213.149L523.198 211.998L518.77 207.953L515.818 205.179C515.124 204.529 514.77 204.145 514.814 204.101Z" fill="#EB996E"/>
<path d="M527.449 213.12C528.302 212.915 529.193 212.915 530.046 213.12C530.938 213.356 531.73 213.874 532.305 214.596C533.008 215.53 533.556 216.572 533.928 217.68C534.31 218.819 534.805 219.917 535.404 220.957C535.926 221.829 536.67 222.547 537.559 223.038C537.872 223.199 538.219 223.283 538.57 223.283C538.922 223.283 539.268 223.199 539.581 223.038C540.009 222.817 540.172 222.596 540.157 222.581C540.142 222.566 539.921 222.699 539.507 222.861C539.214 222.959 538.903 222.994 538.596 222.963C538.288 222.933 537.99 222.837 537.722 222.684C536.927 222.182 536.268 221.493 535.803 220.677C535.21 219.648 534.716 218.566 534.327 217.444C533.929 216.291 533.34 215.214 532.585 214.256C531.946 213.455 531.058 212.889 530.061 212.647C529.397 212.483 528.703 212.483 528.039 212.647C527.655 212.942 527.434 213.09 527.449 213.12Z" fill="#EB996E"/>
<path d="M542.268 201.769C541.441 201.961 540.636 202.233 539.862 202.581L534.135 204.692L528.408 206.714C527.592 206.932 526.801 207.234 526.046 207.614C526.891 207.517 527.722 207.329 528.526 207.053C530.002 206.625 532.098 205.976 534.341 205.164C536.585 204.352 538.607 203.555 540.039 202.92C540.823 202.622 541.571 202.236 542.268 201.769Z" fill="#EB996E"/>
<path d="M525.707 216.795C525.707 216.795 525.884 217.031 526.224 217.4C526.473 217.63 526.669 217.912 526.799 218.225C526.929 218.539 526.99 218.876 526.976 219.215C526.942 219.432 526.852 219.636 526.715 219.807C526.578 219.978 526.398 220.11 526.194 220.19C525.682 220.399 525.147 220.548 524.6 220.632C523.908 220.716 523.272 221.052 522.814 221.577C522.6 221.891 522.462 222.251 522.411 222.627C522.359 223.004 522.396 223.387 522.519 223.747C522.643 224.099 522.839 224.422 523.092 224.696C523.346 224.97 523.653 225.19 523.995 225.341C524.608 225.64 525.299 225.743 525.973 225.636C527.041 225.408 528.07 225.025 529.028 224.5C529.689 224.165 530.288 223.721 530.799 223.186C530.991 222.992 531.133 222.754 531.212 222.492C531.212 222.492 531.021 222.714 530.652 223.038C530.114 223.501 529.512 223.884 528.866 224.175C527.931 224.64 526.938 224.978 525.914 225.178C525.316 225.283 524.7 225.184 524.165 224.898C523.63 224.612 523.207 224.154 522.962 223.599C522.861 223.315 522.827 223.011 522.863 222.712C522.899 222.412 523.003 222.125 523.168 221.872C523.549 221.441 524.074 221.163 524.644 221.09C525.225 220.982 525.79 220.804 526.327 220.559C526.581 220.439 526.801 220.257 526.966 220.03C527.131 219.803 527.236 219.538 527.272 219.26C527.276 218.874 527.191 218.493 527.025 218.145C526.859 217.797 526.615 217.491 526.312 217.252C525.973 216.972 525.722 216.765 525.707 216.795Z" fill="#EB996E"/>
<path d="M524.29 225.016C524.29 225.016 524.009 225.016 523.64 225.326C523.384 225.553 523.184 225.837 523.056 226.154C522.928 226.472 522.876 226.815 522.902 227.156C522.966 227.666 523.161 228.151 523.469 228.563C523.777 228.975 524.187 229.299 524.659 229.503C525.805 229.963 527.085 229.963 528.231 229.503C529.386 229.099 530.383 228.34 531.08 227.333C531.638 226.52 531.969 225.572 532.039 224.588C532.093 223.93 532.018 223.268 531.818 222.64C531.769 222.404 531.669 222.182 531.522 221.99C531.683 222.831 531.738 223.689 531.685 224.544C531.55 225.544 531.141 226.487 530.502 227.269C529.864 228.05 529.022 228.64 528.068 228.972C527.034 229.375 525.885 229.375 524.851 228.972C524.441 228.81 524.079 228.546 523.8 228.205C523.521 227.864 523.334 227.457 523.257 227.023C523.22 226.727 523.247 226.426 523.336 226.141C523.425 225.856 523.574 225.593 523.773 225.37C524.069 225.149 524.319 225.06 524.29 225.016Z" fill="#EB996E"/>
<path d="M513.323 219.599C513.323 219.599 513.323 219.127 512.895 218.448C512.33 217.547 511.485 216.857 510.489 216.485V216.928C511 216.688 511.494 216.412 511.965 216.101C513.711 215.089 515.142 213.612 516.098 211.835C514.76 213.266 513.276 214.552 511.67 215.673C511.168 215.983 510.681 216.263 510.194 216.5L509.692 216.765L510.224 216.942C511.142 217.268 511.947 217.852 512.541 218.625C513.087 219.201 513.249 219.614 513.323 219.599Z" fill="#EB996E"/>
<path d="M533.854 212.544C533.766 212.455 533.072 213.223 532.984 214.448C532.895 215.673 533.485 216.514 533.604 216.44C533.722 216.367 533.412 215.54 533.5 214.477C533.589 213.415 533.987 212.632 533.854 212.544Z" fill="#EB996E"/>
<path d="M226.094 235.496C226.094 235.496 216.47 219.894 214.758 218.566C213.046 217.238 197.799 211.658 196.5 212.072C195.201 212.485 176.721 215.629 178.788 217.828C180.854 220.027 193.799 217.636 193.799 217.636L195.54 218.507C195.54 218.507 184.397 220.278 182.05 221.636C179.703 222.994 180.574 225.518 182.685 225.311C184.795 225.105 194.389 223.23 194.965 223.629C195.54 224.027 184.441 226.241 183.245 226.935C181.637 227.894 181.474 230.743 183.511 230.61C184.707 230.522 195.171 227.821 195.171 227.821C192.081 228.963 189.056 230.274 186.109 231.747C184.854 232.942 185.843 234.699 187.585 234.344C188.825 234.079 194.684 231.274 196.338 230.92C196.338 230.92 197.814 231.333 199.29 234.463C199.939 235.939 202.92 245.016 208.367 244.898C213.193 244.795 217.931 248.765 217.931 248.765L226.094 235.496Z" fill="#FFBE9D"/>
<path d="M178.876 217.872C179.921 218.413 181.067 218.73 182.242 218.802C183.503 218.982 184.778 219.037 186.05 218.964C187.526 218.802 189.002 218.595 190.625 218.359L194.079 217.857H193.873C196.452 218.918 199.119 219.752 201.843 220.352C199.374 219.05 196.802 217.954 194.153 217.075H194.064H193.946L190.522 217.533L185.991 218.197C184.763 218.292 183.529 218.292 182.301 218.197C180.205 218.049 178.906 217.739 178.876 217.872Z" fill="#EB996E"/>
<path d="M218.876 233.651C218.249 234.097 217.498 234.337 216.728 234.337C215.959 234.337 215.208 234.097 214.581 233.651C213.267 232.854 212.249 231.643 210.994 230.699C207.245 228.042 201.828 228.677 198.197 225.843C197.695 225.459 197.194 224.809 197.474 224.234C197.754 223.658 198.448 223.643 199.053 223.658L214.271 224.012" fill="#FFBE9D"/>
<path d="M214.271 224.071C213.735 223.938 213.185 223.868 212.633 223.865C211.57 223.865 210.035 223.702 208.205 223.629L201.548 223.363H199.614C199.23 223.29 198.835 223.294 198.452 223.375C198.07 223.456 197.707 223.613 197.385 223.835C197.196 224.025 197.071 224.269 197.026 224.533C196.981 224.798 197.019 225.069 197.135 225.311C197.306 225.699 197.569 226.038 197.902 226.3C198.492 226.758 199.13 227.149 199.806 227.466C202.382 228.403 205.021 229.157 207.703 229.724C208.808 230.059 209.858 230.556 210.817 231.2C211.703 231.806 212.441 232.544 213.193 233.149C213.757 233.691 214.432 234.103 215.171 234.358C215.91 234.613 216.696 234.704 217.474 234.625C218.61 234.418 218.95 233.798 218.95 233.798C218.489 234.046 217.99 234.215 217.474 234.3C216.755 234.3 216.045 234.153 215.385 233.869C214.725 233.585 214.13 233.169 213.636 232.647C212.943 232.042 212.16 231.274 211.275 230.581C210.267 229.881 209.156 229.344 207.983 228.986C205.357 228.385 202.769 227.626 200.234 226.713C199.619 226.426 199.035 226.075 198.492 225.665C198.005 225.267 197.769 224.721 198.035 224.514C198.301 224.308 198.994 224.263 199.644 224.278H201.563H208.234C210.123 224.278 211.658 224.278 212.662 224.278C213.205 224.28 213.746 224.21 214.271 224.071Z" fill="#EB996E"/>
<path d="M301.104 581.219L297.606 619.92L285.99 649.75C285.793 650.258 285.703 650.802 285.725 651.346C285.746 651.891 285.88 652.426 286.116 652.917C286.353 653.408 286.688 653.845 287.1 654.202C287.512 654.558 287.994 654.827 288.514 654.99C289.12 655.181 289.763 655.225 290.39 655.117C291.016 655.009 291.608 654.753 292.115 654.37C298.654 649.396 322.609 630.946 322.713 628.097C322.831 624.806 329.148 587.448 329.148 587.448L301.104 581.219Z" fill="#313950"/>
<g opacity="0.6">
<path d="M288.514 655.004L323.008 625.484L322.831 627.123C322.666 628.538 322.008 629.85 320.971 630.828C318.196 633.425 310.359 640.451 292.233 654.444C291.712 654.845 291.099 655.11 290.45 655.215C289.801 655.321 289.135 655.264 288.514 655.049V655.004Z" fill="white"/>
</g>
<g opacity="0.6">
<path d="M316.499 612.141C315.986 612.44 315.601 612.915 315.416 613.478C315.231 614.041 315.259 614.653 315.495 615.197C315.769 615.706 316.225 616.094 316.772 616.283C317.319 616.472 317.917 616.447 318.447 616.215C318.993 615.904 319.404 615.401 319.6 614.803C319.796 614.206 319.764 613.558 319.51 612.983C319.166 612.463 318.633 612.097 318.025 611.963C317.416 611.828 316.779 611.934 316.248 612.26" fill="white"/>
</g>
<path d="M299.274 639.108C299.038 639.196 298.403 637.071 296.218 635.713C294.869 634.993 293.398 634.533 291.879 634.355C291.879 634.267 292.381 634.016 293.355 633.986C294.562 633.988 295.741 634.342 296.75 635.005C297.769 635.641 298.575 636.565 299.067 637.661C299.377 638.547 299.362 639.108 299.274 639.108Z" fill="#263238"/>
<path d="M295.923 643.994C295.731 644.141 294.624 642.739 292.691 641.942C291.474 641.567 290.237 641.261 288.986 641.027C289.622 640.726 290.321 640.581 291.024 640.604C291.728 640.627 292.415 640.818 293.03 641.16C295.2 642.06 296.145 643.92 295.923 643.994Z" fill="#263238"/>
<path d="M305.148 633.086C303.644 631.802 302.045 630.633 300.366 629.588C297.503 628.038 294.772 627.861 294.801 627.595C296.878 627.287 298.997 627.726 300.779 628.835C302.693 629.69 304.241 631.196 305.148 633.086Z" fill="#263238"/>
<path d="M307.2 621.396C307.067 621.617 305.045 620.481 302.27 620.068C299.495 619.654 297.237 620.067 297.178 619.817C298.836 619.153 300.642 618.95 302.406 619.228C304.17 619.506 305.826 620.255 307.2 621.396Z" fill="#263238"/>
<path d="M308.484 610.075C306.863 609.35 305.149 608.853 303.392 608.599C301.612 608.593 299.84 608.826 298.122 609.293C298.122 609.204 298.536 608.776 299.495 608.363C300.744 607.84 302.102 607.627 303.451 607.743C304.803 607.85 306.111 608.269 307.274 608.968C308.189 609.485 308.587 609.986 308.484 610.075Z" fill="#263238"/>
<path d="M303.746 606.4C303.671 605.905 303.712 605.4 303.864 604.924C304.149 603.601 304.69 602.348 305.458 601.234C305.955 600.373 306.716 599.695 307.628 599.3C307.943 599.205 308.28 599.207 308.593 599.307C308.907 599.407 309.183 599.601 309.384 599.861C309.742 600.394 309.889 601.041 309.798 601.677C309.561 602.964 308.884 604.13 307.882 604.973C306.88 605.816 305.616 606.284 304.307 606.296C303.013 606.28 301.752 605.88 300.685 605.147C299.619 604.414 298.793 603.381 298.314 602.178C298.197 601.874 298.145 601.548 298.163 601.223C298.181 600.897 298.268 600.579 298.418 600.289C298.603 600.016 298.869 599.808 299.179 599.694C299.489 599.581 299.827 599.567 300.145 599.654C301.072 599.965 301.899 600.521 302.536 601.263C303.496 602.218 304.276 603.338 304.838 604.57C305.08 605.002 305.23 605.479 305.281 605.972C304.442 604.399 303.378 602.957 302.122 601.691C301.537 601.074 300.806 600.612 299.997 600.348C299.824 600.296 299.639 600.3 299.468 600.362C299.298 600.423 299.152 600.537 299.052 600.688C298.968 600.883 298.924 601.094 298.924 601.308C298.924 601.521 298.968 601.732 299.052 601.928C299.493 602.954 300.22 603.831 301.147 604.455C302.074 605.078 303.161 605.42 304.277 605.44C305.385 605.429 306.455 605.041 307.313 604.341C308.172 603.641 308.766 602.67 309.001 601.588C309.075 601.15 308.991 600.7 308.764 600.319C308.66 600.17 308.51 600.058 308.338 599.999C308.165 599.941 307.979 599.939 307.805 599.994C307.029 600.316 306.373 600.874 305.931 601.588C304.925 603.051 304.185 604.68 303.746 606.4Z" fill="#263238"/>
<path d="M336.735 603.935L365.709 374.491L356.439 321.148L301.827 324.1L294.993 599.699C294.962 600.693 295.286 601.667 295.909 602.443C296.531 603.22 297.41 603.749 298.388 603.935L330.211 608.85C330.963 608.964 331.731 608.927 332.468 608.741C333.206 608.555 333.899 608.223 334.507 607.765C335.115 607.307 335.625 606.732 336.007 606.075C336.39 605.417 336.637 604.689 336.735 603.935Z" fill="#263238"/>
<path d="M364.867 382.181L417.575 434.343L341.753 452.778L347.14 491.036L449.782 477.073C454.121 476.478 458.295 475.009 462.05 472.753C465.805 470.498 469.063 467.503 471.626 463.951C475.508 458.571 477.639 452.126 477.729 445.492C477.819 438.858 475.863 432.357 472.128 426.874L392.158 309.502L356.439 321.148L364.867 382.181Z" fill="#263238"/>
<path d="M361.959 368.911C362.818 371.019 363.432 373.218 363.79 375.465C364.413 377.653 364.775 379.907 364.867 382.181C364.019 380.07 363.406 377.872 363.037 375.627C362.431 373.435 362.069 371.183 361.959 368.911Z" fill="#455A64"/>
<path d="M354.24 457.56L355.495 457.147L359.185 455.995L373.325 451.7L424.778 436.232L424.645 436.719L361.384 369.339L362.048 369.133C360.793 379.716 359.48 390.771 358.151 402.047C351.627 456.659 345.487 506.135 340.749 541.884C338.388 559.758 336.321 574.208 334.845 584.186C334.004 589.145 333.369 593.042 332.868 595.625C332.602 596.909 332.38 597.883 332.233 598.577C332.085 599.271 331.997 599.581 331.997 599.581C331.997 599.581 331.997 599.226 332.159 598.562C332.321 597.898 332.484 596.879 332.72 595.61C333.251 593.012 333.753 589.13 334.55 584.156C336.026 574.164 337.974 559.714 340.248 541.825C344.867 506.076 350.904 456.615 357.428 401.974C358.771 390.697 360.085 379.642 361.34 369.059L361.428 368.247L361.989 368.837L425.088 436.335L425.413 436.689L424.955 436.822L373.428 452.054L359.229 456.202L355.524 457.265C354.727 457.56 354.24 457.56 354.24 457.56Z" fill="#455A64"/>
<path d="M337.222 599.61C337.015 599.61 343.037 550.902 350.668 490.844C358.299 430.785 364.661 382.151 364.867 382.181C365.074 382.21 359.067 430.889 351.436 490.947C343.805 551.006 337.443 599.625 337.222 599.61Z" fill="#455A64"/>
<path d="M356.321 344.631C356.85 345.771 357.255 346.963 357.531 348.188C358.181 350.402 359.007 353.517 359.745 356.97C360.483 360.424 361.059 363.583 361.399 365.826C361.658 367.054 361.782 368.306 361.768 369.561C361.348 368.378 361.047 367.157 360.867 365.915C360.321 363.391 359.686 360.395 358.993 357.059C358.299 353.723 357.517 350.771 357.015 348.203C356.662 347.039 356.429 345.842 356.321 344.631Z" fill="#455A64"/>
<path d="M359.701 340.129C359.701 340.129 360.439 339.406 361.841 339.893C362.248 340.042 362.609 340.295 362.889 340.626C363.168 340.958 363.357 341.356 363.435 341.782C363.538 342.316 363.478 342.868 363.265 343.367C363.053 343.867 362.695 344.291 362.24 344.587C361.773 344.837 361.243 344.941 360.716 344.886C360.19 344.83 359.692 344.618 359.288 344.277C358.954 343.991 358.712 343.613 358.592 343.191C358.471 342.768 358.477 342.32 358.609 341.901C358.756 341.351 359.111 340.88 359.598 340.587C359.937 340.395 360.159 340.395 360.173 340.439C359.666 340.839 359.303 341.393 359.14 342.019C359.069 342.332 359.088 342.659 359.195 342.962C359.302 343.266 359.493 343.532 359.745 343.731C360.052 343.971 360.421 344.117 360.809 344.151C361.197 344.185 361.586 344.106 361.93 343.923C362.251 343.701 362.504 343.395 362.661 343.038C362.817 342.68 362.871 342.287 362.816 341.901C362.762 341.582 362.632 341.281 362.437 341.024C362.241 340.767 361.986 340.561 361.694 340.425C361.066 340.155 360.38 340.053 359.701 340.129Z" fill="#455A64"/>
<path d="M433.103 443.272C432.94 443.435 429.974 440.704 425.723 438.254C421.472 435.804 417.634 434.534 417.708 434.313C420.702 434.837 423.561 435.951 426.121 437.59C428.797 439.011 431.168 440.941 433.103 443.272Z" fill="#455A64"/>
<path d="M319.185 164.736L288.927 179.349L301.975 270.388L296.853 311.244C296.525 313.837 296.839 316.47 297.769 318.913C298.698 321.355 300.213 323.532 302.181 325.251L351.052 324.292L385.236 305.532L400.955 302.875L394.52 271.776L397.472 227.658L433.236 246.743C435.99 248.218 439.199 248.603 442.224 247.82L507.744 230.802L504.334 205.533L444.97 212.249L399.76 172.308L366.107 164.736L360.144 154.832H325.709L323.244 156.633C322.094 157.498 321.226 158.684 320.75 160.043L319.185 164.736Z" fill="white"/>
<path d="M288.927 179.349C282.638 183.675 277.871 189.872 275.304 197.061C271.85 207.806 264.042 251.245 264.042 251.245L229.666 229.961L209.858 250.787L255.614 291.2C259.05 294.232 263.303 296.183 267.842 296.81C272.381 297.438 277.004 296.713 281.134 294.728C284.601 293.055 287.601 290.55 289.864 287.436C292.128 284.323 293.586 280.697 294.108 276.883L299.731 235.688L288.927 179.349Z" fill="white"/>
<path d="M392.158 309.502L390.033 306.373L367.406 310.55L363.244 320.189L392.158 309.502Z" fill="#FFBE9D"/>
<path d="M302.181 325.251C322.403 333.384 343.997 330.388 363.244 320.189C369.059 317.104 374.446 313.281 380.291 310.24C386.136 307.2 392.601 304.971 399.169 305.429C405.738 305.886 412.35 309.502 414.977 315.539C417.605 321.576 414.977 329.783 408.793 332.041L410.977 333.989C420.055 329.768 424.365 317.547 419.937 308.558C416.542 301.68 409.398 297.562 404.173 291.938C396.483 283.672 395.686 267.673 395.627 255.215" fill="white"/>
<path d="M346.535 182.345C346.044 182.384 345.55 182.384 345.059 182.345C343.705 182.453 342.434 183.039 341.473 183.998C340.186 185.636 339.55 187.691 339.687 189.769C339.699 192.437 340.256 195.074 341.325 197.518L341.901 198.787L340.794 197.961C338.062 195.934 335.509 193.678 333.163 191.216C328.141 186.04 324.162 179.946 321.443 173.267C320.644 171.245 320.008 169.162 319.539 167.039C319.366 166.256 319.252 165.462 319.2 164.662C319.937 167.517 320.854 170.322 321.945 173.061C324.787 179.599 328.787 185.569 333.753 190.684C336.069 193.11 338.577 195.346 341.251 197.371L340.705 197.828C340.117 196.503 339.695 195.11 339.45 193.681C339.196 192.393 339.082 191.081 339.111 189.769C339.004 187.551 339.748 185.376 341.192 183.688C342.238 182.686 343.626 182.121 345.074 182.109C345.569 182.131 346.059 182.21 346.535 182.345Z" fill="#263238"/>
<path d="M348.336 182.345C350.83 181.268 354.52 182.847 356.306 184.884C357.487 186.242 358.151 188.101 359.701 188.987C361.251 189.873 366.181 190.566 367.613 189.474C367.613 189.474 368.483 185.267 368.956 183.57C370.599 176.937 371.719 170.186 372.306 163.378C367.554 161.061 368.867 158.021 360.292 158.611C361.529 162.526 361.637 166.711 360.602 170.685" fill="white"/>
<path d="M360.616 170.64C360.528 170.64 360.926 169.504 361.103 167.408C361.3 164.449 360.939 161.48 360.041 158.655L359.937 158.301H360.292C362.413 158.024 364.569 158.215 366.609 158.862C367.718 159.371 368.72 160.088 369.561 160.972C370.433 161.801 371.429 162.488 372.513 163.009L372.749 163.127V163.378C372.365 166.965 371.937 170.876 371.273 174.921C370.83 177.563 370.299 180.116 369.679 182.551C369.059 184.987 368.572 187.334 368.055 189.548V189.695L367.967 189.769C367.195 190.207 366.314 190.417 365.428 190.374C364.638 190.385 363.849 190.336 363.066 190.227C362.317 190.12 361.577 189.957 360.852 189.74C360.135 189.546 359.473 189.187 358.919 188.692C358.06 187.726 357.298 186.678 356.646 185.563C356.016 184.712 355.223 183.994 354.314 183.452C353.044 182.631 351.574 182.172 350.063 182.123C349.525 182.152 348.992 182.231 348.469 182.36C348.953 182.074 349.501 181.917 350.063 181.902C351.622 181.86 353.16 182.27 354.491 183.083C355.473 183.631 356.332 184.374 357.015 185.267C357.671 186.322 358.427 187.31 359.273 188.219C360.399 189.02 361.731 189.481 363.111 189.548C363.859 189.647 364.614 189.686 365.369 189.666C366.108 189.69 366.84 189.522 367.494 189.179L367.362 189.385C367.863 187.157 368.336 184.765 368.941 182.345C369.546 179.924 370.077 177.385 370.506 174.758C371.184 170.743 371.627 166.847 371.982 163.275L372.188 163.644C371.02 163.09 369.944 162.358 369 161.474C368.239 160.636 367.321 159.954 366.299 159.467C364.358 158.839 362.305 158.627 360.277 158.847L360.528 158.478C361.395 161.38 361.681 164.425 361.369 167.437C361.262 168.251 361.094 169.055 360.867 169.843C360.816 170.118 360.732 170.386 360.616 170.64Z" fill="#263238"/>
<path d="M411.036 309.96C411.036 309.96 411.036 309.384 411.036 308.277C410.905 306.663 410.4 305.102 409.56 303.716C408.214 301.545 406.347 299.744 404.129 298.477C401.137 296.886 397.83 295.978 394.446 295.82C390.697 295.48 386.535 295.687 382.063 295.377C377.284 295.114 372.575 294.119 368.1 292.425C363.111 290.514 358.752 287.254 355.509 283.008C353.828 280.741 352.6 278.17 351.893 275.436C351.189 272.625 350.91 269.725 351.067 266.831C351.288 260.927 352.631 255.451 353.443 250.079C354.254 244.918 354.747 239.713 354.919 234.492C355.352 219.636 353.22 204.816 348.616 190.684C347.997 188.662 347.421 187.127 347.052 186.079C346.875 185.577 346.742 185.179 346.639 184.869C346.583 184.736 346.543 184.598 346.521 184.456C346.521 184.456 346.594 184.574 346.712 184.839C346.83 185.105 346.993 185.533 347.199 186.02C347.613 187.053 348.233 188.574 348.912 190.596C350.869 196.261 352.408 202.063 353.517 207.953C355.14 216.712 355.847 225.616 355.627 234.521C355.463 239.777 354.97 245.017 354.151 250.211C353.354 255.614 352.026 261.134 351.805 266.875C351.356 272.449 352.87 278.005 356.085 282.58C359.236 286.723 363.478 289.907 368.336 291.776C372.738 293.457 377.373 294.453 382.077 294.728C386.505 295.052 390.668 294.89 394.476 295.274C397.966 295.47 401.367 296.454 404.424 298.152C406.68 299.478 408.559 301.357 409.885 303.613C410.715 305.043 411.181 306.655 411.243 308.307C411.264 308.736 411.239 309.167 411.169 309.591C411.081 309.871 411.051 309.96 411.036 309.96Z" fill="#263238"/>
<path d="M388.955 283.082C388.446 283.724 387.878 284.317 387.258 284.853C386.697 285.399 385.989 286.064 385.133 286.787C384.277 287.51 383.332 288.381 382.181 289.222C379.578 291.272 376.852 293.16 374.018 294.875C367.056 299.073 359.518 302.231 351.642 304.248C348.432 305.066 345.173 305.682 341.886 306.093C340.484 306.314 339.214 306.388 338.093 306.477C336.971 306.565 336.011 306.624 335.214 306.639C334.399 306.709 333.579 306.709 332.764 306.639C333.568 306.487 334.382 306.393 335.2 306.359C335.982 306.359 336.941 306.226 338.048 306.078C339.155 305.931 340.425 305.842 341.812 305.591C345.063 305.096 348.286 304.425 351.465 303.584C355.346 302.53 359.157 301.234 362.875 299.702C366.579 298.129 370.178 296.319 373.649 294.285C376.481 292.613 379.22 290.79 381.856 288.824C382.992 288.012 383.967 287.185 384.808 286.492C385.649 285.798 386.417 285.178 387.007 284.661C387.618 284.089 388.269 283.561 388.955 283.082Z" fill="#263238"/>
<path d="M379.45 234.684C379.445 234.959 379.401 235.233 379.317 235.496L378.801 237.798C378.545 239.016 378.22 240.219 377.826 241.4C377.384 242.787 376.956 244.352 376.262 246.093C375.922 246.949 375.583 247.85 375.229 248.78C374.874 249.71 374.387 250.639 373.959 251.628C373.103 253.621 371.982 255.628 370.845 257.768C365.666 266.976 358.819 275.14 350.653 281.842C348.735 283.318 346.949 284.794 345.133 285.975C344.247 286.58 343.406 287.2 342.55 287.731L340.085 289.207C338.609 290.196 337.03 290.905 335.731 291.584C334.638 292.169 333.514 292.696 332.366 293.163L330.181 294.078C329.929 294.19 329.667 294.279 329.399 294.344C329.623 294.179 329.866 294.04 330.122 293.93L332.233 292.897C333.163 292.469 334.284 291.923 335.539 291.2C336.794 290.477 338.284 289.724 339.805 288.75L342.225 287.274C343.067 286.742 343.893 286.108 344.779 285.503C346.55 284.307 348.306 282.846 350.196 281.34C354.184 277.966 357.891 274.274 361.281 270.3C364.599 266.269 367.59 261.98 370.225 257.473C371.376 255.348 372.513 253.37 373.369 251.407C373.827 250.433 374.299 249.503 374.683 248.588L375.745 245.931C376.483 244.263 376.941 242.684 377.413 241.311C377.886 239.938 378.255 238.743 378.52 237.754L379.17 235.496C379.223 235.213 379.318 234.939 379.45 234.684Z" fill="#263238"/>
<path d="M317.207 332.661C316.187 332.171 315.27 331.489 314.506 330.653C312.552 328.746 311 326.466 309.943 323.949C308.886 321.431 308.345 318.727 308.351 315.997C308.295 314.872 308.445 313.747 308.794 312.676C308.927 312.676 308.794 313.96 308.897 315.982C309.194 321.299 311.315 326.351 314.905 330.284C316.277 331.775 317.34 332.558 317.207 332.661Z" fill="#263238"/>
<path d="M316.13 321.163C316.351 321.163 315.938 323.126 316.13 325.443C316.322 327.76 317.045 329.576 316.838 329.679C316.009 328.436 315.508 327.003 315.381 325.514C315.255 324.025 315.507 322.528 316.115 321.163H316.13Z" fill="#263238"/>
<path d="M301.562 268.322C301.468 268.101 301.408 267.867 301.384 267.628C301.281 267.082 301.163 266.418 301.015 265.621C300.705 263.761 300.277 261.193 299.776 258.241C298.742 251.997 297.266 243.378 295.495 233.887C293.724 224.396 291.997 215.806 290.772 209.592C290.152 206.64 289.635 204.101 289.296 202.212C289.134 201.415 289.016 200.736 288.912 200.219C288.843 199.985 288.813 199.74 288.824 199.496C288.931 199.711 289.011 199.94 289.06 200.175C289.207 200.721 289.37 201.371 289.576 202.153C290.019 203.865 290.624 206.359 291.333 209.444C292.809 215.614 294.565 224.204 296.351 233.68C298.137 243.156 299.495 251.835 300.396 258.093C300.853 261.237 301.193 263.776 301.399 265.473C301.488 266.285 301.562 266.949 301.621 267.51C301.648 267.782 301.628 268.057 301.562 268.322Z" fill="#263238"/>
<path d="M396.026 268.322C395.979 268.083 395.955 267.841 395.952 267.599C395.952 267.023 395.952 266.329 395.952 265.503C395.952 263.672 395.952 261.075 395.952 257.783C395.952 251.274 396.306 242.285 397.059 232.381C397.811 222.477 398.8 213.533 399.568 207.068C399.966 203.924 400.291 201.341 400.542 199.422C400.66 198.596 400.763 197.902 400.852 197.341C400.876 197.1 400.926 196.863 401 196.633C401.039 196.877 401.039 197.126 401 197.371C401 197.931 400.896 198.625 400.837 199.452C400.66 201.385 400.409 203.968 400.114 207.127C399.479 213.592 398.638 222.536 397.826 232.44C397.014 242.344 396.704 251.304 396.498 257.798C396.409 260.957 396.335 263.554 396.276 265.503L396.203 267.599C396.182 267.848 396.122 268.092 396.026 268.322Z" fill="#263238"/>
<path d="M278.005 272.13C277.754 272.233 275.805 266.861 272.101 261.016C268.396 255.171 263.909 251.496 264.101 251.304C265.189 251.945 266.183 252.735 267.053 253.651C269.223 255.742 271.154 258.069 272.809 260.588C274.434 263.119 275.818 265.798 276.942 268.588C277.442 269.72 277.799 270.91 278.005 272.13Z" fill="#263238"/>
<path d="M280.543 265.68C279.934 264.73 279.382 263.744 278.89 262.728C277.539 260.482 275.812 258.484 273.783 256.824C271.712 255.181 269.446 253.798 267.038 252.706C266.014 252.298 265.026 251.805 264.086 251.23C265.194 251.388 266.272 251.707 267.289 252.175C269.828 253.14 272.199 254.5 274.315 256.204C276.428 257.932 278.161 260.078 279.407 262.507C279.969 263.489 280.354 264.564 280.543 265.68Z" fill="#263238"/>
<g opacity="0.3">
<path d="M336.779 307.436C335.303 308.041 335.495 310.285 336.676 311.259C337.984 312.11 339.562 312.446 341.104 312.203C349.784 311.716 358.237 309.249 365.817 304.992C373.397 300.735 379.903 294.801 384.837 287.643C371.553 298.58 353.989 302.728 337.148 306.536" fill="#313950"/>
</g>
<g opacity="0.3">
<path d="M334.137 292.381C332.661 290.152 333.665 287.023 335.613 285.134C337.653 283.423 339.956 282.052 342.432 281.075C351.189 276.726 358.206 269.527 362.328 260.662C365.015 254.846 367.037 247.717 372.985 245.326C371.328 255.59 366.926 265.215 360.246 273.181C353.566 281.148 344.855 287.16 335.037 290.58" fill="#313950"/>
</g>
<g opacity="0.3">
<path d="M292.248 215.85C293.736 232.006 292.59 248.297 288.853 264.086C287.878 267.392 287.327 270.81 287.215 274.255C287.336 276.097 287.834 277.895 288.677 279.537C289.519 281.18 290.69 282.632 292.115 283.805C294.565 278.152 294.61 272.706 295.643 266.624C296.573 261.149 298.137 248.352 298.137 248.16C298.359 236.972 295.717 227.378 291.407 217.297" fill="#313950"/>
</g>
<g opacity="0.3">
<path d="M320.056 167.393C322.267 179.313 328.102 190.261 336.764 198.743C340.026 201.917 344.144 204.854 348.646 204.647C346.028 199.25 345.225 193.151 346.358 187.26C350.19 189.85 354.263 192.065 358.52 193.872C362.81 195.662 367.525 196.174 372.1 195.348L374.904 170.95C375.106 170.031 375.018 169.072 374.653 168.205C374.55 168 374.403 167.82 374.223 167.677C374.042 167.534 373.833 167.433 373.61 167.38C373.386 167.326 373.154 167.322 372.929 167.368C372.704 167.413 372.491 167.508 372.306 167.644C372.065 167.959 371.908 168.329 371.849 168.721C370.196 175.88 369.266 182.301 367.598 189.474C366.402 190.655 362.727 190.168 360.306 189.267C358.196 188.485 357.354 186.743 355.996 184.987C354.638 183.23 354.845 183.511 352.779 182.655C348.971 181.046 341.664 182.33 340.07 185.74C338.476 189.149 339.687 193.651 340.749 197.016C330.11 190.078 322.434 179.429 319.214 167.142" fill="#313950"/>
</g>
<g opacity="0.3">
<path d="M400.542 202.02C400.247 202.61 409.738 234.61 409.738 234.61L397.443 227.599L400.542 202.02Z" fill="#313950"/>
</g>
<path d="M324.144 109.224V160.161C324.156 163.078 325.202 165.897 327.096 168.116C329.972 171.535 333.442 174.406 337.34 176.588L347.672 182.389L356.174 174.788C357.409 173.683 358.409 172.342 359.117 170.844C359.824 169.345 360.224 167.72 360.292 166.065C360.439 162.345 360.424 158.685 360.424 158.685C360.424 158.685 374.83 157.651 376.188 143.452C376.823 136.751 377.029 123.054 377.059 110.434C377.118 103.439 374.521 96.6823 369.793 91.5268C365.065 86.3714 358.557 83.2012 351.583 82.6558H351.185C347.65 82.5708 344.135 83.1964 340.847 84.4954C337.559 85.7945 334.565 87.7407 332.043 90.2184C329.521 92.6962 327.523 95.6552 326.166 98.9199C324.809 102.185 324.122 105.688 324.144 109.224Z" fill="#FFBE9D"/>
<path d="M360.306 158.567C353.743 158.003 347.478 155.57 342.255 151.556C342.255 151.556 345.974 162.33 360.277 162.227L360.306 158.567Z" fill="#EB996E"/>
<path d="M372.734 119.453C372.696 119.983 372.453 120.477 372.056 120.83C371.659 121.183 371.139 121.366 370.609 121.342C370.349 121.34 370.092 121.286 369.854 121.184C369.615 121.081 369.4 120.932 369.219 120.745C369.039 120.558 368.898 120.337 368.805 120.095C368.711 119.853 368.667 119.594 368.675 119.335C368.713 118.805 368.957 118.311 369.354 117.958C369.751 117.605 370.27 117.421 370.801 117.445C371.061 117.445 371.319 117.497 371.558 117.599C371.798 117.701 372.014 117.85 372.195 118.037C372.375 118.225 372.516 118.447 372.609 118.69C372.701 118.933 372.744 119.193 372.734 119.453Z" fill="#263238"/>
<path d="M373.31 116.058C373.044 116.294 371.598 115.025 369.413 114.847C367.229 114.67 365.531 115.644 365.325 115.349C365.118 115.054 365.502 114.774 366.255 114.316C367.251 113.742 368.401 113.49 369.546 113.593C370.685 113.68 371.766 114.13 372.631 114.877C373.266 115.453 373.428 115.94 373.31 116.058Z" fill="#263238"/>
<path d="M352.129 118.419C352.091 118.949 351.848 119.443 351.451 119.796C351.054 120.149 350.535 120.333 350.004 120.309C349.744 120.307 349.486 120.253 349.247 120.151C349.007 120.048 348.791 119.9 348.609 119.713C348.428 119.526 348.286 119.305 348.191 119.063C348.096 118.82 348.05 118.562 348.056 118.301C348.097 117.773 348.342 117.281 348.738 116.929C349.134 116.576 349.651 116.391 350.181 116.412C350.442 116.412 350.7 116.464 350.94 116.566C351.181 116.667 351.398 116.816 351.58 117.003C351.762 117.191 351.904 117.412 351.998 117.656C352.093 117.899 352.137 118.159 352.129 118.419Z" fill="#263238"/>
<path d="M351.805 114.685C351.524 114.921 350.078 113.667 347.893 113.49C345.709 113.312 344.026 114.272 343.805 113.977C343.583 113.681 343.997 113.401 344.735 112.943C345.733 112.357 346.886 112.089 348.041 112.176C349.178 112.269 350.258 112.719 351.126 113.46C351.746 114.08 351.937 114.567 351.805 114.685Z" fill="#263238"/>
<path d="M358.388 131.541C359.568 131.269 360.778 131.15 361.989 131.187C362.55 131.187 363.096 131.187 363.214 130.744C363.31 130.172 363.228 129.585 362.978 129.061C362.565 127.585 362.137 126.198 361.679 124.633C359.893 118.39 358.727 113.283 358.904 113.209C359.081 113.135 360.808 118.139 362.594 124.382C363.022 125.858 363.435 127.334 363.819 128.81C364.12 129.511 364.161 130.296 363.937 131.024C363.835 131.211 363.694 131.374 363.524 131.502C363.353 131.629 363.157 131.718 362.948 131.762C362.63 131.804 362.307 131.804 361.989 131.762C360.784 131.832 359.575 131.757 358.388 131.541Z" fill="#263238"/>
<path d="M351.834 132.515C352.188 132.515 351.996 134.906 353.886 136.751C355.775 138.596 358.314 138.552 358.314 138.877C358.314 139.202 357.723 139.305 356.646 139.246C355.254 139.15 353.942 138.564 352.941 137.593C351.979 136.66 351.417 135.39 351.377 134.05C351.362 133.061 351.672 132.486 351.834 132.515Z" fill="#263238"/>
<path d="M353.074 106.168C352.808 106.744 350.653 106.287 348.07 106.375C345.487 106.464 343.347 106.995 343.052 106.375C342.919 106.109 343.318 105.578 344.203 105.076C345.377 104.461 346.677 104.123 348.002 104.087C349.327 104.051 350.643 104.319 351.849 104.87C352.764 105.386 353.192 105.888 353.074 106.168Z" fill="#263238"/>
<path d="M373.029 109.667C372.601 110.124 371.14 109.49 369.339 109.312C367.539 109.135 365.974 109.312 365.664 108.825C365.517 108.56 365.812 108.073 366.52 107.659C367.462 107.179 368.525 106.987 369.575 107.108C370.625 107.229 371.616 107.657 372.424 108.338C373.059 108.899 373.221 109.431 373.029 109.667Z" fill="#263238"/>
<path d="M340.867 94.8623H340.779C338.346 96.4815 336.64 98.9864 336.026 101.844V102.139C335.126 106.139 334.89 110.272 333.96 114.272C333.03 118.272 333.207 121.327 329.192 122.227C328.143 122.459 327.048 122.368 326.052 121.964C325.056 121.561 324.206 120.866 323.613 119.969C323.322 119.384 323.195 118.731 323.244 118.08C323.244 108.22 321.325 104.397 322.181 94.1686C322.292 92.7971 322.727 91.4716 323.451 90.3013C324.174 89.1311 325.166 88.1497 326.344 87.438C328.617 86.0801 331.362 84.6927 333.724 85.962C336.085 87.2314 338.742 91.9989 340.425 94.0505" fill="#263238"/>
<path d="M328.395 115.999C328.174 115.881 318.875 112.309 318.373 122.05C317.871 131.792 327.775 130.286 327.805 130.006C327.834 129.726 328.395 115.999 328.395 115.999Z" fill="#FFBE9D"/>
<path d="M325.015 126.154C325.015 126.154 324.838 126.272 324.543 126.39C324.342 126.473 324.126 126.517 323.908 126.517C323.69 126.517 323.475 126.473 323.274 126.39C322.66 125.959 322.174 125.371 321.865 124.689C321.556 124.006 321.436 123.253 321.517 122.508C321.532 121.67 321.739 120.847 322.122 120.102C322.229 119.802 322.407 119.532 322.641 119.316C322.875 119.1 323.158 118.944 323.465 118.862C323.662 118.823 323.867 118.853 324.045 118.947C324.222 119.041 324.362 119.194 324.44 119.379C324.558 119.659 324.44 119.851 324.528 119.866C324.617 119.881 324.75 119.718 324.69 119.32C324.653 119.072 324.527 118.847 324.336 118.685C324.212 118.576 324.067 118.494 323.909 118.443C323.752 118.392 323.586 118.374 323.421 118.39C323.009 118.451 322.62 118.62 322.294 118.879C321.967 119.138 321.715 119.478 321.561 119.866C321.11 120.691 320.862 121.612 320.838 122.552C320.747 123.417 320.912 124.29 321.314 125.062C321.715 125.834 322.335 126.47 323.096 126.892C323.354 126.978 323.628 127.007 323.898 126.977C324.169 126.946 324.429 126.857 324.661 126.715C324.986 126.39 325.045 126.183 325.015 126.154Z" fill="#EB996E"/>
<path d="M333.163 87.4381C331.082 83.3496 338.107 78.3164 343.022 77.1947C347.937 76.0729 354.078 78.9511 358.727 80.929C361.679 82.1688 364.542 83.881 367.716 83.881C369.852 83.8423 371.97 83.4891 374.004 82.833C376.044 82.1693 378.198 81.9234 380.336 82.1098C381.417 82.2207 382.447 82.6281 383.311 83.287C384.176 83.9459 384.842 84.8308 385.236 85.844C385.398 86.3508 385.448 86.8866 385.382 87.4146C385.317 87.9425 385.138 88.45 384.857 88.9019C384.576 89.3538 384.201 89.7394 383.757 90.032C383.312 90.3246 382.81 90.5173 382.284 90.5968C382.992 90.28 383.767 90.1399 384.542 90.1885C385.316 90.237 386.068 90.4728 386.731 90.8755C387.394 91.2782 387.95 91.8358 388.351 92.5006C388.751 93.1654 388.984 93.9174 389.03 94.6921C389.076 95.4668 388.934 96.2411 388.614 96.9485C388.295 97.6559 387.809 98.2754 387.198 98.7537C386.587 99.232 385.869 99.5549 385.106 99.6946C384.342 99.8344 383.556 99.7869 382.815 99.5561C384.291 98.6114 386.269 100.515 385.944 102.228C385.688 103.06 385.22 103.812 384.587 104.41C383.953 105.008 383.175 105.43 382.328 105.637C378.122 107.113 373.472 106.124 369.369 104.368C365.266 102.611 361.576 100.087 357.561 98.2277C353.546 96.3679 346.786 93.0617 342.491 94.1982C339.318 95.0248 336.882 98.5524 335.214 97.5782C334.436 97.0782 333.786 96.4023 333.317 95.605C332.848 94.8076 332.572 93.9111 332.513 92.9879C332.428 91.1247 332.647 89.2602 333.163 87.4676" fill="#263238"/>
<path d="M383.509 90.4345C383.435 90.4345 382.948 91.0987 381.812 92.1467C380.189 93.6104 378.233 94.6544 376.114 95.1872C373.002 96.0264 369.685 95.6131 366.874 94.0359C363.701 92.2942 361.118 89.0913 358.092 86.0212C355.304 82.9494 351.642 80.8063 347.598 79.8811C345.918 79.5304 344.18 79.5689 342.517 79.9936C340.854 80.4182 339.31 81.2179 338.004 82.3312C337.161 83.1095 336.485 84.0514 336.018 85.0995C335.551 86.1476 335.303 87.2798 335.288 88.4271C335.287 89.0421 335.376 89.6539 335.554 90.2426C335.609 90.4528 335.699 90.6524 335.819 90.833C335.7 90.0417 335.646 89.242 335.657 88.4419C335.825 86.2782 336.831 84.2657 338.461 82.8331C339.703 81.8413 341.15 81.1397 342.698 80.7796C344.246 80.4195 345.854 80.41 347.406 80.7519C351.249 81.6731 354.726 83.7304 357.384 86.6559C360.336 89.6079 363.007 92.9289 366.417 94.7592C368.933 96.0846 371.808 96.5677 374.619 96.1373C377.43 95.7068 380.029 94.3857 382.033 92.3681C382.46 91.9114 382.845 91.4175 383.184 90.8921C383.435 90.6411 383.539 90.4493 383.509 90.4345Z" fill="#455A64"/>
<path d="M325.96 115.379C325.96 115.379 326.403 115.143 326.831 114.405C327.408 113.338 327.679 112.132 327.613 110.921C327.613 107.763 325.163 104.176 325.163 99.8217C325.087 97.8023 325.633 95.8083 326.727 94.1096C327.675 92.7611 329.047 91.7687 330.624 91.2904C331.682 90.9479 332.812 90.8869 333.901 91.1133C334.683 91.3052 335.082 91.5266 335.126 91.4528C335.17 91.379 334.801 91.0691 334.019 90.7591C332.869 90.3571 331.624 90.3108 330.447 90.6263C328.673 91.0671 327.108 92.1106 326.019 93.5783C324.763 95.4116 324.131 97.6011 324.218 99.8217C324.293 101.978 324.758 104.104 325.591 106.095C326.256 107.641 326.713 109.269 326.949 110.936C327.082 112.483 326.736 114.034 325.96 115.379Z" fill="#455A64"/>
<path d="M366.048 396.867H363.849L357.413 396.955C351.746 397.044 343.391 397.265 332.646 397.782C321.901 398.298 308.764 399.258 293.576 401.029C286.005 401.944 277.887 402.977 269.34 404.394C260.794 405.811 251.791 407.464 242.418 409.605C233.046 411.745 223.23 414.284 213.312 417.545C202.919 420.839 192.822 425.001 183.127 429.988C178.043 432.641 173.202 435.738 168.663 439.243C163.934 442.767 159.925 447.167 156.855 452.202C156.486 452.851 156.102 453.486 155.762 454.15L154.936 456.231L154.508 457.279C154.39 457.634 154.331 458.003 154.227 458.372L153.711 460.556C153.23 463.56 153.381 466.632 154.153 469.574C155.629 475.552 159.541 480.703 164.072 485.043C173.312 493.737 185.105 499.803 197.341 504.851C209.945 509.893 222.905 513.993 236.116 517.116C263.924 523.629 292.23 527.796 320.735 529.574C349.235 531.499 377.828 531.612 406.343 529.913C432.913 528.423 459.337 524.969 485.397 519.581C497.513 517.026 509.478 513.798 521.235 509.914C532.348 506.322 543.081 501.645 553.279 495.951C558.07 493.176 562.592 489.959 566.784 486.342C570.859 482.901 574.184 478.661 576.555 473.884L577.293 472.084C577.557 471.494 577.764 470.882 577.913 470.253L578.356 468.394C578.43 468.084 578.533 467.774 578.577 467.464V466.504C578.888 464.032 578.697 461.522 578.016 459.124C577.297 456.77 576.248 454.529 574.902 452.468C573.549 450.459 572.018 448.577 570.326 446.844C567.035 443.532 563.415 440.565 559.522 437.988C555.844 435.488 552.019 433.211 548.068 431.169C540.842 427.394 533.389 424.072 525.751 421.221C513.506 416.657 501.008 412.804 488.32 409.678C477.885 407.081 469.693 405.427 464.128 404.365C461.353 403.819 459.213 403.464 457.796 403.184L455.626 402.771C455.626 402.771 458.578 403.199 464.158 404.247C469.737 405.295 477.929 406.859 488.394 409.427C501.11 412.493 513.633 416.308 525.899 420.852C533.565 423.686 541.048 426.993 548.305 430.756C552.273 432.806 556.117 435.088 559.817 437.59C563.748 440.198 567.403 443.2 570.725 446.549C572.435 448.302 573.986 450.204 575.36 452.231C576.755 454.335 577.843 456.626 578.592 459.036C579.305 461.528 579.506 464.139 579.182 466.711L579.109 467.685C579.109 468.01 578.961 468.32 578.887 468.645L578.43 470.549C578.279 471.192 578.066 471.82 577.795 472.423L577.057 474.268C574.653 479.12 571.282 483.43 567.153 486.932C562.933 490.591 558.377 493.843 553.544 496.644C543.326 502.371 532.568 507.077 521.427 510.696C509.647 514.605 497.658 517.853 485.515 520.423C459.421 525.817 432.963 529.271 406.358 530.755C377.809 532.467 349.181 532.358 320.646 530.43C292.095 528.645 263.745 524.463 235.894 517.928C222.646 514.802 209.65 510.687 197.016 505.618C184.751 500.511 172.899 494.445 163.541 485.648C158.95 481.22 154.921 475.995 153.43 469.825C152.643 466.794 152.492 463.633 152.987 460.541L153.534 458.283C153.622 457.899 153.696 457.53 153.814 457.161L154.242 456.084L155.113 453.958C155.452 453.279 155.851 452.615 156.22 451.951C159.352 446.843 163.436 442.383 168.249 438.815C172.83 435.296 177.71 432.185 182.832 429.516C192.559 424.521 202.691 420.358 213.12 417.073C223.127 413.826 232.898 411.287 242.285 409.162C251.673 407.036 260.706 405.354 269.267 404.011C277.827 402.667 285.945 401.575 293.532 400.69C308.735 398.992 321.886 398.092 332.631 397.575C343.377 397.059 351.746 396.926 357.413 396.881H366.048V396.867Z" fill="#313950"/>
<path d="M245.429 285.03C245.429 285.03 244.588 285.222 242.95 285.547C241.311 285.872 238.861 286.344 235.658 287.023C229.252 288.351 219.821 290.403 207.85 293.68C193.295 297.571 179.071 302.61 165.312 308.75C161.312 310.58 157.209 312.602 153.12 314.919C148.882 317.279 144.795 319.901 140.884 322.772C136.746 325.782 132.958 329.248 129.593 333.104C126.007 337.146 123.388 341.951 121.932 347.155C120.51 352.645 120.941 358.451 123.157 363.672C125.527 369.099 129.006 373.971 133.371 377.974C142.109 386.343 153.194 392.734 164.987 398.151C188.766 408.955 215.909 416.202 244.691 421.605C274.926 427.075 305.503 430.448 336.203 431.7C369.172 433.183 402.2 432.596 435.095 429.944C468.837 427.125 501.678 422.165 532.585 414.047C547.77 410.171 562.617 405.077 576.983 398.815C583.873 395.767 590.528 392.215 596.894 388.188C603.188 384.278 608.881 379.475 613.795 373.93C618.503 368.424 621.972 361.679 622.178 354.565C622.208 353.683 622.178 352.8 622.09 351.923C622.056 351.046 621.962 350.173 621.809 349.31L621.234 346.742C621.011 345.897 620.73 345.068 620.392 344.262C619.131 341.027 617.428 337.982 615.33 335.214C611.042 329.894 605.994 325.234 600.348 321.384C594.886 317.634 589.159 314.284 583.212 311.362C571.886 305.87 560.151 301.265 548.113 297.591C536.541 293.975 525.264 291.097 514.43 288.735C480.107 281.496 445.252 277.053 410.21 275.451C397.812 274.816 388.158 274.787 381.62 274.624L374.24 274.462L371.716 274.374C371.716 274.374 372.572 274.374 374.24 274.374L381.62 274.462C388.158 274.58 397.856 274.551 410.225 275.156C445.298 276.649 480.19 281.018 514.548 288.218C525.397 290.61 536.688 293.458 548.29 297.074C560.366 300.743 572.136 305.352 583.492 310.86C589.474 313.751 595.236 317.076 600.732 320.809C606.431 324.692 611.528 329.392 615.861 334.757C618.005 337.576 619.744 340.681 621.027 343.982C621.378 344.804 621.665 345.653 621.883 346.52L622.488 349.148C622.649 350.035 622.743 350.933 622.769 351.834C622.869 352.731 622.904 353.633 622.872 354.535C622.727 358.194 621.854 361.786 620.304 365.103C618.778 368.444 616.79 371.555 614.4 374.343C609.444 379.95 603.696 384.803 597.337 388.749C590.901 392.841 584.167 396.443 577.19 399.524C562.789 405.808 547.908 410.926 532.688 414.83C501.692 422.962 468.851 427.937 435.066 430.756C402.171 433.407 369.142 433.989 336.174 432.497C305.473 431.226 274.896 427.838 244.662 422.357C215.806 416.911 188.574 409.634 164.781 398.741C152.973 393.236 141.829 386.859 133.017 378.387C128.603 374.326 125.084 369.39 122.685 363.893C120.435 358.551 120.01 352.616 121.475 347.008C122.951 341.735 125.612 336.868 129.253 332.779C132.648 328.874 136.476 325.369 140.663 322.329C144.591 319.455 148.698 316.832 152.958 314.476C157.061 312.159 161.179 310.137 165.194 308.307C179.007 302.194 193.286 297.194 207.895 293.355C219.895 290.122 229.341 288.115 235.761 286.831C242.182 285.547 245.429 285.03 245.429 285.03Z" fill="#313950"/>
<path d="M297.178 507.744L289.798 508.91C284.971 509.677 277.872 510.903 268.794 512.88C257.79 515.254 246.944 518.316 236.322 522.046C229.692 524.404 223.231 527.215 216.987 530.46C213.585 532.227 210.31 534.23 207.186 536.452C203.871 538.76 200.843 541.455 198.168 544.482C196.797 546.061 195.599 547.783 194.596 549.618C193.563 551.461 192.822 553.453 192.397 555.522C192.323 556.053 192.19 556.585 192.146 557.131L192.042 558.754C192.042 559.832 192.19 560.924 192.279 562.016C192.507 563.099 192.792 564.168 193.135 565.219L193.755 566.769L194.064 567.551L194.478 568.275C196.743 572.282 199.748 575.823 203.334 578.71C207.027 581.756 211.012 584.431 215.23 586.695C224.113 591.445 233.43 595.334 243.053 598.311C253.229 601.529 263.577 604.175 274.049 606.237C296.573 610.657 319.397 613.385 342.329 614.4C366.93 615.612 391.585 615.184 416.129 613.116C441.339 610.931 465.87 607.079 488.851 600.584C500.148 597.48 511.121 593.298 521.618 588.097C526.669 585.53 531.442 582.448 535.862 578.902C536.984 578.061 537.943 577.027 538.976 576.097C540.009 575.168 540.851 574.061 541.795 573.057C543.543 570.948 544.957 568.584 545.987 566.046C546.998 563.555 547.464 560.876 547.352 558.19C547.24 555.503 546.553 552.872 545.338 550.474C542.819 545.869 539.359 541.846 535.183 538.666C527.05 532.201 517.81 527.847 508.792 524.231C500.033 520.799 491.066 517.925 481.944 515.626C473.176 513.367 464.66 511.582 456.497 510.15C430.647 505.735 404.492 503.341 378.269 502.991L349.443 502.844C349.443 502.844 359.701 502.711 378.269 502.844C404.489 503.125 430.646 505.47 456.497 509.855C464.689 511.331 473.206 513.058 481.988 515.316C491.157 517.626 500.169 520.52 508.969 523.98C518.002 527.596 527.271 531.95 535.463 538.459C539.711 541.678 543.232 545.757 545.795 550.43C547.037 552.878 547.738 555.564 547.853 558.306C547.967 561.048 547.492 563.783 546.46 566.326C545.411 568.904 543.977 571.307 542.209 573.455C541.249 574.474 540.378 575.581 539.345 576.54C538.312 577.5 537.353 578.518 536.216 579.359C531.772 582.937 526.969 586.043 521.884 588.629C511.363 593.847 500.366 598.043 489.043 601.16C465.224 607.613 440.852 611.813 416.247 613.706C391.673 615.775 366.989 616.204 342.358 614.99C319.412 613.959 296.574 611.221 274.034 606.798C263.563 604.715 253.215 602.054 243.038 598.828C233.385 595.849 224.043 591.944 215.142 587.167C210.909 584.882 206.909 582.187 203.201 579.123C199.574 576.208 196.538 572.626 194.256 568.57L193.828 567.832L193.518 567.035L192.884 565.47C192.485 564.408 192.323 563.286 192.028 562.208C191.732 561.131 191.791 559.98 191.791 558.873L191.895 557.219C191.895 556.673 192.072 556.142 192.16 555.596C192.581 553.469 193.333 551.422 194.389 549.529C195.408 547.679 196.62 545.943 198.005 544.349C200.696 541.303 203.744 538.592 207.083 536.275C210.229 534.051 213.523 532.044 216.942 530.268C223.146 527.017 229.567 524.201 236.16 521.84C246.815 518.118 257.695 515.076 268.735 512.733C277.813 510.784 284.971 509.589 289.754 508.851C294.536 508.113 297.178 507.744 297.178 507.744Z" fill="#313950"/>
<path d="M489.914 642.754C489.836 640.898 489.421 639.073 488.689 637.366C487.316 633.986 483.641 629.78 477.87 625.972C466.283 618.341 446.874 611.935 422.49 608.009C409.179 605.89 395.753 604.574 382.284 604.068C366.807 603.424 351.306 603.71 335.864 604.924C327.702 605.558 319.362 606.503 310.905 607.876C302.27 609.206 293.716 611.014 285.281 613.293C280.986 614.444 276.691 615.787 272.455 617.337C268.162 618.878 263.975 620.703 259.924 622.798C255.799 624.89 251.98 627.537 248.573 630.665C245.223 633.794 242.492 638.045 242.418 642.768C242.344 647.492 245.208 651.742 248.558 654.886C251.926 657.995 255.699 660.631 259.776 662.724C263.825 664.825 268.012 666.65 272.307 668.185C276.543 669.75 280.839 671.137 285.134 672.244C293.573 674.522 302.132 676.331 310.772 677.661C319.229 679.004 327.569 679.949 335.731 680.613C351.178 681.834 366.685 682.12 382.166 681.469C395.675 680.952 409.141 679.622 422.49 677.484C446.903 673.558 466.283 667.152 477.885 659.521C483.656 655.713 487.316 651.506 488.689 648.126C489.42 646.425 489.835 644.604 489.914 642.754C489.914 642.975 489.914 643.344 489.811 644.156C489.776 644.737 489.672 645.312 489.501 645.868C489.33 646.652 489.072 647.414 488.733 648.141C487.375 651.551 483.715 655.787 477.944 659.624C466.342 667.3 446.948 673.75 422.52 677.705C409.18 679.835 395.724 681.166 382.225 681.691C366.734 682.344 351.218 682.068 335.76 680.864C327.598 680.215 319.259 679.285 310.787 677.912C302.136 676.596 293.566 674.792 285.119 672.51C280.809 671.359 276.514 670.015 272.263 668.451C267.956 666.902 263.755 665.073 259.687 662.975C255.539 660.866 251.696 658.205 248.263 655.063C246.541 653.453 245.077 651.586 243.924 649.528C242.697 647.471 242.049 645.12 242.049 642.724C242.049 640.328 242.697 637.977 243.924 635.92C245.106 633.862 246.6 632 248.352 630.4C251.785 627.258 255.628 624.597 259.776 622.488C263.84 620.393 268.036 618.564 272.337 617.012C276.602 615.448 280.898 614.06 285.207 612.953C293.652 610.68 302.216 608.876 310.86 607.551C319.333 606.208 327.672 605.263 335.834 604.599C351.292 603.387 366.808 603.111 382.299 603.772C395.798 604.285 409.254 605.611 422.594 607.743C447.007 611.699 466.416 618.149 478.017 625.824C483.789 629.662 487.449 633.898 488.807 637.307C489.144 638.035 489.401 638.797 489.574 639.58C489.746 640.137 489.85 640.711 489.884 641.292C489.87 642.149 489.899 642.532 489.914 642.754Z" fill="#313950"/>
<path d="M163.836 413.826C163.833 414.757 163.554 415.665 163.035 416.438C162.516 417.21 161.78 417.811 160.919 418.165C160.059 418.52 159.112 418.611 158.2 418.427C157.288 418.244 156.45 417.794 155.793 417.135C155.136 416.476 154.689 415.637 154.509 414.724C154.328 413.811 154.422 412.865 154.779 412.006C155.136 411.146 155.739 410.412 156.513 409.895C157.287 409.379 158.197 409.103 159.128 409.103C159.747 409.103 160.361 409.225 160.933 409.463C161.505 409.7 162.025 410.048 162.462 410.487C162.9 410.926 163.246 411.447 163.482 412.02C163.718 412.593 163.838 413.206 163.836 413.826Z" fill="#313950"/>
<path d="M585.263 421.723C587.864 421.723 589.972 419.615 589.972 417.014C589.972 414.414 587.864 412.306 585.263 412.306C582.663 412.306 580.555 414.414 580.555 417.014C580.555 419.615 582.663 421.723 585.263 421.723Z" fill="#313950"/>
<path d="M397.782 590.651C397.785 591.586 397.51 592.501 396.992 593.28C396.474 594.059 395.737 594.667 394.873 595.026C394.009 595.386 393.059 595.48 392.141 595.299C391.223 595.117 390.38 594.667 389.719 594.005C389.058 593.344 388.607 592.501 388.426 591.583C388.244 590.666 388.339 589.715 388.698 588.851C389.057 587.988 389.665 587.25 390.444 586.732C391.223 586.214 392.138 585.939 393.074 585.942C394.322 585.942 395.52 586.438 396.403 587.321C397.286 588.204 397.782 589.402 397.782 590.651Z" fill="#313950"/>
<path d="M254.684 469.56C254.684 470.027 254.545 470.484 254.286 470.872C254.026 471.26 253.657 471.563 253.226 471.742C252.794 471.92 252.32 471.967 251.861 471.876C251.403 471.785 250.983 471.56 250.652 471.23C250.322 470.899 250.097 470.479 250.006 470.021C249.915 469.562 249.962 469.088 250.14 468.656C250.319 468.225 250.622 467.856 251.01 467.596C251.399 467.337 251.855 467.198 252.322 467.198C252.949 467.198 253.549 467.447 253.992 467.89C254.435 468.333 254.684 468.934 254.684 469.56Z" fill="#313950"/>
<path d="M547.685 526.651C547.685 527.119 547.546 527.576 547.286 527.965C547.025 528.354 546.656 528.656 546.223 528.835C545.791 529.013 545.315 529.059 544.857 528.967C544.398 528.874 543.978 528.648 543.648 528.316C543.318 527.984 543.094 527.562 543.005 527.103C542.916 526.644 542.964 526.169 543.145 525.737C543.326 525.306 543.631 524.938 544.022 524.681C544.412 524.423 544.87 524.287 545.338 524.29C545.962 524.294 546.558 524.544 546.998 524.987C547.438 525.429 547.685 526.028 547.685 526.651Z" fill="#313950"/>
<path d="M361.62 635.625C361.62 636.092 361.481 636.549 361.221 636.938C360.961 637.327 360.591 637.629 360.159 637.808C359.726 637.986 359.251 638.032 358.792 637.94C358.334 637.847 357.913 637.621 357.583 637.289C357.254 636.957 357.03 636.535 356.94 636.076C356.851 635.617 356.9 635.142 357.081 634.711C357.262 634.279 357.567 633.911 357.957 633.654C358.347 633.396 358.805 633.26 359.273 633.263C359.897 633.267 360.494 633.517 360.934 633.96C361.373 634.402 361.62 635.001 361.62 635.625Z" fill="#313950"/>
<path d="M238.699 224.308C239.351 224.308 239.88 223.779 239.88 223.127C239.88 222.475 239.351 221.946 238.699 221.946C238.047 221.946 237.518 222.475 237.518 223.127C237.518 223.779 238.047 224.308 238.699 224.308Z" fill="#313950"/>
<path d="M451.139 404.424C393.915 419.568 338.757 418.417 278.639 404.424L271.584 294.492C333.709 306.58 396.07 305.045 451.11 291.894L451.139 404.424Z" fill="#313950"/>
<g opacity="0.8">
<path d="M451.139 404.424C393.915 419.568 338.757 418.417 278.639 404.424L271.584 294.492C333.709 306.58 396.07 305.045 451.11 291.894L451.139 404.424Z" fill="white"/>
</g>
<path d="M442.269 387.671C442.155 387.747 442.03 387.807 441.9 387.848L440.822 388.306C439.863 388.69 438.475 389.31 436.63 389.974C431.442 391.903 426.155 393.558 420.793 394.933C403.05 399.389 384.796 401.474 366.506 401.133C348.237 400.766 330.034 398.82 312.1 395.317C305.207 394.003 299.672 392.793 295.864 391.907C293.96 391.479 292.484 391.11 291.436 390.86L290.3 390.564C290.049 390.491 289.916 390.446 289.931 390.431H290.329L291.48 390.653L295.908 391.553C299.731 392.35 305.296 393.487 312.144 394.712C330.067 398.056 348.233 399.927 366.461 400.306C384.691 400.653 402.889 398.669 420.616 394.402C427.391 392.69 432.793 390.978 436.483 389.664C438.343 389.059 439.745 388.483 440.719 388.188L441.826 387.804C441.962 387.729 442.113 387.684 442.269 387.671Z" fill="#313950"/>
<path d="M358.181 392.144C350.932 394.11 343.26 393.853 336.159 391.406V352.292C343.425 350.816 350.914 350.816 358.181 352.292V392.144Z" fill="#313950"/>
<path d="M393.752 389.826C393.742 389.723 393.742 389.619 393.752 389.516C393.752 389.295 393.752 389.015 393.752 388.675C393.752 387.878 393.753 386.786 393.649 385.398C393.649 382.52 393.516 378.402 393.413 373.251C393.265 362.919 393.044 348.351 392.793 331.51L393.088 331.864C385.558 330.394 377.814 330.394 370.284 331.864L370.594 331.495V332.262C370.83 355.376 371.052 376.262 371.199 391.169L370.978 390.904C374.138 391.591 377.354 391.986 380.587 392.085C383.017 392.127 385.445 391.924 387.834 391.479C389.334 391.191 390.814 390.801 392.262 390.313L393.369 389.93C393.5 389.872 393.64 389.832 393.782 389.812L393.428 389.974L392.306 390.461C390.864 391.008 389.384 391.447 387.878 391.775C385.475 392.274 383.026 392.516 380.572 392.498C377.308 392.459 374.055 392.103 370.86 391.435H370.653V391.14C370.432 376.232 370.136 355.362 369.812 332.248V331.141H370.136C377.758 329.633 385.6 329.633 393.221 331.141L393.516 331.214V331.51C393.649 348.425 393.752 363.022 393.841 373.443C393.841 378.564 393.841 382.653 393.841 385.531C393.841 386.889 393.841 387.952 393.841 388.734C393.841 389.059 393.841 389.339 393.841 389.561C393.841 389.782 393.767 389.826 393.752 389.826Z" fill="#313950"/>
<path d="M427.612 385.236C421.708 388.424 413.959 388.852 405.575 388.365V323.746C412.818 322.004 420.37 322.004 427.612 323.746V385.236Z" fill="#313950"/>
<path d="M323.244 388.955C323.244 388.955 323.244 388.35 323.17 387.288C323.096 386.225 323.17 384.645 323.082 382.771C323.082 378.845 322.978 373.398 322.919 366.919L323.126 367.229C316.402 364.505 309.159 363.3 301.916 363.701L302.27 363.317C302.27 371.391 302.27 378.933 302.27 385.354L302.078 385.059C304.817 386.168 307.667 386.98 310.58 387.479C313.192 387.952 315.48 388.217 317.384 388.409L321.812 388.778C322.337 388.808 322.859 388.867 323.377 388.955C322.856 388.99 322.333 388.99 321.812 388.955C320.779 388.955 319.288 388.955 317.384 388.764C315.48 388.572 313.163 388.409 310.536 387.981C307.563 387.532 304.651 386.744 301.857 385.634L301.665 385.546V385.324C301.665 378.904 301.665 371.361 301.665 363.288V362.934H302.049C309.407 362.521 316.764 363.778 323.569 366.609L323.79 366.683V366.919C323.79 373.487 323.657 379.007 323.613 382.992C323.613 384.837 323.613 386.313 323.524 387.42C323.476 387.939 323.382 388.453 323.244 388.955Z" fill="#313950"/>
<path d="M333.576 331.79C332.151 332.019 330.708 332.108 329.266 332.056C326.595 332.056 322.905 332.056 318.846 331.805C314.787 331.554 311.126 331.185 308.514 330.831C307.075 330.716 305.651 330.459 304.263 330.063C305.698 330.028 307.135 330.107 308.558 330.299C311.215 330.506 314.875 330.801 318.89 331.037C322.905 331.273 326.609 331.421 329.222 331.51C330.678 331.492 332.134 331.586 333.576 331.79Z" fill="#313950"/>
<path d="M330.285 336.602C329.028 336.727 327.762 336.727 326.506 336.602C324.174 336.484 320.956 336.277 317.399 336.011C313.842 335.746 310.624 335.45 308.307 335.2C307.046 335.139 305.795 334.951 304.573 334.639C305.829 334.513 307.095 334.513 308.351 334.639C310.698 334.757 313.901 334.963 317.458 335.229C321.015 335.495 324.218 335.79 326.535 336.041C327.801 336.104 329.056 336.292 330.285 336.602Z" fill="#313950"/>
<path d="M338.343 342.904C338.343 342.904 338.343 342.402 338.343 341.532C338.343 340.661 338.417 339.318 338.491 337.723C338.639 334.388 338.86 329.694 339.14 323.923L339.421 324.233C325.792 324.357 312.17 323.598 298.639 321.96L299.067 321.606V322.196V322.816L298.993 324.056C298.993 324.882 298.905 325.709 298.846 326.521C298.757 328.159 298.669 329.768 298.565 331.347C298.373 334.521 298.196 337.591 298.019 340.528L297.709 340.144C309.517 341.62 319.687 342.21 326.904 342.491L335.362 342.742L337.576 342.816H338.388C338.142 342.837 337.895 342.837 337.65 342.816C337.148 342.816 336.351 342.816 335.362 342.889C333.384 342.889 330.506 342.889 326.89 342.889C319.657 342.742 309.443 342.21 297.621 340.808H297.281V340.454C297.443 337.502 297.621 334.447 297.798 331.273C297.886 329.694 297.975 328.085 298.078 326.447L298.211 323.982V322.742V322.122V321.532L298.639 321.177C312.192 322.809 325.829 323.641 339.48 323.672H339.775V323.967C339.377 329.783 339.052 334.535 338.816 337.901C338.698 339.465 338.594 340.72 338.521 341.635C338.503 342.063 338.444 342.488 338.343 342.904Z" fill="#313950"/>
<path d="M343.377 351.185C342.248 350.01 341.289 348.684 340.528 347.244C339.555 345.934 338.816 344.466 338.344 342.904C339.472 344.079 340.431 345.405 341.192 346.845C342.166 348.155 342.905 349.623 343.377 351.185Z" fill="#313950"/>
<path d="M104.265 208.116L122.966 321.296C122.966 321.296 151.526 374.756 227.393 386.801L215.157 285.783C215.157 285.783 144.987 264.056 104.265 208.116Z" fill="#313950"/>
<g opacity="0.8">
<path d="M104.265 208.116L122.966 321.296C122.966 321.296 151.526 374.756 227.393 386.801L215.157 285.783C215.157 285.783 144.987 264.056 104.265 208.116Z" fill="white"/>
</g>
<path d="M217.607 378.712L217.134 378.594L215.658 378.195L210.315 376.557C207.998 375.819 205.12 375.081 201.917 373.753L196.766 371.79C194.921 371.096 192.987 370.314 191.024 369.428C187.083 367.627 182.699 365.767 178.242 363.258C173.784 360.749 169.032 358.048 164.19 354.963C153.75 348.108 144.27 339.893 135.999 330.535C132.123 326.175 128.715 321.421 125.829 316.351L117.268 261.001C116.235 254.093 115.394 248.558 114.818 244.676L114.198 240.248L114.051 239.112C114.034 238.98 114.034 238.846 114.051 238.713C114.097 238.837 114.127 238.966 114.139 239.097L114.361 240.234L115.113 244.662C115.748 248.529 116.589 254.064 117.785 260.898C119.999 274.802 123.098 294.167 126.641 316.203V316.1C129.509 321.105 132.882 325.804 136.707 330.122C144.947 339.43 154.376 347.614 164.751 354.461C169.563 357.561 174.153 360.469 178.699 362.786C183.245 365.103 187.482 367.214 191.408 369.015C193.356 369.974 195.29 370.727 197.105 371.421L202.212 373.428C205.385 374.771 208.249 375.568 210.537 376.38L215.835 378.151L217.208 378.623C217.344 378.639 217.477 378.669 217.607 378.712Z" fill="#313950"/>
<path d="M210.935 345.856C210.935 345.856 210.935 345.945 210.684 346.092L209.872 346.742L206.729 349.192L194.832 358.328L194.655 358.476L194.507 358.269C190.493 352.734 185.548 345.886 179.939 338.107L180.382 338.181L169.209 346.151L168.84 346.417L168.677 345.974C164.249 334.166 159.423 320.882 154.272 306.905L152.205 301.281H152.899L143.807 319.347L143.408 320.13L143.128 319.303C135.202 296.484 128.486 277.089 124.117 264.499H124.515C123.32 269.547 122.375 273.517 121.726 276.307C121.401 277.635 121.135 278.669 120.958 279.407L120.752 280.204C120.731 280.297 120.696 280.387 120.648 280.469V280.189C120.648 279.982 120.737 279.717 120.796 279.392L121.46 276.263C122.065 273.473 122.936 269.488 124.058 264.455L124.22 263.746L124.471 264.44C128.899 277.001 135.733 296.351 143.777 319.126H143.098L152.176 301.06L152.574 300.263L152.884 301.089L154.951 306.713C160.072 320.705 164.943 333.974 169.282 345.812L168.751 345.65L179.969 337.738L180.22 337.561L180.412 337.812L194.832 358.004H194.493L206.551 349.044L209.769 346.683L210.61 346.092L210.935 345.856Z" fill="#313950"/>
<path d="M208.323 291.584C207.779 291.529 207.244 291.41 206.729 291.23C205.725 290.949 204.264 290.506 202.492 289.916C197.88 288.374 193.353 286.59 188.928 284.573C184.474 282.565 180.124 280.334 175.895 277.887C174.286 276.942 172.943 276.145 172.116 275.569C171.641 275.304 171.2 274.982 170.803 274.61C171.321 274.786 171.817 275.024 172.279 275.318L176.175 277.414C179.467 279.171 184.057 281.532 189.253 283.879C194.448 286.226 199.245 288.101 202.743 289.414C204.382 290.005 205.695 290.521 206.891 290.89C207.397 291.056 207.879 291.289 208.323 291.584Z" fill="#313950"/>
<path d="M211.334 296.277C210.092 296.211 208.862 295.993 207.673 295.628C204.761 294.925 201.889 294.067 199.068 293.06C196.249 292.049 193.486 290.891 190.788 289.591C189.643 289.114 188.558 288.505 187.555 287.776C188.75 288.111 189.911 288.556 191.024 289.104C193.135 289.975 196.057 291.156 199.334 292.336C202.611 293.517 205.622 294.447 207.821 295.111C209.025 295.391 210.201 295.782 211.334 296.277Z" fill="#313950"/>
<path d="M181.445 338.137C181.445 339.081 180.869 339.834 180.161 339.834C179.452 339.834 178.891 339.081 178.891 338.137C178.891 337.192 179.467 336.439 180.161 336.439C180.854 336.439 181.445 337.207 181.445 338.137Z" fill="#313950"/>
<path d="M152.412 304.056C153.113 304.056 153.681 303.296 153.681 302.359C153.681 301.421 153.113 300.661 152.412 300.661C151.711 300.661 151.142 301.421 151.142 302.359C151.142 303.296 151.711 304.056 152.412 304.056Z" fill="#313950"/>
<path d="M125.652 265.031C125.652 265.961 125.076 266.728 124.383 266.728C123.689 266.728 123.113 265.961 123.113 265.031C123.113 264.101 123.674 263.333 124.383 263.333C125.091 263.333 125.652 264.101 125.652 265.031Z" fill="#313950"/>
<path d="M599.256 228.249L589.883 343.229C589.883 343.229 562.474 392.394 487.08 394.269L496.394 278.506C496.394 278.506 562.179 275.835 599.256 228.249Z" fill="#313950"/>
<path d="M597.78 222.256C595.33 214.3 589.367 202.95 575.197 200.588L558.489 355.244C558.489 355.244 589.942 348.971 590.784 331.731C590.858 330.255 597.145 253.37 598.725 234.315C599.201 230.272 598.88 226.175 597.78 222.256Z" fill="#313950"/>
<g opacity="0.8">
<path d="M599.256 228.249L589.883 343.229C589.883 343.229 562.474 392.394 487.08 394.269L496.394 278.506C496.394 278.506 562.179 275.835 599.256 228.249Z" fill="white"/>
</g>
<path d="M596.968 257.562C589.423 268.518 585.251 281.443 584.968 294.742C584.895 298.565 585.116 302.506 583.655 306.034C582.193 309.561 578.415 312.513 574.799 311.51C571.182 310.506 569.234 305.901 565.869 303.776C564.317 302.907 562.561 302.469 560.783 302.508C559.006 302.547 557.27 303.061 555.758 303.997C552.752 305.925 550.428 308.749 549.116 312.071C546.386 318.373 546.164 325.488 544.186 332.056C542.209 338.624 537.22 345.251 530.342 345.546C527.832 345.65 525.353 344.897 522.844 344.971C517.545 345.133 512.94 349.074 510.475 353.827C508.01 358.579 507.257 363.908 506.548 369.162C506.548 369.162 546.725 373 591.817 319.746L596.968 257.562Z" fill="#313950"/>
<path d="M533.102 327.303C533.102 328.779 532.393 329.886 531.522 329.886C530.651 329.886 529.958 328.735 529.958 327.303C529.958 325.871 530.651 324.72 531.522 324.72C532.393 324.72 533.102 325.886 533.102 327.303Z" fill="#313950"/>
<path d="M552.024 279.51C552.024 280.986 551.316 282.093 550.445 282.093C549.574 282.093 548.88 280.927 548.88 279.51C548.88 278.093 549.574 276.927 550.445 276.927C551.316 276.927 552.024 278.078 552.024 279.51Z" fill="#313950"/>
<path d="M596.068 263.112C596.006 263.336 595.922 263.554 595.817 263.761L594.961 265.636C594.164 267.304 593.057 269.665 591.655 272.647L579.669 297.606L579.507 297.945L579.182 297.739L550.769 279.761L551.33 279.584C550.961 280.499 550.548 281.488 550.149 282.536L531.803 327.421L531.67 327.731L531.389 327.569C524.305 323.584 518.519 320.381 514.504 318.196C512.482 317.104 510.917 316.263 509.84 315.716L508.615 315.126L508.187 314.934C510.438 315.691 512.605 316.681 514.652 317.886C518.725 319.982 524.541 323.111 531.67 327.037L531.257 327.185L549.441 282.182C549.84 281.193 550.253 280.204 550.622 279.23L550.799 278.802L551.183 279.053L579.551 297.119L579.064 297.252C584.097 287.023 588.319 278.477 591.3 272.425L594.828 265.532L595.773 263.717C595.854 263.507 595.953 263.305 596.068 263.112Z" fill="#313950"/>
</svg>
