<svg width="464" height="442" viewBox="0 0 464 442" fill="none" xmlns="http://www.w3.org/2000/svg">
<path d="M87.8499 124.21C89.3334 131.648 88.5767 139.359 85.6757 146.367C82.7747 153.375 77.8598 159.365 71.553 163.578C65.2463 167.792 57.8312 170.039 50.2465 170.037C42.6618 170.034 35.2484 167.781 28.9447 163.563C22.6409 159.345 17.7302 153.352 14.8342 146.342C11.9382 139.332 11.1871 131.62 12.6758 124.183C14.1646 116.746 17.8264 109.918 23.1977 104.563C28.569 99.2074 35.4083 95.5662 42.8499 94.0999C52.81 92.1265 63.1461 94.19 71.5849 99.8365C80.0238 105.483 85.8743 114.25 87.8499 124.21Z" fill="#F5F5F5"/>
<path d="M78.8999 126C80.0194 131.668 79.4327 137.541 77.214 142.876C74.9952 148.211 71.2442 152.768 66.4352 155.971C61.6263 159.174 55.9755 160.879 50.1976 160.87C44.4197 160.86 38.7743 159.138 33.9754 155.92C29.1766 152.702 25.4398 148.133 23.2379 142.792C21.0359 137.45 20.4676 131.575 21.6049 125.91C22.7422 120.245 25.534 115.045 29.6271 110.967C33.7203 106.889 38.9309 104.116 44.5999 103C48.3625 102.255 52.2351 102.259 55.9961 103.012C59.7571 103.765 63.3327 105.252 66.5184 107.389C69.7041 109.525 72.4374 112.268 74.562 115.462C76.6865 118.655 78.1606 122.236 78.8999 126Z" fill="#EBEBEB"/>
<path d="M78.7099 125.08C78.5399 125.08 78.1699 123.88 77.2799 121.78C76.0412 118.829 74.3547 116.087 72.2799 113.65C70.8447 111.988 69.228 110.492 67.4599 109.19C65.4353 107.705 63.2269 106.488 60.8899 105.57C59.6264 105.064 58.3259 104.657 56.9999 104.35C55.6287 104.022 54.2347 103.799 52.8299 103.68C51.3722 103.565 49.9076 103.565 48.4499 103.68C46.9526 103.793 45.4654 104.013 43.9999 104.34C42.5318 104.683 41.0911 105.134 39.6899 105.69C38.3374 106.24 37.0272 106.888 35.7699 107.63C34.5488 108.332 33.3822 109.124 32.2799 110C31.2086 110.847 30.2055 111.776 29.2799 112.78C27.5951 114.641 26.1567 116.712 24.9999 118.94C23.985 120.887 23.1869 122.939 22.6199 125.06C21.7935 128.159 21.4561 131.367 21.6199 134.57C21.7299 136.85 21.9399 138.12 21.7699 138.16C21.5999 138.2 21.1399 136.99 20.7699 134.66C20.2505 131.336 20.3557 127.945 21.0799 124.66C21.5707 122.384 22.3328 120.175 23.3499 118.08C24.5239 115.665 26.021 113.421 27.7999 111.41C28.7594 110.314 29.8026 109.294 30.9199 108.36C32.0785 107.374 33.316 106.484 34.6199 105.7C35.9679 104.879 37.379 104.167 38.8399 103.57C41.8505 102.336 45.0427 101.603 48.2899 101.4C49.8627 101.303 51.4407 101.326 53.0099 101.47C54.5244 101.614 56.0255 101.875 57.4999 102.25C58.9096 102.604 60.2903 103.066 61.6299 103.63C66.2934 105.552 70.377 108.653 73.4799 112.63C75.5555 115.262 77.1253 118.256 78.1099 121.46C78.7599 123.74 78.8399 125.05 78.7099 125.08Z" fill="#E0E0E0"/>
<path d="M56.8499 148.08L57.8999 153.08L53.4599 154.02L52.4599 149.18C48.0099 149.85 43.4599 149.37 40.6399 147.97L41.9399 142.03C44.8677 143.276 48.0703 143.734 51.2299 143.36L49.6499 135.94C44.4699 135.79 38.6499 135.31 37.2599 128.94C36.2599 124.23 38.8199 119.46 45.6799 117.18L44.6799 112.24L49.1199 111.3L50.1199 116.14C53.3381 115.642 56.6287 115.916 59.7199 116.94L58.6599 122.88C56.3115 122.11 53.8336 121.814 51.3699 122.01L52.9699 129.56C58.1499 129.67 63.9699 130.17 65.2499 136.43C66.1799 141 63.6499 145.75 56.8499 148.08ZM48.2399 129.38L46.8999 123.07C44.6599 124.07 43.9999 125.59 44.3099 127.07C44.6199 128.55 46.1499 129.17 48.2399 129.38ZM58.1499 138.47C57.8199 136.91 56.3599 136.34 54.2999 136.08L55.5999 142.21C57.7199 141.25 58.4599 139.89 58.1499 138.47Z" fill="#E0E0E0"/>
<path d="M190.6 260.12C191.468 264.471 191.026 268.981 189.329 273.081C187.633 277.18 184.758 280.684 181.069 283.149C177.38 285.614 173.043 286.929 168.606 286.927C164.17 286.926 159.833 285.608 156.146 283.141C152.459 280.674 149.586 277.168 147.892 273.068C146.198 268.967 145.759 264.457 146.63 260.106C147.5 255.756 149.642 251.762 152.784 248.63C155.926 245.497 159.927 243.368 164.28 242.51C167.164 241.938 170.133 241.939 173.017 242.515C175.901 243.09 178.644 244.228 181.088 245.863C183.532 247.498 185.63 249.599 187.262 252.045C188.894 254.492 190.028 257.235 190.6 260.12Z" fill="#F5F5F5"/>
<path d="M185.37 261.16C186.03 264.477 185.692 267.915 184.398 271.039C183.104 274.163 180.912 276.834 178.099 278.711C175.287 280.589 171.98 281.591 168.599 281.589C165.217 281.586 161.912 280.581 159.101 278.7C156.291 276.818 154.103 274.146 152.812 271.02C151.522 267.894 151.188 264.455 151.852 261.139C152.517 257.824 154.151 254.78 156.546 252.393C158.942 250.006 161.992 248.383 165.31 247.73C167.509 247.293 169.772 247.294 171.971 247.733C174.17 248.172 176.26 249.04 178.124 250.287C179.987 251.534 181.586 253.137 182.829 255.002C184.072 256.868 184.936 258.96 185.37 261.16Z" fill="#EBEBEB"/>
<path d="M185.26 260.63C184.914 260.018 184.632 259.371 184.42 258.7C183.69 256.975 182.698 255.373 181.48 253.95C180.636 252.981 179.691 252.106 178.66 251.34C177.473 250.471 176.179 249.758 174.81 249.22C174.075 248.928 173.32 248.691 172.55 248.51C171.749 248.314 170.932 248.183 170.11 248.12C169.258 248.05 168.402 248.05 167.55 248.12C166.672 248.183 165.799 248.31 164.94 248.5C164.083 248.704 163.24 248.968 162.42 249.29C161.629 249.612 160.863 249.993 160.13 250.43C158.739 251.24 157.476 252.251 156.38 253.43C155.379 254.506 154.525 255.71 153.84 257.01C153.245 258.149 152.775 259.35 152.44 260.59C151.967 262.403 151.775 264.279 151.87 266.15C151.973 266.845 152.003 267.549 151.96 268.25C151.622 267.634 151.42 266.951 151.37 266.25C151.065 264.31 151.122 262.329 151.54 260.41C151.835 259.08 152.281 257.788 152.87 256.56C153.561 255.149 154.439 253.837 155.48 252.66C156.041 252.022 156.65 251.427 157.3 250.88C157.982 250.305 158.708 249.784 159.47 249.32C160.256 248.843 161.079 248.429 161.93 248.08C162.81 247.726 163.716 247.439 164.64 247.22C165.568 247.011 166.511 246.874 167.46 246.81C168.378 246.735 169.301 246.735 170.22 246.81C171.956 246.981 173.657 247.406 175.27 248.07C176.702 248.685 178.047 249.485 179.27 250.45C180.336 251.294 181.3 252.261 182.14 253.33C183.357 254.87 184.276 256.623 184.85 258.5C185.145 259.17 185.285 259.898 185.26 260.63Z" fill="#E0E0E0"/>
<path d="M172.47 274.08L173.09 276.99L170.49 277.54L169.89 274.71C167.572 275.121 165.185 274.875 163 274L163.75 270.52C165.466 271.245 167.34 271.514 169.19 271.3L168.27 266.96C165.27 266.87 161.81 266.59 161.02 262.87C160.43 260.12 161.93 257.33 165.94 255.99L165.33 253.1L167.93 252.55L168.53 255.38C170.411 255.092 172.333 255.253 174.14 255.85L173.52 259.32C172.147 258.875 170.7 258.702 169.26 258.81L170.19 263.23C173.19 263.3 176.6 263.59 177.38 267.23C177.93 270 176.45 272.72 172.47 274.08ZM167.47 263.14L166.68 259.45C165.37 260.06 164.99 260.93 165.17 261.79C165.35 262.65 166.22 263 167.44 263.14H167.47ZM173.27 268.46C173.07 267.55 172.22 267.22 171.01 267.06L171.78 270.65C173 270.09 173.41 269.29 173.24 268.46H173.27Z" fill="#E0E0E0"/>
<path d="M421 196.42L419.84 201.26L415.52 200.26L416.66 195.55C412.45 194.27 408.66 191.94 406.74 189.55L410.38 184.86C412.446 187.181 415.078 188.928 418.02 189.93L419.75 182.73C415.24 180.41 410.28 177.53 411.75 171.36C412.85 166.79 417.12 163.66 424.12 164.52L425.27 159.74L429.59 160.74L428.46 165.45C431.506 166.359 434.291 167.984 436.58 170.19L433.15 174.97C431.403 173.305 429.343 172.003 427.09 171.14L425.32 178.47C429.84 180.75 434.72 183.61 433.25 189.69C432.17 194.14 428 197.23 421 196.42ZM421.28 176.32L422.75 170.19C420.34 170.19 419.13 171.19 418.75 172.62C418.37 174.05 419.51 175.26 421.27 176.32H421.28ZM426.19 188.5C426.56 186.99 425.5 185.87 423.8 184.78L422.37 190.73C424.63 190.77 425.85 189.88 426.18 188.5H426.19Z" fill="#EBEBEB"/>
<path d="M435 82.39L435.38 90.96L427.72 91.3L427.35 82.96C419.75 82.83 412.35 80.78 408.02 77.67L411.82 68.14C416.351 71.0158 421.55 72.6663 426.91 72.93L426.35 60.14C417.76 58.45 408.14 56.03 407.65 45.08C407.29 36.97 412.88 29.74 424.92 27.83L424.54 19.33L432.2 18.99L432.57 27.33C438.33 27.54 443.99 28.82 448.32 31.33L444.91 40.92C441.211 38.9796 437.162 37.7965 433 37.44L433.57 50.44C442.16 52.05 451.57 54.44 452.1 65.27C452.48 73.25 447 80.4 435 82.39ZM425.85 48.88L425.38 38C421.38 39.1 419.85 41.39 419.96 43.92C420.07 46.45 422.44 48 425.86 48.88H425.85ZM439.85 66.75C439.74 64.07 437.45 62.75 434.11 61.75L434.57 72.32C438.36 71.27 440 69.2 439.84 66.75H439.85Z" fill="#EBEBEB"/>
<path d="M464 412.36C464 412.5 360.13 412.62 232 412.62C103.87 412.62 0 412.5 0 412.36C0 412.22 103.85 412.1 232 412.1C360.15 412.1 464 412.22 464 412.36Z" fill="#263238"/>
<path d="M389.9 1.03003H74.1499C70.168 1.03003 66.9399 4.25806 66.9399 8.24003V241.5C66.9399 245.482 70.168 248.71 74.1499 248.71H389.9C393.882 248.71 397.11 245.482 397.11 241.5V8.24003C397.11 4.25806 393.882 1.03003 389.9 1.03003Z" fill="white"/>
<path d="M389.9 248.71C390.998 248.699 392.079 248.439 393.061 247.948C394.043 247.458 394.901 246.751 395.57 245.88C396.594 244.544 397.121 242.893 397.06 241.21C397.06 233.59 397.06 222.36 397.01 207.9C397.01 178.97 396.96 137.11 396.92 85.3901C396.92 72.4568 396.92 58.9235 396.92 44.7901C396.92 37.7301 396.92 30.5335 396.92 23.2001V9.28014C396.973 8.36103 396.899 7.43899 396.7 6.54014C396.475 5.64832 396.077 4.80954 395.528 4.07172C394.979 3.3339 394.29 2.71152 393.5 2.24014C392.704 1.76388 391.819 1.45428 390.9 1.33014C389.959 1.25297 389.014 1.22626 388.07 1.25014H296.66H74.18C72.9791 1.24237 71.7964 1.54369 70.7456 2.12512C69.6948 2.70655 68.8113 3.54854 68.18 4.57014C67.5591 5.58368 67.2144 6.74206 67.18 7.93014C67.18 9.14014 67.18 10.3801 67.18 11.6001V55.3001C67.18 74.5201 67.18 93.4435 67.18 112.07C67.18 149.29 67.18 185.19 67.18 219.39V232.13C67.18 234.24 67.18 236.35 67.18 238.44C67.18 239.49 67.18 240.54 67.18 241.58C67.1993 242.593 67.4382 243.589 67.88 244.5C68.3214 245.405 68.9529 246.204 69.7312 246.842C70.5095 247.481 71.4164 247.944 72.39 248.2C73.375 248.412 74.3842 248.489 75.39 248.43H90.72H137.85H222.45L344.96 248.51L378.27 248.56H386.93C388.88 248.56 389.88 248.56 389.88 248.56H386.93H378.27H344.96L222.45 248.65H137.85H75.41C74.3569 248.705 73.3011 248.621 72.27 248.4C70.7018 247.987 69.3109 247.075 68.3076 245.801C67.3044 244.527 66.7435 242.961 66.71 241.34V219.14C66.71 184.94 66.71 149.04 66.71 111.82V11.6501C66.71 10.4201 66.71 9.21014 66.71 7.96014C66.7568 6.68309 67.1322 5.43971 67.8 4.35013C68.4725 3.25679 69.4137 2.3538 70.534 1.72714C71.6543 1.10049 72.9163 0.771027 74.2 0.770137H296.68H346.68H388C388.964 0.737363 389.929 0.764078 390.89 0.850135C391.868 0.994484 392.807 1.3346 393.65 1.85013C394.489 2.34923 395.221 3.00892 395.804 3.7914C396.388 4.57389 396.811 5.46379 397.05 6.41014C397.255 7.34544 397.332 8.30411 397.28 9.26013V23.2001C397.28 30.5335 397.28 37.7301 397.28 44.7901C397.28 58.9101 397.28 72.4435 397.28 85.3901C397.28 137.11 397.22 178.97 397.2 207.9C397.2 222.36 397.2 233.59 397.2 241.21C397.25 242.672 396.859 244.114 396.078 245.35C395.297 246.586 394.162 247.559 392.82 248.14C392.137 248.426 391.416 248.611 390.68 248.69L389.9 248.71Z" fill="#263238"/>
<path d="M373.33 38.75H244.98C240.446 38.75 236.77 42.4257 236.77 46.96V95.99C236.77 100.524 240.446 104.2 244.98 104.2H373.33C377.864 104.2 381.54 100.524 381.54 95.99V46.96C381.54 42.4257 377.864 38.75 373.33 38.75Z" fill="#4B4B4B"/>
<g opacity="0.2">
<path d="M314.89 68.73V71.33H312.57V68.8C310.517 68.7464 308.519 68.1232 306.8 67L308.08 64.17C309.409 65.0997 310.956 65.6682 312.57 65.82V61.94C310 61.32 307.13 60.46 307.13 57.15C307.13 54.69 308.91 52.58 312.57 52.15V49.54H314.89V52.07C316.549 52.1622 318.163 52.6453 319.6 53.48L318.44 56.33C317.347 55.7002 316.141 55.2924 314.89 55.13V59.07C317.46 59.67 320.29 60.53 320.29 63.79C320.29 66.21 318.53 68.29 314.89 68.73ZM312.57 58.49V55.2C311.34 55.47 310.86 56.2 310.86 56.91C310.86 57.62 311.55 58.16 312.57 58.49ZM316.57 64.07C316.57 63.26 315.9 62.82 314.9 62.47V65.67C316.05 65.42 316.56 64.81 316.56 64.07H316.57Z" fill="white"/>
</g>
<g opacity="0.2">
<path d="M326 85.0999V87.0999H324.2V85.0999C322.609 85.0498 321.064 84.5544 319.74 83.6699L320.74 81.4799C321.77 82.1975 322.97 82.6351 324.22 82.7499V79.7499C322.22 79.2599 320.01 78.5999 320.01 76.0299C320.01 74.1299 321.39 72.4999 324.22 72.1699V70.1699H326V72.1699C327.283 72.2357 328.532 72.6095 329.64 73.2599L328.74 75.4699C327.9 74.9762 326.967 74.6597 326 74.5399V77.5899C328 78.0499 330.18 78.7199 330.18 81.2499C330.18 83.1399 328.82 84.7599 326 85.0999ZM324.2 77.1699V74.6199C323.25 74.8299 322.88 75.3499 322.88 75.9499C322.88 76.5499 323.41 76.9199 324.2 77.1699ZM327.29 81.4899C327.29 80.8599 326.77 80.4899 326 80.2499V82.7299C326.9 82.5299 327.29 82.0699 327.29 81.4899Z" fill="white"/>
</g>
<path d="M339.74 66.33C339.755 66.4663 339.755 66.6038 339.74 66.74C339.74 67.05 339.74 67.44 339.74 67.92C339.74 69 339.74 70.48 339.74 72.33V87.82V87.67C340.582 88.4512 341.618 88.9932 342.74 89.24C343.962 89.5289 345.214 89.6699 346.47 89.66C349.134 89.7313 351.751 88.95 353.94 87.43L353.85 87.63C353.85 79.7 353.85 72.36 353.85 66.35V66.43C353.566 65.9695 353.17 65.5878 352.7 65.32C352.227 65.0522 351.728 64.8344 351.21 64.67C350.232 64.3882 349.226 64.2172 348.21 64.16C346.565 64.0328 344.911 64.1236 343.29 64.43C342.256 64.6277 341.271 65.0251 340.39 65.6C340.168 65.7659 339.958 65.9463 339.76 66.14C339.64 66.28 339.58 66.36 339.57 66.35C339.741 66.0087 339.995 65.7163 340.31 65.5C341.185 64.8639 342.183 64.4177 343.24 64.19C344.882 63.8403 346.564 63.7125 348.24 63.81C349.282 63.8536 350.316 64.0181 351.32 64.3C352.508 64.5755 353.547 65.29 354.23 66.3C354.23 72.3 354.23 79.65 354.23 87.58V87.72L354.14 87.79C351.86 89.3987 349.119 90.2234 346.33 90.14C345.032 90.1504 343.739 89.9958 342.48 89.68C341.24 89.4122 340.097 88.8065 339.18 87.93L339.13 87.88V87.78C339.21 81.46 339.28 76.1 339.33 72.25C339.33 70.41 339.4 68.93 339.43 67.85C339.43 67.38 339.43 67 339.43 66.7C339.52 66.5665 339.624 66.4425 339.74 66.33Z" fill="white"/>
<path d="M354.2 66.37C353.65 66.901 353.006 67.3249 352.3 67.62C350.617 68.3892 348.779 68.7588 346.93 68.7C345.084 68.7774 343.242 68.4569 341.53 67.76C340.818 67.4836 340.163 67.0766 339.6 66.56C339.6 66.48 340.39 66.93 341.67 67.42C343.362 67.9939 345.145 68.2515 346.93 68.18C348.713 68.2339 350.488 67.9278 352.15 67.28C353.42 66.76 354.15 66.29 354.2 66.37Z" fill="white"/>
<path d="M354.2 71.6799C353.652 72.2163 353.007 72.6439 352.3 72.9399C350.616 73.7057 348.779 74.0719 346.93 74.0099C345.083 74.0924 343.24 73.7717 341.53 73.0699C340.813 72.8026 340.157 72.3946 339.6 71.8699C339.6 71.7899 340.39 72.2399 341.67 72.7299C343.362 73.3038 345.145 73.5614 346.93 73.4899C348.712 73.5464 350.487 73.2437 352.15 72.5999C353.42 72.0699 354.15 71.6099 354.2 71.6799Z" fill="white"/>
<path d="M354.2 77.0001C353.65 77.5311 353.006 77.955 352.3 78.2501C350.616 79.0166 348.779 79.3861 346.93 79.3301C345.084 79.4076 343.242 79.087 341.53 78.3901C340.818 78.1137 340.163 77.7068 339.6 77.1901C339.6 77.1101 340.39 77.5601 341.67 78.0501C343.363 78.6192 345.145 78.8767 346.93 78.8101C348.713 78.864 350.488 78.5579 352.15 77.9101C353.42 77.3901 354.15 76.9201 354.2 77.0001Z" fill="white"/>
<path d="M354.2 82.3101C353.652 82.844 353.007 83.2683 352.3 83.5601C350.619 84.3359 348.78 84.7059 346.93 84.6401C345.084 84.7175 343.242 84.3969 341.53 83.7001C340.815 83.4282 340.16 83.0207 339.6 82.5001C339.6 82.4201 340.39 82.8701 341.67 83.3601C343.362 83.9339 345.145 84.1916 346.93 84.1201C348.712 84.1717 350.486 83.8692 352.15 83.2301C353.42 82.7001 354.15 82.2401 354.2 82.3101Z" fill="white"/>
<path d="M354.26 55.4401C354.284 55.6461 354.284 55.8541 354.26 56.0601C354.26 56.5134 354.26 57.1134 354.26 57.8601C354.26 59.4701 354.26 61.7401 354.26 64.5701V87.8201L354.2 87.6701C355.078 88.4633 356.152 89.0086 357.31 89.2501C358.534 89.5443 359.791 89.682 361.05 89.6601C363.687 89.7178 366.275 88.937 368.44 87.4301L368.35 87.6301C368.35 75.2101 368.4 63.9001 368.41 55.4601V55.5301C368.122 55.0531 367.711 54.6626 367.22 54.4001C366.745 54.1208 366.238 53.8993 365.71 53.7401C364.731 53.4643 363.725 53.2966 362.71 53.2401C361.064 53.1154 359.409 53.2163 357.79 53.5401C356.768 53.739 355.795 54.1402 354.93 54.7201C354.712 54.8758 354.511 55.0534 354.33 55.2501C354.2 55.3801 354.15 55.4601 354.14 55.4601C354.13 55.4601 354.14 55.3601 354.28 55.2101C354.454 54.9947 354.652 54.8001 354.87 54.6301C355.723 53.9963 356.701 53.553 357.74 53.3301C359.38 52.9659 361.063 52.8313 362.74 52.9301C363.788 52.9701 364.829 53.1312 365.84 53.4101C367.058 53.6703 368.131 54.3857 368.84 55.4101V55.4901C368.84 63.9301 368.84 75.2401 368.91 87.6601V87.8001L368.82 87.8701C366.561 89.4619 363.853 90.2889 361.09 90.2301C359.787 90.2404 358.488 90.0926 357.22 89.7901C355.954 89.5262 354.786 88.9131 353.85 88.0201L353.8 87.9601V87.8601C353.88 78.4401 353.95 70.3501 354 64.5701C354 61.7401 354.08 59.4801 354.1 57.8701C354.1 57.1301 354.1 56.5401 354.15 56.0901C354.165 55.8703 354.202 55.6525 354.26 55.4401Z" fill="white"/>
<path d="M368.72 66.37C368.17 66.901 367.525 67.3249 366.82 67.62C365.138 68.392 363.299 68.7617 361.45 68.7C359.603 68.7774 357.762 68.4569 356.05 67.76C355.337 67.4836 354.683 67.0766 354.12 66.56C354.12 66.48 354.91 66.93 356.19 67.42C357.882 67.9939 359.665 68.2515 361.45 68.18C363.233 68.2339 365.008 67.9278 366.67 67.28C367.94 66.76 368.67 66.29 368.72 66.37Z" fill="white"/>
<path d="M368.72 71.6799C368.172 72.2163 367.527 72.6439 366.82 72.9399C365.137 73.7085 363.299 74.0748 361.45 74.0099C359.603 74.0924 357.76 73.7717 356.05 73.0699C355.333 72.8026 354.677 72.3946 354.12 71.8699C354.12 71.7899 354.91 72.2399 356.19 72.7299C357.882 73.3038 359.665 73.5614 361.45 73.4899C363.232 73.5464 365.007 73.2437 366.67 72.5999C367.94 72.0699 368.67 71.6099 368.72 71.6799Z" fill="white"/>
<path d="M368.72 60.9199C368.172 61.4563 367.527 61.8839 366.82 62.1799C365.137 62.9484 363.299 63.3148 361.45 63.2499C359.603 63.3324 357.76 63.0116 356.05 62.3099C355.335 62.0381 354.68 61.6306 354.12 61.1099C354.12 61.0299 354.91 61.4799 356.19 61.9699C357.882 62.5438 359.665 62.8014 361.45 62.7299C363.232 62.7864 365.007 62.4837 366.67 61.8399C367.94 61.3099 368.67 60.8499 368.72 60.9199Z" fill="white"/>
<path d="M368.72 55.4401C368.17 55.9711 367.525 56.395 366.82 56.6901C365.137 57.4575 363.299 57.8271 361.45 57.7701C359.603 57.8475 357.762 57.5269 356.05 56.8301C355.337 56.5537 354.683 56.1467 354.12 55.6301C354.12 55.5501 354.91 55.9901 356.19 56.4801C357.881 57.0578 359.664 57.3188 361.45 57.2501C363.233 57.3039 365.008 56.9978 366.67 56.3501C367.94 55.8301 368.67 55.3601 368.72 55.4401Z" fill="white"/>
<path d="M368.72 77.0001C368.17 77.5311 367.525 77.955 366.82 78.2501C365.137 79.0176 363.299 79.3871 361.45 79.3301C359.603 79.4076 357.762 79.087 356.05 78.3901C355.337 78.1137 354.683 77.7068 354.12 77.1901C354.12 77.1101 354.91 77.5601 356.19 78.0501C357.883 78.6192 359.665 78.8767 361.45 78.8101C363.233 78.864 365.008 78.5579 366.67 77.9101C367.94 77.3901 368.67 76.9201 368.72 77.0001Z" fill="white"/>
<path d="M368.72 82.3101C368.172 82.844 367.527 83.2683 366.82 83.5601C365.14 84.337 363.3 84.707 361.45 84.6401C359.603 84.7175 357.762 84.3969 356.05 83.7001C355.335 83.4282 354.68 83.0207 354.12 82.5001C354.12 82.4201 354.91 82.8701 356.19 83.3601C357.882 83.9339 359.665 84.1916 361.45 84.1201C363.232 84.1717 365.006 83.8692 366.67 83.2301C367.94 82.7001 368.67 82.2401 368.72 82.3101Z" fill="white"/>
<path d="M222.39 38.75H94.0598C89.5201 38.75 85.8398 42.4302 85.8398 46.97V95.98C85.8398 100.52 89.5201 104.2 94.0598 104.2H222.39C226.93 104.2 230.61 100.52 230.61 95.98V46.97C230.61 42.4302 226.93 38.75 222.39 38.75Z" fill="#E0E0E0"/>
<path d="M153.32 68.68V71.28H151V68.75C148.941 68.6857 146.942 68.0447 145.23 66.9L146.5 64.07C147.832 64.9989 149.383 65.5642 151 65.71V61.84C148.43 61.22 145.55 60.36 145.55 57.05C145.55 54.59 147.34 52.48 151 52.05V49.49H153.32V52C154.976 52.0907 156.587 52.574 158.02 53.41L156.86 56.26C155.773 55.6245 154.569 55.2163 153.32 55.06V59C155.89 59.6 158.72 60.46 158.72 63.72C158.72 66.16 157 68.24 153.32 68.68ZM151 58.44V55.15C149.77 55.42 149.28 56.1 149.28 56.86C149.28 57.62 150 58.11 151 58.44ZM155 64.02C155 63.21 154.32 62.77 153.33 62.42V65.62C154.48 65.37 155 64.76 155 64V64.02Z" fill="#EBEBEB"/>
<path d="M164.43 85.0501V87.0501H162.63V85.0501C161.036 84.9997 159.487 84.5044 158.16 83.6201L159.16 81.4301C160.19 82.1477 161.39 82.5853 162.64 82.7001V79.7001C160.64 79.2201 158.42 78.5601 158.42 75.9901C158.42 74.0901 159.81 72.4601 162.64 72.1301V70.1301H164.44V72.1301C165.723 72.1959 166.972 72.5697 168.08 73.2201L167.18 75.4301C166.339 74.9377 165.407 74.6212 164.44 74.5001V77.5001C166.44 77.9601 168.62 78.6301 168.62 81.1601C168.61 83.0901 167.24 84.7101 164.43 85.0501ZM162.63 77.1201V74.5701C161.68 74.7801 161.3 75.3001 161.3 75.9001C161.3 76.5001 161.84 76.8701 162.63 77.1201ZM165.72 81.4401C165.72 80.8101 165.2 80.4401 164.43 80.2001V82.6801C165.32 82.4801 165.72 82.0001 165.72 81.4401Z" fill="#EBEBEB"/>
<path d="M98.7799 61.89H97.1099V61.46H101V61.89H99.3299V66.2H98.8299L98.7799 61.89Z" fill="#263238"/>
<path d="M100.91 64.4201C100.908 64.0597 101.013 63.7069 101.212 63.4062C101.411 63.1056 101.694 62.8708 102.026 62.7315C102.359 62.5922 102.725 62.5548 103.079 62.6238C103.433 62.6929 103.758 62.8655 104.013 63.1196C104.269 63.3737 104.443 63.698 104.514 64.0513C104.585 64.4046 104.55 64.7711 104.412 65.1042C104.275 65.4374 104.042 65.7222 103.742 65.9227C103.443 66.1231 103.09 66.2301 102.73 66.2301C102.49 66.2384 102.25 66.1973 102.026 66.1094C101.802 66.0215 101.599 65.8887 101.428 65.7191C101.258 65.5495 101.124 65.3467 101.034 65.1233C100.945 64.8998 100.903 64.6605 100.91 64.4201ZM104.05 64.4201C104.04 64.159 103.954 63.9065 103.801 63.6943C103.649 63.482 103.437 63.3194 103.193 63.2267C102.949 63.134 102.682 63.1152 102.427 63.1729C102.173 63.2305 101.94 63.362 101.76 63.5508C101.579 63.7396 101.458 63.9775 101.412 64.2346C101.366 64.4918 101.396 64.7569 101.5 64.9969C101.603 65.2368 101.775 65.4409 101.994 65.5838C102.213 65.7266 102.469 65.8019 102.73 65.8001C102.909 65.8032 103.087 65.7691 103.253 65.7001C103.418 65.631 103.568 65.5285 103.692 65.3989C103.816 65.2693 103.912 65.1154 103.973 64.9469C104.035 64.7785 104.061 64.5991 104.05 64.4201Z" fill="#263238"/>
<path d="M107.4 66.0001C107.184 66.1709 106.915 66.2595 106.64 66.2501C106.506 66.2589 106.372 66.2391 106.247 66.192C106.122 66.1448 106.008 66.0715 105.913 65.9768C105.819 65.8821 105.745 65.7683 105.698 65.643C105.651 65.5176 105.631 65.3837 105.64 65.2501V63.0001H105V62.5901H105.64V61.8101H106.12V62.5901H107.21V63.0001H106.12V65.1301C106.107 65.2157 106.115 65.3031 106.141 65.3856C106.167 65.4681 106.212 65.5436 106.271 65.6062C106.331 65.6689 106.405 65.7171 106.486 65.7472C106.567 65.7773 106.654 65.7886 106.74 65.7801C106.932 65.7832 107.12 65.7196 107.27 65.6001L107.4 66.0001Z" fill="#263238"/>
<path d="M111 64.0001V66.2101H110.54V65.6501C110.407 65.8496 110.222 66.0096 110.006 66.1134C109.789 66.2172 109.549 66.2609 109.31 66.2401C108.51 66.2401 108.01 65.8201 108.01 65.2401C108.01 64.6601 108.36 64.2401 109.39 64.2401H110.52V64.0001C110.52 63.3901 110.17 63.0601 109.52 63.0601C109.086 63.0529 108.663 63.2019 108.33 63.4801L108.12 63.1201C108.531 62.7937 109.045 62.6236 109.57 62.6401C109.758 62.6138 109.949 62.6302 110.13 62.6882C110.311 62.7461 110.476 62.8442 110.613 62.9749C110.751 63.1057 110.857 63.2658 110.924 63.4433C110.991 63.6208 111.017 63.8112 111 64.0001ZM110.52 65.1401V64.5501H109.4C108.71 64.5501 108.49 64.8301 108.49 65.1901C108.49 65.5501 108.82 65.8601 109.39 65.8601C109.624 65.8641 109.854 65.7963 110.049 65.6658C110.244 65.5353 110.394 65.3484 110.48 65.1301L110.52 65.1401Z" fill="#263238"/>
<path d="M112.27 61.1699H112.75V66.1699H112.27V61.1699Z" fill="#263238"/>
<path d="M115.54 63.83C115.524 63.3348 115.656 62.8462 115.919 62.4266C116.183 62.0069 116.565 61.6754 117.018 61.4743C117.471 61.2733 117.973 61.2118 118.461 61.2979C118.949 61.3839 119.4 61.6135 119.757 61.9573C120.113 62.3012 120.359 62.7436 120.463 63.2279C120.567 63.7123 120.524 64.2167 120.34 64.6765C120.155 65.1364 119.838 65.5308 119.428 65.8093C119.019 66.0878 118.535 66.2377 118.04 66.24C117.715 66.255 117.391 66.2035 117.087 66.0889C116.783 65.9742 116.505 65.7988 116.271 65.5732C116.037 65.3476 115.851 65.0767 115.726 64.7769C115.6 64.4772 115.537 64.155 115.54 63.83ZM120.02 63.83C120.02 63.4344 119.903 63.0477 119.683 62.7188C119.463 62.3899 119.151 62.1336 118.785 61.9822C118.42 61.8308 118.018 61.7912 117.63 61.8684C117.242 61.9456 116.885 62.1361 116.606 62.4158C116.326 62.6955 116.135 63.0518 116.058 63.4398C115.981 63.8278 116.021 64.2299 116.172 64.5954C116.323 64.9608 116.58 65.2732 116.909 65.4929C117.238 65.7127 117.624 65.83 118.02 65.83C118.283 65.837 118.546 65.7899 118.79 65.6916C119.035 65.5933 119.257 65.4459 119.443 65.2585C119.628 65.0711 119.773 64.8476 119.869 64.6019C119.965 64.3563 120.01 64.0935 120 63.83H120.02Z" fill="#263238"/>
<path d="M123.34 62.61V63.07H123.23C123.06 63.0609 122.891 63.0895 122.734 63.1538C122.576 63.218 122.435 63.3163 122.321 63.4415C122.206 63.5668 122.12 63.7159 122.07 63.8782C122.02 64.0404 122.006 64.2118 122.03 64.38V66.2H121.55V62.63H122V63.33C122.123 63.0873 122.317 62.8882 122.557 62.7595C122.797 62.6307 123.07 62.5786 123.34 62.61Z" fill="#263238"/>
<path d="M127.42 61.1701V66.1701H127V65.4601C126.858 65.6941 126.656 65.886 126.415 66.016C126.175 66.1461 125.904 66.2096 125.63 66.2001C125.15 66.2001 124.69 66.0094 124.35 65.67C124.011 65.3306 123.82 64.8702 123.82 64.3901C123.82 63.9101 124.011 63.4497 124.35 63.1103C124.69 62.7708 125.15 62.5801 125.63 62.5801C125.896 62.57 126.161 62.6292 126.397 62.7519C126.634 62.8746 126.835 63.0566 126.98 63.2801V61.1401L127.42 61.1701ZM126.95 64.4201C126.94 64.159 126.854 63.9066 126.701 63.6943C126.549 63.4821 126.337 63.3195 126.093 63.2267C125.849 63.134 125.582 63.1153 125.328 63.1729C125.073 63.2306 124.841 63.362 124.66 63.5508C124.479 63.7397 124.358 63.9775 124.312 64.2347C124.266 64.4919 124.296 64.757 124.4 64.9969C124.503 65.2369 124.675 65.441 124.894 65.5838C125.113 65.7267 125.369 65.8019 125.63 65.8001C125.814 65.8104 125.997 65.7816 126.169 65.7158C126.34 65.6499 126.496 65.5485 126.625 65.4181C126.755 65.2877 126.855 65.1313 126.92 64.9593C126.984 64.7873 127.012 64.6035 127 64.4201H126.95Z" fill="#263238"/>
<path d="M131.87 64.5599H128.87C128.879 64.7338 128.922 64.9042 128.998 65.0611C129.073 65.2181 129.179 65.3583 129.31 65.4738C129.44 65.5893 129.592 65.6776 129.757 65.7336C129.922 65.7896 130.096 65.8121 130.27 65.7999C130.474 65.8068 130.677 65.7692 130.865 65.6898C131.054 65.6104 131.222 65.491 131.36 65.3399L131.63 65.6499C131.375 65.9179 131.046 66.1045 130.685 66.1865C130.324 66.2684 129.947 66.2421 129.601 66.1108C129.256 65.9795 128.956 65.749 128.741 65.4482C128.525 65.1474 128.403 64.7897 128.39 64.4199C128.39 63.9611 128.572 63.5211 128.897 63.1966C129.221 62.8722 129.661 62.6899 130.12 62.6899C130.579 62.6899 131.019 62.8722 131.343 63.1966C131.668 63.5211 131.85 63.9611 131.85 64.4199L131.87 64.5599ZM128.87 64.2099H131.39C131.39 63.8758 131.257 63.5553 131.021 63.319C130.785 63.0827 130.464 62.9499 130.13 62.9499C129.796 62.9499 129.475 63.0827 129.239 63.319C129.003 63.5553 128.87 63.8758 128.87 64.2099Z" fill="#263238"/>
<path d="M134.65 62.6101V63.0701H134.54C134.37 63.0611 134.201 63.0897 134.043 63.1539C133.886 63.2182 133.745 63.3164 133.63 63.4417C133.516 63.5669 133.43 63.7161 133.38 63.8783C133.33 64.0406 133.316 64.212 133.34 64.3801V66.2001H132.86V62.6301H133.32V63.3301C133.442 63.0892 133.635 62.8913 133.873 62.7627C134.11 62.6341 134.381 62.5809 134.65 62.6101Z" fill="#263238"/>
<path d="M103.58 72.22V86.93H100.18V75H97.1799V72.27L103.58 72.22Z" fill="#263238"/>
<path d="M117.14 84.1601V86.9301H106V84.7301L111.68 79.3701C112.98 78.1201 113.21 77.3701 113.21 76.6501C113.21 75.5001 112.41 74.8201 110.86 74.8201C110.278 74.8064 109.701 74.9339 109.178 75.1916C108.656 75.4493 108.203 75.8296 107.86 76.3001L105.38 74.7001C106.053 73.7982 106.938 73.0763 107.957 72.5984C108.975 72.1204 110.096 71.9012 111.22 71.9601C114.5 71.9601 116.69 73.6501 116.69 76.3201C116.69 77.7501 116.29 79.0501 114.23 80.9601L110.85 84.1601H117.14Z" fill="#263238"/>
<path d="M118.51 79.58C118.51 74.72 121.2 71.96 124.82 71.96C128.44 71.96 131.12 74.72 131.12 79.58C131.12 84.44 128.45 87.19 124.82 87.19C121.19 87.19 118.51 84.43 118.51 79.58ZM127.7 79.58C127.7 76.23 126.52 74.84 124.82 74.84C123.12 74.84 121.96 76.23 121.96 79.58C121.96 82.93 123.13 84.31 124.82 84.31C126.51 84.31 127.7 82.92 127.7 79.58Z" fill="#263238"/>
<path d="M215.84 59.21H179.77C178.019 59.21 176.6 60.6292 176.6 62.38V83.27C176.6 85.0207 178.019 86.44 179.77 86.44H215.84C217.591 86.44 219.01 85.0207 219.01 83.27V62.38C219.01 60.6292 217.591 59.21 215.84 59.21Z" fill="#F5F5F5"/>
<path d="M188.32 64.22H181.41V66.73H188.32V64.22Z" fill="#E0E0E0"/>
<path d="M189.76 71.8899C188.145 72.159 186.505 72.2496 184.87 72.1599C183.232 72.2492 181.589 72.1587 179.97 71.8899C181.59 71.6336 183.232 71.5465 184.87 71.6299C186.505 71.5462 188.143 71.6333 189.76 71.8899Z" fill="#E0E0E0"/>
<path d="M196.46 71.89C194.85 72.2499 193.18 72.2499 191.57 71.89C193.182 71.5435 194.848 71.5435 196.46 71.89Z" fill="#E0E0E0"/>
<path d="M214.67 71.8901C212.246 72.2502 209.783 72.2502 207.36 71.8901C209.784 71.5435 212.246 71.5435 214.67 71.8901Z" fill="#E0E0E0"/>
<path d="M205.63 71.8899C203.291 72.2499 200.91 72.2499 198.57 71.8899C200.911 71.5432 203.29 71.5432 205.63 71.8899Z" fill="#E0E0E0"/>
<path d="M187.39 78C184.992 78.3467 182.557 78.3467 180.16 78C182.557 77.6533 184.992 77.6533 187.39 78Z" fill="#E0E0E0"/>
<path d="M193.53 80.5901C191.31 80.8531 189.073 80.9401 186.84 80.8501C184.61 80.9403 182.376 80.8533 180.16 80.5901C182.377 80.3329 184.61 80.246 186.84 80.3301C189.073 80.2462 191.31 80.3331 193.53 80.5901Z" fill="#E0E0E0"/>
<path d="M214.67 80.59C212.803 80.9366 210.887 80.9366 209.02 80.59C209.937 80.3363 210.892 80.2483 211.84 80.33C212.791 80.2471 213.75 80.3352 214.67 80.59Z" fill="#E0E0E0"/>
<path d="M249.72 64.19H248.05V63.75H251.89V64.19H250.22V68.5H249.72V64.19Z" fill="white"/>
<path d="M251.85 66.7101C251.85 66.3502 251.957 65.9983 252.157 65.699C252.357 65.3997 252.641 65.1664 252.973 65.0287C253.306 64.8909 253.672 64.8549 254.025 64.9251C254.378 64.9953 254.702 65.1687 254.957 65.4232C255.211 65.6777 255.385 66.002 255.455 66.3551C255.525 66.7081 255.489 67.0741 255.351 67.4066C255.214 67.7392 254.98 68.0234 254.681 68.2234C254.382 68.4234 254.03 68.5301 253.67 68.5301C253.429 68.5385 253.188 68.4972 252.964 68.4087C252.739 68.3202 252.535 68.1864 252.364 68.0157C252.194 67.845 252.06 67.641 251.971 67.4164C251.883 67.1918 251.842 66.9514 251.85 66.7101ZM254.99 66.7101C254.978 66.4495 254.89 66.1982 254.736 65.9873C254.583 65.7764 254.371 65.6153 254.126 65.5241C253.882 65.4329 253.616 65.4156 253.362 65.4743C253.108 65.533 252.876 65.6651 252.697 65.8543C252.517 66.0435 252.397 66.2813 252.352 66.5381C252.306 66.795 252.337 67.0596 252.441 67.2989C252.545 67.5383 252.716 67.7419 252.935 67.8843C253.153 68.0268 253.409 68.1018 253.67 68.1001C253.851 68.1048 254.031 68.0715 254.199 68.0025C254.366 67.9334 254.517 67.8302 254.642 67.6993C254.768 67.5684 254.864 67.4128 254.926 67.2425C254.987 67.0722 255.013 66.8908 255 66.7101H254.99Z" fill="white"/>
<path d="M258.33 68.2799C258.118 68.4509 257.852 68.5396 257.58 68.5299C257.446 68.5388 257.312 68.519 257.187 68.4718C257.062 68.4247 256.948 68.3514 256.853 68.2567C256.759 68.162 256.685 68.0482 256.638 67.9228C256.591 67.7975 256.571 67.6635 256.58 67.5299V65.3799H255.94V64.9699H256.58V64.1899H257V64.9699H258.08V65.3799H257V67.5099C256.987 67.5956 256.994 67.683 257.021 67.7655C257.047 67.848 257.092 67.9235 257.151 67.9861C257.211 68.0488 257.284 68.097 257.366 68.1271C257.447 68.1572 257.534 68.1685 257.62 68.1599C257.811 68.1663 257.998 68.0982 258.14 67.9699L258.33 68.2799Z" fill="white"/>
<path d="M261.9 66.2899V68.4999H261.44V67.9399C261.307 68.1394 261.122 68.2994 260.906 68.4032C260.689 68.507 260.449 68.5507 260.21 68.5299C259.4 68.5299 258.91 68.1099 258.91 67.5299C258.91 66.9499 259.26 66.5299 260.28 66.5299H261.42V66.3199C261.44 66.1839 261.428 66.0451 261.385 65.9145C261.342 65.784 261.269 65.6653 261.172 65.5681C261.075 65.4709 260.956 65.3978 260.825 65.3547C260.695 65.3116 260.556 65.2997 260.42 65.3199C259.986 65.3161 259.565 65.4648 259.23 65.7399L259.01 65.3899C259.421 65.0622 259.934 64.8888 260.46 64.8999C260.651 64.875 260.844 64.8934 261.027 64.9537C261.21 65.014 261.376 65.1147 261.515 65.2482C261.653 65.3818 261.759 65.5448 261.826 65.7251C261.893 65.9054 261.918 66.0985 261.9 66.2899ZM261.42 67.4299V66.8399H260.3C259.61 66.8399 259.38 67.1099 259.38 67.4799C259.38 67.8499 259.71 68.1499 260.28 68.1499C260.522 68.1652 260.762 68.1038 260.966 67.9745C261.171 67.8453 261.33 67.6547 261.42 67.4299Z" fill="white"/>
<path d="M263.2 63.47H263.68V68.47H263.2V63.47Z" fill="white"/>
<path d="M270.14 68.5L269.06 67H268.68H267.4V68.51H266.9V63.76H268.68C269.88 63.76 270.61 64.37 270.61 65.39C270.626 65.7242 270.528 66.054 270.332 66.3249C270.136 66.5958 269.853 66.7916 269.53 66.88L270.69 68.51L270.14 68.5ZM270.14 65.38C270.14 64.62 269.64 64.19 268.69 64.19H267.4V66.56H268.66C269.61 66.56 270.11 66.12 270.11 65.38H270.14Z" fill="white"/>
<path d="M274.8 66.86H271.8C271.809 67.0339 271.852 67.2043 271.928 67.3612C272.003 67.5181 272.109 67.6584 272.24 67.7739C272.37 67.8893 272.522 67.9776 272.687 68.0336C272.852 68.0896 273.026 68.1122 273.2 68.1C273.404 68.1068 273.607 68.0693 273.796 67.9898C273.984 67.9104 274.152 67.791 274.29 67.64L274.56 67.95C274.389 68.1419 274.177 68.2935 273.94 68.3938C273.703 68.4941 273.447 68.5406 273.19 68.53C272.945 68.544 272.7 68.5068 272.47 68.421C272.24 68.3351 272.031 68.2024 271.855 68.0313C271.679 67.8601 271.54 67.6543 271.448 67.4268C271.356 67.1994 271.313 66.9553 271.32 66.71C271.308 66.475 271.344 66.2399 271.426 66.0194C271.508 65.7988 271.635 65.5975 271.798 65.4278C271.961 65.2582 272.157 65.1238 272.374 65.033C272.591 64.9422 272.825 64.8969 273.06 64.9C273.295 64.8953 273.529 64.9396 273.746 65.03C273.964 65.1204 274.16 65.2549 274.322 65.425C274.485 65.5952 274.611 65.7973 274.691 66.0184C274.772 66.2396 274.805 66.4751 274.79 66.71C274.79 66.71 274.8 66.81 274.8 66.86ZM271.8 66.5H274.33C274.302 66.1839 274.156 65.8898 273.922 65.6756C273.688 65.4614 273.382 65.3426 273.065 65.3426C272.748 65.3426 272.442 65.4614 272.208 65.6756C271.974 65.8898 271.828 66.1839 271.8 66.5Z" fill="white"/>
<path d="M278.71 64.9299L277.13 68.4999H276.63L275.06 64.9299H275.56L276.89 67.9299L278.24 64.9299H278.71Z" fill="white"/>
<path d="M282.39 66.86H279.39C279.4 67.0334 279.445 67.2032 279.521 67.3595C279.596 67.5157 279.703 67.6555 279.833 67.7707C279.963 67.8859 280.114 67.9743 280.279 68.0308C280.443 68.0873 280.617 68.1108 280.79 68.1C280.994 68.1082 281.198 68.0713 281.386 67.9917C281.575 67.9122 281.743 67.7921 281.88 67.64L282.16 67.95C281.903 68.2171 281.573 68.4026 281.211 68.4834C280.849 68.5643 280.471 68.5369 280.125 68.4048C279.779 68.2726 279.479 68.0414 279.263 67.7401C279.047 67.4387 278.924 67.0805 278.91 66.71C278.898 66.475 278.934 66.2399 279.016 66.0194C279.098 65.7988 279.225 65.5975 279.388 65.4278C279.551 65.2582 279.747 65.1238 279.964 65.033C280.181 64.9422 280.415 64.8969 280.65 64.9C280.885 64.8953 281.119 64.9396 281.336 65.03C281.554 65.1204 281.75 65.2549 281.913 65.425C282.075 65.5952 282.201 65.7973 282.281 66.0184C282.362 66.2396 282.395 66.4751 282.38 66.71C282.38 66.71 282.39 66.81 282.39 66.86ZM279.39 66.5H281.92C281.892 66.1839 281.746 65.8898 281.512 65.6756C281.278 65.4614 280.972 65.3426 280.655 65.3426C280.338 65.3426 280.032 65.4614 279.798 65.6756C279.564 65.8898 279.418 66.1839 279.39 66.5Z" fill="white"/>
<path d="M286.66 66.43V68.5H286.18V66.5C286.18 65.74 285.79 65.36 285.11 65.36C284.939 65.3473 284.767 65.3723 284.607 65.4333C284.447 65.4942 284.302 65.5896 284.183 65.7126C284.064 65.8356 283.973 65.9834 283.917 66.1454C283.861 66.3073 283.842 66.4796 283.86 66.65V68.52H283.38V64.95H283.84V65.61C283.986 65.3854 284.188 65.2032 284.427 65.0821C284.666 64.9609 284.933 64.905 285.2 64.92C285.4 64.9057 285.6 64.9354 285.787 65.007C285.974 65.0786 286.143 65.1903 286.282 65.3342C286.422 65.4782 286.527 65.6509 286.593 65.8402C286.658 66.0295 286.681 66.2308 286.66 66.43Z" fill="white"/>
<path d="M291.18 64.9302V68.5002H290.72V67.8502C290.586 68.0673 290.397 68.2448 290.172 68.3643C289.947 68.4839 289.694 68.5411 289.44 68.5302C289.235 68.5509 289.028 68.5254 288.833 68.4556C288.639 68.3857 288.464 68.2733 288.319 68.1265C288.174 67.9798 288.064 67.8024 287.996 67.6075C287.929 67.4126 287.906 67.205 287.93 67.0002V64.9302H288.41V66.9302C288.387 67.0796 288.398 67.2323 288.442 67.3768C288.486 67.5214 288.563 67.654 288.666 67.7647C288.769 67.8754 288.896 67.9613 289.037 68.0159C289.178 68.0706 289.329 68.0925 289.48 68.0802C289.649 68.0885 289.818 68.0599 289.976 67.9963C290.133 67.9328 290.274 67.8359 290.39 67.7122C290.506 67.5886 290.594 67.4412 290.648 67.2802C290.701 67.1193 290.719 66.9487 290.7 66.7802V64.9102L291.18 64.9302Z" fill="white"/>
<path d="M295.63 66.86H292.63C292.639 67.0339 292.682 67.2043 292.758 67.3612C292.833 67.5181 292.939 67.6584 293.07 67.7739C293.2 67.8893 293.352 67.9776 293.517 68.0336C293.682 68.0896 293.856 68.1122 294.03 68.1C294.234 68.1069 294.437 68.0693 294.626 67.9899C294.814 67.9104 294.983 67.7911 295.12 67.64L295.39 67.95C295.133 68.2171 294.803 68.4026 294.441 68.4835C294.079 68.5643 293.701 68.537 293.355 68.4048C293.009 68.2726 292.709 68.0415 292.493 67.7401C292.277 67.4388 292.154 67.0805 292.14 66.71C292.128 66.4741 292.164 66.2382 292.247 66.017C292.329 65.7958 292.457 65.594 292.621 65.4241C292.785 65.2543 292.983 65.1202 293.201 65.03C293.419 64.9398 293.654 64.8956 293.89 64.9C294.125 64.8952 294.358 64.9395 294.575 65.03C294.792 65.1205 294.988 65.2552 295.149 65.4255C295.311 65.5958 295.436 65.798 295.515 66.0192C295.594 66.2404 295.627 66.4756 295.61 66.71L295.63 66.86ZM292.63 66.5H295.15C295.15 66.1658 295.017 65.8453 294.781 65.6091C294.545 65.3728 294.224 65.24 293.89 65.24C293.556 65.24 293.235 65.3728 292.999 65.6091C292.763 65.8453 292.63 66.1658 292.63 66.5Z" fill="white"/>
<path d="M253.64 87.05V88.72H252.15V87.1C250.826 87.0575 249.541 86.6453 248.44 85.91L249.26 84.09C250.117 84.6834 251.112 85.0482 252.15 85.15V82.66C250.5 82.25 248.65 81.66 248.65 79.57C248.65 77.99 249.8 76.63 252.15 76.36V74.71H253.64V76.33C254.697 76.3948 255.725 76.7064 256.64 77.24L255.9 79.08C255.195 78.6728 254.417 78.4078 253.61 78.3V80.84C255.27 81.22 257.09 81.78 257.09 83.84C257.12 85.43 256 86.77 253.64 87.05ZM252.15 80.46V78.35C251.36 78.53 251.05 78.96 251.05 79.45C251.05 79.94 251.5 80.26 252.15 80.46ZM254.72 84.06C254.72 83.54 254.29 83.25 253.64 83.06V85.12C254.39 84.92 254.72 84.53 254.72 84.06Z" fill="white"/>
<path d="M262 76.5V86.93H259.58V78.44H257.5V76.5H262Z" fill="white"/>
<path d="M271.69 83.65C271.69 85.5 270.33 87.11 267.35 87.11C265.937 87.136 264.547 86.7504 263.35 86L264.35 84.15C265.223 84.7777 266.275 85.1074 267.35 85.09C268.56 85.09 269.35 84.58 269.35 83.73C269.35 82.88 268.81 82.37 266.92 82.37H264.25L264.78 76.5H271.15V78.44H266.7L266.53 80.44H267.38C270.47 80.42 271.69 81.81 271.69 83.65Z" fill="white"/>
<path d="M275.49 85.5901C275.47 86.1117 275.329 86.6216 275.08 87.0801L274.23 89.2301H272.76L273.42 86.8601C273.169 86.7599 272.956 86.5834 272.81 86.3556C272.665 86.1277 272.595 85.8599 272.61 85.5901C272.604 85.399 272.638 85.2089 272.709 85.0315C272.78 84.8541 272.887 84.6933 273.023 84.5591C273.159 84.4249 273.322 84.3202 273.5 84.2515C273.678 84.1829 273.869 84.1517 274.06 84.1601C274.25 84.1515 274.44 84.1827 274.617 84.2515C274.794 84.3204 274.956 84.4254 275.09 84.56C275.225 84.6945 275.33 84.8555 275.398 85.0329C275.467 85.2103 275.498 85.4 275.49 85.5901Z" fill="white"/>
<path d="M276.38 81.7201C276.38 78.2701 278.29 76.3201 280.85 76.3201C283.41 76.3201 285.33 78.3201 285.33 81.7201C285.33 85.1201 283.43 87.1101 280.85 87.1101C278.27 87.1101 276.38 85.1601 276.38 81.7201ZM282.9 81.7201C282.9 79.3501 282.06 78.3601 280.9 78.3601C279.74 78.3601 278.9 79.3601 278.9 81.7201C278.9 84.0801 279.73 85.0701 280.9 85.0701C282.07 85.0701 282.9 84.0901 282.9 81.7201Z" fill="white"/>
<path d="M286.5 81.7201C286.5 78.2701 288.41 76.3201 290.97 76.3201C293.53 76.3201 295.44 78.3201 295.44 81.7201C295.44 85.1201 293.55 87.1101 290.97 87.1101C288.39 87.1101 286.5 85.1601 286.5 81.7201ZM293.01 81.7201C293.01 79.3501 292.18 78.3601 291.01 78.3601C289.84 78.3601 289.01 79.3601 289.01 81.7201C289.01 84.0801 289.85 85.0701 291.01 85.0701C292.17 85.0701 293 84.0901 293 81.7201H293.01Z" fill="white"/>
<path d="M296.61 81.7201C296.61 78.2701 298.52 76.3201 301.09 76.3201C303.66 76.3201 305.56 78.3201 305.56 81.7201C305.56 85.1201 303.67 87.1101 301.09 87.1101C298.51 87.1101 296.61 85.1601 296.61 81.7201ZM303.13 81.7201C303.13 79.3501 302.3 78.3601 301.13 78.3601C299.96 78.3601 299.13 79.3601 299.13 81.7201C299.13 84.0801 299.97 85.0701 301.13 85.0701C302.29 85.0701 303.13 84.0901 303.13 81.7201Z" fill="white"/>
<path d="M371.14 233.77H371.67C372.188 233.743 372.703 233.676 373.21 233.57C375.395 233.126 377.369 231.965 378.818 230.271C380.268 228.577 381.11 226.447 381.21 224.22C381.27 223.31 381.21 222.36 381.21 221.37C381.21 217.417 381.21 212.873 381.21 207.74C381.21 197.48 381.21 184.93 381.21 170.36C381.21 163.08 381.21 155.3 381.21 147.02C381.21 142.893 381.21 138.647 381.21 134.28C381.21 132.1 381.21 129.89 381.21 127.65C381.21 126.54 381.21 125.4 381.16 124.3C381.041 123.184 380.737 122.096 380.26 121.08C379.293 118.995 377.627 117.315 375.55 116.33C374.505 115.829 373.382 115.511 372.23 115.39C371.07 115.3 369.86 115.39 368.67 115.39H322.65H253.79H96.01C94.2976 115.393 92.6144 115.834 91.12 116.67C89.6388 117.512 88.399 118.721 87.52 120.18C86.6389 121.637 86.1529 123.298 86.11 125C86.11 126.72 86.11 128.46 86.11 130.18C86.11 137.087 86.11 143.95 86.11 150.77V222.7C86.086 223.485 86.1228 224.271 86.22 225.05C86.4386 226.593 87.0251 228.061 87.93 229.33C88.8171 230.598 89.9918 231.638 91.358 232.364C92.7242 233.091 94.2429 233.483 95.79 233.51H123.56L252.43 233.57L339.31 233.65L362.93 233.7L339.31 233.75L252.43 233.83L123.54 234H95.76C94.1406 233.97 92.5511 233.559 91.12 232.8C89.6838 232.034 88.4447 230.946 87.5 229.62C86.5497 228.286 85.9356 226.742 85.71 225.12C85.6005 224.318 85.5604 223.509 85.59 222.7V220.3C85.59 217.087 85.59 213.863 85.59 210.63V130.16C85.59 128.43 85.59 126.71 85.59 124.96C85.6347 123.173 86.1448 121.429 87.07 119.9C87.9973 118.358 89.3081 117.082 90.8748 116.197C92.4415 115.313 94.2107 114.848 96.01 114.85H253.79H322.65H368.57C369.77 114.85 370.95 114.85 372.16 114.91C373.941 115.096 375.644 115.737 377.104 116.772C378.565 117.807 379.735 119.201 380.5 120.82C380.988 121.875 381.299 123.004 381.42 124.16C381.51 125.32 381.42 126.43 381.47 127.55V134.18C381.47 138.54 381.47 142.787 381.47 146.92C381.47 155.193 381.47 162.973 381.47 170.26C381.47 184.83 381.47 197.38 381.42 207.64C381.42 212.773 381.42 217.317 381.42 221.27C381.42 222.27 381.42 223.21 381.42 224.12C381.368 224.997 381.207 225.863 380.94 226.7C380.461 228.148 379.669 229.473 378.62 230.58C377.186 232.072 375.335 233.096 373.31 233.52C372.795 233.616 372.274 233.676 371.75 233.7L371.14 233.77Z" fill="#E0E0E0"/>
<path d="M185.77 188.97H176.17V227.08H185.77V188.97Z" fill="#EBEBEB"/>
<path d="M200.15 200.5H190.55V227.08H200.15V200.5Z" fill="#EBEBEB"/>
<path d="M171.99 200.5H162.39V227.08H171.99V200.5Z" fill="#EBEBEB"/>
<path d="M143.83 223.54H134.23V227.08H143.83V223.54Z" fill="#EBEBEB"/>
<path d="M158.1 218.2H148.5V227.08H158.1V218.2Z" fill="#EBEBEB"/>
<path d="M130.08 224.13H120.48V227.08H130.08V224.13Z" fill="#EBEBEB"/>
<path d="M115.66 224.13H106.06V227.08H115.66V224.13Z" fill="#EBEBEB"/>
<path d="M215.29 205.85H205.69V227.08H215.29V205.85Z" fill="#EBEBEB"/>
<path d="M230.44 211.68H220.84V227.08H230.44V211.68Z" fill="#EBEBEB"/>
<path d="M245.58 200.5H235.98V227.08H245.58V200.5Z" fill="#EBEBEB"/>
<path d="M260.72 183.9H251.12V227.08H260.72V183.9Z" fill="#EBEBEB"/>
<path d="M275.86 171.12H266.26V227.08H275.86V171.12Z" fill="#EBEBEB"/>
<path d="M291.01 188.97H281.41V227.08H291.01V188.97Z" fill="#EBEBEB"/>
<path d="M306.15 154.76H296.55V227.08H306.15V154.76Z" fill="#EBEBEB"/>
<path d="M321.29 188.97H311.69V227.08H321.29V188.97Z" fill="#EBEBEB"/>
<path d="M336.43 200.5H326.83V227.08H336.43V200.5Z" fill="#EBEBEB"/>
<path d="M351.58 205.49H341.98V227.08H351.58V205.49Z" fill="#EBEBEB"/>
<path d="M366.72 211.68H357.12V227.08H366.72V211.68Z" fill="#EBEBEB"/>
<path d="M114 227.08H114.94H117.71H128.35H132C133.337 227.102 134.673 227.032 136 226.87C139.019 226.505 141.921 225.481 144.5 223.87C145.923 222.968 147.198 221.851 148.28 220.56C149.346 219.116 150.227 217.544 150.9 215.88C152.4 212.48 153.76 208.79 155.15 204.88C156.54 200.97 157.93 196.88 159.42 192.63C160.17 190.5 160.93 188.33 161.81 186.15C162.696 183.917 163.795 181.774 165.09 179.75C166.441 177.607 168.095 175.67 170 174C171.965 172.328 174.21 171.014 176.63 170.12C179.132 169.22 181.771 168.757 184.43 168.75C187.154 168.702 189.87 169.038 192.5 169.75C193.839 170.119 195.138 170.618 196.38 171.24C197.631 171.894 198.808 172.682 199.89 173.59C202.053 175.476 203.823 177.77 205.1 180.34C206.328 182.97 207.332 185.7 208.1 188.5C208.98 191.28 209.86 194.09 210.84 196.89C212.681 202.635 215.252 208.12 218.49 213.21C220.151 215.784 222.322 217.989 224.87 219.69C226.166 220.51 227.604 221.08 229.11 221.37C229.865 221.517 230.631 221.594 231.4 221.6C232.18 221.6 232.96 221.6 233.73 221.48C235.823 221.326 237.864 220.751 239.73 219.79C241.544 218.751 243.1 217.315 244.28 215.59C245.49 213.88 246.5 212.04 247.53 210.23C248.546 208.422 249.467 206.563 250.29 204.66C253.57 197.09 255.61 189.2 258.67 181.92C260.037 178.275 261.651 174.726 263.5 171.3C265.326 167.97 267.646 164.936 270.38 162.3C271.697 160.998 273.164 159.857 274.75 158.9C276.322 157.964 278.001 157.218 279.75 156.68C283.129 155.664 286.656 155.234 290.18 155.41C293.549 155.549 296.877 156.2 300.05 157.34C303.069 158.453 305.851 160.126 308.25 162.27C312.94 166.41 316.34 171.27 320.25 175.11C323.905 178.659 328.366 181.271 333.25 182.72C337.299 184 341.484 184.799 345.72 185.1L363.29 185.16H367.82C368.82 185.16 369.36 185.16 369.36 185.16H367.82H363.29L345.72 185.22C341.456 184.942 337.24 184.16 333.16 182.89C328.237 181.482 323.724 178.914 320 175.4C316.08 171.53 312.66 166.69 308 162.61C305.629 160.505 302.885 158.864 299.91 157.77C296.779 156.648 293.494 156.014 290.17 155.89C286.7 155.719 283.226 156.146 279.9 157.15C276.451 158.229 273.312 160.122 270.75 162.67C268.059 165.277 265.77 168.269 263.96 171.55C262.13 174.962 260.533 178.493 259.18 182.12C256.13 189.38 254.1 197.25 250.8 204.88C249.976 206.797 249.051 208.67 248.03 210.49C247.028 212.35 245.93 214.155 244.74 215.9C243.517 217.69 241.903 219.177 240.02 220.25C238.086 221.257 235.965 221.856 233.79 222.01C233 222.12 232.2 222.09 231.41 222.13C230.608 222.125 229.807 222.045 229.02 221.89C227.453 221.589 225.957 220.995 224.61 220.14C221.995 218.406 219.768 216.148 218.07 213.51C214.809 208.381 212.218 202.856 210.36 197.07C209.36 194.26 208.5 191.44 207.63 188.66C206.856 185.888 205.853 183.185 204.63 180.58C203.386 178.065 201.656 175.822 199.54 173.98C198.492 173.089 197.348 172.318 196.13 171.68C194.917 171.072 193.648 170.583 192.34 170.22C189.754 169.511 187.081 169.175 184.4 169.22C181.796 169.223 179.212 169.673 176.76 170.55C172.08 172.348 168.104 175.606 165.42 179.84C162.76 183.84 161.29 188.39 159.77 192.62C158.25 196.85 156.84 200.97 155.47 204.87C154.1 208.77 152.69 212.45 151.17 215.87C150.477 217.555 149.577 219.147 148.49 220.61C147.38 221.922 146.075 223.055 144.62 223.97C142.002 225.584 139.064 226.608 136.01 226.97C134.683 227.125 133.346 227.185 132.01 227.15H128.3L117.66 227.1H114.89C114.27 227.1 114 227.08 114 227.08Z" fill="#FF725E"/>
<path d="M207 138.58H153C152.594 138.58 152.205 138.741 151.918 139.028C151.631 139.315 151.47 139.704 151.47 140.11V158.68C151.469 158.881 151.507 159.081 151.584 159.267C151.66 159.453 151.773 159.623 151.915 159.765C152.058 159.907 152.227 160.02 152.413 160.096C152.599 160.173 152.799 160.211 153 160.21H180.32C180.533 160.21 180.743 160.254 180.938 160.34C181.133 160.426 181.307 160.552 181.45 160.71C182.31 161.66 183.45 162.89 184.29 163.79C184.434 163.946 184.609 164.07 184.803 164.155C184.998 164.24 185.208 164.284 185.42 164.284C185.632 164.284 185.842 164.24 186.037 164.155C186.231 164.07 186.406 163.946 186.55 163.79L189.33 160.72C189.473 160.562 189.647 160.436 189.842 160.35C190.037 160.264 190.247 160.22 190.46 160.22H207C207.406 160.22 207.795 160.059 208.082 159.772C208.369 159.485 208.53 159.096 208.53 158.69V140.11C208.527 139.705 208.365 139.317 208.079 139.031C207.793 138.745 207.405 138.583 207 138.58Z" fill="#FF725E"/>
<path d="M147.78 191.46H102.78C102.539 191.46 102.307 191.556 102.136 191.726C101.966 191.897 101.87 192.129 101.87 192.37V203.37C101.87 203.611 101.966 203.843 102.136 204.013C102.307 204.184 102.539 204.28 102.78 204.28H119C119.126 204.279 119.252 204.306 119.367 204.358C119.483 204.409 119.586 204.485 119.67 204.58C120.18 205.14 120.86 205.88 121.36 206.41C121.445 206.503 121.549 206.577 121.664 206.627C121.779 206.678 121.904 206.704 122.03 206.704C122.156 206.704 122.28 206.678 122.396 206.627C122.511 206.577 122.615 206.503 122.7 206.41L124.36 204.59C124.444 204.495 124.547 204.419 124.662 204.368C124.778 204.316 124.903 204.289 125.03 204.29H147.74C147.981 204.29 148.213 204.194 148.383 204.023C148.554 203.853 148.65 203.621 148.65 203.38V192.38C148.653 192.144 148.563 191.916 148.401 191.744C148.239 191.572 148.016 191.47 147.78 191.46Z" fill="#F5F5F5"/>
<path d="M187.23 168.83C187.23 169.245 187.107 169.651 186.876 169.997C186.645 170.342 186.317 170.611 185.934 170.77C185.55 170.929 185.128 170.971 184.72 170.89C184.313 170.809 183.939 170.609 183.645 170.315C183.351 170.021 183.151 169.647 183.07 169.24C182.989 168.832 183.031 168.41 183.19 168.026C183.349 167.643 183.618 167.315 183.963 167.084C184.309 166.853 184.715 166.73 185.13 166.73C185.687 166.73 186.221 166.951 186.615 167.345C187.009 167.739 187.23 168.273 187.23 168.83Z" fill="#FF725E"/>
<path d="M185.13 171C184.709 171 184.297 170.875 183.947 170.641C183.596 170.407 183.323 170.074 183.162 169.685C183.001 169.296 182.959 168.868 183.041 168.454C183.123 168.041 183.326 167.662 183.624 167.364C183.922 167.066 184.301 166.863 184.714 166.781C185.128 166.699 185.556 166.741 185.945 166.902C186.334 167.063 186.667 167.336 186.901 167.687C187.135 168.037 187.26 168.449 187.26 168.87C187.257 169.434 187.032 169.974 186.633 170.373C186.234 170.772 185.694 170.997 185.13 171ZM185.13 166.79C184.719 166.79 184.316 166.912 183.974 167.141C183.632 167.369 183.366 167.694 183.208 168.074C183.051 168.454 183.01 168.872 183.09 169.276C183.17 169.679 183.368 170.05 183.659 170.341C183.95 170.632 184.321 170.83 184.724 170.91C185.128 170.99 185.546 170.949 185.926 170.792C186.306 170.634 186.631 170.368 186.859 170.026C187.088 169.684 187.21 169.281 187.21 168.87C187.215 168.593 187.165 168.319 187.063 168.062C186.961 167.805 186.809 167.571 186.615 167.373C186.421 167.176 186.19 167.019 185.935 166.912C185.68 166.805 185.407 166.75 185.13 166.75V166.79Z" fill="#FF725E"/>
<path d="M165.52 152.87V153.87H164.61V152.87C163.792 152.844 162.999 152.587 162.32 152.13L162.82 151.01C163.35 151.379 163.967 151.607 164.61 151.67V150.13C163.61 149.88 162.45 149.54 162.45 148.23C162.45 147.23 163.15 146.42 164.61 146.23V145.23H165.52V146.23C166.18 146.259 166.823 146.452 167.39 146.79L166.93 147.92C166.498 147.665 166.018 147.501 165.52 147.44V149C166.52 149.24 167.66 149.58 167.66 150.87C167.66 151.87 167 152.7 165.52 152.87ZM164.61 148.81V147.51C164.12 147.62 163.93 147.88 163.93 148.19C163.93 148.5 164.2 148.68 164.61 148.81ZM166.19 151.02C166.19 150.7 165.92 150.53 165.52 150.39V151.66C166 151.56 166.19 151.32 166.19 151V151.02Z" fill="white"/>
<path d="M170.67 146.37V152.8H169.18V147.56H167.89V146.37H170.67Z" fill="white"/>
<path d="M176.65 150.78C176.65 151.92 175.81 152.91 173.97 152.91C173.104 152.923 172.252 152.683 171.52 152.22L172.11 151.08C172.643 151.463 173.284 151.666 173.94 151.66C174.68 151.66 175.14 151.35 175.14 150.82C175.14 150.29 174.81 149.99 173.64 149.99H172L172.33 146.37H176.25V147.56H173.57L173.47 148.78H174C175.89 148.78 176.65 149.64 176.65 150.78Z" fill="white"/>
<path d="M179 152C178.985 152.321 178.9 152.636 178.75 152.92L178.22 154.24H177.32L177.72 152.78C177.566 152.718 177.435 152.61 177.345 152.47C177.256 152.33 177.212 152.166 177.22 152C177.217 151.882 177.238 151.765 177.283 151.655C177.327 151.546 177.394 151.447 177.478 151.364C177.563 151.282 177.663 151.217 177.774 151.175C177.884 151.133 178.002 151.115 178.12 151.12C178.237 151.116 178.353 151.136 178.462 151.179C178.57 151.221 178.669 151.286 178.751 151.368C178.834 151.451 178.899 151.55 178.941 151.658C178.984 151.767 179.004 151.883 179 152Z" fill="white"/>
<path d="M179.54 149.58C179.54 147.46 180.71 146.26 182.29 146.26C183.87 146.26 185.05 147.46 185.05 149.58C185.05 151.7 183.88 152.91 182.29 152.91C180.7 152.91 179.54 151.7 179.54 149.58ZM183.54 149.58C183.54 148.12 183.03 147.52 182.28 147.52C181.53 147.52 181.03 148.12 181.03 149.58C181.03 151.04 181.55 151.65 182.28 151.65C183.01 151.65 183.55 151 183.55 149.58H183.54Z" fill="white"/>
<path d="M185.77 149.58C185.77 147.46 186.95 146.26 188.53 146.26C190.11 146.26 191.29 147.46 191.29 149.58C191.29 151.7 190.12 152.91 188.53 152.91C186.94 152.91 185.77 151.7 185.77 149.58ZM189.77 149.58C189.77 148.12 189.25 147.52 188.51 147.52C187.77 147.52 187.26 148.12 187.26 149.58C187.26 151.04 187.77 151.65 188.51 151.65C189.25 151.65 189.79 151 189.79 149.58H189.77Z" fill="white"/>
<path d="M192 149.58C192 147.46 193.17 146.26 194.75 146.26C196.33 146.26 197.51 147.46 197.51 149.58C197.51 151.7 196.34 152.91 194.75 152.91C193.16 152.91 192 151.7 192 149.58ZM196 149.58C196 148.12 195.49 147.52 194.74 147.52C193.99 147.52 193.49 148.12 193.49 149.58C193.49 151.04 194.01 151.65 194.74 151.65C195.47 151.65 196 151 196 149.58Z" fill="white"/>
<path d="M72.68 0.530029H391.32C392.911 0.530029 394.437 1.16217 395.563 2.28739C396.688 3.41261 397.32 4.93873 397.32 6.53003V19.16H66.71V6.50003C66.7178 4.91912 67.3494 3.4052 68.4672 2.28732C69.5851 1.16943 71.0991 0.537914 72.68 0.530029Z" fill="#263238"/>
<path d="M78.69 12.7599C80.1591 12.7599 81.35 11.569 81.35 10.0999C81.35 8.63086 80.1591 7.43994 78.69 7.43994C77.221 7.43994 76.03 8.63086 76.03 10.0999C76.03 11.569 77.221 12.7599 78.69 12.7599Z" fill="#F5F5F5"/>
<path d="M86.9801 12.7599C88.4491 12.7599 89.6401 11.569 89.6401 10.0999C89.6401 8.63086 88.4491 7.43994 86.9801 7.43994C85.511 7.43994 84.3201 8.63086 84.3201 10.0999C84.3201 11.569 85.511 12.7599 86.9801 12.7599Z" fill="#F5F5F5"/>
<path d="M95.2699 12.7599C96.7389 12.7599 97.9299 11.569 97.9299 10.0999C97.9299 8.63086 96.7389 7.43994 95.2699 7.43994C93.8008 7.43994 92.6099 8.63086 92.6099 10.0999C92.6099 11.569 93.8008 12.7599 95.2699 12.7599Z" fill="#F5F5F5"/>
<path d="M422.86 412.36C427.368 412.397 431.747 410.858 435.242 408.01C438.736 405.162 441.126 401.183 442 396.76C445.18 380.62 449.27 358.04 449.4 332.68C449.48 317.13 446 297.44 441.19 282.68C434.19 261.08 419.13 242.05 397.29 235.82C368.92 227.72 358.65 230.82 338.53 241.38C316.65 252.85 310.73 274.38 287.95 283.96C265.84 293.25 239.17 290.08 219.01 303.08C201.28 314.52 192.63 336.49 191.93 357.58C191.405 368.787 192.493 380.012 195.16 390.91C197.91 402.42 208.3 412.29 220.16 412.39L422.86 412.36Z" fill="#E2E2E2"/>
<g opacity="0.4">
<path d="M422.86 412.36C427.368 412.397 431.747 410.858 435.242 408.01C438.736 405.162 441.126 401.183 442 396.76C445.18 380.62 449.27 358.04 449.4 332.68C449.48 317.13 446 297.44 441.19 282.68C434.19 261.08 419.13 242.05 397.29 235.82C368.92 227.72 358.65 230.82 338.53 241.38C316.65 252.85 310.73 274.38 287.95 283.96C265.84 293.25 239.17 290.08 219.01 303.08C201.28 314.52 192.63 336.49 191.93 357.58C191.405 368.787 192.493 380.012 195.16 390.91C197.91 402.42 208.3 412.29 220.16 412.39L422.86 412.36Z" fill="#777777"/>
</g>
<path d="M408.28 239.64C408.361 239.767 408.431 239.901 408.49 240.04C408.63 240.34 408.82 240.74 409.07 241.25C409.58 242.35 410.3 243.92 411.23 245.92L412.78 249.3C413.34 250.55 413.78 251.94 414.41 253.42C415.04 254.9 415.59 256.49 416.24 258.16C416.89 259.83 417.49 261.65 418.1 263.55C418.71 265.45 419.34 267.46 420 269.55C420.36 270.55 420.63 271.67 420.91 272.77C421.19 273.87 421.48 274.98 421.77 276.12L422.66 279.6C422.81 280.18 422.97 280.78 423.12 281.37C423.27 281.96 423.37 282.59 423.49 283.2C423.99 285.66 424.49 288.2 425.01 290.78C426.99 302.089 428.163 313.525 428.52 325C428.75 336.467 428.296 347.937 427.16 359.35C426.53 364.6 426.02 369.6 425.16 374.23C424.79 376.55 424.48 378.8 424.09 380.94C423.7 383.08 423.28 385.14 422.9 387.1C422.19 391.04 421.32 394.55 420.62 397.64C420.26 399.19 419.93 400.64 419.62 401.95L418.62 405.55C418.04 407.68 417.62 409.35 417.28 410.55L416.91 411.84C416.88 411.988 416.833 412.133 416.77 412.27C416.787 412.118 416.817 411.967 416.86 411.82C416.93 411.5 417.04 411.07 417.17 410.52C417.46 409.35 417.87 407.67 418.4 405.52C418.67 404.44 418.98 403.23 419.31 401.92C419.64 400.61 419.92 399.15 420.31 397.6C420.98 394.5 421.82 390.99 422.5 387.05C422.873 385.09 423.26 383.04 423.66 380.9C424.03 378.75 424.33 376.5 424.66 374.19C425.44 369.56 425.93 364.56 426.55 359.33C427.655 347.935 428.089 336.486 427.85 325.04C427.499 313.603 426.346 302.205 424.4 290.93C423.9 288.337 423.403 285.817 422.91 283.37L422.55 281.55L422.1 279.77C421.8 278.6 421.51 277.44 421.22 276.3C420.93 275.16 420.65 274.05 420.38 272.95C420.11 271.85 419.84 270.77 419.49 269.74L417.62 263.74C417.04 261.84 416.49 260.02 415.81 258.35C415.13 256.68 414.58 255.08 414.03 253.6C413.48 252.12 412.98 250.72 412.45 249.47L411 246C410.12 244 409.43 242.4 408.94 241.29L408.42 240.06C408.358 239.926 408.311 239.785 408.28 239.64Z" fill="#263238"/>
<path d="M221.86 412.2L202.94 441.83L165.94 418.47C168.39 415.08 192 420.07 192 420.07L203.35 400.59L221.86 412.2Z" fill="#455A64"/>
<g opacity="0.6">
<path d="M204.47 425.69C204.755 426.024 204.907 426.451 204.898 426.89C204.889 427.328 204.719 427.749 204.42 428.07C204.102 428.373 203.679 428.543 203.24 428.543C202.801 428.543 202.378 428.373 202.06 428.07C201.755 427.716 201.593 427.261 201.604 426.794C201.615 426.326 201.799 425.88 202.12 425.54C202.488 425.264 202.949 425.141 203.405 425.197C203.862 425.252 204.28 425.483 204.57 425.84" fill="white"/>
</g>
<g opacity="0.6">
<path d="M202.94 441.83L204.73 438.77L168.61 417.52C168.61 417.52 166.51 417.2 165.96 418.52L202.94 441.83Z" fill="white"/>
</g>
<path d="M191.54 419.5C191.43 419.69 192.28 420.34 192.8 421.5C193.32 422.66 193.32 423.7 193.53 423.73C193.74 423.76 194.13 422.55 193.48 421.18C192.83 419.81 191.6 419.31 191.54 419.5Z" fill="#263238"/>
<path d="M186.65 418.66C186.5 418.81 187.08 419.61 187.21 420.76C187.34 421.91 187.01 422.83 187.21 422.93C187.41 423.03 188.15 422.09 187.96 420.66C187.77 419.23 186.76 418.49 186.65 418.66Z" fill="#263238"/>
<path d="M181.51 421.91C181.65 422.05 182.51 421.31 182.63 420.02C182.75 418.73 182.2 417.81 182.03 417.92C181.86 418.03 182.03 418.92 181.9 419.92C181.77 420.92 181.34 421.78 181.51 421.91Z" fill="#263238"/>
<path d="M194.62 415.35C194.62 415.56 195.57 415.84 196.55 416.55C197.53 417.26 198.12 418.09 198.31 417.99C198.5 417.89 198.15 416.77 196.98 415.99C195.81 415.21 194.62 415.15 194.62 415.35Z" fill="#263238"/>
<path d="M198.27 411.52C198.22 411.59 198.86 412.15 200.13 412.68C200.871 412.985 201.647 413.196 202.44 413.31C202.911 413.375 203.385 413.408 203.86 413.41C204.139 413.43 204.42 413.403 204.69 413.33C204.89 413.277 205.066 413.158 205.191 412.994C205.316 412.829 205.383 412.627 205.38 412.42C205.37 412.237 205.316 412.06 205.224 411.902C205.132 411.743 205.004 411.609 204.85 411.51C204.618 411.362 204.365 411.247 204.1 411.17C202.871 410.757 201.558 410.658 200.28 410.88C199.548 410.945 198.851 411.227 198.28 411.69C198.28 411.81 199.1 411.5 200.39 411.4C201.138 411.341 201.891 411.378 202.63 411.51C203.062 411.592 203.487 411.709 203.9 411.86C204.36 412 204.69 412.21 204.68 412.45C204.67 412.69 204.68 412.57 204.51 412.63C204.31 412.674 204.105 412.694 203.9 412.69C203.44 412.69 202.99 412.69 202.57 412.63C201.814 412.551 201.067 412.4 200.34 412.18C199.667 411.91 198.975 411.689 198.27 411.52Z" fill="#263238"/>
<path d="M198.34 411.93C198.34 411.99 199.15 411.57 199.96 410.45C200.414 409.781 200.752 409.041 200.96 408.26C201.084 407.795 201.164 407.32 201.2 406.84C201.253 406.532 201.225 406.216 201.12 405.922C201.015 405.627 200.836 405.365 200.6 405.16C200.437 405.053 200.245 404.995 200.05 404.995C199.854 404.995 199.663 405.053 199.5 405.16C199.272 405.318 199.067 405.507 198.89 405.72C198.019 406.733 197.585 408.048 197.68 409.38C197.8 410.8 198.41 411.49 198.47 411.44C198.345 410.755 198.255 410.064 198.2 409.37C198.216 408.637 198.394 407.917 198.72 407.26C198.907 406.894 199.146 406.557 199.43 406.26C199.73 405.9 200.08 405.68 200.2 405.81C200.32 405.94 200.51 406.42 200.47 406.81C200.452 407.245 200.392 407.677 200.29 408.1C200.122 408.826 199.849 409.523 199.48 410.17C198.88 411.28 198.26 411.84 198.34 411.93Z" fill="#263238"/>
<path d="M248.33 320L237 353.25L195.53 339.36C197.1 335.48 221.22 334.71 221.22 334.71L227.6 313.09L248.33 320Z" fill="#455A64"/>
<g opacity="0.6">
<path d="M234.64 337.21C234.997 337.465 235.248 337.841 235.346 338.269C235.444 338.697 235.381 339.146 235.17 339.53C234.93 339.899 234.556 340.16 234.128 340.261C233.7 340.362 233.249 340.293 232.87 340.07C232.49 339.801 232.223 339.4 232.121 338.946C232.02 338.491 232.091 338.015 232.32 337.61C232.611 337.25 233.03 337.018 233.489 336.962C233.948 336.906 234.411 337.031 234.78 337.31" fill="white"/>
</g>
<g opacity="0.6">
<path d="M237 353.25L238 349.85L197.87 337.8C197.87 337.8 195.75 337.98 195.53 339.36L237 353.25Z" fill="white"/>
</g>
<path d="M220.61 334.27C220.55 334.48 221.54 334.91 222.31 335.89C223.08 336.87 223.31 337.89 223.55 337.89C223.79 337.89 223.85 336.6 222.89 335.42C221.93 334.24 220.63 334.07 220.61 334.27Z" fill="#263238"/>
<path d="M215.66 334.61C215.55 334.79 216.31 335.43 216.71 336.52C217.11 337.61 217.01 338.58 217.21 338.64C217.41 338.7 217.93 337.59 217.41 336.25C216.89 334.91 215.73 334.42 215.66 334.61Z" fill="#263238"/>
<path d="M211.45 339C211.62 339.11 212.24 338.19 212.09 336.91C211.94 335.63 211.09 334.91 211 335C210.91 335.09 211.25 335.93 211.35 337C211.45 338.07 211.25 338.91 211.45 339Z" fill="#263238"/>
<path d="M222.62 329.51C222.62 329.72 223.62 329.75 224.78 330.21C225.94 330.67 226.67 331.33 226.83 331.21C226.99 331.09 226.38 330.06 225.06 329.53C223.74 329 222.57 329.31 222.62 329.51Z" fill="#263238"/>
<path d="M225.25 324.92C225.871 325.327 226.589 325.562 227.33 325.6C228.124 325.723 228.931 325.743 229.73 325.66C230.201 325.615 230.669 325.538 231.13 325.43C231.41 325.379 231.679 325.284 231.93 325.15C232.101 325.053 232.237 324.903 232.318 324.723C232.399 324.544 232.421 324.343 232.38 324.15C232.322 323.977 232.227 323.819 232.101 323.688C231.974 323.557 231.82 323.455 231.65 323.39C231.385 323.302 231.109 323.252 230.83 323.24C230.351 323.2 229.869 323.2 229.39 323.24C228.586 323.325 227.8 323.534 227.06 323.86C225.8 324.43 225.21 325.07 225.27 325.14C225.33 325.21 226.02 324.76 227.27 324.35C227.983 324.118 228.722 323.973 229.47 323.92C229.906 323.886 230.344 323.886 230.78 323.92C231.26 323.92 231.64 324.07 231.68 324.3C231.72 324.53 231.68 324.42 231.56 324.52C231.377 324.614 231.182 324.681 230.98 324.72C230.549 324.833 230.111 324.92 229.67 324.98C228.921 325.084 228.165 325.118 227.41 325.08C226.695 324.973 225.973 324.919 225.25 324.92Z" fill="#263238"/>
<path d="M225.42 325.3C225.48 325.35 226.13 324.76 226.64 323.47C226.933 322.713 227.095 321.912 227.12 321.1C227.132 320.621 227.095 320.142 227.01 319.67C226.987 319.355 226.883 319.051 226.708 318.789C226.532 318.526 226.292 318.313 226.01 318.17C225.824 318.11 225.625 318.105 225.437 318.157C225.248 318.208 225.079 318.314 224.95 318.46C224.764 318.669 224.606 318.901 224.48 319.15C224.252 319.59 224.094 320.062 224.01 320.55C223.861 321.365 223.92 322.204 224.18 322.99C224.63 324.34 225.39 324.86 225.43 324.8C225.143 324.168 224.893 323.521 224.68 322.86C224.524 322.142 224.524 321.399 224.68 320.68C224.772 320.268 224.92 319.871 225.12 319.5C225.33 319.08 225.62 318.78 225.77 318.88C225.92 318.98 226.21 319.39 226.27 319.8C226.352 320.229 226.395 320.664 226.4 321.1C226.407 321.847 226.309 322.591 226.11 323.31C225.79 324.54 225.32 325.23 225.42 325.3Z" fill="#263238"/>
<path d="M317 310.48C317 310.48 285.79 260.39 277.23 246.48C267.31 230.41 246.97 232.48 242.09 246.96C243.18 243.7 238.29 258.06 221.82 311.69L249.57 319.63L267.42 304.47L274.5 324.72L317 310.48Z" fill="#263238"/>
<path d="M312.9 254.67L301.54 293.53L259.51 298.04V305.5L321.27 306.35L329.68 255.75L312.9 254.67Z" fill="#FFBE9D"/>
<path d="M322.91 307.86H265.54C261.073 307.86 256.657 308.807 252.584 310.639C248.511 312.472 244.872 315.147 241.91 318.49C239.923 320.774 238.45 323.458 237.59 326.36L195.59 404.72L222.42 419.54L272.58 348L300.58 348.34L363 309.37L322.91 307.86Z" fill="#263238"/>
<path d="M265.94 332.68C266.521 333.258 267.019 333.915 267.42 334.63C268.477 336.3 269.377 338.065 270.11 339.9C270.838 341.733 271.4 343.627 271.79 345.56C271.989 346.354 272.083 347.171 272.07 347.99C271.9 347.99 271.34 344.33 269.62 340.09C267.9 335.85 265.8 332.77 265.94 332.68Z" fill="#455A64"/>
<path d="M206.67 261.94L230 307.86H303.66L300.66 301.86L279.32 301.22L262 262.52C261.472 261.331 260.612 260.321 259.522 259.611C258.432 258.901 257.16 258.522 255.86 258.52H208.76C208.357 258.518 207.96 258.619 207.607 258.816C207.255 259.012 206.959 259.296 206.749 259.64C206.539 259.984 206.421 260.377 206.407 260.78C206.393 261.183 206.484 261.582 206.67 261.94Z" fill="#E0E0E0"/>
<path d="M244.36 282.26C244.36 282.853 244.184 283.433 243.854 283.927C243.525 284.42 243.056 284.805 242.508 285.032C241.96 285.259 241.357 285.318 240.775 285.202C240.193 285.087 239.658 284.801 239.239 284.381C238.819 283.962 238.533 283.427 238.418 282.845C238.302 282.263 238.361 281.66 238.588 281.112C238.815 280.564 239.2 280.095 239.693 279.766C240.187 279.436 240.767 279.26 241.36 279.26C242.156 279.26 242.919 279.576 243.481 280.139C244.044 280.701 244.36 281.464 244.36 282.26Z" fill="#263238"/>
<path d="M393.67 229.19C391.22 218.1 374.67 213.89 367.21 213.87C356.8 213.87 357.74 213.21 347.51 215.05H346.16C315.06 213.79 311.48 256.51 311.48 256.51L325.66 257.66L321.91 287.09L311.06 307.92L370.79 307.83L374.13 259.2L399.13 258.54C399.13 258.54 396.15 240.4 393.67 229.19Z" fill="#636363"/>
<path d="M327.38 238.42C327.54 238.42 326.49 248.81 325.03 261.59C323.57 274.37 322.27 284.7 322.11 284.69C321.95 284.68 323 274.3 324.46 261.52C325.92 248.74 327.22 238.4 327.38 238.42Z" fill="#263238"/>
<g opacity="0.2">
<path d="M373 238.42C370.45 250.6 367.13 263.11 364.59 275.29C364.04 277.88 363.46 280.56 361.88 282.67C360.837 283.955 359.614 285.083 358.25 286.02C353.25 289.78 347.94 293.31 342.04 295.46C350.563 294.74 359.005 293.271 367.27 291.07C368.714 290.824 370.042 290.123 371.06 289.07C371.766 287.991 372.161 286.739 372.2 285.45C374.03 269.84 373.5 254.1 373 238.38" fill="black"/>
</g>
<path d="M290.5 292.6L309 290.38L322.05 298.93L372 287L373.46 259.16L395.86 258.6L395.33 291.28C395.273 293.779 394.723 296.242 393.713 298.528C392.702 300.814 391.251 302.878 389.441 304.602C387.632 306.326 385.5 307.676 383.167 308.575C380.835 309.474 378.349 309.904 375.85 309.84L302.77 307.84L299.66 301.62L284 301.1L290.5 292.6Z" fill="#FFBE9D"/>
<path d="M372 287C371.695 287.121 371.38 287.218 371.06 287.29L368.35 287.99L358.35 290.49L325.27 298.49L322.19 299.22H322.07L321.96 299.15L308.96 290.58H309.13L290.61 292.72L290.73 292.65L285.84 298.86L284.52 300.5C284.377 300.697 284.213 300.878 284.03 301.04C284.15 300.829 284.287 300.628 284.44 300.44L285.68 298.74L290.44 292.43L290.49 292.37H290.56L309 290.11H309.1H309.18L322.24 298.65H322.01L325.09 297.91L358.22 290.06L368.27 287.74L371.01 287.14C371.336 287.066 371.667 287.019 372 287Z" fill="#EB996E"/>
<path d="M301.25 297.91C298.865 298.199 296.461 298.296 294.06 298.2H292.74L292.93 298.13C291.48 299.455 289.921 300.656 288.27 301.72C289.58 300.263 291.015 298.925 292.56 297.72L292.64 297.65H294.06C296.46 297.544 298.864 297.631 301.25 297.91Z" fill="#EB996E"/>
<path d="M380.69 291.63C379.74 290.135 378.503 288.843 377.05 287.83C374.57 286.23 372.05 286.38 372.05 286.2C372.564 286.01 373.121 285.965 373.66 286.07C374.972 286.204 376.236 286.64 377.353 287.342C378.47 288.045 379.41 288.995 380.1 290.12C380.428 290.562 380.632 291.083 380.69 291.63Z" fill="#EB996E"/>
<path d="M399.14 258.73L393.69 258.93C389.09 259.07 382.69 259.23 375.69 259.37L373.44 259.42H373.15V259.14C372.9 252.62 373.01 246.81 373.15 242.64C373.21 240.55 373.29 238.88 373.36 237.72C373.365 237.12 373.422 236.521 373.53 235.93C373.594 236.528 373.61 237.13 373.58 237.73C373.58 238.98 373.58 240.63 373.58 242.65C373.58 246.82 373.51 252.65 373.78 259.11L373.48 258.84H375.74C382.74 258.7 389.14 258.61 393.74 258.57H399.2C400.43 258.51 397.14 258.65 399.14 258.73Z" fill="#263238"/>
<path d="M360.66 258.9C360.459 259.399 360.218 259.88 359.94 260.34C359.7 260.8 359.4 261.34 359 261.97C358.6 262.6 358.19 263.32 357.65 264.07C356.423 265.858 355.087 267.567 353.65 269.19C351.875 271.168 349.967 273.022 347.94 274.74C345.89 276.43 343.728 277.98 341.47 279.38C339.618 280.499 337.697 281.501 335.72 282.38C334.88 282.78 334.09 283.07 333.41 283.38C332.73 283.69 332.13 283.87 331.64 284.02C331.143 284.222 330.627 284.373 330.1 284.47C330.572 284.218 331.064 284.004 331.57 283.83C332.05 283.65 332.64 283.42 333.3 283.12C333.96 282.82 334.74 282.51 335.56 282.12C337.499 281.192 339.385 280.157 341.21 279.02C345.69 276.236 349.756 272.836 353.29 268.92C354.732 267.328 356.088 265.659 357.35 263.92C357.9 263.18 358.35 262.48 358.76 261.87C359.17 261.26 359.5 260.74 359.76 260.3C360.02 259.809 360.321 259.341 360.66 258.9Z" fill="#263238"/>
<path d="M354.16 159.78H353.16C348.624 159.758 344.243 161.435 340.882 164.482C337.521 167.528 335.422 171.723 335 176.24C334.3 184.87 333.65 194.41 333.72 199.04C333.86 208.63 343.72 210.1 343.72 210.1L343.35 218.61C343.248 221.663 344.339 224.635 346.393 226.897C348.447 229.158 351.301 230.529 354.35 230.72C355.898 230.81 357.448 230.593 358.911 230.08C360.374 229.567 361.72 228.769 362.873 227.732C364.025 226.695 364.96 225.439 365.624 224.038C366.288 222.637 366.667 221.119 366.74 219.57L368.74 179.08C369.63 169.12 364.4 160.34 354.16 159.78Z" fill="#FFBE9D"/>
<path d="M343.59 210.08C348.148 210.078 352.614 208.796 356.48 206.38C356.48 206.38 353.48 213.29 343.63 212.44L343.59 210.08Z" fill="#EB996E"/>
<path d="M338.45 182.19C338.452 182.552 338.596 182.898 338.85 183.156C339.104 183.414 339.448 183.562 339.81 183.57C339.987 183.585 340.165 183.565 340.334 183.51C340.503 183.456 340.659 183.369 340.794 183.253C340.929 183.138 341.04 182.997 341.12 182.838C341.2 182.68 341.247 182.507 341.26 182.33C341.242 181.978 341.093 181.645 340.841 181.399C340.588 181.152 340.252 181.01 339.9 181C339.551 180.969 339.203 181.077 338.932 181.299C338.661 181.522 338.488 181.841 338.45 182.19Z" fill="#263238"/>
<path d="M337.09 180.92C337.26 181.1 338.32 180.33 339.84 180.33C341.36 180.33 342.46 181.07 342.62 180.89C342.78 180.71 342.53 180.49 342.04 180.14C341.385 179.706 340.616 179.474 339.83 179.474C339.044 179.474 338.275 179.706 337.62 180.14C337.16 180.52 337 180.84 337.09 180.92Z" fill="#263238"/>
<path d="M352.57 182.64C352.575 183.001 352.719 183.346 352.973 183.603C353.226 183.86 353.569 184.01 353.93 184.02C354.107 184.035 354.285 184.015 354.454 183.96C354.623 183.906 354.779 183.819 354.914 183.703C355.049 183.588 355.16 183.447 355.24 183.288C355.32 183.13 355.367 182.957 355.38 182.78C355.375 182.416 355.228 182.068 354.97 181.81C354.712 181.552 354.364 181.405 354 181.4C353.646 181.375 353.297 181.492 353.028 181.724C352.76 181.957 352.595 182.286 352.57 182.64Z" fill="#263238"/>
<path d="M351.21 181.17C351.38 181.35 352.45 180.58 353.96 180.58C355.47 180.58 356.58 181.31 356.75 181.13C356.92 180.95 356.65 180.73 356.16 180.39C355.502 179.946 354.724 179.716 353.93 179.73C353.146 179.723 352.379 179.965 351.74 180.42C351.28 180.77 351.12 181.09 351.21 181.17Z" fill="#263238"/>
<path d="M346.49 192.1C345.69 191.86 344.864 191.719 344.03 191.68C343.65 191.68 343.28 191.57 343.21 191.31C343.178 190.919 343.268 190.527 343.47 190.19L344.61 187.33C346.18 183.25 347.32 179.89 347.16 179.83C347 179.77 345.57 183.03 343.99 187.11C343.61 188.11 343.25 189.11 342.9 189.99C342.663 190.445 342.595 190.97 342.71 191.47C342.769 191.602 342.856 191.719 342.965 191.814C343.073 191.909 343.201 191.979 343.34 192.02C343.556 192.076 343.777 192.106 344 192.11C344.827 192.212 345.664 192.208 346.49 192.1Z" fill="#263238"/>
<path d="M350.94 193.11C350.7 193.11 350.7 194.7 349.29 195.84C347.88 196.98 346.14 196.84 346.13 197.03C346.12 197.22 346.52 197.34 347.26 197.35C348.218 197.368 349.152 197.049 349.9 196.45C350.609 195.887 351.068 195.068 351.18 194.17C351.24 193.5 351.06 193.1 350.94 193.11Z" fill="#263238"/>
<path d="M351.55 175.4C351.7 175.8 353.21 175.61 354.99 175.81C356.77 176.01 358.2 176.48 358.43 176.12C358.54 175.95 358.29 175.58 357.71 175.19C356.933 174.713 356.059 174.415 355.152 174.32C354.246 174.225 353.329 174.334 352.47 174.64C351.82 174.89 351.49 175.21 351.55 175.4Z" fill="#263238"/>
<path d="M337.63 176.66C337.9 176.99 338.94 176.66 340.19 176.66C341.44 176.66 342.51 176.88 342.75 176.53C342.86 176.36 342.69 176.02 342.23 175.71C341.603 175.329 340.879 175.138 340.146 175.161C339.412 175.184 338.702 175.42 338.1 175.84C337.66 176.15 337.52 176.5 337.63 176.66Z" fill="#263238"/>
<path d="M367.3 186.18C367.47 186.11 374.06 184.18 373.86 190.77C373.66 197.36 366.94 195.77 366.94 195.59C366.94 195.41 367.3 186.18 367.3 186.18Z" fill="#FFBE9D"/>
<path d="M368.48 193.16C368.48 193.16 368.59 193.25 368.79 193.34C369.07 193.45 369.38 193.45 369.66 193.34C370.099 193.091 370.463 192.729 370.713 192.291C370.963 191.852 371.09 191.355 371.08 190.85C371.119 190.286 371.023 189.72 370.8 189.2C370.743 188.992 370.635 188.801 370.487 188.644C370.339 188.487 370.154 188.369 369.95 188.3C369.818 188.262 369.676 188.271 369.549 188.323C369.422 188.376 369.317 188.47 369.25 188.59C369.15 188.77 369.19 188.91 369.15 188.92C369.11 188.93 369.01 188.8 369.08 188.53C369.12 188.369 369.215 188.227 369.35 188.13C369.545 188.014 369.775 187.968 370 188C370.265 188.055 370.513 188.176 370.721 188.35C370.929 188.525 371.09 188.748 371.19 189C371.458 189.575 371.578 190.207 371.54 190.84C371.546 191.429 371.378 192.007 371.058 192.501C370.738 192.995 370.28 193.385 369.74 193.62C369.559 193.667 369.371 193.674 369.187 193.639C369.004 193.605 368.831 193.53 368.68 193.42C368.48 193.32 368.45 193.17 368.48 193.16Z" fill="#EB996E"/>
<path d="M362.89 166.7L334.82 167.3C335.79 165.432 337.209 163.834 338.95 162.65C342.628 159.895 347.066 158.341 351.66 158.2C356.23 158.12 365.55 163.55 368.86 166.62C371.52 169.08 371.5 171.21 371.5 171.21C371.92 174.76 369.89 178.78 369.08 182.21C368.66 184.01 367.85 189.43 367.85 189.43C366.3 189.43 365.73 188.23 365.97 186.74L366.25 180.9C364.714 179.732 363.609 178.086 363.109 176.222C362.61 174.358 362.744 172.38 363.49 170.6C363.89 170.12 364.74 167.69 362.89 166.7Z" fill="#263238"/>
<path d="M357 187.42C357.022 187.425 357.044 187.424 357.066 187.419C357.087 187.415 357.108 187.405 357.126 187.392C357.144 187.379 357.159 187.362 357.17 187.343C357.181 187.324 357.188 187.302 357.19 187.28C357.196 187.259 357.198 187.236 357.195 187.214C357.192 187.191 357.185 187.17 357.174 187.15C357.163 187.131 357.148 187.113 357.13 187.1C357.112 187.086 357.092 187.076 357.07 187.07C357.024 187.064 356.977 187.077 356.94 187.105C356.902 187.133 356.877 187.174 356.87 187.22C356.861 187.264 356.87 187.309 356.894 187.347C356.918 187.384 356.956 187.411 357 187.42Z" fill="#EB996E"/>
<path d="M354.1 186.79C354.125 186.793 354.15 186.791 354.174 186.784C354.199 186.776 354.221 186.765 354.241 186.749C354.26 186.733 354.276 186.714 354.288 186.691C354.3 186.669 354.308 186.645 354.31 186.62C354.323 186.574 354.318 186.524 354.295 186.481C354.273 186.439 354.235 186.406 354.19 186.39C354.165 186.387 354.14 186.39 354.116 186.397C354.092 186.404 354.069 186.415 354.05 186.431C354.03 186.447 354.014 186.467 354.002 186.489C353.99 186.511 353.983 186.535 353.98 186.56C353.967 186.606 353.972 186.656 353.995 186.699C354.017 186.741 354.055 186.774 354.1 186.79Z" fill="#EB996E"/>
<path d="M352.16 186.75C352.25 186.75 352.34 186.65 352.36 186.5C352.38 186.35 352.36 186.23 352.22 186.22C352.08 186.21 352.04 186.32 352.03 186.46C352.02 186.6 352.07 186.74 352.16 186.75Z" fill="#EB996E"/>
<path d="M355.58 189.19C355.67 189.19 355.75 189.14 355.74 189.09C355.73 189.04 355.67 188.98 355.58 188.98C355.49 188.98 355.41 189.03 355.41 189.09C355.41 189.15 355.49 189.19 355.58 189.19Z" fill="#EB996E"/>
<path d="M352.93 188.6C352.976 188.6 353.02 188.582 353.054 188.551C353.087 188.519 353.107 188.476 353.11 188.43C353.116 188.384 353.103 188.337 353.075 188.3C353.047 188.262 353.006 188.237 352.96 188.23C352.914 188.23 352.87 188.248 352.836 188.279C352.803 188.311 352.782 188.354 352.78 188.4C352.776 188.423 352.776 188.447 352.782 188.47C352.787 188.493 352.797 188.514 352.811 188.533C352.825 188.552 352.843 188.567 352.863 188.579C352.884 188.59 352.907 188.598 352.93 188.6Z" fill="#EB996E"/>
<path d="M339.13 187C339.165 187.009 339.202 187.008 339.236 186.996C339.27 186.984 339.299 186.962 339.321 186.934C339.342 186.905 339.355 186.87 339.356 186.834C339.358 186.798 339.348 186.762 339.329 186.731C339.31 186.701 339.283 186.677 339.25 186.662C339.217 186.647 339.18 186.643 339.145 186.649C339.109 186.655 339.076 186.672 339.051 186.697C339.025 186.723 339.007 186.755 339 186.79C338.991 186.835 338.999 186.882 339.023 186.921C339.047 186.96 339.086 186.988 339.13 187Z" fill="#EB996E"/>
<path d="M337.16 186.85C337.25 186.85 337.33 186.77 337.35 186.66C337.346 186.629 337.333 186.599 337.313 186.574C337.293 186.549 337.266 186.531 337.236 186.521C337.206 186.51 337.174 186.509 337.143 186.516C337.112 186.523 337.083 186.539 337.061 186.561C337.039 186.584 337.023 186.612 337.016 186.643C337.008 186.674 337.01 186.706 337.02 186.737C337.031 186.767 337.049 186.793 337.074 186.813C337.099 186.833 337.128 186.846 337.16 186.85Z" fill="#EB996E"/>
<path d="M340.87 187.07C340.91 187.077 340.95 187.07 340.985 187.05C341.02 187.03 341.046 186.998 341.06 186.96C341.064 186.94 341.064 186.92 341.06 186.9C341.056 186.88 341.047 186.861 341.034 186.845C341.022 186.829 341.006 186.815 340.988 186.806C340.97 186.797 340.95 186.791 340.93 186.79C340.89 186.78 340.848 186.784 340.811 186.803C340.774 186.821 340.746 186.852 340.73 186.89C340.727 186.932 340.739 186.974 340.765 187.007C340.791 187.04 340.828 187.063 340.87 187.07Z" fill="#EB996E"/>
<path d="M339.41 189C339.455 189.013 339.504 189.01 339.546 188.989C339.589 188.969 339.622 188.934 339.64 188.89C339.652 188.87 339.66 188.847 339.663 188.824C339.666 188.801 339.664 188.777 339.658 188.755C339.651 188.732 339.64 188.711 339.625 188.693C339.61 188.675 339.591 188.66 339.57 188.65C339.548 188.642 339.524 188.639 339.5 188.64C339.477 188.641 339.454 188.647 339.432 188.657C339.411 188.667 339.392 188.682 339.376 188.699C339.36 188.717 339.348 188.738 339.34 188.76C339.318 188.801 339.313 188.849 339.327 188.894C339.34 188.939 339.37 188.977 339.41 189Z" fill="#EB996E"/>
<path d="M337.73 188.66C337.75 188.658 337.768 188.651 337.785 188.641C337.802 188.631 337.817 188.618 337.828 188.602C337.839 188.586 337.847 188.568 337.851 188.548C337.855 188.529 337.854 188.509 337.85 188.49C337.834 188.452 337.805 188.422 337.768 188.405C337.731 188.389 337.689 188.387 337.65 188.4C337.612 188.407 337.578 188.429 337.556 188.461C337.533 188.493 337.524 188.532 337.53 188.57C337.537 188.59 337.547 188.607 337.561 188.623C337.575 188.638 337.592 188.65 337.61 188.659C337.629 188.667 337.65 188.672 337.67 188.672C337.691 188.672 337.711 188.668 337.73 188.66Z" fill="#EB996E"/>
<path d="M369.05 167C369.364 165.792 369.385 164.526 369.11 163.308C368.835 162.09 368.273 160.956 367.47 160C366.656 159.019 365.628 158.238 364.465 157.718C363.301 157.198 362.033 156.952 360.76 157C359.462 157.193 358.152 157.286 356.84 157.28C354.41 157.02 352.54 155.13 350.29 154.21C348.518 153.528 346.571 153.446 344.749 153.977C342.926 154.508 341.328 155.623 340.2 157.15C339.34 158.39 338.78 159.93 337.48 160.71C336.35 161.39 334.92 161.33 333.65 161.71C332.395 162.121 331.307 162.928 330.549 164.01C329.792 165.092 329.406 166.39 329.45 167.71C329.575 169.026 330.061 170.282 330.853 171.34C331.645 172.399 332.713 173.219 333.94 173.71C335.192 174.194 336.535 174.398 337.874 174.306C339.213 174.215 340.516 173.83 341.69 173.18C343.81 172.03 345.69 170.08 348.13 170.18C350.57 170.28 352.83 172.56 355.29 172.08C356.543 171.693 357.662 170.962 358.52 169.97C359.38 168.975 360.562 168.313 361.86 168.1C363.18 168.02 363.86 169.78 363.39 170.98L369.05 167.06" fill="#263238"/>
<path d="M335.37 163.83V163.93C335.37 163.99 335.46 164.08 335.54 164.19C335.762 164.524 336.032 164.823 336.34 165.08C337.32 165.915 338.585 166.339 339.87 166.264C341.155 166.19 342.362 165.622 343.24 164.68C343.936 163.754 344.583 162.793 345.18 161.8C345.535 161.301 346.001 160.891 346.54 160.6C347.121 160.325 347.757 160.188 348.4 160.2C349.067 160.22 349.721 160.395 350.31 160.71C350.907 161.033 351.397 161.523 351.72 162.12C352.022 162.75 352.355 163.364 352.72 163.96C352.915 164.265 353.178 164.519 353.489 164.703C353.8 164.887 354.149 164.996 354.51 165.02C355.217 165.041 355.913 164.85 356.51 164.47C357.06 164.142 357.562 163.738 358 163.27C358.733 162.385 359.694 161.717 360.78 161.34C361.269 161.249 361.772 161.259 362.258 161.371C362.743 161.483 363.2 161.694 363.6 161.99C364.27 162.464 364.805 163.105 365.15 163.85C365.414 164.411 365.609 165.002 365.73 165.61C365.83 166.11 365.88 166.51 365.92 166.77C365.921 166.909 365.941 167.047 365.98 167.18V167.07C365.98 167.01 365.98 166.9 365.98 166.77C365.954 166.375 365.907 165.981 365.84 165.59C365.737 164.97 365.556 164.365 365.3 163.79C364.95 163.018 364.41 162.346 363.73 161.84C363.307 161.519 362.822 161.29 362.305 161.167C361.788 161.045 361.252 161.032 360.73 161.13C359.594 161.509 358.588 162.203 357.83 163.13C357.399 163.579 356.912 163.969 356.38 164.29C355.837 164.627 355.209 164.804 354.57 164.8C354.245 164.771 353.931 164.666 353.654 164.492C353.378 164.318 353.147 164.081 352.98 163.8C352.6 163.26 352.35 162.6 351.98 161.98C351.632 161.342 351.108 160.818 350.47 160.47C349.854 160.139 349.169 159.958 348.47 159.94C347.778 159.921 347.092 160.068 346.47 160.37C345.896 160.678 345.403 161.117 345.03 161.65C344.29 162.65 343.85 163.74 343.13 164.52C342.443 165.253 341.551 165.762 340.57 165.98C339.754 166.159 338.906 166.121 338.11 165.87C337.51 165.681 336.951 165.383 336.46 164.99C336.049 164.652 335.682 164.262 335.37 163.83Z" fill="#455A64"/>
<path d="M330.28 163.93C330.21 164.095 330.172 164.271 330.17 164.45C330.128 164.945 330.175 165.443 330.31 165.92C330.517 166.632 330.875 167.29 331.36 167.85C331.975 168.531 332.733 169.067 333.58 169.42C335.137 170.03 336.828 170.216 338.48 169.96C338.975 169.892 339.466 169.795 339.95 169.67C340.132 169.643 340.308 169.586 340.47 169.5C340.47 169.5 339.7 169.64 338.47 169.77C336.856 169.973 335.216 169.77 333.7 169.18C332.888 168.842 332.159 168.334 331.56 167.69C331.088 167.162 330.731 166.543 330.51 165.87C330.323 165.241 330.245 164.585 330.28 163.93Z" fill="#455A64"/>
<path d="M403.49 261C403.32 273.86 395.49 285.71 385.25 293.52C375.01 301.33 362.61 305.66 350.25 309.22C337.89 312.78 325.25 315.73 313.61 321.22C297.51 328.84 282.61 339.29 273.49 354.61C264.37 369.93 261.15 390.06 262.17 407.84L399 394.18L406.49 316.43L403.49 261Z" fill="#E2E2E2"/>
<path d="M280.91 343.71C280.811 343.907 280.694 344.095 280.56 344.27L279.47 345.81C278.99 346.47 278.39 347.27 277.78 348.25C277.17 349.23 276.39 350.3 275.69 351.59C274.99 352.88 274.13 354.21 273.38 355.76C272.63 357.31 271.82 358.94 271.04 360.7C269.414 364.556 268.077 368.526 267.04 372.58C266.086 376.647 265.404 380.773 265 384.93C264.82 386.85 264.66 388.68 264.61 390.39C264.56 392.1 264.51 393.7 264.49 395.16C264.47 396.62 264.49 397.94 264.55 399.1C264.61 400.26 264.62 401.26 264.67 402.1C264.72 402.94 264.73 403.5 264.75 403.98C264.777 404.199 264.777 404.421 264.75 404.64C264.692 404.428 264.659 404.21 264.65 403.99C264.6 403.51 264.54 402.89 264.47 402.12C264.4 401.35 264.3 400.31 264.26 399.12C264.22 397.93 264.11 396.64 264.12 395.17C264.13 393.7 264.12 392.11 264.17 390.38C264.22 388.65 264.36 386.83 264.52 384.89C264.922 380.703 265.617 376.55 266.6 372.46C267.626 368.384 268.963 364.392 270.6 360.52C271.4 358.76 272.16 357.08 273 355.57C273.84 354.06 274.62 352.66 275.37 351.4C276.12 350.14 276.9 349.07 277.54 348.1C278.18 347.13 278.8 346.34 279.31 345.69L280.47 344.22C280.598 344.035 280.745 343.864 280.91 343.71Z" fill="#263238"/>
<g opacity="0.4">
<path d="M403.49 261C403.32 273.86 395.49 285.71 385.25 293.52C375.01 301.33 362.61 305.66 350.25 309.22C337.89 312.78 325.25 315.73 313.61 321.22C297.51 328.84 282.61 339.29 273.49 354.61C264.37 369.93 261.15 390.06 262.17 407.84L399 394.18L406.49 316.43L403.49 261Z" fill="#777777"/>
</g>
<path d="M87.7901 318.85C81.7914 312.855 74.3369 308.523 66.1584 306.279C57.9799 304.035 49.3584 303.956 41.1401 306.05C55.0632 315.536 71.4931 320.667 88.3401 320.79" fill="#FF725E"/>
<path d="M72 262.82C74 249.07 68.6 233.61 58.31 223.62C57.97 237.24 63.72 252.57 72 262.82Z" fill="#FF725E"/>
<path d="M80.19 288.79C72.7561 274.67 60.9215 263.358 46.48 256.57C48.7384 264.483 53.0637 271.652 59.0112 277.34C64.9587 283.027 72.3138 287.028 80.32 288.93" fill="#FF725E"/>
<path d="M81.9001 293.8C73.5901 294.03 65.1901 293.74 57.1601 291.61C49.1301 289.48 41.4401 285.4 36.1001 279.05C52.3655 279.098 68.254 283.951 81.7701 293" fill="#FF725E"/>
<path d="M77.6799 277.29C81.8999 261.5 88.8499 250.57 101.27 241.72C102.22 249.487 100.366 257.339 96.0414 263.86C91.7164 270.381 85.205 275.144 77.6799 277.29Z" fill="#FF725E"/>
<path d="M109 304.53C109.03 299.924 107.699 295.411 105.172 291.559C102.646 287.707 99.0372 284.688 94.8 282.88C95.49 291.03 101.9 300.47 109 304.53Z" fill="#FF725E"/>
<path d="M113 291.22C113.576 284.606 116.03 278.295 120.073 273.03C124.116 267.764 129.579 263.764 135.82 261.5C132.96 274.7 125.32 285.69 113 291.22Z" fill="#FF725E"/>
<path d="M107 314.85C109.93 310.66 114.71 308.06 119.65 306.76C124.59 305.46 129.76 305.35 134.87 305.25C131.387 309.028 127.128 312.007 122.384 313.982C117.64 315.957 112.525 316.881 107.39 316.69" fill="#FF725E"/>
<path d="M101.08 348.52C110.397 345.649 120.451 346.372 129.262 350.546C138.072 354.72 145 362.042 148.68 371.07C131.39 367.79 114.33 360.07 101.08 348.52Z" fill="#FF725E"/>
<path d="M82.0999 336.82C84.9699 345.31 84.4199 355.57 78.0299 362.89C76.7599 358.511 76.4661 353.908 77.1693 349.403C77.8726 344.899 79.5557 340.603 82.0999 336.82Z" fill="#FF725E"/>
<path d="M70.8801 332.1C70.4074 337.567 68.5366 342.821 65.4474 347.357C62.3582 351.893 58.1545 355.558 53.2401 358C53.0114 358.147 52.7551 358.246 52.4869 358.291C52.2187 358.335 51.9441 358.325 51.6801 358.26C50.9001 357.94 50.8301 356.88 50.9301 356.04C52.1801 345.16 60.2401 334.64 70.8801 332.04" fill="#FF725E"/>
<path d="M63.55 331C61.113 333.633 58.1612 335.736 54.8776 337.181C51.5939 338.625 48.0486 339.38 44.4613 339.398C40.874 339.416 37.3213 338.696 34.0235 337.284C30.7257 335.873 27.7531 333.798 25.29 331.19C37.45 329.86 51.49 328.97 63.55 331Z" fill="#FF725E"/>
<path d="M61.73 233.75C61.7633 233.869 61.8034 233.986 61.85 234.1C61.94 234.36 62.06 234.7 62.22 235.1C62.56 236.03 63.05 237.35 63.68 239.04C64.31 240.73 65.09 242.85 65.97 245.29L67.38 249.19C67.86 250.58 68.38 252.05 68.9 253.59C71.05 259.75 73.44 267.15 76.03 275.38C78.62 283.61 81.23 292.73 83.85 302.33C86.47 311.93 88.73 321.16 90.68 329.57C92.63 337.98 94.21 345.57 95.38 352C95.69 353.6 95.97 355.13 96.25 356.57C96.53 358.01 96.72 359.39 96.94 360.67C97.38 363.22 97.76 365.42 98.01 367.23C98.26 369.04 98.5 370.41 98.65 371.38C98.73 371.84 98.78 372.2 98.83 372.46C98.88 372.72 98.9 372.83 98.9 372.83C98.9111 372.707 98.9111 372.583 98.9 372.46C98.9 372.19 98.82 371.83 98.76 371.37C98.63 370.37 98.45 368.99 98.21 367.2C97.97 365.41 97.63 363.2 97.21 360.62C97 359.34 96.78 357.97 96.55 356.52L95.72 351.94C94.58 345.51 92.98 337.94 91.11 329.47C89.24 321 86.9 311.84 84.31 302.21C81.72 292.58 79.01 283.5 76.45 275.21C73.89 266.92 71.45 259.59 69.22 253.45C68.67 251.91 68.16 250.45 67.67 249.05C67.18 247.65 66.67 246.38 66.22 245.16C65.32 242.73 64.54 240.63 63.86 238.94C63.18 237.25 62.68 235.94 62.31 235.03C62.14 234.6 62 234.27 61.9 234.03C61.8504 233.933 61.7936 233.839 61.73 233.75Z" fill="#263238"/>
<path d="M128.55 268.54L128.34 268.74L127.76 269.35C127.25 269.89 126.52 270.7 125.6 271.77C122.993 274.782 120.6 277.973 118.44 281.32C115.216 286.281 112.695 291.666 110.95 297.32C108.95 303.69 107.69 310.94 106.45 318.52C103.98 333.69 100.95 347.27 98.75 357.1L96.11 368.73C95.81 370.08 95.58 371.15 95.41 371.9C95.34 372.24 95.29 372.51 95.24 372.73C95.2309 372.823 95.2309 372.917 95.24 373.01C95.2815 372.924 95.3118 372.834 95.33 372.74C95.33 372.53 95.45 372.26 95.54 371.92L96.33 368.77C96.99 366 97.94 362.05 99.11 357.17C101.39 347.36 104.48 333.78 106.95 318.6C108.19 311.02 109.42 303.79 111.4 297.44C113.108 291.796 115.581 286.413 118.75 281.44C120.875 278.09 123.213 274.88 125.75 271.83C126.64 270.74 127.36 269.92 127.84 269.36L128.39 268.71C128.5 268.63 128.56 268.55 128.55 268.54Z" fill="#263238"/>
<path d="M59.9199 330.48C60.0621 330.527 60.2102 330.554 60.3599 330.56L61.6199 330.7L62.5299 330.79L63.5999 330.95C64.3799 331.06 65.2599 331.18 66.2199 331.39L67.7299 331.69L69.3399 332.1C70.4699 332.35 71.6299 332.77 72.8699 333.1C75.5263 334.022 78.1046 335.156 80.5799 336.49C83.0284 337.865 85.339 339.473 87.4799 341.29C88.4107 342.09 89.2954 342.941 90.1299 343.84C90.8739 344.604 91.575 345.409 92.2299 346.25C92.8699 346.99 93.3199 347.76 93.7799 348.39C94.1679 348.935 94.5219 349.502 94.8399 350.09L95.4899 351.17C95.5567 351.304 95.6408 351.428 95.7399 351.54C95.7399 351.54 95.7399 351.39 95.5699 351.13C95.3999 350.87 95.2299 350.45 94.9999 350C94.7066 349.395 94.3725 348.81 93.9999 348.25C93.536 347.491 93.0319 346.756 92.4899 346.05C91.8471 345.182 91.1525 344.354 90.4099 343.57C89.5764 342.654 88.6916 341.786 87.7599 340.97C85.5987 339.11 83.2532 337.474 80.7599 336.09C78.2636 334.74 75.6577 333.602 72.9699 332.69C71.7099 332.33 70.5399 331.93 69.3999 331.69L67.7599 331.3L66.2299 331.03C65.2299 330.83 64.3799 330.74 63.5999 330.65L62.5099 330.53L61.5899 330.48H60.3199C60.1873 330.46 60.0525 330.46 59.9199 330.48Z" fill="#263238"/>
<path d="M56.46 268.84C56.7235 269.146 57.0148 269.427 57.33 269.68L59.84 271.85C61.96 273.67 64.92 276.16 68.21 278.85C71.5 281.54 74.49 284.03 76.67 285.78L79.27 287.84C79.5756 288.111 79.9111 288.346 80.27 288.54C80.0041 288.233 79.7095 287.951 79.39 287.7L76.89 285.53C74.76 283.71 71.8 281.22 68.52 278.53C65.24 275.84 62.24 273.35 60.06 271.6L57.46 269.54C57.1543 269.27 56.8188 269.035 56.46 268.84Z" fill="#263238"/>
<path d="M53.47 284.93C53.47 285.05 59.82 287.05 67.73 289.38C75.64 291.71 82.09 293.52 82.13 293.38C82.17 293.24 75.78 291.26 67.86 288.92C59.94 286.58 53.5 284.8 53.47 284.93Z" fill="#263238"/>
<path d="M77.05 278.52C77.3042 278.24 77.5256 277.931 77.71 277.6L79.39 275C80.82 272.84 82.85 269.89 85.25 266.75C87.65 263.61 89.96 260.88 91.66 258.93L93.66 256.62C93.9275 256.353 94.1656 256.058 94.37 255.74C94.0631 255.962 93.7814 256.217 93.53 256.5C93.01 257 92.28 257.76 91.39 258.71C89.63 260.61 87.27 263.32 84.86 266.47C82.45 269.62 80.46 272.61 79.1 274.82C78.42 275.93 77.88 276.82 77.53 277.47C77.33 277.801 77.169 278.153 77.05 278.52Z" fill="#263238"/>
<path d="M99.23 287.45C99.677 288.305 100.178 289.13 100.73 289.92C101.73 291.42 102.98 293.5 104.32 295.86C105.66 298.22 106.79 300.39 107.59 301.98C107.984 302.86 108.439 303.712 108.95 304.53C108.679 303.603 108.325 302.703 107.89 301.84C107.16 300.21 106.07 298 104.73 295.63C103.39 293.26 102.03 291.19 101 289.73C100.485 288.915 99.8925 288.151 99.23 287.45Z" fill="#263238"/>
<path d="M106.82 315.29C106.82 315.35 108.07 314.76 110.07 313.86C112.07 312.96 114.85 311.79 117.99 310.68C121.13 309.57 124.05 308.76 126.17 308.22C128.29 307.68 129.61 307.39 129.6 307.32C129.28 307.304 128.96 307.338 128.65 307.42C128.04 307.51 127.17 307.67 126.09 307.9C123.295 308.516 120.54 309.301 117.84 310.25C115.138 311.191 112.497 312.296 109.93 313.56C108.93 314.05 108.16 314.47 107.63 314.77C107.34 314.909 107.067 315.084 106.82 315.29Z" fill="#263238"/>
<path d="M100.85 348.57C100.973 348.631 101.105 348.675 101.24 348.7L102.39 348.99L106.64 349.99C111.322 350.979 115.952 352.204 120.51 353.66C125.067 355.17 129.43 357.211 133.51 359.74C135.06 360.74 136.26 361.59 137.07 362.22C137.481 362.562 137.912 362.879 138.36 363.17C138.278 363.06 138.184 362.959 138.08 362.87C137.87 362.69 137.59 362.41 137.19 362.08C136.074 361.142 134.905 360.267 133.69 359.46C129.639 356.837 125.271 354.74 120.69 353.22C116.103 351.743 111.427 350.557 106.69 349.67L102.41 348.84C101.897 348.713 101.376 348.622 100.85 348.57Z" fill="#263238"/>
<path d="M79.2399 356.77C79.3699 356.77 80.13 352.31 80.94 346.77C81.75 341.23 82.3099 336.72 82.1799 336.7C82.0499 336.68 81.29 341.16 80.48 346.7C79.67 352.24 79.1099 356.75 79.2399 356.77Z" fill="#263238"/>
<path d="M56.75 348.6C57.4708 347.843 58.139 347.038 58.75 346.19C59.97 344.68 61.65 342.6 63.56 340.33C65.47 338.06 67.23 336.05 68.56 334.59C69.278 333.831 69.9461 333.026 70.56 332.18C70.56 332.18 70.31 332.35 69.92 332.73C69.53 333.11 68.92 333.66 68.3 334.36C66.95 335.77 65.14 337.76 63.23 340.03C61.32 342.3 59.68 344.43 58.52 346.03C57.95 346.82 57.52 347.46 57.19 347.91C57.0106 348.118 56.8623 348.35 56.75 348.6Z" fill="#263238"/>
<path d="M116.28 369.46V380.58H113.5L103.62 411.76H81.7099L72.1399 380.89L68.4299 380.58V369.46H116.28Z" fill="#455A64"/>
<path d="M70.28 380.89C70.28 381.02 79.96 381.12 91.89 381.12C103.82 381.12 113.5 381.02 113.5 380.89C113.5 380.76 103.82 380.66 91.89 380.66C79.96 380.66 70.28 380.76 70.28 380.89Z" fill="#263238"/>
<path d="M54.53 309.39C54.9823 309.565 55.4515 309.692 55.93 309.77L59.78 310.7C63.02 311.5 67.47 312.7 72.3 314.34C77.13 315.98 81.41 317.69 84.47 319.01L88.1 320.59C88.5329 320.813 88.9847 320.997 89.45 321.14C89.0465 320.87 88.6218 320.632 88.18 320.43C87.35 320 86.13 319.43 84.61 318.71C80.64 316.896 76.5777 315.29 72.44 313.9C68.3065 312.512 64.1043 311.337 59.85 310.38C58.22 310.02 56.85 309.75 55.97 309.6C55.4959 309.495 55.0146 309.424 54.53 309.39Z" fill="#263238"/>
<path d="M77.5601 398.2C77.5601 398.33 84.3501 398.44 92.7201 398.44C101.09 398.44 107.88 398.33 107.88 398.2C107.88 398.07 101.09 397.97 92.7201 397.97C84.3501 397.97 77.5601 398.08 77.5601 398.2Z" fill="#FAFAFA"/>
<path d="M76.71 395.63C76.71 395.75 83.9 395.86 92.77 395.86C101.64 395.86 108.84 395.75 108.84 395.63C108.84 395.51 101.64 395.39 92.77 395.39C83.9 395.39 76.71 395.5 76.71 395.63Z" fill="#FAFAFA"/>
</svg>
