<svg width="435" height="435" viewBox="0 0 435 435" fill="none" xmlns="http://www.w3.org/2000/svg">
<path d="M112.239 356.161L110.873 357.622L70.0176 406.316L160.602 406.368L185.519 356.422L112.239 356.161Z" fill="#EBEBEB"/>
<path d="M94.7342 358.431L93.3683 359.945L47.8586 410.292L136.129 410.353L168.014 358.701L94.7342 358.431Z" fill="#FAFAFA"/>
<path d="M94.7341 358.44H95.0647H96.0652H114.84L168.005 358.553H168.353L168.171 358.849L136.32 410.466L136.25 410.57H124.027L47.8498 410.483H47.4148L47.7019 410.161L81.7798 372.586L91.3498 362.146L93.8728 359.397C94.447 358.771 94.7428 358.466 94.7428 358.466L93.8728 359.44C93.2928 360.073 92.4663 361.001 91.3933 362.224L81.9538 372.743L48.0238 410.422L47.8846 410.101H124.053H136.155L135.963 410.205C147.587 391.404 158.462 373.795 167.866 358.57L168.04 358.875L114.97 358.588L100.05 358.51L96.1174 358.466H95.1082L94.7341 358.44Z" fill="#E0E0E0"/>
<path d="M128.386 401.07C128.177 401.09 127.968 401.09 127.759 401.07H126.019H119.459L97.8226 400.939L76.177 400.678L69.5998 400.574L67.8598 400.522C67.6497 400.527 67.4398 400.509 67.2334 400.47C67.4398 400.431 67.65 400.416 67.8598 400.426H69.5998H76.1509L97.7965 400.557L119.433 400.818L125.993 400.948L127.733 401.009C127.952 401.005 128.171 401.026 128.386 401.07Z" fill="#E0E0E0"/>
<path d="M131.004 395.624C130.803 395.657 130.599 395.672 130.395 395.667H128.655H122.261L101.146 395.545L80.0399 395.319L73.6454 395.189L71.9054 395.128C71.7017 395.126 71.4982 395.112 71.2964 395.084C71.4969 395.046 71.7014 395.031 71.9054 395.041H73.6454L80.0399 394.98L101.155 395.11L122.27 395.363L128.673 395.493L130.413 395.554C130.612 395.556 130.81 395.579 131.004 395.624Z" fill="#E0E0E0"/>
<path d="M134.946 390.178C134.746 390.196 134.545 390.196 134.345 390.178H132.605H126.324L105.592 390.056L84.8685 389.803L78.6219 389.76L76.8819 389.708C76.6836 389.707 76.4857 389.689 76.2903 389.656C76.485 389.617 76.6837 389.603 76.8819 389.612H78.6219H84.9033L105.635 389.734L126.359 389.995L132.64 390.117L134.38 390.178C134.568 390.158 134.758 390.158 134.946 390.178Z" fill="#E0E0E0"/>
<path d="M139.504 385.132C139.31 385.147 139.115 385.147 138.921 385.132H137.251H131.091L110.794 385.018L90.4798 384.844L84.3289 384.714L82.6498 384.653C82.4547 384.652 82.26 384.637 82.0669 384.61C82.2575 384.562 82.4533 384.539 82.6498 384.54H84.3289H90.4798L110.786 384.662L131.091 384.905L137.242 385.036L138.913 385.097C139.111 385.085 139.309 385.097 139.504 385.132Z" fill="#E0E0E0"/>
<path d="M142.871 379.825C142.68 379.863 142.484 379.878 142.288 379.868H140.609H134.458L114.153 379.746L93.8468 379.503L87.6959 379.372L86.0255 379.32C85.8299 379.325 85.6343 379.307 85.4426 379.268C85.6366 379.253 85.8315 379.253 86.0255 379.268H87.6959H93.8555L114.161 379.381L134.458 379.633L140.618 379.764L142.288 379.816L142.871 379.825Z" fill="#E0E0E0"/>
<path d="M147.839 374.561C147.645 374.576 147.45 374.576 147.256 374.561H145.577H139.426L119.12 374.448L98.8233 374.196L92.6637 374.065L90.9933 374.004C90.7982 374.003 90.6035 373.988 90.4104 373.961C90.6021 373.922 90.7979 373.907 90.9933 373.917H92.6637H98.8233L119.129 374.03L139.426 374.283L145.586 374.413L147.256 374.474C147.453 374.481 147.649 374.51 147.839 374.561Z" fill="#E0E0E0"/>
<path d="M151.484 369.411C151.29 369.431 151.095 369.431 150.901 369.411H149.222H143.071L122.774 369.202L102.468 368.88L96.3175 368.723L94.6471 368.662C94.4512 368.663 94.2559 368.642 94.0642 368.602C94.2582 368.587 94.4531 368.587 94.6471 368.602H96.3175H102.468L122.774 368.81L143.08 369.158L149.231 369.306L150.901 369.376C151.096 369.365 151.292 369.377 151.484 369.411Z" fill="#E0E0E0"/>
<path d="M157.096 364.53C156.902 364.554 156.706 364.554 156.513 364.53H154.86H148.683L128.377 364.321L108.08 363.973L101.929 363.816L100.25 363.756C100.054 363.761 99.8587 363.743 99.667 363.703C99.8594 363.67 100.055 363.656 100.25 363.66H101.929H108.08L128.386 363.869L148.683 364.217L154.842 364.373L156.513 364.434C156.709 364.449 156.905 364.481 157.096 364.53Z" fill="#E0E0E0"/>
<path d="M69.4868 201.309C69.4868 195.219 73.1843 191.278 78.413 191.278C83.6417 191.278 87.287 195.124 87.287 201.309C87.287 207.495 83.6417 211.34 78.413 211.34C73.1843 211.34 69.4868 207.443 69.4868 201.309ZM82.154 201.309C82.154 197.412 80.6663 195.541 78.413 195.541C76.1597 195.541 74.672 197.464 74.672 201.309C74.672 205.155 76.2032 207.077 78.413 207.077C80.6228 207.077 82.154 205.207 82.154 201.309ZM99.7976 191.687H105.888L81.3884 228.079H75.2984L99.7976 191.687ZM93.899 218.457C93.899 212.367 97.5965 208.426 102.773 208.426C107.95 208.426 111.699 212.324 111.699 218.457C111.699 224.591 108.002 228.497 102.773 228.497C97.5443 228.497 93.899 224.591 93.899 218.457ZM106.514 218.457C106.514 214.612 105.026 212.689 102.773 212.689C100.52 212.689 99.032 214.559 99.032 218.457C99.032 222.355 100.572 224.234 102.773 224.234C104.974 224.234 106.514 222.311 106.514 218.457Z" fill="#EBEBEB"/>
<path d="M361.598 59.6906C362.794 67.4916 361.649 75.4721 358.308 82.6218C354.966 89.7716 349.578 95.7691 342.826 99.8552C336.074 103.941 328.262 105.932 320.378 105.576C312.493 105.22 304.892 102.532 298.536 97.8535C292.181 93.1749 287.356 86.7158 284.673 79.2937C281.99 71.8717 281.569 63.8204 283.464 56.1592C285.359 48.498 289.485 41.5713 295.319 36.256C301.153 30.9408 308.432 27.4759 316.236 26.3C326.679 24.715 337.324 27.342 345.831 33.6035C354.337 39.8651 360.008 49.2485 361.598 59.6906Z" fill="#F5F5F5"/>
<path d="M352.219 61.1087C353.134 67.0549 352.263 73.1386 349.718 78.5896C347.172 84.0406 343.067 88.6138 337.921 91.7301C332.775 94.8464 326.82 96.3657 320.81 96.0956C314.8 95.8255 309.005 93.7781 304.16 90.2127C299.314 86.6474 295.635 81.7243 293.589 76.0669C291.543 70.4096 291.221 64.2723 292.666 58.4321C294.11 52.592 297.254 47.3116 301.701 43.2596C306.148 39.2077 311.697 36.5663 317.646 35.6699C325.603 34.464 333.714 36.4657 340.196 41.2354C346.679 46.0052 351.003 53.1529 352.219 61.1087Z" fill="#EBEBEB"/>
<path d="M352.063 60.1691C351.889 60.1691 351.558 58.8989 350.723 56.6891C349.569 53.5533 347.931 50.6177 345.868 47.9891C344.443 46.1949 342.824 44.5639 341.04 43.1258C339.002 41.4882 336.763 40.1197 334.376 39.0542C333.09 38.477 331.764 37.9943 330.408 37.61C328.998 37.2067 327.558 36.9158 326.102 36.74C324.593 36.5447 323.073 36.4633 321.552 36.4964C319.988 36.5403 318.429 36.7002 316.889 36.9749C315.351 37.2682 313.837 37.6694 312.356 38.1755C310.933 38.6835 309.552 39.3001 308.223 40.0199C306.922 40.7006 305.677 41.4831 304.5 42.3602C303.363 43.1929 302.293 44.112 301.298 45.1094C299.443 46.9496 297.834 49.023 296.513 51.2777C295.362 53.2505 294.434 55.3456 293.747 57.5243C292.763 60.7102 292.281 64.0299 292.32 67.364C292.32 69.7478 292.485 71.0789 292.32 71.105C292.155 71.1311 291.728 69.8522 291.45 67.4162C291.066 63.9494 291.331 60.4413 292.233 57.0719C292.85 54.7296 293.744 52.4691 294.895 50.3381C296.231 47.8835 297.893 45.6212 299.837 43.613C300.886 42.5195 302.018 41.5074 303.221 40.5854C305.779 38.6148 308.633 37.0615 311.677 35.9831C313.272 35.4221 314.906 34.9829 316.567 34.6694C318.228 34.3774 319.909 34.2087 321.595 34.1648C323.236 34.1352 324.877 34.2341 326.502 34.4606C328.069 34.6816 329.617 35.0248 331.131 35.4872C332.582 35.9176 333.999 36.4586 335.367 37.1054C340.09 39.3291 344.161 42.7294 347.191 46.9799C349.228 49.8117 350.721 52.9979 351.593 56.3759C352.176 58.7858 352.202 60.143 352.063 60.1691Z" fill="#E0E0E0"/>
<path d="M328.268 83.0501L329.138 88.2701L324.475 89.0444L323.605 83.9636C318.942 84.4421 314.279 83.7374 311.382 82.154L313 76.064C315.98 77.4853 319.276 78.1117 322.57 77.8823L321.282 70.0958C315.897 69.6869 309.833 68.9213 308.728 62.2658C307.91 57.3155 310.799 52.4783 318.028 50.4251L317.158 45.2051L321.822 44.4308L322.692 49.5116C326.058 49.1459 329.463 49.5842 332.627 50.7905L331.244 56.8805C328.845 55.989 326.293 55.5809 323.736 55.6799L325.049 63.6056C330.426 63.9623 336.359 64.7453 337.49 71.3225C338.291 76.1684 335.437 80.9534 328.268 83.0501ZM320.16 63.2141L319.055 56.5934C316.68 57.5591 315.923 59.0729 316.184 60.6128C316.445 62.1527 318.028 62.9009 320.16 63.2141ZM330.034 73.1234C329.765 71.4878 328.294 70.8266 326.145 70.4612L327.216 76.8905C329.495 75.9944 330.321 74.6111 330.069 73.1234H330.034Z" fill="#E0E0E0"/>
<path d="M406.29 292.442C404.147 298.388 400.288 303.564 395.202 307.316C390.116 311.067 384.031 313.225 377.717 313.517C371.404 313.808 365.146 312.22 359.735 308.953C354.325 305.686 350.005 300.888 347.324 295.165C344.642 289.442 343.719 283.052 344.67 276.804C345.622 270.555 348.406 264.73 352.671 260.065C356.935 255.4 362.487 252.105 368.625 250.598C374.762 249.09 381.21 249.437 387.15 251.595C391.089 253.019 394.71 255.206 397.804 258.03C400.898 260.853 403.406 264.259 405.184 268.053C406.961 271.846 407.974 275.952 408.163 280.137C408.353 284.322 407.717 288.503 406.29 292.442Z" fill="#F5F5F5"/>
<path d="M399.173 289.849C397.542 294.387 394.6 298.339 390.721 301.204C386.841 304.068 382.199 305.717 377.381 305.941C372.564 306.165 367.789 304.954 363.66 302.462C359.532 299.97 356.236 296.308 354.19 291.941C352.144 287.574 351.441 282.698 352.169 277.93C352.897 273.163 355.024 268.719 358.279 265.162C361.535 261.604 365.774 259.093 370.458 257.946C375.142 256.8 380.061 257.069 384.592 258.721C390.653 260.915 395.595 265.428 398.329 271.265C401.064 277.103 401.367 283.788 399.173 289.849Z" fill="#EBEBEB"/>
<path d="M399.426 289.127C399.286 289.084 399.556 288.04 399.826 286.16C400.206 283.515 400.174 280.827 399.73 278.191C399.416 276.402 398.908 274.651 398.216 272.971C397.41 271.04 396.358 269.221 395.084 267.56C393.689 265.722 392.03 264.101 390.16 262.749C389.175 262.035 388.137 261.398 387.054 260.843C385.933 260.272 384.769 259.786 383.574 259.39C382.379 259.011 381.158 258.72 379.92 258.52C378.718 258.325 377.502 258.223 376.284 258.216C375.119 258.206 373.956 258.288 372.804 258.46C371.687 258.609 370.585 258.848 369.506 259.173C367.495 259.757 365.568 260.599 363.773 261.679C362.204 262.625 360.745 263.742 359.423 265.011C357.504 266.871 355.886 269.02 354.629 271.379C353.759 273.058 353.324 274.05 353.185 273.989C353.046 273.928 353.246 272.884 353.968 271.057C355.031 268.479 356.562 266.119 358.483 264.097C359.818 262.686 361.313 261.436 362.938 260.374C364.819 259.164 366.852 258.211 368.984 257.537C370.138 257.169 371.319 256.893 372.517 256.711C373.768 256.508 375.033 256.406 376.301 256.406C377.602 256.382 378.902 256.463 380.19 256.65C382.866 257.069 385.458 257.918 387.863 259.164C389.029 259.773 390.146 260.471 391.204 261.252C393.194 262.723 394.954 264.482 396.424 266.472C398.943 269.848 400.544 273.82 401.07 278C401.421 280.773 401.252 283.588 400.574 286.3C400.035 288.196 399.53 289.162 399.426 289.127Z" fill="#E0E0E0"/>
<path d="M373.935 296.122L372.543 300.124L368.967 298.88L370.324 294.982C366.844 293.538 363.843 291.259 362.407 289.031L365.887 285.351C367.454 287.501 369.552 289.207 371.977 290.301L374.048 284.333C370.411 281.984 366.435 279.113 368.21 274.015C369.524 270.222 373.43 267.925 379.285 269.239L380.66 265.272L384.236 266.516L382.878 270.413C385.39 271.44 387.621 273.051 389.386 275.111L386.071 278.887C384.726 277.327 383.085 276.05 381.243 275.129L379.137 281.219C382.783 283.524 386.68 286.36 384.932 291.406C383.618 295.113 379.781 297.392 373.935 296.122ZM375.84 279.079L377.58 273.998C375.536 273.772 374.422 274.546 374.013 275.738C373.604 276.93 374.439 278.026 375.84 279.079ZM379.007 289.823C379.433 288.57 378.633 287.535 377.267 286.465L375.527 291.398C377.493 291.624 378.607 290.971 379.007 289.823Z" fill="#E0E0E0"/>
<path d="M253.901 46.3971H56.1323V175.27H253.901V46.3971Z" fill="#F5F5F5"/>
<path d="M244.122 39.4283H46.3535V168.023H244.122V39.4283Z" fill="#EBEBEB"/>
<path d="M402.358 347.539C402.358 347.661 319.481 347.765 217.265 347.765C115.049 347.765 32.1899 347.661 32.1899 347.539C32.1899 347.417 115.049 347.304 217.3 347.304C319.551 347.304 402.358 347.408 402.358 347.539Z" fill="#263238"/>
<path d="M384.062 403.532L306.449 406.046L246.271 350.21H321.683L384.062 403.532Z" fill="#F5F5F5"/>
<path d="M356.282 411.849L278.67 414.364L218.483 358.527H293.895L356.282 411.849Z" fill="#F5F5F5"/>
<path d="M369.341 406.316L291.728 408.83L231.542 352.985H306.962L369.341 406.316Z" fill="#E0E0E0"/>
<path d="M297.349 350.21H221.937L282.115 406.046L362.207 403.454L297.349 350.21Z" fill="#F5F5F5"/>
<path d="M297.349 350.21L297.653 350.436L298.523 351.158L302.003 353.994L315.245 364.782L362.294 403.297L362.703 403.628H362.172L285.36 406.151L282.08 406.255H281.985L281.915 406.194L221.85 350.349L221.493 350.01H221.981L276.738 350.097L292.007 350.149H296.026C296.896 350.149 297.392 350.149 297.392 350.149H296H291.972L276.686 350.201L221.981 350.288L222.111 349.949L282.315 405.768L282.15 405.707L285.43 405.603L362.251 403.141L362.129 403.489L315.227 364.887C309.563 360.197 305.1 356.517 302.047 353.994L298.567 351.106L297.697 350.358L297.349 350.21Z" fill="#263238"/>
<path d="M324.388 382.408C324.388 382.539 312.365 383.017 297.523 383.478C282.68 383.94 270.648 384.218 270.64 384.096C270.631 383.974 282.663 383.487 297.505 383.026C312.347 382.565 324.388 382.287 324.388 382.408Z" fill="#263238"/>
<path d="M330.8 387.15C330.8 387.272 318.62 387.75 303.508 388.211C288.396 388.672 276.208 388.951 276.199 388.82C276.19 388.69 288.379 388.22 303.5 387.759C318.62 387.298 330.8 387.054 330.8 387.15Z" fill="#263238"/>
<path d="M337.56 391.952C337.56 392.074 325.258 392.579 310.077 393.066C294.895 393.553 282.585 393.858 282.576 393.727C282.567 393.597 294.878 393.109 310.059 392.614C325.241 392.118 337.56 391.831 337.56 391.952Z" fill="#263238"/>
<path d="M320.682 378.093C320.682 378.224 308.302 378.72 293.033 379.198C277.765 379.677 265.367 379.981 265.367 379.851C265.367 379.72 277.739 379.233 293.016 378.746C308.293 378.259 320.673 377.971 320.682 378.093Z" fill="#263238"/>
<path d="M295.104 360.241C295.104 360.363 283.62 360.685 269.448 360.963C255.275 361.241 243.791 361.355 243.783 361.224C243.774 361.094 255.267 360.78 269.439 360.511C283.611 360.241 295.104 360.119 295.104 360.241Z" fill="#263238"/>
<path d="M301.516 365.008C301.516 365.13 289.684 365.461 275.077 365.739C260.469 366.018 248.629 366.148 248.62 366.018C248.611 365.887 260.461 365.565 275.068 365.287C289.675 365.008 301.516 364.878 301.516 365.008Z" fill="#263238"/>
<path d="M307.928 369.75C307.928 369.88 295.513 370.22 280.184 370.516C264.854 370.811 252.431 370.942 252.431 370.82C252.431 370.698 264.846 370.35 280.175 370.063C295.504 369.776 307.928 369.646 307.928 369.75Z" fill="#263238"/>
<path d="M314.349 374.535C314.349 374.657 301.925 374.996 286.604 375.292C271.284 375.588 258.843 375.727 258.843 375.596C258.843 375.466 271.266 375.135 286.596 374.839C301.925 374.544 314.34 374.413 314.349 374.535Z" fill="#263238"/>
<path d="M291.398 355.926C291.221 355.965 291.04 355.982 290.858 355.978L289.318 356.047L283.646 356.195L264.932 356.535L246.21 356.7H240.538H238.998C238.818 356.721 238.637 356.721 238.458 356.7C238.635 356.66 238.816 356.643 238.998 356.648L240.538 356.578L246.21 356.43L264.924 356.091L283.629 355.882H289.301H290.85C291.033 355.876 291.217 355.89 291.398 355.926Z" fill="#263238"/>
<path d="M267.203 369.533L247.411 351.41L315.932 348.696L336.064 359.841L267.203 369.533Z" fill="#455A64"/>
<path d="M255.397 353.951L259.251 357.248L259.234 354.899L255.162 351.854L255.397 353.951Z" fill="#263238"/>
<path d="M259.19 355.047L264.741 354.856L260.278 351.619L255.162 351.854L259.19 355.047Z" fill="#FF725E"/>
<path d="M259.19 355.047L259.251 357.248L264.663 356.9L264.741 354.856L259.19 355.047Z" fill="#263238"/>
<path d="M264.741 354.856C263.172 354.026 261.676 353.066 260.269 351.985L260.008 351.793L260.147 351.837C258.489 351.983 256.821 351.983 255.162 351.837C256.802 351.538 258.464 351.38 260.13 351.367H260.208L260.269 351.41L260.539 351.593C262.026 352.565 263.431 353.656 264.741 354.856Z" fill="#263238"/>
<path d="M259.26 357.248C259.138 357.248 259.025 356.761 259.008 356.161C258.99 355.56 259.086 355.064 259.208 355.064C259.33 355.064 259.443 355.552 259.46 356.152C259.477 356.752 259.356 357.239 259.26 357.248Z" fill="#455A64"/>
<path d="M264.689 353.777L268.534 357.074L268.517 354.725L264.445 351.68L264.689 353.777Z" fill="#263238"/>
<path d="M268.482 354.873L274.024 354.682L269.561 351.445L264.445 351.68L268.482 354.873Z" fill="#E0E0E0"/>
<path d="M268.482 354.873L268.534 357.074L273.954 356.717L274.024 354.682L268.482 354.873Z" fill="#263238"/>
<path d="M274.05 354.682C272.483 353.853 270.99 352.893 269.587 351.811L269.317 351.619H269.465C267.804 351.766 266.133 351.766 264.471 351.619C266.111 351.32 267.773 351.163 269.439 351.149H269.517L269.578 351.193L269.848 351.376C271.341 352.355 272.747 353.461 274.05 354.682Z" fill="#263238"/>
<path d="M268.517 357.074C268.386 357.074 268.273 356.587 268.256 355.987C268.239 355.386 268.334 354.891 268.456 354.891C268.578 354.891 268.7 355.369 268.708 355.978C268.717 356.587 268.639 357.065 268.517 357.074Z" fill="#455A64"/>
<path d="M273.572 353.655L277.426 356.952L277.408 354.603L273.337 351.558L273.572 353.655Z" fill="#263238"/>
<path d="M277.365 354.751L282.915 354.569L278.452 351.323L273.337 351.558L277.365 354.751Z" fill="#455A64"/>
<path d="M277.365 354.751L277.426 356.952L282.846 356.604L282.915 354.569L277.365 354.751Z" fill="#263238"/>
<path d="M282.915 354.569C281.35 353.735 279.857 352.772 278.452 351.689L278.183 351.506L278.33 351.55C276.669 351.694 274.998 351.694 273.337 351.55C274.976 351.251 276.638 351.097 278.304 351.089H278.4L278.461 351.132L278.731 351.323C280.215 352.284 281.615 353.37 282.915 354.569Z" fill="#263238"/>
<path d="M277.408 356.952C277.278 356.952 277.165 356.474 277.147 355.874C277.13 355.273 277.226 354.777 277.347 354.769C277.469 354.76 277.591 355.256 277.6 355.856C277.608 356.456 277.53 356.952 277.408 356.952Z" fill="#455A64"/>
<path d="M282.837 353.394L286.682 356.691L286.665 354.342L282.594 351.297L282.837 353.394Z" fill="#263238"/>
<path d="M286.622 354.49L292.172 354.299L287.709 351.062L282.594 351.297L286.622 354.49Z" fill="#455A64"/>
<path d="M286.622 354.49L286.682 356.691L292.103 356.335L292.172 354.299L286.622 354.49Z" fill="#263238"/>
<path d="M292.172 354.299C290.605 353.471 289.112 352.51 287.709 351.428L287.439 351.236H287.587C285.926 351.383 284.255 351.383 282.594 351.236C284.233 350.937 285.895 350.78 287.561 350.767H287.639L287.7 350.81L287.97 350.993C289.463 351.973 290.869 353.079 292.172 354.299Z" fill="#263238"/>
<path d="M286.665 356.7C286.535 356.7 286.422 356.213 286.404 355.613C286.387 355.012 286.482 354.516 286.604 354.516C286.726 354.516 286.848 354.995 286.857 355.604C286.865 356.213 286.787 356.7 286.665 356.7Z" fill="#455A64"/>
<path d="M292.224 353.159L296.07 356.457L296.052 354.108L291.981 351.062L292.224 353.159Z" fill="#263238"/>
<path d="M296.018 354.255L301.568 354.073L297.096 350.828L291.981 351.062L296.018 354.255Z" fill="#455A64"/>
<path d="M296.018 354.255L296.07 356.456L301.49 356.108L301.568 354.073L296.018 354.255Z" fill="#263238"/>
<path d="M301.559 354.09C299.993 353.262 298.5 352.301 297.096 351.219L296.835 351.036H296.975C295.313 351.183 293.642 351.183 291.981 351.036C293.62 350.739 295.282 350.585 296.948 350.575H297.027H297.096L297.357 350.767C298.85 351.753 300.255 352.865 301.559 354.09Z" fill="#263238"/>
<path d="M296.052 356.457C295.93 356.457 295.809 355.978 295.8 355.369C295.791 354.76 295.87 354.282 295.991 354.273C296.113 354.264 296.235 354.76 296.252 355.36C296.27 355.961 296.174 356.457 296.052 356.457Z" fill="#455A64"/>
<path d="M301.185 352.742L305.039 356.039L305.022 353.69L300.95 350.645L301.185 352.742Z" fill="#263238"/>
<path d="M304.979 353.838L310.529 353.646L306.066 350.41L300.95 350.645L304.979 353.838Z" fill="#455A64"/>
<path d="M304.979 353.838L305.039 356.039L310.46 355.682L310.529 353.646L304.979 353.838Z" fill="#263238"/>
<path d="M310.529 353.646C308.962 352.818 307.469 351.858 306.066 350.775L305.796 350.584H305.936C304.277 350.731 302.609 350.731 300.95 350.584C302.59 350.285 304.252 350.128 305.918 350.114H305.996L306.057 350.158L306.327 350.34C307.815 351.326 309.221 352.432 310.529 353.646Z" fill="#263238"/>
<path d="M305.013 356.039C304.892 356.039 304.778 355.552 304.761 354.951C304.744 354.351 304.839 353.855 304.961 353.855C305.083 353.855 305.196 354.334 305.213 354.943C305.231 355.552 305.144 356.03 305.013 356.039Z" fill="#455A64"/>
<path d="M309.955 352.237L313.8 355.534L313.783 353.177L309.711 350.14L309.955 352.237Z" fill="#263238"/>
<path d="M313.748 353.333L319.29 353.142L314.827 349.905L309.711 350.14L313.748 353.333Z" fill="#455A64"/>
<path d="M313.748 353.333L313.8 355.534L319.22 355.178L319.29 353.142L313.748 353.333Z" fill="#263238"/>
<path d="M319.29 353.142C317.718 352.317 316.222 351.357 314.818 350.271L314.557 350.079L314.696 350.123C313.035 350.27 311.364 350.27 309.703 350.123C311.342 349.825 313.004 349.668 314.67 349.653H314.749L314.818 349.697L315.079 349.879C316.572 350.846 317.981 351.937 319.29 353.142Z" fill="#263238"/>
<path d="M313.783 355.534C313.661 355.534 313.539 355.047 313.531 354.447C313.522 353.846 313.6 353.351 313.722 353.351C313.844 353.351 313.966 353.829 313.983 354.438C314 355.047 313.905 355.526 313.783 355.534Z" fill="#455A64"/>
<path d="M261.592 360.145L265.446 363.443L265.428 361.094L261.357 358.049L261.592 360.145Z" fill="#263238"/>
<path d="M265.385 361.242L270.935 361.05L266.472 357.814L261.357 358.049L265.385 361.242Z" fill="#455A64"/>
<path d="M265.385 361.241L265.446 363.443L270.857 363.095L270.935 361.05L265.385 361.241Z" fill="#263238"/>
<path d="M270.935 361.05C269.367 360.221 267.871 359.26 266.464 358.179L266.203 357.988H266.342C264.683 358.134 263.015 358.134 261.357 357.988C262.996 357.688 264.658 357.531 266.324 357.518H266.403L266.464 357.561L266.733 357.744C268.222 358.73 269.627 359.836 270.935 361.05Z" fill="#263238"/>
<path d="M265.42 363.443C265.298 363.443 265.185 362.955 265.167 362.355C265.15 361.755 265.246 361.259 265.367 361.259C265.489 361.259 265.602 361.737 265.62 362.346C265.637 362.955 265.55 363.434 265.42 363.443Z" fill="#455A64"/>
<path d="M270.883 359.971L274.729 363.268L274.711 360.92L270.64 357.875L270.883 359.971Z" fill="#263238"/>
<path d="M274.668 361.067L280.218 360.876L275.755 357.64L270.64 357.875L274.668 361.067Z" fill="#455A64"/>
<path d="M274.668 361.067L274.729 363.269L280.149 362.912L280.218 360.876L274.668 361.067Z" fill="#263238"/>
<path d="M280.218 360.876C278.652 360.048 277.159 359.087 275.755 358.005L275.486 357.814L275.633 357.857C273.972 358.004 272.301 358.004 270.64 357.857C272.279 357.558 273.941 357.401 275.607 357.387H275.686L275.747 357.431L276.016 357.614C277.51 358.576 278.916 359.668 280.218 360.876Z" fill="#263238"/>
<path d="M274.711 363.269C274.581 363.269 274.468 362.781 274.45 362.181C274.433 361.581 274.529 361.085 274.65 361.085C274.772 361.085 274.894 361.563 274.903 362.172C274.911 362.781 274.833 363.26 274.711 363.269Z" fill="#455A64"/>
<path d="M279.766 359.85L283.62 363.147L283.603 360.798L279.531 357.753L279.766 359.85Z" fill="#263238"/>
<path d="M283.559 360.946L289.11 360.763L284.647 357.518L279.531 357.753L283.559 360.946Z" fill="#455A64"/>
<path d="M283.559 360.946L283.62 363.147L289.04 362.799L289.11 360.763L283.559 360.946Z" fill="#263238"/>
<path d="M289.11 360.763C287.546 359.926 286.054 358.963 284.647 357.883L284.377 357.701L284.525 357.744C282.863 357.888 281.192 357.888 279.531 357.744C281.17 357.445 282.833 357.291 284.499 357.283H284.577L284.638 357.326L284.908 357.518C286.398 358.478 287.804 359.563 289.11 360.763Z" fill="#263238"/>
<path d="M283.62 363.147C283.489 363.147 283.376 362.668 283.359 362.068C283.342 361.468 283.437 360.972 283.559 360.963C283.681 360.954 283.803 361.45 283.811 362.051C283.82 362.651 283.724 363.147 283.62 363.147Z" fill="#455A64"/>
<path d="M289.023 359.589L292.877 362.886L292.859 360.528L288.788 357.492L289.023 359.589Z" fill="#263238"/>
<path d="M292.816 360.685L298.367 360.493L293.903 357.257L288.788 357.492L292.816 360.685Z" fill="#455A64"/>
<path d="M292.816 360.685L292.877 362.886L298.297 362.529L298.367 360.493L292.816 360.685Z" fill="#263238"/>
<path d="M298.41 360.493C296.843 359.665 295.35 358.704 293.947 357.622L293.677 357.431L293.825 357.474C292.164 357.621 290.493 357.621 288.831 357.474C290.471 357.175 292.133 357.018 293.799 357.005H293.877L293.938 357.048L294.208 357.231C295.697 358.199 297.103 359.291 298.41 360.493Z" fill="#263238"/>
<path d="M292.859 362.886C292.729 362.886 292.616 362.399 292.598 361.798C292.581 361.198 292.677 360.702 292.799 360.702C292.92 360.702 293.042 361.181 293.051 361.79C293.06 362.399 292.981 362.877 292.859 362.886Z" fill="#455A64"/>
<path d="M298.419 359.354L302.264 362.651L302.247 360.302L298.175 357.257L298.419 359.354Z" fill="#263238"/>
<path d="M302.212 360.45L307.762 360.267L303.291 357.022L298.175 357.257L302.212 360.45Z" fill="#455A64"/>
<path d="M302.212 360.45L302.264 362.651L307.684 362.303L307.763 360.267L302.212 360.45Z" fill="#263238"/>
<path d="M307.754 360.258C306.187 359.43 304.694 358.47 303.291 357.387L303.03 357.205H303.169C301.507 357.351 299.836 357.351 298.175 357.205C299.815 356.907 301.476 356.75 303.143 356.735H303.221H303.291L303.552 356.926C305.044 357.916 306.45 359.031 307.754 360.258Z" fill="#263238"/>
<path d="M302.247 362.651C302.125 362.651 302.003 362.172 301.995 361.563C301.986 360.954 302.064 360.476 302.186 360.467C302.308 360.458 302.43 360.954 302.447 361.555C302.464 362.155 302.369 362.651 302.247 362.651Z" fill="#455A64"/>
<path d="M307.38 358.936L311.234 362.233L311.216 359.876L307.145 356.839L307.38 358.936Z" fill="#263238"/>
<path d="M311.173 360.032L316.723 359.841L312.26 356.604L307.145 356.839L311.173 360.032Z" fill="#455A64"/>
<path d="M311.173 360.032L311.234 362.233L316.645 361.877L316.723 359.841L311.173 360.032Z" fill="#263238"/>
<path d="M316.723 359.841C315.155 359.012 313.659 358.051 312.252 356.97L311.991 356.778L312.13 356.822C310.471 356.969 308.803 356.969 307.145 356.822C308.784 356.523 310.446 356.365 312.112 356.352H312.191L312.252 356.396L312.521 356.578C314.01 357.547 315.416 358.638 316.723 359.841Z" fill="#263238"/>
<path d="M311.208 362.233C311.086 362.233 310.973 361.746 310.955 361.146C310.938 360.545 311.034 360.05 311.156 360.05C311.277 360.05 311.39 360.528 311.408 361.137C311.425 361.746 311.338 362.225 311.208 362.233Z" fill="#455A64"/>
<path d="M316.149 358.431L319.995 361.729L319.977 359.371L315.906 356.335L316.149 358.431Z" fill="#263238"/>
<path d="M319.943 359.528L325.493 359.336L321.021 356.1L315.906 356.335L319.943 359.528Z" fill="#455A64"/>
<path d="M319.943 359.528L319.995 361.729L325.415 361.372L325.493 359.336L319.943 359.528Z" fill="#263238"/>
<path d="M325.484 359.31C323.918 358.482 322.425 357.521 321.021 356.439L320.76 356.248L320.9 356.291C319.238 356.438 317.567 356.438 315.906 356.291C317.545 355.988 319.207 355.831 320.873 355.821H320.952H321.021L321.282 356.004C322.777 356.981 324.184 358.087 325.484 359.31Z" fill="#263238"/>
<path d="M319.977 361.729C319.856 361.729 319.734 361.241 319.725 360.641C319.716 360.041 319.795 359.545 319.916 359.545C320.038 359.545 320.16 360.023 320.177 360.632C320.195 361.241 320.099 361.72 319.977 361.729Z" fill="#455A64"/>
<path d="M355.308 354.864L277.617 359.093L267.299 368.845L247.411 351.411V356.474L268.012 376.214L279.383 365.157L356.491 360.554L355.308 354.864Z" fill="#263238"/>
<path d="M268.012 376.214L338.213 372.108L356.491 360.554L277.521 363.651L268.012 376.214Z" fill="#263238"/>
<path d="M356.491 360.554C356.416 360.581 356.336 360.596 356.256 360.598L355.552 360.659L352.846 360.859L342.893 361.529L310.033 363.556L279.392 365.296L279.496 365.252L271.136 373.282C270.152 374.205 269.396 374.935 268.839 375.457L268.23 376.005C268.165 376.075 268.092 376.136 268.012 376.188C268.012 376.188 268.064 376.11 268.195 375.971L268.769 375.379L271.005 373.143L279.261 365.009L279.305 364.965H279.366L310.007 363.086L342.867 361.189L352.837 360.667L355.543 360.554H356.248H356.491Z" fill="#455A64"/>
<path d="M279.383 365.156C278.875 364.226 278.503 363.226 278.278 362.19C277.916 361.192 277.69 360.151 277.608 359.093C278.117 360.023 278.489 361.023 278.713 362.059C279.076 363.056 279.301 364.098 279.383 365.156Z" fill="#455A64"/>
<path d="M365.13 235.387L295.4 222.042C294.893 221.944 294.409 221.748 293.978 221.465C293.546 221.181 293.175 220.815 292.885 220.387C292.595 219.96 292.392 219.48 292.287 218.974C292.183 218.468 292.179 217.946 292.277 217.439L314.714 100.207C314.994 98.7531 315.839 97.4699 317.064 96.6383C318.289 95.8066 319.793 95.4943 321.248 95.7697L387.733 108.498C389.188 108.776 390.472 109.621 391.304 110.846C392.136 112.071 392.448 113.577 392.17 115.032L369.75 232.29C369.65 232.797 369.451 233.279 369.165 233.709C368.879 234.139 368.511 234.508 368.082 234.796C367.653 235.083 367.171 235.284 366.665 235.385C366.158 235.487 365.637 235.487 365.13 235.387Z" fill="#455A64"/>
<g opacity="0.4">
<path d="M365.078 235.37L295.348 222.024C294.84 221.927 294.357 221.731 293.926 221.447C293.494 221.163 293.123 220.797 292.833 220.37C292.543 219.943 292.34 219.462 292.235 218.956C292.131 218.45 292.127 217.929 292.224 217.422L314.662 100.189C314.94 98.7345 315.784 97.4499 317.01 96.6178C318.235 95.7858 319.741 95.4744 321.195 95.7522L387.681 108.48C389.134 108.761 390.417 109.606 391.249 110.83C392.081 112.055 392.393 113.56 392.118 115.014L369.68 232.29C369.474 233.307 368.875 234.201 368.013 234.777C367.151 235.354 366.096 235.567 365.078 235.37Z" fill="black"/>
</g>
<path d="M359.058 234.204L289.327 220.85C288.82 220.754 288.337 220.558 287.906 220.275C287.474 219.993 287.103 219.627 286.813 219.201C286.523 218.774 286.32 218.294 286.215 217.789C286.111 217.284 286.107 216.763 286.204 216.256L308.65 99.0148C308.787 98.2942 309.064 97.6077 309.467 96.9947C309.87 96.3817 310.389 95.8544 310.997 95.4429C311.604 95.0314 312.286 94.7439 313.005 94.597C313.723 94.45 314.464 94.4464 315.184 94.5865L381.669 107.306C382.389 107.445 383.075 107.724 383.688 108.128C384.3 108.532 384.827 109.052 385.238 109.66C385.65 110.267 385.937 110.95 386.085 111.669C386.232 112.387 386.236 113.128 386.097 113.848L363.66 231.081C363.462 232.104 362.866 233.007 362.004 233.593C361.141 234.178 360.082 234.398 359.058 234.204Z" fill="#455A64"/>
<path d="M325.548 198.316L303.562 194.106C302.42 193.887 301.317 194.636 301.098 195.778L299.68 203.186C299.461 204.328 300.209 205.431 301.352 205.65L323.337 209.86C324.479 210.078 325.582 209.33 325.801 208.188L327.22 200.78C327.438 199.638 326.69 198.535 325.548 198.316Z" fill="#455A64"/>
<g opacity="0.2">
<path d="M325.548 198.316L303.562 194.106C302.42 193.887 301.317 194.636 301.098 195.778L299.68 203.186C299.461 204.328 300.209 205.431 301.352 205.65L323.337 209.86C324.479 210.078 325.582 209.33 325.801 208.188L327.22 200.78C327.438 199.638 326.69 198.535 325.548 198.316Z" fill="black"/>
</g>
<path d="M313.383 107.308L308.409 133.284L374.631 145.964L379.605 119.988L313.383 107.308Z" fill="#FAFAFA"/>
<path d="M374.604 145.951C374.604 145.951 374.605 145.786 374.683 145.482C374.761 145.177 374.822 144.725 374.926 144.142C375.153 142.959 375.474 141.219 375.901 138.974C376.771 134.493 377.971 128.012 379.494 119.956L379.555 120.051L313.339 107.41L313.47 107.323C311.73 116.406 310.05 125.184 308.493 133.293L308.406 133.171C327.546 136.86 344.076 140.035 355.856 142.306L369.637 144.968L373.326 145.69L374.283 145.882L374.613 145.951L374.291 145.899L373.352 145.725L369.68 145.029L355.908 142.419L308.371 133.371H308.258V133.267C309.807 125.15 311.486 116.371 313.226 107.289V107.175H313.339L379.546 119.886H379.624V119.964C378.058 128.029 376.806 134.528 375.936 139.009C375.501 141.245 375.161 142.976 374.935 144.15L374.665 145.482C374.631 145.803 374.604 145.951 374.604 145.951Z" fill="#263238"/>
<path d="M319.563 146.181L311.864 144.707C310.882 144.519 309.934 145.162 309.746 146.144L308.272 153.843C308.084 154.824 308.727 155.772 309.709 155.96L317.408 157.434C318.389 157.622 319.337 156.979 319.525 155.997L321 148.299C321.188 147.317 320.544 146.369 319.563 146.181Z" fill="#455A64"/>
<g opacity="0.2">
<path d="M319.563 146.181L311.864 144.707C310.882 144.519 309.934 145.162 309.746 146.144L308.272 153.843C308.084 154.824 308.727 155.772 309.709 155.96L317.408 157.434C318.389 157.622 319.337 156.979 319.525 155.997L321 148.299C321.188 147.317 320.544 146.369 319.563 146.181Z" fill="black"/>
</g>
<path d="M317.82 145.842L310.121 144.368C309.14 144.18 308.192 144.823 308.004 145.805L306.529 153.504C306.342 154.485 306.985 155.434 307.966 155.621L315.665 157.096C316.647 157.284 317.595 156.64 317.783 155.659L319.257 147.96C319.445 146.978 318.802 146.03 317.82 145.842Z" fill="#263238"/>
<path d="M314.166 148.466L313.296 153.155L312.208 152.955L312.939 149.135L312 148.953L312.165 148.083L314.166 148.466Z" fill="white"/>
<path d="M335.257 149.175L327.558 147.701C326.576 147.513 325.628 148.156 325.44 149.138L323.966 156.836C323.778 157.818 324.421 158.766 325.403 158.954L333.102 160.428C334.083 160.616 335.031 159.973 335.219 158.991L336.694 151.292C336.882 150.311 336.238 149.363 335.257 149.175Z" fill="#455A64"/>
<g opacity="0.2">
<path d="M335.257 149.175L327.558 147.701C326.576 147.513 325.628 148.156 325.44 149.138L323.966 156.836C323.778 157.818 324.421 158.766 325.403 158.954L333.102 160.428C334.083 160.616 335.031 159.973 335.219 158.991L336.694 151.292C336.882 150.311 336.238 149.363 335.257 149.175Z" fill="black"/>
</g>
<path d="M333.514 148.845L325.815 147.371C324.834 147.183 323.886 147.826 323.698 148.808L322.224 156.506C322.036 157.488 322.679 158.436 323.661 158.624L331.359 160.098C332.341 160.286 333.289 159.643 333.477 158.661L334.951 150.962C335.139 149.981 334.496 149.033 333.514 148.845Z" fill="#263238"/>
<path d="M330.826 155.6L330.661 156.47L327.111 155.791L327.251 155.086L329.382 153.729C329.878 153.407 329.991 153.181 330.035 152.955C330.113 152.589 329.895 152.32 329.399 152.224C329.212 152.183 329.018 152.188 328.834 152.238C328.649 152.288 328.479 152.381 328.338 152.511L327.642 151.85C327.913 151.603 328.241 151.428 328.596 151.338C328.951 151.249 329.322 151.248 329.678 151.336C330.722 151.537 331.313 152.206 331.148 153.076C331.087 153.365 330.959 153.636 330.774 153.867C330.59 154.098 330.355 154.283 330.087 154.408L328.808 155.217L330.826 155.6Z" fill="white"/>
<path d="M351.528 152.292L343.83 150.818C342.848 150.63 341.9 151.273 341.712 152.255L340.238 159.954C340.05 160.935 340.693 161.883 341.675 162.071L349.374 163.545C350.355 163.733 351.303 163.09 351.491 162.108L352.965 154.41C353.153 153.428 352.51 152.48 351.528 152.292Z" fill="#455A64"/>
<g opacity="0.2">
<path d="M351.528 152.292L343.83 150.818C342.848 150.63 341.9 151.273 341.712 152.255L340.238 159.954C340.05 160.935 340.693 161.883 341.675 162.071L349.374 163.545C350.355 163.733 351.303 163.09 351.491 162.108L352.965 154.41C353.153 153.428 352.51 152.48 351.528 152.292Z" fill="black"/>
</g>
<path d="M349.795 151.964L342.096 150.489C341.114 150.301 340.166 150.945 339.978 151.926L338.504 159.625C338.316 160.607 338.959 161.555 339.941 161.743L347.64 163.217C348.621 163.405 349.569 162.762 349.757 161.78L351.231 154.081C351.419 153.1 350.776 152.152 349.795 151.964Z" fill="#263238"/>
<path d="M347.13 158.157C346.973 158.949 346.26 159.558 344.894 159.306C344.259 159.187 343.672 158.885 343.206 158.436L343.781 157.679C344.117 158.035 344.559 158.273 345.042 158.357C345.581 158.462 345.964 158.305 346.034 157.922C346.103 157.54 345.886 157.296 345.268 157.183L344.772 157.087L344.912 156.365L346.086 155.495L344.085 155.112L344.25 154.242L347.539 154.869L347.4 155.573L346.147 156.6C346.477 156.688 346.761 156.898 346.943 157.186C347.125 157.475 347.192 157.822 347.13 158.157Z" fill="white"/>
<path d="M367.8 155.411L360.101 153.937C359.119 153.749 358.171 154.392 357.983 155.374L356.509 163.072C356.321 164.054 356.965 165.002 357.946 165.19L365.645 166.664C366.627 166.852 367.575 166.209 367.763 165.227L369.237 157.528C369.425 156.547 368.781 155.599 367.8 155.411Z" fill="#455A64"/>
<g opacity="0.2">
<path d="M367.8 155.411L360.101 153.937C359.119 153.749 358.171 154.392 357.983 155.374L356.509 163.072C356.321 164.054 356.965 165.002 357.946 165.19L365.645 166.664C366.627 166.852 367.575 166.209 367.763 165.227L369.237 157.528C369.425 156.547 368.781 155.599 367.8 155.411Z" fill="black"/>
</g>
<path d="M366.1 155.079L358.401 153.604C357.42 153.416 356.472 154.06 356.284 155.041L354.809 162.74C354.622 163.722 355.265 164.67 356.246 164.858L363.945 166.332C364.927 166.52 365.875 165.877 366.063 164.895L367.537 157.196C367.725 156.215 367.082 155.267 366.1 155.079Z" fill="#263238"/>
<path d="M358.704 159.074L358.622 159.501L363.646 160.463L363.728 160.036L358.704 159.074Z" fill="white"/>
<path d="M362.39 157.722C362.364 157.896 362.287 158.057 362.168 158.186C362.049 158.314 361.894 158.404 361.723 158.443C361.552 158.482 361.374 158.469 361.211 158.404C361.047 158.34 360.908 158.228 360.809 158.083C360.711 157.938 360.659 157.767 360.659 157.592C360.66 157.417 360.713 157.246 360.813 157.102C360.912 156.957 361.053 156.846 361.216 156.783C361.379 156.72 361.558 156.708 361.729 156.748C361.941 156.798 362.127 156.926 362.249 157.106C362.372 157.287 362.422 157.507 362.39 157.722Z" fill="white"/>
<path d="M361.555 162.107C361.529 162.28 361.451 162.442 361.332 162.571C361.213 162.699 361.058 162.789 360.888 162.828C360.717 162.867 360.538 162.853 360.375 162.789C360.212 162.725 360.072 162.613 359.974 162.468C359.876 162.323 359.823 162.152 359.824 161.977C359.825 161.802 359.878 161.631 359.977 161.486C360.077 161.342 360.217 161.231 360.381 161.168C360.544 161.105 360.723 161.093 360.893 161.133C361.106 161.183 361.291 161.311 361.414 161.491C361.536 161.672 361.587 161.891 361.555 162.107Z" fill="white"/>
<g opacity="0.2">
<path d="M314.87 174L305.962 172.26C305.651 172.199 305.376 172.017 305.199 171.755C305.021 171.493 304.955 171.171 305.013 170.859L306.753 161.951C306.812 161.64 306.992 161.366 307.253 161.188C307.514 161.011 307.835 160.944 308.145 161.002L317.063 162.742C317.217 162.769 317.365 162.827 317.497 162.912C317.629 162.997 317.743 163.108 317.831 163.238C317.919 163.368 317.981 163.514 318.012 163.668C318.043 163.822 318.042 163.98 318.011 164.134L316.271 173.052C316.21 173.363 316.028 173.637 315.766 173.814C315.504 173.992 315.182 174.059 314.87 174Z" fill="black"/>
</g>
<path d="M314.663 162.328L306.964 160.854C305.982 160.666 305.034 161.309 304.846 162.291L303.372 169.99C303.184 170.971 303.827 171.919 304.809 172.107L312.508 173.582C313.489 173.769 314.437 173.126 314.625 172.145L316.1 164.446C316.288 163.464 315.644 162.516 314.663 162.328Z" fill="#263238"/>
<path d="M311.669 168.928L310.903 168.78L310.712 169.763L309.659 169.563L309.842 168.58L307.319 168.093L307.458 167.362L310.242 164.813L311.382 165.03L308.772 167.458L310.033 167.701L310.199 166.831L311.225 167.023L311.06 167.893L311.817 168.041L311.669 168.928Z" fill="white"/>
<path d="M332.098 165.669L324.399 164.195C323.417 164.007 322.469 164.65 322.281 165.632L320.807 173.331C320.619 174.312 321.262 175.26 322.244 175.448L329.943 176.923C330.924 177.111 331.873 176.467 332.061 175.486L333.535 167.787C333.723 166.805 333.079 165.857 332.098 165.669Z" fill="#455A64"/>
<g opacity="0.2">
<path d="M332.098 165.669L324.399 164.195C323.417 164.007 322.469 164.65 322.281 165.632L320.807 173.331C320.619 174.312 321.262 175.26 322.244 175.448L329.943 176.923C330.924 177.111 331.873 176.467 332.061 175.486L333.535 167.787C333.723 166.805 333.079 165.857 332.098 165.669Z" fill="black"/>
</g>
<path d="M330.366 165.332L322.667 163.858C321.685 163.67 320.737 164.313 320.549 165.295L319.075 172.994C318.887 173.975 319.53 174.924 320.512 175.111L328.211 176.586C329.192 176.774 330.14 176.13 330.328 175.149L331.803 167.45C331.99 166.468 331.347 165.52 330.366 165.332Z" fill="#263238"/>
<path d="M327.268 171.39C327.103 172.26 326.354 172.834 325.015 172.573C324.379 172.456 323.791 172.153 323.327 171.703L323.91 170.955C324.245 171.308 324.684 171.545 325.163 171.634C325.711 171.738 326.085 171.573 326.163 171.19C326.241 170.807 326.033 170.538 325.189 170.372L323.988 170.146L324.736 167.536L327.59 168.084L327.425 168.954L325.467 168.58L325.223 169.45L325.606 169.528C326.998 169.842 327.425 170.572 327.268 171.39Z" fill="white"/>
<path d="M348.371 168.779L340.672 167.305C339.69 167.117 338.742 167.761 338.554 168.742L337.08 176.441C336.892 177.423 337.536 178.371 338.517 178.559L346.216 180.033C347.198 180.221 348.146 179.577 348.334 178.596L349.808 170.897C349.996 169.915 349.352 168.967 348.371 168.779Z" fill="#455A64"/>
<g opacity="0.2">
<path d="M348.371 168.779L340.672 167.305C339.69 167.117 338.742 167.761 338.554 168.742L337.08 176.441C336.892 177.423 337.536 178.371 338.517 178.559L346.216 180.033C347.198 180.221 348.146 179.577 348.334 178.596L349.808 170.897C349.996 169.915 349.352 168.967 348.371 168.779Z" fill="black"/>
</g>
<path d="M346.628 168.449L338.93 166.975C337.948 166.787 337 167.431 336.812 168.412L335.338 176.111C335.15 177.093 335.793 178.041 336.775 178.229L344.474 179.703C345.455 179.891 346.403 179.247 346.591 178.266L348.065 170.567C348.253 169.585 347.61 168.637 346.628 168.449Z" fill="#263238"/>
<path d="M343.868 174.574C343.818 174.795 343.724 175.003 343.591 175.186C343.458 175.369 343.289 175.522 343.093 175.637C342.898 175.751 342.682 175.824 342.457 175.851C342.232 175.877 342.005 175.857 341.788 175.792C340.501 175.549 339.848 174.583 340.144 173.069C340.171 172.734 340.27 172.408 340.435 172.114C340.601 171.821 340.828 171.567 341.101 171.37C341.374 171.173 341.686 171.038 342.017 170.974C342.347 170.91 342.688 170.918 343.015 170.999C343.473 171.076 343.903 171.274 344.259 171.573L343.702 172.295C343.475 172.078 343.186 171.935 342.876 171.886C342.698 171.841 342.512 171.836 342.331 171.869C342.151 171.903 341.979 171.975 341.829 172.08C341.679 172.186 341.553 172.323 341.461 172.481C341.368 172.64 341.311 172.817 341.292 173C341.475 172.886 341.678 172.81 341.89 172.775C342.102 172.741 342.319 172.749 342.528 172.799C342.735 172.821 342.936 172.886 343.117 172.988C343.299 173.091 343.457 173.23 343.583 173.396C343.708 173.563 343.798 173.753 343.847 173.956C343.896 174.158 343.903 174.369 343.868 174.574ZM342.806 174.426C342.828 174.325 342.827 174.22 342.804 174.119C342.782 174.018 342.737 173.923 342.675 173.84C342.612 173.758 342.532 173.689 342.441 173.641C342.349 173.592 342.248 173.563 342.145 173.556C342.047 173.526 341.943 173.517 341.841 173.528C341.739 173.54 341.64 173.573 341.551 173.624C341.462 173.675 341.385 173.745 341.324 173.827C341.263 173.91 341.22 174.004 341.197 174.104C341.118 174.505 341.362 174.853 341.884 174.974C341.979 175 342.078 175.006 342.175 174.993C342.273 174.979 342.366 174.945 342.45 174.894C342.534 174.842 342.607 174.774 342.663 174.694C342.72 174.614 342.76 174.523 342.78 174.426H342.806Z" fill="white"/>
<path d="M364.643 171.897L356.944 170.422C355.962 170.234 355.014 170.878 354.826 171.859L353.352 179.558C353.164 180.54 353.807 181.488 354.789 181.676L362.488 183.15C363.469 183.338 364.417 182.695 364.605 181.713L366.08 174.014C366.268 173.033 365.624 172.085 364.643 171.897Z" fill="#455A64"/>
<g opacity="0.2">
<path d="M364.642 171.897L356.944 170.422C355.962 170.234 355.014 170.878 354.826 171.859L353.352 179.558C353.164 180.54 353.807 181.488 354.789 181.676L362.488 183.15C363.469 183.338 364.417 182.695 364.605 181.713L366.079 174.014C366.267 173.033 365.624 172.085 364.642 171.897Z" fill="black"/>
</g>
<path d="M362.9 171.567L355.201 170.092C354.22 169.904 353.271 170.548 353.084 171.529L351.609 179.228C351.421 180.21 352.065 181.158 353.046 181.346L360.745 182.82C361.727 183.008 362.675 182.365 362.863 181.383L364.337 173.684C364.525 172.703 363.882 171.755 362.9 171.567Z" fill="#263238"/>
<path d="M360.013 174.854L355.738 177.662L355.976 178.026L360.252 175.217L360.013 174.854Z" fill="white"/>
<path d="M356.739 174.196L356.379 174.44L359.252 178.673L359.612 178.429L356.739 174.196Z" fill="white"/>
<path d="M313.263 179.021L305.564 177.546C304.583 177.358 303.635 178.002 303.447 178.983L301.973 186.682C301.785 187.664 302.428 188.612 303.41 188.8L311.108 190.274C312.09 190.462 313.038 189.819 313.226 188.837L314.7 181.138C314.888 180.157 314.245 179.209 313.263 179.021Z" fill="#455A64"/>
<g opacity="0.2">
<path d="M313.263 179.021L305.564 177.546C304.583 177.358 303.635 178.002 303.447 178.983L301.973 186.682C301.785 187.664 302.428 188.612 303.41 188.8L311.108 190.274C312.09 190.462 313.038 189.819 313.226 188.837L314.7 181.138C314.888 180.157 314.245 179.209 313.263 179.021Z" fill="black"/>
</g>
<path d="M311.538 178.692L303.839 177.218C302.858 177.03 301.91 177.673 301.722 178.655L300.247 186.354C300.06 187.335 300.703 188.284 301.684 188.471L309.383 189.946C310.365 190.134 311.313 189.49 311.501 188.509L312.975 180.81C313.163 179.828 312.52 178.88 311.538 178.692Z" fill="#263238"/>
<path d="M308.624 181.456L308.493 182.161L305.988 185.815L304.805 185.588L307.214 182.108L305.657 181.813L305.518 182.578L304.552 182.396L304.865 180.743L308.624 181.456Z" fill="white"/>
<path d="M328.975 182.016L321.276 180.542C320.294 180.354 319.346 180.997 319.158 181.979L317.684 189.678C317.496 190.659 318.139 191.607 319.121 191.795L326.82 193.27C327.801 193.457 328.75 192.814 328.937 191.833L330.412 184.134C330.6 183.152 329.956 182.204 328.975 182.016Z" fill="#455A64"/>
<g opacity="0.2">
<path d="M328.975 182.016L321.276 180.542C320.294 180.354 319.346 180.997 319.158 181.979L317.684 189.678C317.496 190.659 318.139 191.607 319.121 191.795L326.82 193.27C327.801 193.457 328.75 192.814 328.937 191.833L330.412 184.134C330.6 183.152 329.956 182.204 328.975 182.016Z" fill="black"/>
</g>
<path d="M327.232 181.686L319.533 180.212C318.552 180.024 317.604 180.667 317.416 181.649L315.942 189.348C315.754 190.329 316.397 191.277 317.379 191.465L325.077 192.939C326.059 193.127 327.007 192.484 327.195 191.502L328.669 183.804C328.857 182.822 328.214 181.874 327.232 181.686Z" fill="#263238"/>
<path d="M324.51 187.92C324.345 188.79 323.449 189.208 322.257 188.981C321.065 188.755 320.386 188.042 320.56 187.163C320.599 186.929 320.705 186.711 320.866 186.537C321.027 186.362 321.235 186.238 321.465 186.18C321.314 186.051 321.201 185.883 321.138 185.694C321.076 185.506 321.065 185.304 321.108 185.11C321.265 184.292 322.1 183.918 323.162 184.118C324.223 184.318 324.902 184.988 324.728 185.806C324.693 186.004 324.607 186.189 324.477 186.342C324.347 186.495 324.178 186.61 323.988 186.676C324.19 186.807 324.347 186.996 324.44 187.218C324.533 187.44 324.558 187.684 324.51 187.92ZM323.423 187.676C323.501 187.259 323.205 186.937 322.666 186.806C322.126 186.676 321.743 186.893 321.665 187.311C321.587 187.729 321.874 188.051 322.405 188.181C322.935 188.312 323.327 188.111 323.405 187.703L323.423 187.676ZM322.196 185.38C322.126 185.728 322.361 186.006 322.805 186.093C323.249 186.18 323.588 186.015 323.675 185.658C323.762 185.301 323.492 185.006 323.048 184.927C322.605 184.849 322.248 185.032 322.178 185.406L322.196 185.38Z" fill="white"/>
<path d="M345.238 185.133L337.539 183.659C336.557 183.471 335.609 184.114 335.421 185.096L333.947 192.795C333.759 193.776 334.402 194.725 335.384 194.912L343.083 196.387C344.064 196.575 345.012 195.931 345.2 194.95L346.675 187.251C346.863 186.269 346.219 185.321 345.238 185.133Z" fill="#455A64"/>
<g opacity="0.2">
<path d="M345.238 185.133L337.539 183.659C336.557 183.471 335.609 184.114 335.421 185.096L333.947 192.795C333.759 193.776 334.402 194.725 335.384 194.912L343.083 196.387C344.064 196.575 345.012 195.931 345.2 194.95L346.675 187.251C346.863 186.269 346.219 185.321 345.238 185.133Z" fill="black"/>
</g>
<path d="M343.504 184.803L335.805 183.329C334.824 183.141 333.875 183.784 333.688 184.766L332.213 192.465C332.025 193.446 332.669 194.394 333.65 194.582L341.349 196.057C342.331 196.245 343.279 195.601 343.467 194.62L344.941 186.921C345.129 185.939 344.486 184.991 343.504 184.803Z" fill="#263238"/>
<path d="M340.796 189.938C340.768 190.274 340.668 190.6 340.502 190.894C340.335 191.187 340.108 191.441 339.834 191.638C339.56 191.835 339.247 191.97 338.916 192.034C338.585 192.098 338.244 192.089 337.917 192.009C337.46 191.922 337.036 191.711 336.69 191.4L337.247 190.678C337.472 190.898 337.762 191.041 338.073 191.087C338.251 191.132 338.437 191.137 338.618 191.104C338.798 191.07 338.97 190.998 339.12 190.892C339.27 190.787 339.396 190.65 339.488 190.491C339.581 190.333 339.638 190.156 339.657 189.973C339.472 190.086 339.267 190.161 339.054 190.193C338.84 190.226 338.622 190.217 338.413 190.165C338.208 190.144 338.01 190.081 337.831 189.981C337.651 189.881 337.494 189.745 337.369 189.582C337.244 189.42 337.153 189.233 337.102 189.034C337.051 188.835 337.041 188.628 337.073 188.425C337.122 188.204 337.216 187.996 337.349 187.813C337.482 187.63 337.652 187.477 337.847 187.362C338.042 187.248 338.259 187.175 338.483 187.148C338.708 187.122 338.935 187.141 339.152 187.207C340.44 187.459 341.083 188.425 340.796 189.938ZM339.735 188.886C339.813 188.486 339.57 188.138 339.056 188.016C338.959 187.985 338.856 187.975 338.754 187.987C338.653 187.999 338.555 188.033 338.467 188.085C338.379 188.138 338.304 188.209 338.246 188.293C338.187 188.377 338.148 188.472 338.129 188.573C338.11 188.673 338.113 188.777 338.138 188.876C338.162 188.976 338.207 189.069 338.27 189.149C338.333 189.23 338.413 189.296 338.503 189.344C338.594 189.391 338.693 189.419 338.795 189.425C338.892 189.454 338.994 189.463 339.095 189.451C339.196 189.439 339.293 189.407 339.381 189.357C339.469 189.306 339.545 189.239 339.606 189.158C339.667 189.077 339.711 188.984 339.735 188.886Z" fill="white"/>
<path d="M361.509 188.25L353.811 186.776C352.829 186.588 351.881 187.232 351.693 188.213L350.219 195.912C350.031 196.894 350.674 197.842 351.656 198.03L359.355 199.504C360.336 199.692 361.284 199.048 361.472 198.067L362.946 190.368C363.134 189.386 362.491 188.438 361.509 188.25Z" fill="#455A64"/>
<g opacity="0.2">
<path d="M361.509 188.25L353.811 186.776C352.829 186.588 351.881 187.232 351.693 188.213L350.219 195.912C350.031 196.894 350.674 197.842 351.656 198.03L359.355 199.504C360.336 199.692 361.284 199.048 361.472 198.067L362.946 190.368C363.134 189.386 362.491 188.438 361.509 188.25Z" fill="black"/>
</g>
<path d="M359.767 187.92L352.068 186.446C351.087 186.258 350.138 186.902 349.95 187.883L348.476 195.582C348.288 196.564 348.932 197.512 349.913 197.7L357.612 199.174C358.594 199.362 359.542 198.718 359.73 197.737L361.204 190.038C361.392 189.056 360.749 188.108 359.767 187.92Z" fill="#263238"/>
<path d="M352.718 193.269L352.636 193.695L357.649 194.667L357.732 194.241L352.718 193.269Z" fill="white"/>
<path d="M342.077 201.636L334.378 200.162C333.397 199.974 332.448 200.617 332.261 201.599L330.786 209.298C330.598 210.279 331.242 211.227 332.223 211.415L339.922 212.89C340.904 213.077 341.852 212.434 342.04 211.453L343.514 203.754C343.702 202.772 343.059 201.824 342.077 201.636Z" fill="#455A64"/>
<g opacity="0.2">
<path d="M342.077 201.636L334.378 200.162C333.397 199.974 332.448 200.617 332.261 201.599L330.786 209.298C330.598 210.279 331.242 211.227 332.223 211.415L339.922 212.89C340.904 213.077 341.852 212.434 342.04 211.453L343.514 203.754C343.702 202.772 343.059 201.824 342.077 201.636Z" fill="black"/>
</g>
<path d="M340.345 201.298L332.646 199.823C331.665 199.635 330.717 200.279 330.529 201.26L329.054 208.959C328.866 209.941 329.51 210.889 330.491 211.077L338.19 212.551C339.172 212.739 340.12 212.096 340.308 211.114L341.782 203.415C341.97 202.434 341.327 201.486 340.345 201.298Z" fill="#263238"/>
<path d="M358.349 204.753L350.65 203.279C349.668 203.091 348.72 203.734 348.532 204.716L347.058 212.415C346.87 213.396 347.513 214.345 348.495 214.532L356.194 216.007C357.175 216.195 358.124 215.551 358.311 214.57L359.786 206.871C359.974 205.889 359.33 204.941 358.349 204.753Z" fill="#FF725E"/>
<g opacity="0.4">
<path d="M358.349 204.753L350.65 203.279C349.668 203.091 348.72 203.734 348.532 204.716L347.058 212.415C346.87 213.396 347.513 214.345 348.495 214.532L356.194 216.007C357.175 216.195 358.124 215.551 358.311 214.57L359.786 206.871C359.974 205.889 359.33 204.941 358.349 204.753Z" fill="black"/>
</g>
<path d="M356.608 204.415L348.909 202.941C347.928 202.753 346.979 203.396 346.792 204.378L345.317 212.076C345.129 213.058 345.773 214.006 346.754 214.194L354.453 215.668C355.435 215.856 356.383 215.213 356.571 214.231L358.045 206.532C358.233 205.551 357.59 204.603 356.608 204.415Z" fill="#FF725E"/>
<path d="M349.358 207.975L349.276 208.402L354.3 209.363L354.382 208.936L349.358 207.975Z" fill="white"/>
<path d="M348.985 209.892L348.904 210.319L353.928 211.281L354.01 210.853L348.985 209.892Z" fill="white"/>
<path d="M323.367 197.9L300.467 193.515C299.287 193.289 298.148 194.062 297.922 195.242L296.53 202.514C296.304 203.694 297.077 204.833 298.257 205.059L321.157 209.444C322.336 209.67 323.476 208.897 323.702 207.717L325.094 200.445C325.32 199.265 324.547 198.126 323.367 197.9Z" fill="#263238"/>
<path d="M309.842 201.04C310.138 199.491 311.164 198.778 312.321 199.004C313.478 199.23 314.157 200.265 313.861 201.814C313.565 203.363 312.548 204.076 311.39 203.85C310.233 203.624 309.546 202.588 309.842 201.04ZM312.774 201.605C312.974 200.535 312.687 200.022 312.147 199.917C311.608 199.813 311.147 200.187 310.947 201.257C310.747 202.327 311.034 202.832 311.564 202.936C312.095 203.041 312.565 202.71 312.774 201.605Z" fill="white"/>
<path d="M335.738 203.618L334.702 208.627L335.128 208.716L336.164 203.706L335.738 203.618Z" fill="white"/>
<path d="M332.943 205.465L332.862 205.892L337.886 206.854L337.968 206.426L332.943 205.465Z" fill="white"/>
<path d="M337.508 125.515L336.159 132.527L335.829 132.466L337.116 125.767L335.376 125.428L335.437 125.115L337.508 125.515Z" fill="#263238"/>
<path d="M342.676 133.449L342.615 133.763L337.865 132.893V132.649L341.449 130.195C342.475 129.499 342.754 129.03 342.867 128.455C343.041 127.525 342.51 126.794 341.284 126.559C340.898 126.455 340.493 126.441 340.101 126.517C339.709 126.594 339.339 126.76 339.022 127.003L338.83 126.742C339.188 126.479 339.601 126.299 340.037 126.214C340.473 126.13 340.923 126.144 341.353 126.254C342.693 126.515 343.415 127.368 343.198 128.499C343.076 129.16 342.754 129.7 341.658 130.448L338.43 132.64L342.676 133.449Z" fill="#263238"/>
<path d="M348.374 132.849C348.148 134.015 347.174 134.676 345.634 134.38C345.177 134.317 344.739 134.157 344.35 133.909C343.961 133.661 343.63 133.332 343.38 132.945L343.607 132.736C343.835 133.094 344.139 133.398 344.496 133.628C344.854 133.858 345.257 134.007 345.677 134.067C347.026 134.328 347.852 133.797 348.044 132.788C348.235 131.779 347.687 130.987 346.199 130.7L345.808 130.631V130.387L348.539 127.96L344.677 127.22L344.729 126.907L349.079 127.733L349.027 127.977L346.26 130.404C347.939 130.726 348.6 131.683 348.374 132.849Z" fill="#263238"/>
<path d="M355.282 134.093L353.759 133.797L353.368 135.824L353.037 135.764L353.429 133.736L349.401 132.962L349.444 132.727L354.229 128.717L354.621 128.795L349.897 132.753L353.49 133.432L353.829 131.648L354.16 131.718L353.82 133.458L355.343 133.745L355.282 134.093Z" fill="#263238"/>
<path d="M356.596 136.129C356.563 136.252 356.52 136.371 356.465 136.486L355.847 137.765L355.586 137.712L356.161 136.39C356.081 136.364 356.015 136.31 355.973 136.237C355.931 136.165 355.917 136.08 355.934 135.998C355.943 135.955 355.959 135.915 355.984 135.878C356.008 135.842 356.039 135.81 356.076 135.786C356.112 135.762 356.153 135.745 356.196 135.737C356.239 135.728 356.283 135.729 356.326 135.737C356.413 135.754 356.49 135.805 356.541 135.878C356.591 135.951 356.611 136.041 356.596 136.129Z" fill="#263238"/>
<path d="M363.66 135.72L362.138 135.424L361.755 137.451L361.424 137.39L361.807 135.363L357.779 134.589L357.831 134.354L362.616 130.344L363.008 130.422L358.283 134.38L361.868 135.068L362.207 133.328L362.538 133.389L362.198 135.172L363.721 135.459L363.66 135.72Z" fill="#263238"/>
<path d="M368.88 136.738C368.663 137.878 367.706 138.609 366.114 138.304C365.658 138.24 365.222 138.079 364.834 137.832C364.447 137.584 364.118 137.255 363.869 136.869L364.104 136.668C364.332 137.025 364.634 137.328 364.99 137.558C365.346 137.788 365.747 137.938 366.166 138C367.54 138.261 368.349 137.669 368.541 136.677C368.732 135.685 368.228 134.824 366.227 134.441L364.861 134.18L365.87 130.953L369.48 131.64L369.428 131.953L366.087 131.309L365.27 133.919L366.357 134.128C368.515 134.554 369.132 135.494 368.88 136.738Z" fill="#263238"/>
<path d="M227.279 37.2185H33.2864V166.588H227.279V37.2185Z" fill="#FAFAFA"/>
<path d="M101.198 83.5026H69.2869V96.309H101.198V83.5026Z" fill="#C6C6C6"/>
<path d="M196.942 83.5026H165.03V96.309H196.942V83.5026Z" fill="#C6C6C6"/>
<path d="M196.942 108.933H165.03V121.739H196.942V108.933Z" fill="#C6C6C6"/>
<path d="M196.942 121.643H165.03V134.45H196.942V121.643Z" fill="#C6C6C6"/>
<path d="M133.11 109.159H101.198V121.965H133.11V109.159Z" fill="#FF725E"/>
<path d="M164.978 122.113H133.067V134.92H164.978V122.113Z" fill="#FF725E"/>
<path d="M133.11 147.517H101.198V160.837H133.11V147.517Z" fill="#EBEBEB"/>
<path d="M196.942 147.691H165.03V160.498H196.942V147.691Z" fill="#C6C6C6"/>
<path d="M221.38 70.9919H49.0593V83.5025H221.38V70.9919Z" fill="#E0E0E0"/>
<path d="M69.2869 70.9919H39.0718V161.107H69.2869V70.9919Z" fill="#E0E0E0"/>
<path d="M69.7218 161.542H38.6367V70.557H69.7218V161.542ZM39.5067 160.672H68.8518V71.427H39.5067V160.672Z" fill="#E0E0E0"/>
<path d="M227.279 37.2185H33.2864V51.8954H227.279V37.2185Z" fill="#C6C6C6"/>
<path d="M69.2868 57.2373H39.4197V65.6328H69.2868V57.2373Z" fill="#EBEBEB"/>
<path d="M101.59 57.2373H72.7842V65.6328H101.59V57.2373Z" fill="#EBEBEB"/>
<path d="M133.18 57.2373H104.374V65.6328H133.18V57.2373Z" fill="#EBEBEB"/>
<path d="M164.769 57.2373H135.964V65.6328H164.769V57.2373Z" fill="#EBEBEB"/>
<path d="M196.359 57.2373H167.553V65.6328H196.359V57.2373Z" fill="#EBEBEB"/>
<path d="M222.816 57.2373H199.143V65.6328H222.816V57.2373Z" fill="#EBEBEB"/>
<path d="M39.0717 160.837H39.9417H42.5517H52.6263L90.393 160.776L221.363 160.672L221.154 160.889C221.154 133.101 221.154 102.703 221.154 71.0529L221.38 71.2791L39.0717 71.1573L39.237 70.992C39.237 98.6841 39.1761 121.121 39.15 136.651C39.15 144.42 39.15 150.458 39.15 154.555C39.15 156.609 39.15 158.175 39.15 159.227C39.15 160.28 39.15 160.837 39.15 160.837C39.15 160.837 39.15 160.306 39.15 159.262C39.15 158.218 39.15 156.652 39.15 154.625C39.15 150.527 39.15 144.507 39.15 136.755C39.15 121.2 39.0978 98.7189 39.063 70.992V70.818H39.2283L221.537 70.7571H221.763V70.992C221.763 102.643 221.763 133.04 221.763 160.828V161.037H221.545L90.2625 160.95L52.548 160.889H42.5169H39.9069L39.0717 160.837Z" fill="#263238"/>
<path d="M221.728 83.5199C221.728 83.6417 180.908 83.7461 130.578 83.7461C80.2488 83.7461 39.4197 83.6243 39.4197 83.5199C39.4197 83.4155 80.2227 83.2937 130.578 83.2937C180.934 83.2937 221.728 83.372 221.728 83.5199Z" fill="#263238"/>
<path d="M221.728 96.3003C221.728 96.4308 180.908 96.5265 130.578 96.5265C80.2488 96.5265 39.4197 96.4308 39.4197 96.3003C39.4197 96.1698 80.2227 96.0741 130.578 96.0741C180.934 96.0741 221.728 96.1785 221.728 96.3003Z" fill="#263238"/>
<path d="M221.728 109.107C221.728 109.228 180.908 109.333 130.578 109.333C80.2488 109.333 39.4197 109.228 39.4197 109.107C39.4197 108.985 80.2227 108.88 130.578 108.88C180.934 108.88 221.728 108.976 221.728 109.107Z" fill="#263238"/>
<path d="M221.728 121.904C221.728 122.035 180.908 122.131 130.578 122.131C80.2488 122.131 39.4197 122.035 39.4197 121.904C39.4197 121.774 80.2227 121.678 130.578 121.678C180.934 121.678 221.728 121.8 221.728 121.904Z" fill="#263238"/>
<path d="M221.728 134.711C221.728 134.832 180.908 134.937 130.578 134.937C80.2488 134.937 39.4197 134.85 39.4197 134.711C39.4197 134.571 80.2227 134.484 130.578 134.484C180.934 134.484 221.728 134.589 221.728 134.711Z" fill="#263238"/>
<path d="M221.728 147.517C221.728 147.639 180.908 147.743 130.578 147.743C80.2488 147.743 39.4197 147.639 39.4197 147.517C39.4197 147.395 80.2227 147.291 130.578 147.291C180.934 147.291 221.728 147.387 221.728 147.517Z" fill="#263238"/>
<path d="M69.2867 161.106C69.1562 161.106 69.0605 141.044 69.0605 116.301C69.0605 91.5587 69.1562 71.4878 69.2867 71.4878C69.4172 71.4878 69.513 91.55 69.513 116.301C69.513 141.053 69.4085 161.106 69.2867 161.106Z" fill="#263238"/>
<path d="M101.198 160.837C101.077 160.837 100.972 140.827 100.972 116.162C100.972 91.4978 101.077 71.4878 101.198 71.4878C101.32 71.4878 101.425 91.4978 101.425 116.162C101.425 140.827 101.329 160.837 101.198 160.837Z" fill="#263238"/>
<path d="M133.11 161.106C132.979 161.106 132.884 141.044 132.884 116.301C132.884 91.5587 132.979 71.4878 133.11 71.4878C133.24 71.4878 133.336 91.55 133.336 116.301C133.336 141.053 133.24 161.106 133.11 161.106Z" fill="#263238"/>
<path d="M165.03 161.106C164.909 161.106 164.804 141.044 164.804 116.301C164.804 91.5587 164.909 71.4878 165.03 71.4878C165.152 71.4878 165.257 91.55 165.257 116.301C165.257 141.053 165.161 161.106 165.03 161.106Z" fill="#263238"/>
<path d="M196.951 161.106C196.82 161.106 196.724 141.044 196.724 116.301C196.724 91.5587 196.82 71.4878 196.951 71.4878C197.081 71.4878 197.177 91.55 197.177 116.301C197.177 141.053 197.072 161.106 196.951 161.106Z" fill="#263238"/>
<path d="M44.6224 44.5526C44.6087 44.9162 44.4883 45.2677 44.2762 45.5634C44.064 45.859 43.7696 46.0856 43.4295 46.215C43.0894 46.3444 42.7188 46.3708 42.3638 46.2909C42.0088 46.211 41.6852 46.0284 41.4333 45.7658C41.1814 45.5032 41.0124 45.1723 40.9473 44.8143C40.8823 44.4563 40.9241 44.0871 41.0675 43.7527C41.2109 43.4183 41.4495 43.1335 41.7537 42.9338C42.0579 42.7341 42.4141 42.6284 42.778 42.6299C43.0255 42.6344 43.2697 42.6878 43.4966 42.787C43.7234 42.8862 43.9284 43.0292 44.0998 43.2079C44.2712 43.3866 44.4056 43.5973 44.4953 43.8281C44.585 44.0589 44.6281 44.3051 44.6224 44.5526Z" fill="white"/>
<path d="M50.9124 44.5527C50.8988 44.9159 50.7786 45.2671 50.5668 45.5626C50.3551 45.858 50.0611 46.0847 49.7216 46.2143C49.382 46.344 49.0118 46.3709 48.657 46.2917C48.3022 46.2125 47.9786 46.0308 47.7264 45.7691C47.4741 45.5074 47.3044 45.1772 47.2384 44.8198C47.1723 44.4624 47.2129 44.0934 47.3549 43.7588C47.497 43.4242 47.7343 43.1388 48.0374 42.9381C48.3404 42.7374 48.6958 42.6303 49.0593 42.63C49.3076 42.6334 49.5527 42.6859 49.7806 42.7846C50.0084 42.8833 50.2145 43.0262 50.3868 43.205C50.5591 43.3837 50.6943 43.5949 50.7845 43.8262C50.8747 44.0576 50.9182 44.3045 50.9124 44.5527Z" fill="white"/>
<path d="M57.2025 44.5527C57.1888 44.9159 57.0686 45.2671 56.8569 45.5626C56.6451 45.858 56.3512 46.0847 56.0116 46.2143C55.672 46.344 55.3018 46.3709 54.947 46.2917C54.5923 46.2125 54.2686 46.0308 54.0164 45.7691C53.7641 45.5074 53.5944 45.1772 53.5284 44.8198C53.4624 44.4624 53.5029 44.0934 53.645 43.7588C53.787 43.4242 54.0244 43.1388 54.3274 42.9381C54.6305 42.7374 54.9859 42.6303 55.3494 42.63C55.5976 42.6334 55.8428 42.6859 56.0706 42.7846C56.2985 42.8833 56.5045 43.0262 56.6768 43.205C56.8491 43.3837 56.9843 43.5949 57.0745 43.8262C57.1647 44.0576 57.2082 44.3045 57.2025 44.5527Z" fill="white"/>
<path d="M227.279 166.579C227.279 165.1 227.209 116.023 227.096 37.2185L227.279 37.3925L33.295 37.4099L33.5212 37.1838C33.5212 83.2938 33.5212 127.072 33.5212 166.544L33.3124 166.335L173.095 166.44L213.02 166.492H223.634H226.365H227.305H226.391H223.677H213.107L173.234 166.544L33.3124 166.648H33.0601V166.44C33.0601 126.968 33.0601 83.1458 33.0601 37.0793V36.8531H33.295H227.305H227.479V37.0358C227.348 116.023 227.279 165.109 227.279 166.579Z" fill="#263238"/>
<path d="M211.793 190.217L201.727 202.71L159.767 214.385L166.04 282.167C167.971 308.728 170.685 315.227 172.565 332.905V347.304H291.755L308.398 209.722L267.281 200.274L258.442 190.217H211.793Z" fill="#555555"/>
<path d="M210.009 214.42L215.142 282.289L220.632 316.741L260.922 204.311L228.418 242.826L210.009 214.42Z" fill="white"/>
<path d="M220.049 321.587C220.049 321.587 220.101 321.474 220.206 321.256C220.31 321.039 220.501 320.717 220.71 320.317L222.72 316.68C224.46 313.531 226.966 309.015 230.063 303.43L254.423 259.808L267.716 236.135L267.76 236.396L261.974 231.507L261.766 231.333L262.009 231.185L270.248 226.331L270.161 226.505C269.291 218.474 268.525 211.923 268.012 207.365C267.769 205.103 267.586 203.336 267.447 202.145C267.394 201.562 267.351 201.101 267.316 200.77C267.281 200.439 267.316 200.3 267.316 200.3C267.316 200.3 267.316 200.457 267.394 200.77L267.577 202.136C267.734 203.354 267.951 205.12 268.238 207.356C268.786 211.923 269.569 218.466 270.535 226.496V226.609L270.439 226.67L262.218 231.559V231.246L268.012 236.109L268.151 236.222L268.064 236.37L254.814 260.043L230.315 303.63L222.842 316.811C221.972 318.35 221.276 319.551 220.789 320.386L220.249 321.308C220.195 321.409 220.127 321.503 220.049 321.587Z" fill="#263238"/>
<path d="M220.049 321.587C220.001 321.487 219.963 321.382 219.936 321.274C219.858 321.039 219.762 320.726 219.64 320.325C219.379 319.455 219.014 318.237 218.544 316.663C217.604 313.461 216.265 308.833 214.603 303.195C212.941 297.557 210.94 290.745 208.861 283.185C206.921 275.581 205.068 267.168 203.11 258.338C200.448 246.227 198.047 234.891 196.054 225.278V225.113L196.211 225.052L201.701 223.129V223.46L195.019 219.919L194.889 219.858L194.941 219.727L199.917 207.234L201.283 203.867L201.64 202.997C201.681 202.899 201.727 202.803 201.779 202.71C201.757 202.814 201.725 202.916 201.683 203.015C201.605 203.232 201.501 203.528 201.361 203.885C201.057 204.685 200.631 205.825 200.074 207.278L195.237 219.823L195.158 219.623L201.866 223.103L202.231 223.294L201.84 223.433L196.359 225.374L196.489 225.156C198.525 234.726 200.944 246.036 203.606 258.216C205.564 267.038 207.399 275.459 209.322 283.055C211.245 290.65 213.367 297.383 214.968 303.065L218.77 316.584C219.205 318.159 219.544 319.394 219.779 320.264L220.032 321.221C220.049 321.342 220.055 321.465 220.049 321.587Z" fill="#263238"/>
<path d="M159.767 214.394C159.767 214.394 150.545 218.892 144.037 239.572C139.313 254.606 120.103 306.362 120.103 306.362L98.8232 300.15C98.8232 300.15 83.1632 319.655 86.7128 326.45C90.2624 333.245 116.18 347.33 116.18 347.33H146.525C150.682 344.132 153.726 339.706 155.225 334.68L172.582 276.234L159.767 214.394Z" fill="#555555"/>
<path d="M308.38 209.731C313.946 213.068 318.549 217.797 321.735 223.451C327.033 232.873 369.341 301.751 372.847 318.046C378.067 342.406 367.627 347.287 367.627 347.287H353.011L316.819 347.13L312.252 318.812L328.338 315.375L298.523 282.315L296.548 285.682L290.719 238.493L308.38 209.731Z" fill="#555555"/>
<path d="M163.603 242.826C163.734 242.826 164.813 254.527 166.013 268.978C167.214 283.429 168.093 295.156 167.971 295.165C167.849 295.174 166.77 283.463 165.561 269.013C164.352 254.562 163.482 242.834 163.603 242.826Z" fill="#263238"/>
<path d="M306.24 229.723C306.362 229.723 304.692 244.348 302.517 262.348C300.342 280.349 298.48 294.93 298.349 294.93C298.219 294.93 299.889 280.314 302.073 262.305C304.256 244.296 306.118 229.68 306.24 229.723Z" fill="#263238"/>
<path d="M317.254 347.313C317.254 347.313 317.393 347.13 317.663 346.791C318.055 346.299 318.418 345.785 318.751 345.251C319.968 343.277 320.91 341.146 321.552 338.917C322.011 337.383 322.348 335.815 322.561 334.228C322.865 332.426 322.944 330.594 322.796 328.773C322.574 326.77 321.882 324.847 320.778 323.162C319.585 321.357 318.022 319.827 316.193 318.672L315.81 318.42L315.323 318.159L315.845 318.002C323.136 315.867 330.624 314.471 338.195 313.835C341.092 313.583 343.415 313.478 345.059 313.426C345.868 313.426 346.504 313.426 346.93 313.426C347.147 313.402 347.366 313.402 347.582 313.426C347.367 313.468 347.149 313.491 346.93 313.496L345.068 313.618C343.45 313.722 341.11 313.879 338.23 314.166C330.694 314.897 323.243 316.333 315.975 318.455L316.019 318.037L316.436 318.281C318.321 319.468 319.93 321.047 321.152 322.909C322.287 324.654 322.994 326.642 323.214 328.712C323.353 330.572 323.26 332.443 322.935 334.28C322.701 335.878 322.341 337.455 321.856 338.996C321.183 341.242 320.187 343.378 318.898 345.338C318.545 345.866 318.156 346.369 317.733 346.843C317.595 347.02 317.434 347.178 317.254 347.313Z" fill="#263238"/>
<path d="M220.153 347.313C220.032 347.313 219.927 341.484 219.927 334.263C219.927 327.042 220.032 321.213 220.153 321.213C220.275 321.213 220.38 327.042 220.38 334.263C220.38 341.484 220.284 347.313 220.153 347.313Z" fill="#263238"/>
<path d="M288.057 289.562C288.046 289.356 288.046 289.15 288.057 288.944C288.057 288.518 288.057 287.944 288.057 287.204C288.057 285.673 288.057 283.49 287.979 280.74L288.118 280.88L252.065 280.967C252.161 280.871 251.83 281.193 252.283 280.74V289.545L252.056 289.327L277.721 289.423L285.325 289.484H287.387H287.926H288.118C287.892 289.496 287.665 289.496 287.439 289.484H285.43L277.878 289.545L252.056 289.649H251.839V289.423C251.839 287.996 251.839 286.552 251.839 285.073V280.61C252.291 280.157 251.969 280.488 252.074 280.384L288.127 280.479H288.257V280.61C288.257 283.394 288.205 285.604 288.187 287.152C288.187 287.874 288.187 288.44 288.187 288.892C288.162 289.119 288.118 289.343 288.057 289.562Z" fill="#263238"/>
<path d="M163.603 238.946C163.482 238.946 162.298 233.943 160.993 227.714C159.688 221.485 158.671 216.404 158.792 216.404C158.914 216.404 160.097 221.406 161.402 227.635C162.707 233.865 163.725 238.919 163.603 238.946Z" fill="#263238"/>
<g opacity="0.3">
<path d="M222.05 318.029L273.511 239.093L266.081 231.916L270.326 226.496L262.096 231.377L267.89 236.257L222.05 318.029Z" fill="black"/>
</g>
<g opacity="0.3">
<path d="M94.9258 320.673V325.058L153.338 325.241V320.673H94.9258Z" fill="black"/>
</g>
<path d="M166.109 159.419C167.665 159.607 169.243 159.369 170.674 158.73C172.106 158.091 173.336 157.075 174.235 155.791C172.138 156.113 169.885 156.409 167.988 155.443C166.092 154.477 165.03 151.693 166.509 150.223C167.666 149.031 169.572 149.24 171.225 149.118C173.158 148.951 175.003 148.237 176.544 147.058C178.085 145.879 179.258 144.285 179.925 142.462C181.325 138.443 180.047 134.067 179.542 129.839C178.894 123.681 179.9 117.463 182.457 111.824C185.014 106.186 189.029 101.331 194.088 97.7619L220.545 82.4673C230.115 94.7517 233.134 111.299 231.142 126.75C229.149 142.201 222.598 156.739 214.716 170.181C212.419 174.096 209.975 178.011 206.729 181.16C203.484 184.309 199.361 186.789 194.845 187.25C194.265 185.383 194.139 183.404 194.48 181.479C194.821 179.554 195.617 177.738 196.803 176.184C193.219 176.392 189.629 175.875 186.249 174.664C182.87 173.453 179.769 171.573 177.132 169.137L182.796 164.787C179.791 165.167 176.739 164.884 173.856 163.956C170.973 163.029 168.328 161.48 166.109 159.419Z" fill="#263238"/>
<path d="M267.96 116.267C267.49 105.218 260.608 95.9611 249.968 92.9248L216.83 83.4505C202.44 81.4756 192.296 98.9626 190.93 113.422C189.425 129.491 188.32 146.482 189.834 158.531C192.922 182.804 211.34 186.45 211.34 186.45C211.34 186.45 210.731 208.33 210.54 215.386L227.409 250.656L260.13 205.538L268.064 116.58C268.082 116.154 268.012 116.824 267.96 116.267Z" fill="#E2A891"/>
<path d="M197.307 133.441C197.276 134.247 197.56 135.035 198.099 135.636C198.638 136.236 199.39 136.604 200.196 136.66C200.589 136.703 200.987 136.667 201.366 136.554C201.745 136.441 202.098 136.254 202.404 136.002C202.709 135.751 202.962 135.441 203.146 135.091C203.33 134.74 203.442 134.357 203.476 133.963C203.509 133.155 203.226 132.367 202.686 131.766C202.147 131.164 201.393 130.797 200.587 130.744C200.194 130.7 199.796 130.736 199.417 130.849C199.037 130.962 198.685 131.15 198.379 131.401C198.073 131.652 197.821 131.962 197.637 132.313C197.453 132.663 197.341 133.046 197.307 133.441Z" fill="#263238"/>
<path d="M194.288 122.992C194.663 123.41 197.064 121.739 200.378 121.852C203.693 121.965 206.103 123.705 206.468 123.314C206.651 123.131 206.286 122.392 205.242 121.574C203.83 120.532 202.132 119.952 200.378 119.912C198.643 119.854 196.935 120.347 195.498 121.322C194.48 122.087 194.106 122.801 194.288 122.992Z" fill="#263238"/>
<path d="M225.495 133.441C225.464 134.247 225.748 135.035 226.287 135.635C226.826 136.236 227.578 136.604 228.384 136.66C228.777 136.703 229.175 136.667 229.554 136.554C229.933 136.441 230.286 136.253 230.592 136.002C230.897 135.751 231.15 135.441 231.334 135.091C231.518 134.74 231.63 134.357 231.664 133.963C231.697 133.155 231.414 132.367 230.874 131.766C230.335 131.164 229.581 130.797 228.775 130.744C228.382 130.702 227.985 130.738 227.606 130.852C227.227 130.965 226.875 131.153 226.569 131.404C226.264 131.655 226.012 131.965 225.827 132.314C225.643 132.664 225.53 133.047 225.495 133.441Z" fill="#263238"/>
<path d="M225.948 123.897C226.322 124.314 228.723 122.644 232.038 122.757C235.352 122.87 237.762 124.61 238.128 124.219C238.31 124.036 237.945 123.297 236.901 122.479C235.491 121.435 233.792 120.854 232.038 120.817C230.302 120.756 228.592 121.249 227.157 122.226C226.139 122.992 225.765 123.705 225.948 123.897Z" fill="#263238"/>
<path d="M214.786 149.779C214.786 149.596 212.741 149.17 209.4 148.639C208.53 148.526 207.747 148.326 207.66 147.769C207.573 147.213 207.86 146.247 208.304 145.264L211.018 138.861C214.803 129.743 217.561 122.226 217.195 122.078C216.83 121.93 213.428 129.178 209.67 138.33L207.06 144.777C206.712 145.734 206.12 146.821 206.521 148.109C206.634 148.412 206.815 148.686 207.05 148.909C207.286 149.133 207.569 149.299 207.878 149.396C208.347 149.54 208.832 149.622 209.322 149.64C212.663 149.892 214.759 149.971 214.786 149.779Z" fill="#263238"/>
<path d="M243.6 178.768C243.6 178.768 235.265 195.141 211.158 192.131L211.314 186.45C222.58 186.932 233.758 184.272 243.6 178.768Z" fill="#7C5142"/>
<path d="M227.34 113.144C227.644 114.014 230.985 113.735 234.883 114.327C238.78 114.918 241.903 116.067 242.452 115.284C242.695 114.901 242.173 114.031 240.92 113.109C239.251 111.982 237.347 111.25 235.353 110.969C233.359 110.687 231.327 110.862 229.41 111.482C227.94 112.021 227.218 112.709 227.34 113.144Z" fill="#263238"/>
<path d="M195.672 112.822C196.228 113.596 198.551 112.883 201.318 112.935C204.085 112.987 206.399 113.596 206.964 112.822C207.208 112.448 206.869 111.673 205.868 110.925C204.522 110.024 202.938 109.542 201.318 109.542C199.698 109.542 198.114 110.024 196.768 110.925C195.75 111.673 195.419 112.448 195.672 112.822Z" fill="#263238"/>
<path d="M227.288 156.287C227.072 155.29 226.513 154.401 225.708 153.774C224.904 153.148 223.905 152.824 222.885 152.859C222.141 152.933 221.426 153.189 220.804 153.605C220.182 154.021 219.672 154.583 219.318 155.243C218.977 155.91 218.772 156.638 218.717 157.385C218.661 158.132 218.757 158.883 218.996 159.593L219.057 159.906C219.73 160.674 220.623 161.215 221.615 161.457C222.607 161.698 223.649 161.628 224.599 161.255C225.531 160.837 226.299 160.124 226.785 159.226C227.271 158.328 227.448 157.295 227.288 156.287Z" fill="#7C5142"/>
<path d="M216.63 159.906C216.63 159.401 220.005 159.654 222.624 156.965C225.243 154.277 225.147 150.658 225.617 150.667C225.834 150.667 226.209 151.537 226.13 153.033C226.007 155.007 225.19 156.874 223.825 158.305C222.509 159.677 220.713 160.484 218.814 160.559C217.404 160.576 216.63 160.132 216.63 159.906Z" fill="#263238"/>
<path d="M256.841 77.7867C253.109 71.862 244.296 65.6763 237.388 64.467C229.558 63.0924 224.791 64.467 219.614 69.165C219.614 69.165 215.595 73.0452 211.784 73.776C207.974 74.5068 204.824 73.8891 200.361 76.1946C194.21 79.3353 191.513 87.5568 188.668 93.8469C185.127 101.677 180.09 108.854 177.776 117.119C175.462 125.384 176.697 135.529 183.657 140.549C182.465 134.215 181.473 127.246 184.083 121.522C183.743 123.811 183.885 126.146 184.501 128.377C185.806 124.654 187.181 120.817 189.878 117.937C192.427 115.223 195.968 113.587 198.578 110.977C202.432 107.106 204.206 101.216 208.887 98.4057C213.759 95.4825 219.927 96.9441 225.6 96.9702C230.391 96.9673 235.121 95.8895 239.441 93.8162C243.761 91.7429 247.56 88.7269 250.56 84.9903L249.151 84.8685C252.014 82.856 254.6 80.4749 256.841 77.7867Z" fill="#263238"/>
<path d="M292.363 136.886C290.197 129.778 286.387 123.279 284.011 116.241C281.689 109.385 280.732 102.06 277.652 95.5173C273.502 86.7129 265.759 75.2985 253.692 75.9336L252.822 76.6557C248.704 76.1546 244.526 76.653 240.642 78.1086L240.451 87.5133L238.145 89.5491C239.111 91.4196 240.033 93.2205 240.92 94.9953C241.626 98.5329 242.654 101.998 243.991 105.348C245.32 108.638 247.29 111.631 249.786 114.153C270.579 163.934 251.717 167.075 261.096 195.602L266.986 179.272C272.042 176.353 276.101 171.978 278.635 166.718L279.679 171.938C284.451 166.885 287.32 160.332 287.796 153.398L290.58 158.34C294.834 152.25 294.53 143.985 292.363 136.886Z" fill="#263238"/>
<path d="M256.894 135.068C257.216 134.258 272.24 129.317 271.988 145.134C271.745 160.498 256.328 157.026 256.328 156.583C256.328 156.139 256.894 135.068 256.894 135.068Z" fill="#E2A891"/>
<path d="M261.165 150.858C261.235 150.806 261.426 151.049 261.879 151.267C262.507 151.551 263.222 151.579 263.871 151.345C265.507 150.78 266.925 148.231 267.055 145.464C267.118 144.148 266.886 142.834 266.377 141.619C266.243 141.135 265.994 140.691 265.649 140.325C265.305 139.96 264.877 139.684 264.402 139.522C264.096 139.438 263.77 139.462 263.48 139.59C263.19 139.719 262.953 139.943 262.81 140.227C262.592 140.653 262.688 140.957 262.609 140.984C262.531 141.01 262.279 140.723 262.418 140.114C262.513 139.737 262.73 139.404 263.036 139.165C263.465 138.854 263.999 138.722 264.523 138.8C265.152 138.936 265.735 139.232 266.217 139.658C266.698 140.085 267.062 140.628 267.273 141.236C267.909 142.576 268.208 144.051 268.143 145.534C267.986 148.631 266.342 151.502 264.106 152.093C263.692 152.209 263.258 152.228 262.835 152.149C262.413 152.071 262.015 151.897 261.67 151.641C261.183 151.232 261.104 150.884 261.165 150.858Z" fill="#7C5142"/>
<path d="M262.827 153.625C263.588 153.504 264.366 153.678 265.003 154.112C265.64 154.545 266.088 155.205 266.256 155.957C266.423 156.708 266.298 157.496 265.905 158.159C265.512 158.821 264.882 159.309 264.142 159.523C263.401 159.737 262.608 159.661 261.922 159.31C261.236 158.96 260.71 158.361 260.45 157.635C260.19 156.91 260.217 156.113 260.525 155.407C260.832 154.7 261.397 154.138 262.105 153.833" fill="white"/>
<path d="M262.105 153.833C261.426 154.338 260.923 155.045 260.669 155.852C260.549 156.269 260.535 156.709 260.627 157.133C260.72 157.557 260.917 157.951 261.2 158.279C261.531 158.693 261.978 158.999 262.483 159.16C262.988 159.321 263.529 159.328 264.038 159.182C264.548 159.036 265.003 158.743 265.346 158.339C265.689 157.936 265.906 157.44 265.968 156.913C266.03 156.482 265.983 156.041 265.831 155.632C265.679 155.224 265.427 154.859 265.098 154.573C264.448 154.027 263.646 153.696 262.801 153.625C262.801 153.581 263.044 153.468 263.532 153.477C264.227 153.499 264.894 153.753 265.428 154.199C265.845 154.527 266.169 154.958 266.37 155.449C266.572 155.94 266.643 156.474 266.577 157C266.514 157.66 266.255 158.285 265.832 158.795C265.409 159.305 264.842 159.675 264.205 159.858C263.569 160.042 262.892 160.029 262.263 159.821C261.633 159.614 261.081 159.222 260.678 158.697C260.342 158.286 260.118 157.795 260.028 157.272C259.938 156.749 259.985 156.212 260.165 155.713C260.383 155.05 260.814 154.478 261.391 154.086C261.87 153.825 262.096 153.79 262.105 153.833Z" fill="#263238"/>
<path d="M239.424 93.4033C239.728 93.5251 241.164 88.3138 245.427 83.4853C249.69 78.6568 254.605 76.5253 254.449 76.1947C254.405 76.0816 253.109 76.447 251.204 77.491C246.232 80.2896 242.374 84.713 240.277 90.019C239.502 92.0374 239.311 93.3772 239.424 93.4033Z" fill="#455A64"/>
<path d="M101.668 325.058L90.2016 311.582C90.2016 311.582 82.1541 311.582 78.1347 307.754C74.1153 303.926 66.6681 300.315 69.687 293.477C69.687 293.477 66.0678 289.249 68.9823 284.629L69.078 283.42C69.078 283.42 60.03 279.592 62.64 274.972C65.25 270.353 70.2873 272.362 70.2873 272.362C70.2873 272.362 60.4041 265.681 58.6206 263.854C53.853 258.964 58.9773 255.667 64.2756 258.634C73.08 263.436 102.66 277.382 104.687 287.439V291.789C104.687 291.789 112.926 301.89 112.926 302.49C112.926 303.091 112.326 318.82 101.668 325.058Z" fill="#E2A891"/>
<path d="M43.7001 223.477C43.3434 223.025 88.6965 296.139 88.6965 296.139L90.7584 320.673H161.542L154.973 292.746C154.973 292.746 142.741 259.947 142.88 259.565C143.15 258.816 119.973 222.372 119.973 222.372L43.7001 223.477Z" fill="white"/>
<path d="M43.7002 223.477L45.0922 223.433L49.1203 223.355L64.4845 223.077L119.973 222.207H120.06L120.112 222.294C126.202 231.864 132.849 242.304 139.757 253.614C140.627 255.032 141.497 256.459 142.306 257.964C142.515 258.338 142.724 258.703 142.906 259.095C142.961 259.198 143.008 259.306 143.045 259.417C143.057 259.468 143.057 259.522 143.045 259.573C143.045 259.686 143.045 259.643 143.045 259.652V259.721L143.237 260.313L144.107 262.723L147.657 272.484L155.139 292.677C157.131 301.151 159.228 310.033 161.35 319.073C161.472 319.586 161.594 320.099 161.707 320.604L161.777 320.882H161.489H90.7063H90.5149V320.691C89.8015 312.101 89.12 303.923 88.4704 296.157V296.244L55.9237 243.478L46.8496 228.688C45.823 226.992 45.0313 225.687 44.4832 224.799C44.2309 224.356 44.0308 224.025 43.8916 223.79C43.8181 223.68 43.7541 223.563 43.7002 223.442L88.8619 296V296.044V296.087C89.5231 303.853 90.2162 312.031 90.9412 320.621L90.7324 320.43H161.516L161.298 320.708L160.933 319.177L154.73 292.781C152.183 285.902 149.692 279.169 147.256 272.58C146.056 269.28 144.875 266.026 143.715 262.818C143.428 262.009 143.15 261.2 142.845 260.4L142.654 259.782V259.704C142.645 259.652 142.645 259.599 142.654 259.547V259.469C142.497 259.399 142.889 259.521 142.793 259.469C142.753 259.46 142.712 259.46 142.671 259.469C142.642 259.379 142.604 259.291 142.558 259.208C142.384 258.842 142.176 258.468 141.975 258.103C141.149 256.641 140.288 255.215 139.435 253.753C132.536 242.443 125.889 231.942 119.843 222.372L119.999 222.459L64.3801 223.277L49.042 223.451H45.0313C44.1613 223.494 43.7002 223.477 43.7002 223.477Z" fill="#263238"/>
<path d="M136.59 261.383H135.955H134.145L127.481 261.252C121.861 261.131 114.1 260.913 105.522 260.774C96.944 260.635 89.1749 260.652 83.5634 260.835C80.7533 260.904 78.4826 261.026 76.9166 261.113L75.107 261.218C74.8955 261.231 74.6834 261.231 74.4719 261.218C74.6765 261.163 74.8866 261.13 75.0983 261.122L76.8992 260.93C78.4652 260.783 80.7359 260.617 83.5547 260.504C89.1749 260.243 96.944 260.182 105.531 260.313C114.118 260.443 121.878 260.713 127.49 260.93L134.145 261.2L135.955 261.287C136.169 261.295 136.383 261.327 136.59 261.383Z" fill="#263238"/>
<path d="M145.29 293.938C145.29 294.06 135.259 292.973 122.931 291.494C110.603 290.015 100.607 288.727 100.624 288.605C100.642 288.483 110.647 289.571 122.983 291.05C135.32 292.529 145.29 293.816 145.29 293.938Z" fill="#263238"/>
<path d="M80.04 298.88L93.2814 298.01C94.6734 297.923 96.2046 297.775 97.179 296.774C98.3796 295.522 97.788 292.694 96.2655 291.859L81.0927 288.196" fill="#E2A891"/>
<path d="M81.0753 288.222C81.4712 288.26 81.8639 288.326 82.2498 288.422L85.4514 289.127L96.3003 291.668H96.3612C96.9282 292.013 97.3725 292.527 97.6314 293.138C97.9106 293.742 98.0447 294.404 98.0229 295.069C98.0278 295.794 97.7464 296.491 97.2399 297.009C96.7519 297.469 96.152 297.793 95.4999 297.949C94.2979 298.179 93.0782 298.304 91.8546 298.323L85.7124 298.662L81.5799 298.854C81.0732 298.896 80.564 298.896 80.0574 298.854C80.5539 298.756 81.057 298.695 81.5625 298.671L85.695 298.341L91.785 297.897C92.9824 297.867 94.1754 297.739 95.352 297.514C95.943 297.364 96.4854 297.065 96.9267 296.644C97.3488 296.205 97.5803 295.617 97.5705 295.008C97.6069 294.429 97.4949 293.851 97.2452 293.327C96.9956 292.803 96.6164 292.352 96.1437 292.016H96.1959L85.3818 289.327L82.215 288.457C81.8284 288.416 81.4468 288.337 81.0753 288.222Z" fill="#7C5142"/>
<path d="M86.1299 283.472C90.1491 284.205 94.0902 285.315 97.901 286.787C98.5156 286.988 99.0339 287.409 99.3553 287.97C99.6768 288.531 99.7786 289.191 99.641 289.823C99.6265 290.141 99.5408 290.451 99.3902 290.731C99.2396 291.011 99.028 291.254 98.771 291.441C98.1987 291.755 97.5613 291.93 96.9092 291.955C93.0986 292.32 89.4446 291.798 85.6514 291.267C81.8582 290.737 76.6034 291.267 74.4023 292.433" fill="#E2A891"/>
<path d="M74.4285 292.433C74.4285 292.433 74.5503 292.337 74.8026 292.207C75.1798 292.028 75.5694 291.877 75.9684 291.755C77.444 291.332 78.9607 291.07 80.4924 290.972C81.5489 290.893 82.609 290.873 83.6679 290.911C84.8798 290.969 86.0878 291.091 87.2871 291.276C90.0094 291.697 92.7632 291.881 95.5173 291.824C96.2309 291.802 96.9426 291.738 97.6488 291.633C97.9673 291.603 98.2744 291.498 98.5449 291.327C98.8155 291.157 99.042 290.924 99.2061 290.65C99.702 289.501 99.5367 287.944 98.5014 287.318C97.9743 287.019 97.4173 286.777 96.8397 286.595L95.1867 286.013C94.1166 285.638 93.1161 285.317 92.1939 285.047C90.3495 284.49 88.8357 284.125 87.783 283.872C87.2339 283.768 86.6908 283.635 86.1561 283.472C86.3004 283.453 86.4467 283.453 86.5911 283.472C86.8782 283.472 87.2871 283.577 87.8265 283.672C88.8879 283.864 90.4365 284.186 92.2809 284.699C93.2118 284.96 94.2297 285.264 95.3085 285.621L96.9789 286.187C97.5833 286.375 98.1665 286.625 98.7189 286.935C99.0147 287.133 99.2669 287.389 99.4599 287.689C99.6529 287.988 99.7827 288.323 99.8412 288.675C99.9693 289.397 99.8816 290.142 99.5889 290.815C99.4201 291.182 99.14 291.486 98.7885 291.685C98.4546 291.867 98.0931 291.994 97.7184 292.059C96.9899 292.176 96.2547 292.246 95.5173 292.268C92.7359 292.324 89.9551 292.129 87.2088 291.685C86.0245 291.488 84.8311 291.352 83.6331 291.276C82.5869 291.219 81.5385 291.219 80.4924 291.276C78.9797 291.345 77.4768 291.555 76.0032 291.902C74.9766 292.19 74.4459 292.468 74.4285 292.433Z" fill="#7C5142"/>
<path d="M70.9658 272.501L81.4058 278.322C82.9805 279.192 84.6248 280.149 85.5731 281.689C86.5214 283.229 86.4431 285.551 84.9206 286.535C83.7374 287.318 82.1714 287.022 80.7968 286.674C76.9034 285.685 73.0717 284.468 69.3215 283.028" fill="#E2A891"/>
<path d="M69.3215 283.028C69.8195 283.142 70.3081 283.293 70.7831 283.481C71.7227 283.794 73.0712 284.255 74.759 284.777C76.4468 285.299 78.4652 285.873 80.7272 286.439C81.8473 286.822 83.0507 286.891 84.2072 286.639C84.7785 286.451 85.2592 286.057 85.5557 285.534C85.8561 284.987 85.9949 284.365 85.9559 283.742C85.9114 283.115 85.7395 282.504 85.4508 281.946C85.1621 281.388 84.7627 280.895 84.2768 280.497C83.3532 279.719 82.3466 279.045 81.2753 278.487L75.8813 275.425L72.2621 273.319C71.8099 273.08 71.3766 272.807 70.9658 272.501C71.4462 272.683 71.9091 272.907 72.3491 273.171L76.0379 275.146L81.4754 278.122C82.5812 278.675 83.6203 279.352 84.5726 280.14C85.0779 280.583 85.507 281.106 85.8428 281.689C86.1835 282.303 86.3771 282.988 86.4083 283.69C86.4511 284.401 86.2912 285.11 85.9472 285.734C85.6155 286.367 85.0605 286.854 84.3899 287.1C83.1508 287.381 81.8577 287.308 80.6576 286.891C78.3956 286.3 76.3772 285.682 74.6981 285.151C73.019 284.621 71.6792 284.081 70.757 283.716L69.7043 283.281C69.5635 283.219 69.4341 283.133 69.3215 283.028Z" fill="#7C5142"/>
<path d="M319.116 344.842L314.157 343.433L298.41 341.962L293.999 336.107L297.07 323.457L316.776 318.768C325.858 325.241 323.396 336.029 319.116 344.842Z" fill="#E2A891"/>
<path d="M273.267 313.087C271.412 312.85 269.529 312.998 267.734 313.522C266.577 314.025 265.569 314.818 264.807 315.824C264.045 316.829 263.555 318.014 263.384 319.264C262.87 323.318 262.714 326.607 262.427 330.383C262.402 330.875 262.481 331.367 262.658 331.827C262.834 332.287 263.105 332.705 263.453 333.054C264.697 334.324 266.933 333.924 268.23 332.671C269.526 331.418 270.083 329.687 270.7 328.025C271.318 326.363 271.971 322.387 272.936 322.039C275.686 321.048 279.418 325.772 281.48 323.457L285.229 314.322C279.392 313.757 279.07 313.653 273.267 313.087Z" fill="#E2A891"/>
<path d="M273.267 313.087H273.476H274.102L276.477 313.287L285.177 314.157H285.403L285.316 314.366L281.61 323.518C281.387 323.769 281.107 323.964 280.794 324.087C280.481 324.209 280.144 324.256 279.809 324.223C279.165 324.141 278.539 323.953 277.956 323.666C276.846 323.049 275.681 322.536 274.476 322.135L274.006 322.065H273.545C273.396 322.086 273.248 322.115 273.102 322.152C272.945 322.152 272.91 322.248 272.797 322.361C272.445 322.91 272.184 323.512 272.023 324.145C271.614 325.45 271.353 326.824 270.857 328.19C270.461 329.429 269.921 330.618 269.248 331.731C268.887 332.283 268.43 332.766 267.899 333.158C267.366 333.534 266.757 333.789 266.116 333.906C265.475 334.032 264.811 333.974 264.202 333.741C263.61 333.477 263.114 333.036 262.783 332.479C262.447 331.957 262.25 331.359 262.209 330.739C262.209 330.104 262.279 329.573 262.314 328.999C262.479 326.755 262.627 324.649 262.827 322.613C262.923 321.622 263.027 320.656 263.14 319.734C263.216 318.831 263.449 317.947 263.827 317.124C264.375 315.856 265.285 314.777 266.442 314.024C267.6 313.27 268.954 312.875 270.335 312.887C271.072 312.852 271.81 312.867 272.545 312.93L273.11 312.991L273.302 313.035C273.047 313.048 272.791 313.048 272.536 313.035C271.808 313.005 271.079 313.019 270.352 313.078C269.206 313.11 268.084 313.408 267.073 313.948C265.767 314.717 264.734 315.872 264.115 317.254C263.762 318.056 263.55 318.912 263.488 319.786C263.384 320.708 263.288 321.674 263.201 322.666C263.018 324.667 262.888 326.798 262.731 329.051C262.731 329.6 262.618 330.209 262.636 330.731C262.676 331.28 262.856 331.81 263.158 332.27C263.436 332.749 263.859 333.127 264.367 333.349C264.899 333.553 265.478 333.601 266.037 333.488C266.621 333.368 267.174 333.13 267.662 332.787C268.15 332.444 268.562 332.005 268.873 331.496C269.532 330.404 270.055 329.235 270.431 328.016C270.909 326.702 271.179 325.319 271.588 323.997C271.764 323.305 272.059 322.649 272.458 322.057C272.519 321.971 272.596 321.897 272.684 321.839C272.769 321.776 272.867 321.731 272.971 321.709C273.148 321.661 273.329 321.626 273.511 321.604H274.05L274.572 321.691C275.819 322.092 277.023 322.616 278.165 323.257C278.711 323.532 279.299 323.711 279.905 323.788C280.175 323.816 280.448 323.78 280.702 323.683C280.956 323.586 281.183 323.432 281.367 323.231L281.323 323.292C282.733 319.908 284.011 316.819 285.108 314.174L285.247 314.401C281.558 314.027 278.583 313.652 276.547 313.418L274.18 313.13L273.563 313.043C273.469 313.083 273.368 313.098 273.267 313.087Z" fill="#7C5142"/>
<path d="M306.51 314.244C306.51 314.244 304.552 313.635 301.916 315.566C301.916 315.566 300.924 311.216 297.453 310.346C294.93 309.729 291.72 312.313 291.72 312.313C291.72 312.313 289.545 307.963 283.742 309.772C278.948 311.277 268.874 341.049 268.012 343.041C267.021 345.329 271.092 348.191 273.337 345.886C275.581 343.58 283.603 330.226 283.603 330.226L278.339 348.774C278.201 349.381 278.222 350.014 278.4 350.61C278.966 352.498 282.68 354.708 285.299 351.158C288.57 346.73 291.894 337.621 291.894 337.621L295.104 330.661C295.104 330.661 289.11 349.192 291.294 350.88C293.477 352.568 296.261 351.915 298.254 347.565C300.246 343.215 307.502 329.426 307.502 329.426L310.982 327.616L309.711 331.966C309.711 331.966 303.117 335.446 304.596 338.491C306.075 341.536 309.198 340.666 312.252 339.222C315.306 337.778 317.968 330.617 319.595 327.677C321.056 325.067 321.195 317.298 314.94 317.002C314.276 316.978 313.615 317.092 312.998 317.338C312.381 317.584 311.821 317.955 311.356 318.429L311.042 318.742C311.042 318.742 309.981 314.862 306.51 314.244Z" fill="#E2A891"/>
<path d="M306.51 314.244L306.927 314.331C307.1 314.368 307.269 314.42 307.432 314.488C307.665 314.566 307.89 314.668 308.102 314.792C309.55 315.676 310.609 317.074 311.069 318.707H310.955C311.771 317.752 312.912 317.132 314.157 316.967C315.691 316.82 317.22 317.286 318.411 318.263C319.686 319.532 320.425 321.242 320.473 323.04C320.542 324.015 320.48 324.995 320.291 325.954C320.187 326.462 320.033 326.957 319.829 327.433C319.612 327.92 319.351 328.347 319.125 328.825C318.203 330.713 317.306 332.758 316.167 334.802C315.592 335.859 314.923 336.86 314.166 337.795C313.771 338.287 313.308 338.72 312.791 339.083C312.24 339.427 311.658 339.719 311.051 339.953C309.851 340.521 308.533 340.793 307.206 340.744C306.498 340.671 305.834 340.365 305.318 339.874C305.06 339.635 304.835 339.363 304.648 339.065L304.387 338.604L304.213 338.082C304.088 337.352 304.24 336.601 304.639 335.977C305.014 335.361 305.477 334.804 306.014 334.324C307.091 333.347 308.283 332.506 309.563 331.818L309.468 331.931L310.738 327.581L311.008 327.799C309.955 328.364 308.763 328.991 307.528 329.617L307.615 329.539C305.875 332.856 304.097 336.287 302.282 339.831L299.55 345.251L298.253 348C297.793 348.963 297.179 349.845 296.435 350.61C296.05 351.017 295.586 351.342 295.071 351.565C294.557 351.787 294.003 351.904 293.442 351.906C292.872 351.875 292.315 351.714 291.815 351.437C291.566 351.302 291.33 351.145 291.111 350.967C290.888 350.742 290.742 350.453 290.693 350.14C290.543 349.036 290.564 347.915 290.754 346.817C290.902 345.729 291.102 344.651 291.328 343.563C292.259 339.213 293.503 334.915 294.878 330.513L295.295 330.678L292.094 337.638C291.363 339.605 290.51 341.684 289.58 343.728C288.892 345.251 288.161 346.747 287.361 348.2C286.961 348.931 286.535 349.636 286.082 350.332C285.657 351.081 285.12 351.762 284.49 352.35C283.824 352.908 282.992 353.229 282.124 353.264C281.259 353.271 280.413 353.016 279.696 352.533C278.961 352.075 278.414 351.368 278.156 350.54C278.052 350.126 278.017 349.697 278.052 349.27C278.105 348.862 278.198 348.46 278.33 348.07C280.07 341.927 281.764 335.962 283.411 330.174L283.803 330.348C281.796 333.689 279.78 336.928 277.756 340.066C276.738 341.623 275.72 343.163 274.633 344.633C274.126 345.419 273.463 346.091 272.684 346.608C272.254 346.808 271.784 346.912 271.31 346.912C270.835 346.912 270.366 346.808 269.935 346.608C269.069 346.258 268.356 345.61 267.925 344.781C267.723 344.35 267.647 343.87 267.708 343.398C267.838 342.911 268.012 342.528 268.151 342.145L269.891 337.395C271.04 334.271 272.18 331.305 273.371 328.399C274.563 325.493 275.668 322.779 276.851 320.195C277.948 317.711 279.2 315.299 280.601 312.974C281.233 311.872 282.041 310.881 282.994 310.042C283.255 309.844 283.55 309.693 283.864 309.598L284.734 309.372C285.306 309.252 285.889 309.19 286.474 309.189C287.566 309.165 288.645 309.435 289.597 309.97C290.549 310.506 291.339 311.288 291.885 312.234H291.711C292.839 311.348 294.131 310.695 295.513 310.312C296.138 310.144 296.793 310.123 297.427 310.251C298.009 310.381 298.561 310.62 299.054 310.955C299.874 311.542 300.547 312.31 301.02 313.2C301.431 313.927 301.744 314.705 301.951 315.514H301.864C302.872 314.739 304.078 314.262 305.344 314.14C305.741 314.098 306.143 314.133 306.527 314.244H306.24C305.951 314.214 305.659 314.214 305.37 314.244C304.139 314.405 302.974 314.891 301.994 315.653L301.925 315.706V315.619C301.71 314.825 301.394 314.062 300.985 313.348C300.493 312.465 299.802 311.708 298.967 311.138C298.49 310.824 297.959 310.6 297.401 310.477C296.791 310.365 296.163 310.391 295.565 310.555C294.217 310.936 292.96 311.584 291.868 312.461L291.755 312.539L291.694 312.417C291.159 311.515 290.393 310.772 289.476 310.264C288.558 309.757 287.522 309.503 286.474 309.529C285.903 309.537 285.335 309.602 284.777 309.72L283.907 309.938C283.638 310.029 283.388 310.167 283.168 310.346C282.245 311.168 281.463 312.135 280.853 313.209C279.469 315.527 278.231 317.93 277.147 320.404C275.987 322.996 274.827 325.731 273.667 328.608C272.507 331.485 271.365 334.469 270.239 337.56C269.665 339.117 269.091 340.709 268.499 342.319C268.36 342.71 268.169 343.145 268.082 343.502C268.034 343.895 268.098 344.292 268.265 344.651C268.658 345.388 269.299 345.964 270.074 346.277C270.451 346.454 270.863 346.545 271.279 346.545C271.696 346.545 272.107 346.454 272.484 346.277C273.206 345.79 273.819 345.159 274.285 344.424C275.355 342.963 276.373 341.432 277.391 339.874C279.409 336.742 281.416 333.503 283.411 330.156L284.281 328.764L283.838 330.33C282.202 336.098 280.505 342.075 278.774 348.218C278.645 348.581 278.557 348.957 278.513 349.34C278.477 349.716 278.506 350.096 278.6 350.462C278.829 351.186 279.311 351.804 279.957 352.202C280.597 352.629 281.347 352.859 282.115 352.863C282.887 352.822 283.626 352.532 284.22 352.037C284.813 351.507 285.323 350.891 285.734 350.21C286.178 349.523 286.604 348.818 286.996 348.104C287.787 346.669 288.509 345.181 289.197 343.667C290.119 341.614 290.937 339.535 291.702 337.577L294.913 330.617L295.33 330.783C293.964 335.133 292.72 339.483 291.789 343.754C291.563 344.825 291.363 345.903 291.215 346.973C291.036 348.017 291.013 349.081 291.146 350.132C291.177 350.355 291.274 350.564 291.424 350.732C291.617 350.893 291.827 351.033 292.05 351.149C292.49 351.398 292.981 351.541 293.486 351.567C293.987 351.563 294.483 351.456 294.942 351.254C295.401 351.053 295.815 350.759 296.157 350.393C297.636 348.957 298.288 346.913 299.245 345.094L301.994 339.674C303.83 336.133 305.622 332.714 307.345 329.391V329.339H307.397L310.877 327.529L311.277 327.32L311.147 327.755L309.877 332.105V332.183H309.807C308.551 332.853 307.383 333.674 306.327 334.628C305.815 335.083 305.373 335.611 305.013 336.194C304.661 336.74 304.524 337.398 304.631 338.039C304.788 338.659 305.129 339.217 305.608 339.641C306.088 340.064 306.684 340.334 307.319 340.414C308.589 340.453 309.85 340.19 310.999 339.648C311.577 339.429 312.136 339.161 312.669 338.848C313.158 338.497 313.599 338.084 313.983 337.621C314.729 336.703 315.39 335.718 315.958 334.68C317.098 332.662 317.994 330.626 318.933 328.73C319.16 328.26 319.438 327.799 319.638 327.346C319.84 326.891 319.991 326.416 320.09 325.928C320.283 324.993 320.347 324.036 320.282 323.083C320.25 321.343 319.549 319.683 318.324 318.446C317.181 317.502 315.713 317.043 314.235 317.167C313.023 317.326 311.91 317.919 311.103 318.838L311.025 318.933V318.812C310.587 317.202 309.563 315.815 308.154 314.923C307.637 314.628 307.084 314.4 306.51 314.244Z" fill="#7C5142"/>
<path d="M298.349 321.587C298.488 321.587 297.923 324.293 296.687 327.39C296.087 328.947 295.496 330.33 295.061 331.331C294.859 331.888 294.593 332.419 294.269 332.914C294.786 330.968 295.455 329.066 296.27 327.224C296.87 325.685 297.383 324.275 297.731 323.249C297.885 322.677 298.092 322.121 298.349 321.587Z" fill="#7C5142"/>
<path d="M288.057 319.725C288.179 319.786 287.074 322.213 285.847 325.276C285.199 327.164 284.399 328.997 283.455 330.757C283.547 330.175 283.714 329.608 283.95 329.069C284.307 328.051 284.82 326.642 285.429 325.11C286.038 323.579 286.674 322.205 287.169 321.239C287.397 320.697 287.695 320.188 288.057 319.725Z" fill="#7C5142"/>
</svg>
