<svg width="444" height="420" viewBox="0 0 444 420" fill="none" xmlns="http://www.w3.org/2000/svg">
<path d="M443.844 418.81C443.844 418.96 345.844 419.07 224.964 419.07C104.084 419.07 6.06396 418.96 6.06396 418.81C6.06396 418.66 104.064 418.55 224.964 418.55C345.864 418.55 443.844 418.64 443.844 418.81Z" fill="#263238"/>
<path d="M329.074 213.54H244.094C240.841 213.54 238.204 216.177 238.204 219.43V271.46C238.204 274.713 240.841 277.35 244.094 277.35H329.074C332.327 277.35 334.964 274.713 334.964 271.46V219.43C334.964 216.177 332.327 213.54 329.074 213.54Z" fill="white"/>
<path d="M329.084 277.36C329.084 277.36 329.354 277.36 329.884 277.27C330.658 277.162 331.401 276.893 332.064 276.48C333.151 275.816 333.996 274.821 334.474 273.64C335.084 272.24 334.824 270.45 334.874 268.49C334.874 260.61 334.824 249.22 334.784 235.16C334.784 231.64 334.784 227.96 334.784 224.16C334.784 223.16 334.784 222.23 334.784 221.25C334.83 220.275 334.79 219.298 334.664 218.33C334.464 217.367 334.017 216.472 333.366 215.734C332.716 214.996 331.884 214.44 330.954 214.12C329.983 213.828 328.965 213.719 327.954 213.8H304.634H244.104C242.815 213.801 241.566 214.243 240.563 215.052C239.561 215.862 238.866 216.99 238.594 218.25C238.484 218.884 238.441 219.527 238.464 220.17V241.53C238.464 251.65 238.464 261.42 238.464 270.72C238.374 271.844 238.581 272.971 239.064 273.99C239.555 274.975 240.323 275.795 241.274 276.35C242.216 276.897 243.295 277.164 244.384 277.12H260.544H283.544L316.874 277.2L325.934 277.25H316.874L283.544 277.33H260.544H244.364C243.192 277.369 242.032 277.082 241.014 276.5C239.983 275.897 239.149 275.008 238.614 273.94C238.103 272.855 237.879 271.657 237.964 270.46C237.964 261.16 237.964 251.39 237.964 241.27C237.964 236.197 237.964 231.047 237.964 225.82V219.91C237.939 219.24 237.986 218.57 238.104 217.91C238.402 216.538 239.159 215.309 240.25 214.425C241.341 213.542 242.7 213.057 244.104 213.05H304.634H318.224H327.954C329.02 212.972 330.091 213.091 331.114 213.4C332.118 213.743 333.015 214.343 333.716 215.139C334.418 215.935 334.9 216.901 335.114 217.94C335.242 218.935 335.282 219.938 335.234 220.94V223.85C335.234 227.69 335.234 231.37 335.234 234.85C335.234 248.91 335.174 260.3 335.154 268.18C335.154 269.18 335.154 270.09 335.154 270.97C335.166 271.799 335.013 272.621 334.704 273.39C334.204 274.593 333.327 275.6 332.204 276.26C331.525 276.671 330.763 276.927 329.974 277.01C329.69 277.156 329.391 277.273 329.084 277.36Z" fill="#263238"/>
<path d="M285.284 250.6H281.574V265.38H285.284V250.6Z" fill="#686868"/>
<path d="M254.274 248.46H250.564V265.38H254.274V248.46Z" fill="#686868"/>
<path d="M262.024 244.93H258.314V265.37H262.024V244.93Z" fill="#686868"/>
<path d="M269.774 246.05H266.064V265.37H269.774V246.05Z" fill="#686868"/>
<path d="M277.534 239.51H273.824V265.37H277.534V239.51Z" fill="#686868"/>
<path d="M293.034 239.64H289.324V265.37H293.034V239.64Z" fill="#686868"/>
<path d="M300.794 248.09H297.084V265.37H300.794V248.09Z" fill="#686868"/>
<path d="M308.544 240.77H304.834V265.37H308.544V240.77Z" fill="#686868"/>
<path d="M316.294 235.23H312.584V265.37H316.294V235.23Z" fill="#686868"/>
<path d="M324.054 240.65H320.344V265.38H324.054V240.65Z" fill="#686868"/>
<path d="M250.874 222.33C250.874 222.793 250.737 223.245 250.479 223.63C250.222 224.015 249.857 224.315 249.429 224.492C249.002 224.669 248.531 224.715 248.077 224.625C247.623 224.535 247.206 224.312 246.879 223.985C246.552 223.657 246.329 223.24 246.239 222.786C246.149 222.333 246.195 221.862 246.372 221.435C246.549 221.007 246.849 220.641 247.234 220.384C247.619 220.127 248.071 219.99 248.534 219.99C249.154 219.99 249.75 220.237 250.188 220.675C250.627 221.114 250.874 221.709 250.874 222.33Z" fill="#E0E0E0"/>
<path d="M256.954 222.33C256.954 222.793 256.816 223.246 256.559 223.631C256.301 224.016 255.935 224.316 255.507 224.493C255.079 224.67 254.608 224.715 254.154 224.624C253.7 224.533 253.283 224.309 252.956 223.981C252.629 223.653 252.407 223.235 252.318 222.78C252.229 222.326 252.276 221.855 252.455 221.428C252.634 221 252.935 220.635 253.321 220.379C253.707 220.124 254.161 219.988 254.624 219.99C254.931 219.99 255.235 220.051 255.518 220.168C255.801 220.286 256.059 220.459 256.275 220.676C256.492 220.893 256.663 221.151 256.779 221.435C256.896 221.719 256.955 222.023 256.954 222.33Z" fill="#E0E0E0"/>
<path d="M262.954 222.33C262.954 222.793 262.817 223.245 262.56 223.63C262.302 224.015 261.937 224.315 261.509 224.492C261.082 224.669 260.611 224.715 260.157 224.625C259.704 224.535 259.287 224.312 258.959 223.985C258.632 223.657 258.409 223.24 258.319 222.786C258.229 222.333 258.275 221.862 258.452 221.435C258.629 221.007 258.929 220.641 259.314 220.384C259.699 220.127 260.151 219.99 260.614 219.99C261.235 219.99 261.83 220.237 262.269 220.675C262.707 221.114 262.954 221.709 262.954 222.33Z" fill="#E0E0E0"/>
<path d="M429.204 75.83H363.544C358.888 75.83 355.114 79.6042 355.114 84.26V196.28C355.114 200.936 358.888 204.71 363.544 204.71H429.204C433.86 204.71 437.634 200.936 437.634 196.28V84.26C437.634 79.6042 433.86 75.83 429.204 75.83Z" fill="white"/>
<path d="M429.204 204.71H429.474C429.644 204.71 429.914 204.71 430.254 204.64C431.272 204.498 432.257 204.176 433.164 203.69C434.63 202.878 435.826 201.654 436.604 200.17C437.089 199.235 437.395 198.218 437.504 197.17C437.584 196.04 437.504 194.81 437.504 193.52C437.504 183.18 437.454 168.23 437.414 149.77C437.374 131.31 437.414 109.3 437.364 84.88C437.455 83.37 437.13 81.864 436.425 80.5257C435.72 79.1875 434.661 78.0683 433.364 77.29C430.724 75.59 427.364 76.29 424.224 76.13H363.544C361.835 76.1334 360.17 76.6713 358.782 77.6683C357.394 78.6653 356.353 80.0716 355.804 81.69C355.383 83.3482 355.237 85.0645 355.374 86.77V91.93C355.374 98.7967 355.374 105.557 355.374 112.21C355.374 125.5 355.374 138.32 355.374 150.53C355.374 162.74 355.374 174.35 355.374 185.21V193.21C355.374 194.51 355.324 195.84 355.374 197.08C355.549 198.914 356.333 200.637 357.602 201.973C358.871 203.309 360.551 204.181 362.374 204.45C363.554 204.553 364.74 204.587 365.924 204.55H369.434L413.184 204.64L425.074 204.69H428.174H429.224C429.224 204.69 428.864 204.69 428.174 204.69H425.074L413.184 204.74L369.434 204.82H365.954C364.753 204.851 363.551 204.818 362.354 204.72C360.44 204.446 358.674 203.537 357.339 202.139C356.004 200.741 355.178 198.934 354.994 197.01C354.914 195.69 354.994 194.42 354.994 193.1C354.994 190.48 354.994 187.81 354.994 185.1C354.994 174.24 354.994 162.64 354.994 150.42C354.994 138.2 354.994 125.42 354.994 112.1V84.1C355.011 83.2016 355.166 82.3112 355.454 81.46C356.029 79.7409 357.131 78.2467 358.604 77.19C360.083 76.1228 361.86 75.5458 363.684 75.54H429.154C430.772 75.5141 432.365 75.938 433.756 76.7643C435.148 77.5906 436.282 78.7869 437.034 80.22C437.395 80.9261 437.664 81.6755 437.834 82.45C437.973 83.2219 438.033 84.0059 438.014 84.79C438.014 109.21 438.014 131.2 437.954 149.68C437.894 168.16 437.894 183.09 437.874 193.43C437.874 194.72 437.874 195.93 437.814 197.09C437.709 198.171 437.393 199.221 436.884 200.18C436.078 201.677 434.851 202.904 433.354 203.71C432.421 204.203 431.403 204.512 430.354 204.62C429.973 204.679 429.589 204.709 429.204 204.71Z" fill="#263238"/>
<path d="M366.234 89.41C367.631 89.41 368.764 88.2773 368.764 86.88C368.764 85.4827 367.631 84.35 366.234 84.35C364.837 84.35 363.704 85.4827 363.704 86.88C363.704 88.2773 364.837 89.41 366.234 89.41Z" fill="#E0E0E0"/>
<path d="M375.294 86.88C375.294 87.3804 375.145 87.8695 374.867 88.2856C374.589 88.7016 374.194 89.0259 373.732 89.2174C373.27 89.4089 372.761 89.459 372.27 89.3614C371.78 89.2638 371.329 89.0228 370.975 88.669C370.621 88.3151 370.38 87.8643 370.282 87.3736C370.185 86.8828 370.235 86.3741 370.426 85.9118C370.618 85.4495 370.942 85.0544 371.358 84.7764C371.774 84.4984 372.263 84.35 372.764 84.35C373.435 84.35 374.078 84.6165 374.553 85.091C375.027 85.5655 375.294 86.209 375.294 86.88Z" fill="#E0E0E0"/>
<path d="M379.294 89.41C380.691 89.41 381.824 88.2773 381.824 86.88C381.824 85.4827 380.691 84.35 379.294 84.35C377.896 84.35 376.764 85.4827 376.764 86.88C376.764 88.2773 377.896 89.41 379.294 89.41Z" fill="#E0E0E0"/>
<path d="M425.564 100.16C425.564 100.3 412.494 100.42 396.374 100.42C380.254 100.42 367.174 100.3 367.174 100.16C367.174 100.02 380.244 99.9 396.374 99.9C412.504 99.9 425.564 100.01 425.564 100.16Z" fill="#263238"/>
<path d="M425.564 105.3C425.564 105.44 412.494 105.56 396.374 105.56C380.254 105.56 367.174 105.44 367.174 105.3C367.174 105.16 380.244 105.04 396.374 105.04C412.504 105.04 425.564 105.15 425.564 105.3Z" fill="#263238"/>
<path d="M425.564 110.44C425.564 110.58 412.494 110.7 396.374 110.7C380.254 110.7 367.174 110.58 367.174 110.44C367.174 110.3 380.244 110.18 396.374 110.18C412.504 110.18 425.564 110.29 425.564 110.44Z" fill="#263238"/>
<path d="M425.564 115.58C425.564 115.72 412.494 115.84 396.374 115.84C380.254 115.84 367.174 115.72 367.174 115.58C367.174 115.44 380.244 115.31 396.374 115.31C412.504 115.31 425.564 115.43 425.564 115.58Z" fill="#263238"/>
<path d="M425.564 120.71C425.564 120.86 412.494 120.97 396.374 120.97C380.254 120.97 367.174 120.86 367.174 120.71C367.174 120.56 380.244 120.45 396.374 120.45C412.504 120.45 425.564 120.57 425.564 120.71Z" fill="#263238"/>
<path d="M425.564 125.81C425.564 125.96 412.494 126.07 396.374 126.07C380.254 126.07 367.174 125.96 367.174 125.81C367.174 125.66 380.244 125.55 396.374 125.55C412.504 125.55 425.564 125.71 425.564 125.81Z" fill="#263238"/>
<path d="M425.564 165.18C425.564 165.32 412.494 165.44 396.374 165.44C380.254 165.44 367.174 165.32 367.174 165.18C367.174 165.04 380.244 164.92 396.374 164.92C412.504 164.92 425.564 165.03 425.564 165.18Z" fill="#263238"/>
<path d="M425.564 170.81C425.564 170.95 412.494 171.07 396.374 171.07C380.254 171.07 367.174 170.95 367.174 170.81C367.174 170.67 380.244 170.55 396.374 170.55C412.504 170.55 425.564 170.63 425.564 170.81Z" fill="#263238"/>
<path d="M425.564 176.37C425.564 176.51 412.494 176.63 396.374 176.63C380.254 176.63 367.174 176.51 367.174 176.37C367.174 176.23 380.244 176.11 396.374 176.11C412.504 176.11 425.564 176.22 425.564 176.37Z" fill="#263238"/>
<path d="M425.564 181.96C425.564 182.1 412.494 182.22 396.374 182.22C380.254 182.22 367.174 182.1 367.174 181.96C367.174 181.82 380.244 181.7 396.374 181.7C412.504 181.7 425.564 181.81 425.564 181.96Z" fill="#263238"/>
<path d="M425.564 187.55C425.564 187.7 412.494 187.82 396.374 187.82C380.254 187.82 367.174 187.7 367.174 187.55C367.174 187.4 380.244 187.29 396.374 187.29C412.504 187.29 425.564 187.41 425.564 187.55Z" fill="#263238"/>
<path d="M427.084 133.29H422.534H409.974H367.294L367.394 133.22C367.394 136.57 367.394 140.05 367.394 143.61C367.394 147.17 367.394 150.86 367.394 154.32L367.294 154.24H367.194V154.17C367.194 150.71 367.194 147.17 367.194 143.46C367.194 139.75 367.194 136.46 367.194 133.07V132.99H367.294H409.974H422.534H427.084V133.29Z" fill="#E0E0E0"/>
<path d="M427.084 136.81C427.084 136.81 413.694 136.89 397.184 136.89C380.674 136.89 367.294 136.89 367.294 136.81C367.294 136.73 380.674 136.73 397.184 136.73C413.694 136.73 427.084 136.81 427.084 136.81Z" fill="#E0E0E0"/>
<path d="M427.084 139.75C427.084 139.75 413.694 139.82 397.184 139.82C380.674 139.82 367.294 139.82 367.294 139.75C367.294 139.68 380.674 139.67 397.184 139.67C413.694 139.67 427.084 139.7 427.084 139.75Z" fill="#E0E0E0"/>
<path d="M427.084 142.65C427.084 142.65 413.694 142.73 397.184 142.73C380.674 142.73 367.294 142.73 367.294 142.65C367.294 142.57 380.674 142.58 397.184 142.58C413.694 142.58 427.084 142.61 427.084 142.65Z" fill="#E0E0E0"/>
<path d="M427.084 145.56C427.084 145.56 413.694 145.63 397.184 145.63C380.674 145.63 367.294 145.63 367.294 145.56C367.294 145.49 380.674 145.48 397.184 145.48C413.694 145.48 427.084 145.52 427.084 145.56Z" fill="#E0E0E0"/>
<path d="M427.084 148.46C427.084 148.46 413.694 148.54 397.184 148.54C380.674 148.54 367.294 148.54 367.294 148.46C367.294 148.38 380.674 148.39 397.184 148.39C413.694 148.39 427.084 148.42 427.084 148.46Z" fill="#E0E0E0"/>
<path d="M367.294 151.37C367.294 151.37 380.674 151.29 397.184 151.29C413.694 151.29 427.084 151.29 427.084 151.37C427.084 151.45 413.694 151.45 397.184 151.45C380.674 151.45 367.294 151.41 367.294 151.37Z" fill="#E0E0E0"/>
<path d="M375.764 154.71C375.764 154.71 375.694 149.91 375.694 144C375.694 138.09 375.694 133.29 375.764 133.29C375.834 133.29 375.844 138.08 375.844 144C375.844 149.92 375.814 154.71 375.764 154.71Z" fill="#E0E0E0"/>
<path d="M384.374 154.71C384.374 154.71 384.304 149.91 384.304 144C384.304 138.09 384.304 133.29 384.374 133.29C384.444 133.29 384.454 138.08 384.454 144C384.454 149.92 384.424 154.71 384.374 154.71Z" fill="#E0E0E0"/>
<path d="M392.954 154.71C392.904 154.71 392.874 149.91 392.874 144C392.874 138.09 392.874 133.29 392.954 133.29C393.034 133.29 393.024 138.08 393.024 144C393.024 149.92 393.034 154.71 392.954 154.71Z" fill="#E0E0E0"/>
<path d="M401.604 154.71C401.604 154.71 401.524 149.91 401.524 144C401.524 138.09 401.524 133.29 401.604 133.29C401.684 133.29 401.674 138.08 401.674 144C401.674 149.92 401.644 154.71 401.604 154.71Z" fill="#E0E0E0"/>
<path d="M410.214 154.71C410.164 154.71 410.134 149.91 410.134 144C410.134 138.09 410.134 133.29 410.214 133.29C410.294 133.29 410.284 138.08 410.284 144C410.284 149.92 410.254 154.71 410.214 154.71Z" fill="#E0E0E0"/>
<path d="M418.544 154.71C418.544 154.71 418.464 149.91 418.464 144C418.464 138.09 418.464 133.29 418.544 133.29C418.624 133.29 418.624 138.08 418.624 144C418.624 149.92 418.584 154.71 418.544 154.71Z" fill="#E0E0E0"/>
<path d="M427.154 154.71C427.154 154.71 427.084 149.91 427.084 144C427.084 138.09 427.084 133.29 427.154 133.29C427.224 133.29 427.234 138.08 427.234 144C427.234 149.92 427.194 154.71 427.154 154.71Z" fill="#E0E0E0"/>
<path d="M376.294 151.37C376.294 151.439 376.28 151.508 376.253 151.571C376.227 151.635 376.187 151.693 376.138 151.741C376.089 151.79 376.03 151.828 375.966 151.853C375.902 151.879 375.833 151.891 375.764 151.89C375.686 151.912 375.605 151.916 375.526 151.901C375.447 151.886 375.372 151.854 375.308 151.805C375.244 151.757 375.192 151.694 375.156 151.622C375.12 151.55 375.101 151.47 375.101 151.39C375.101 151.31 375.12 151.23 375.156 151.158C375.192 151.086 375.244 151.023 375.308 150.975C375.372 150.926 375.447 150.894 375.526 150.879C375.605 150.864 375.686 150.868 375.764 150.89C375.897 150.887 376.026 150.935 376.124 151.024C376.223 151.114 376.284 151.237 376.294 151.37Z" fill="#686868"/>
<path d="M384.374 146.08C384.661 146.08 384.894 145.847 384.894 145.56C384.894 145.273 384.661 145.04 384.374 145.04C384.087 145.04 383.854 145.273 383.854 145.56C383.854 145.847 384.087 146.08 384.374 146.08Z" fill="#686868"/>
<path d="M393.514 148.41C393.524 148.485 393.518 148.561 393.497 148.634C393.475 148.707 393.438 148.774 393.388 148.831C393.339 148.888 393.277 148.934 393.208 148.965C393.139 148.996 393.064 149.013 392.989 149.013C392.913 149.013 392.838 148.996 392.769 148.965C392.7 148.934 392.639 148.888 392.589 148.831C392.539 148.774 392.502 148.707 392.481 148.634C392.459 148.561 392.453 148.485 392.464 148.41C392.481 148.283 392.544 148.167 392.641 148.083C392.737 147.999 392.861 147.953 392.989 147.953C393.117 147.953 393.24 147.999 393.337 148.083C393.433 148.167 393.496 148.283 393.514 148.41Z" fill="#686868"/>
<path d="M402.074 142.29C402.176 142.392 402.233 142.531 402.233 142.675C402.233 142.819 402.176 142.958 402.074 143.06C401.972 143.162 401.833 143.219 401.689 143.219C401.544 143.219 401.406 143.162 401.304 143.06C401.202 142.958 401.144 142.819 401.144 142.675C401.144 142.531 401.202 142.392 401.304 142.29C401.406 142.188 401.544 142.13 401.689 142.13C401.833 142.13 401.972 142.188 402.074 142.29Z" fill="#686868"/>
<path d="M410.784 142.29C410.886 142.392 410.943 142.531 410.943 142.675C410.943 142.819 410.886 142.958 410.784 143.06C410.682 143.162 410.543 143.219 410.399 143.219C410.254 143.219 410.116 143.162 410.014 143.06C409.912 142.958 409.854 142.819 409.854 142.675C409.854 142.531 409.912 142.392 410.014 142.29C410.116 142.188 410.254 142.13 410.399 142.13C410.543 142.13 410.682 142.188 410.784 142.29Z" fill="#686868"/>
<path d="M418.954 148C419.056 148.101 419.114 148.238 419.115 148.381C419.116 148.525 419.06 148.663 418.959 148.765C418.858 148.867 418.721 148.925 418.577 148.926C418.434 148.927 418.296 148.871 418.194 148.77C418.092 148.669 418.034 148.532 418.033 148.389C418.032 148.245 418.088 148.107 418.189 148.005C418.29 147.903 418.427 147.845 418.57 147.844C418.714 147.843 418.852 147.899 418.954 148Z" fill="#686868"/>
<path d="M384.954 139.75C384.936 139.877 384.874 139.993 384.777 140.077C384.681 140.161 384.557 140.207 384.429 140.207C384.301 140.207 384.177 140.161 384.081 140.077C383.984 139.993 383.921 139.877 383.904 139.75C383.894 139.675 383.899 139.599 383.921 139.526C383.943 139.453 383.98 139.386 384.029 139.329C384.079 139.272 384.14 139.226 384.209 139.195C384.278 139.164 384.353 139.147 384.429 139.147C384.505 139.147 384.58 139.164 384.648 139.195C384.717 139.226 384.779 139.272 384.829 139.329C384.878 139.386 384.915 139.453 384.937 139.526C384.958 139.599 384.964 139.675 384.954 139.75Z" fill="#455A64"/>
<path d="M376.294 148.46C376.294 148.601 376.238 148.735 376.138 148.835C376.039 148.934 375.904 148.99 375.764 148.99C375.695 148.99 375.626 148.976 375.562 148.95C375.499 148.923 375.441 148.884 375.392 148.834C375.344 148.785 375.306 148.726 375.28 148.662C375.255 148.598 375.242 148.529 375.244 148.46C375.244 148.392 375.257 148.324 375.283 148.261C375.309 148.198 375.348 148.141 375.396 148.092C375.444 148.044 375.502 148.006 375.565 147.98C375.628 147.953 375.695 147.94 375.764 147.94C375.833 147.939 375.902 147.951 375.966 147.977C376.03 148.002 376.089 148.04 376.138 148.089C376.187 148.137 376.226 148.195 376.253 148.259C376.28 148.322 376.294 148.391 376.294 148.46Z" fill="#455A64"/>
<path d="M418.954 150.99C419.055 151.092 419.111 151.23 419.11 151.374C419.109 151.517 419.051 151.654 418.949 151.755C418.847 151.856 418.709 151.912 418.565 151.911C418.422 151.91 418.285 151.852 418.184 151.75C418.083 151.648 418.027 151.51 418.028 151.366C418.029 151.223 418.087 151.086 418.189 150.985C418.291 150.884 418.429 150.828 418.572 150.829C418.716 150.83 418.853 150.888 418.954 150.99Z" fill="#455A64"/>
<path d="M410.734 145.56C410.734 145.698 410.679 145.83 410.582 145.928C410.484 146.025 410.352 146.08 410.214 146.08C410.145 146.081 410.076 146.069 410.012 146.043C409.948 146.018 409.889 145.98 409.84 145.931C409.79 145.883 409.751 145.825 409.724 145.761C409.698 145.698 409.684 145.629 409.684 145.56C409.684 145.419 409.74 145.285 409.839 145.185C409.938 145.086 410.073 145.03 410.214 145.03C410.283 145.03 410.351 145.044 410.415 145.071C410.479 145.097 410.537 145.137 410.585 145.186C410.634 145.235 410.672 145.294 410.697 145.358C410.723 145.422 410.735 145.491 410.734 145.56Z" fill="#455A64"/>
<path d="M402.214 145.48C402.214 145.621 402.158 145.755 402.058 145.855C401.959 145.954 401.824 146.01 401.684 146.01C401.615 146.01 401.546 145.996 401.482 145.969C401.419 145.943 401.361 145.904 401.312 145.854C401.264 145.805 401.226 145.746 401.2 145.682C401.175 145.618 401.162 145.549 401.164 145.48C401.164 145.342 401.218 145.21 401.316 145.112C401.414 145.015 401.546 144.96 401.684 144.96C401.753 144.959 401.821 144.971 401.886 144.997C401.95 145.022 402.009 145.06 402.058 145.109C402.107 145.157 402.146 145.215 402.173 145.279C402.2 145.342 402.214 145.411 402.214 145.48Z" fill="#455A64"/>
<path d="M372.174 156.81C371.625 156.917 371.062 156.917 370.514 156.81C371.062 156.703 371.625 156.703 372.174 156.81Z" fill="#E0E0E0"/>
<path d="M380.954 156.81C380.406 156.917 379.842 156.917 379.294 156.81C379.842 156.703 380.406 156.703 380.954 156.81Z" fill="#E0E0E0"/>
<path d="M389.774 156.81C389.226 156.917 388.662 156.917 388.114 156.81C388.662 156.703 389.226 156.703 389.774 156.81Z" fill="#E0E0E0"/>
<path d="M398.574 156.81C398.026 156.917 397.462 156.917 396.914 156.81C397.462 156.703 398.026 156.703 398.574 156.81Z" fill="#E0E0E0"/>
<path d="M407.374 156.81C406.826 156.917 406.262 156.917 405.714 156.81C406.262 156.703 406.826 156.703 407.374 156.81Z" fill="#E0E0E0"/>
<path d="M415.244 156.81C414.696 156.917 414.132 156.917 413.584 156.81C414.132 156.703 414.696 156.703 415.244 156.81Z" fill="#E0E0E0"/>
<path d="M423.114 156.81C422.566 156.917 422.002 156.917 421.454 156.81C422.002 156.703 422.566 156.703 423.114 156.81Z" fill="#E0E0E0"/>
<path d="M366.054 154.27C365.612 154.363 365.156 154.363 364.714 154.27C365.154 154.163 365.614 154.163 366.054 154.27Z" fill="#E0E0E0"/>
<path d="M366.054 150.89C365.612 150.983 365.156 150.983 364.714 150.89C365.154 150.783 365.614 150.783 366.054 150.89Z" fill="#E0E0E0"/>
<path d="M366.054 147.51C365.612 147.603 365.156 147.603 364.714 147.51C365.154 147.403 365.614 147.403 366.054 147.51Z" fill="#E0E0E0"/>
<path d="M366.054 144.13C365.612 144.223 365.156 144.223 364.714 144.13C365.154 144.023 365.614 144.023 366.054 144.13Z" fill="#E0E0E0"/>
<path d="M366.054 140.75C365.612 140.843 365.156 140.843 364.714 140.75C365.154 140.643 365.614 140.643 366.054 140.75Z" fill="#E0E0E0"/>
<path d="M366.054 137.37C365.612 137.463 365.156 137.463 364.714 137.37C365.154 137.263 365.614 137.263 366.054 137.37Z" fill="#E0E0E0"/>
<path d="M366.054 133.99C365.612 134.083 365.156 134.083 364.714 133.99C365.154 133.883 365.614 133.883 366.054 133.99Z" fill="#E0E0E0"/>
<path d="M367.234 154.52L367.144 154.25L375.704 151.24L384.354 145.4L392.964 148.25L401.644 142.53L410.334 142.51L410.374 142.53L418.624 148.37L426.624 143.08L426.784 143.32L418.624 148.72L418.534 148.66L410.244 142.8L401.734 142.82L393.014 148.57L384.404 145.72L375.814 151.51L367.234 154.52Z" fill="#FF725E"/>
<path d="M418.674 151.43L410.244 145.7H401.554L392.864 139.97L384.434 139.89L375.824 148.61H367.294V148.32H375.704L384.324 139.6L392.954 139.68L401.644 145.41H410.334L418.574 151.02L426.804 136.55L427.054 136.69L418.674 151.43Z" fill="#455A64"/>
<path d="M114.884 0.26001H325.714C328.037 0.26001 330.265 1.18293 331.908 2.82575C333.551 4.46857 334.474 6.69671 334.474 9.02001V180.81C334.474 184.146 333.149 187.346 330.789 189.705C328.43 192.065 325.23 193.39 321.894 193.39H119.614C116.278 193.39 113.078 192.065 110.719 189.705C108.359 187.346 107.034 184.146 107.034 180.81V8.11001C107.034 6.02806 107.861 4.03138 109.333 2.55922C110.805 1.08706 112.802 0.26001 114.884 0.26001Z" fill="white"/>
<path d="M113.224 0.26001H327.054C328.937 0.26001 330.743 1.00804 332.074 2.33955C333.406 3.67106 334.154 5.47697 334.154 7.36001V23.51H107.034V6.45001C107.034 4.80832 107.686 3.23387 108.847 2.07302C110.008 0.912167 111.582 0.26001 113.224 0.26001Z" fill="#E0E0E0"/>
<path d="M334.154 23.51C334.154 23.65 283.384 23.77 220.764 23.77C158.144 23.77 107.354 23.65 107.354 23.51C107.354 23.37 158.114 23.25 220.764 23.25C283.414 23.25 334.154 23.36 334.154 23.51Z" fill="#263238"/>
<path d="M119.444 12.39C119.444 12.8152 119.318 13.2309 119.081 13.5845C118.845 13.9381 118.509 14.2136 118.117 14.3764C117.724 14.5391 117.291 14.5817 116.874 14.4987C116.457 14.4157 116.074 14.211 115.774 13.9103C115.473 13.6096 115.268 13.2265 115.185 12.8095C115.102 12.3924 115.145 11.9601 115.307 11.5672C115.47 11.1744 115.746 10.8386 116.099 10.6024C116.453 10.3661 116.869 10.24 117.294 10.24C117.577 10.2387 117.857 10.2934 118.118 10.401C118.38 10.5086 118.617 10.6669 118.817 10.8668C119.017 11.0667 119.175 11.3042 119.283 11.5657C119.39 11.8271 119.445 12.1073 119.444 12.39Z" fill="#263238"/>
<path d="M126.284 12.39C126.284 12.8157 126.158 13.2317 125.921 13.5855C125.684 13.9393 125.348 14.2149 124.954 14.3773C124.561 14.5397 124.128 14.5817 123.711 14.4979C123.293 14.4142 122.91 14.2084 122.61 13.9067C122.31 13.605 122.106 13.221 122.024 12.8033C121.942 12.3856 121.986 11.953 122.15 11.5603C122.315 11.1676 122.592 10.8325 122.947 10.5975C123.302 10.3624 123.718 10.238 124.144 10.24C124.426 10.24 124.705 10.2957 124.965 10.4039C125.225 10.512 125.462 10.6706 125.661 10.8703C125.859 11.0701 126.017 11.3072 126.124 11.568C126.231 11.8288 126.285 12.1081 126.284 12.39Z" fill="#263238"/>
<path d="M133.264 12.39C133.264 12.8152 133.138 13.2309 132.902 13.5845C132.665 13.9381 132.329 14.2136 131.937 14.3764C131.544 14.5391 131.111 14.5817 130.694 14.4987C130.277 14.4157 129.894 14.211 129.594 13.9103C129.293 13.6096 129.088 13.2265 129.005 12.8095C128.922 12.3924 128.965 11.9601 129.128 11.5672C129.29 11.1744 129.566 10.8386 129.919 10.6024C130.273 10.3661 130.689 10.24 131.114 10.24C131.397 10.2387 131.677 10.2934 131.938 10.401C132.2 10.5086 132.437 10.6669 132.637 10.8668C132.837 11.0667 132.995 11.3042 133.103 11.5657C133.21 11.8271 133.265 12.1073 133.264 12.39Z" fill="#263238"/>
<path d="M258.454 40.81C258.454 40.95 242.054 41.07 221.824 41.07C201.594 41.07 185.194 40.95 185.194 40.81C185.194 40.67 201.594 40.55 221.824 40.55C242.054 40.55 258.454 40.7 258.454 40.81Z" fill="#263238"/>
<path d="M224.504 56.29C224.504 56.44 204.874 56.55 180.674 56.55C156.474 56.55 136.844 56.44 136.844 56.29C136.844 56.14 156.464 56.03 180.674 56.03C204.884 56.03 224.504 56.15 224.504 56.29Z" fill="#263238"/>
<path d="M224.504 64.58C224.504 64.73 204.874 64.84 180.674 64.84C156.474 64.84 136.844 64.73 136.844 64.58C136.844 64.43 156.464 64.32 180.674 64.32C204.884 64.32 224.504 64.44 224.504 64.58Z" fill="#263238"/>
<path d="M224.504 72.87C224.504 73.02 204.874 73.14 180.674 73.14C156.474 73.14 136.844 73.02 136.844 72.87C136.844 72.72 156.464 72.61 180.674 72.61C204.884 72.61 224.504 72.73 224.504 72.87Z" fill="#263238"/>
<path d="M224.504 81.17C224.504 81.31 204.874 81.43 180.674 81.43C156.474 81.43 136.844 81.31 136.844 81.17C136.844 81.03 156.464 80.9 180.674 80.9C204.884 80.9 224.504 81.02 224.504 81.17Z" fill="#263238"/>
<path d="M224.504 89.46C224.504 89.6 204.874 89.72 180.674 89.72C156.474 89.72 136.844 89.6 136.844 89.46C136.844 89.32 156.464 89.19 180.674 89.19C204.884 89.19 224.504 89.31 224.504 89.46Z" fill="#263238"/>
<path d="M224.504 112.49C224.504 112.64 204.874 112.75 180.674 112.75C156.474 112.75 136.844 112.64 136.844 112.49C136.844 112.34 156.464 112.23 180.674 112.23C204.884 112.23 224.504 112.35 224.504 112.49Z" fill="#263238"/>
<path d="M224.504 104.14C224.504 104.29 204.874 104.4 180.674 104.4C156.474 104.4 136.844 104.29 136.844 104.14C136.844 103.99 156.464 103.88 180.674 103.88C204.884 103.88 224.504 104 224.504 104.14Z" fill="#263238"/>
<path d="M280.584 54.6C275.899 54.598 271.32 55.9854 267.424 58.5866C263.528 61.1878 260.492 64.886 258.698 69.2134C256.905 73.5408 256.435 78.3029 257.348 82.8973C258.262 87.4917 260.517 91.7119 263.83 95.0243C267.142 98.3366 271.362 100.592 275.957 101.505C280.551 102.419 285.313 101.949 289.64 100.156C293.968 98.362 297.666 95.3253 300.267 91.4296C302.868 87.534 304.256 82.9543 304.254 78.27C304.251 71.9931 301.757 65.9741 297.318 61.5357C292.88 57.0973 286.861 54.6026 280.584 54.6ZM280.944 92.46C278.066 92.462 275.252 91.6103 272.858 90.0127C270.463 88.4152 268.597 86.1434 267.494 83.4849C266.391 80.8265 266.102 77.9006 266.662 75.0776C267.222 72.2545 268.607 69.661 270.642 67.6251C272.676 65.5893 275.269 64.2025 278.092 63.6403C280.914 63.0781 283.84 63.3656 286.5 64.4666C289.159 65.5675 291.432 67.4324 293.031 69.8254C294.63 72.2183 295.484 75.0318 295.484 77.91C295.485 79.8194 295.11 81.7104 294.381 83.475C293.651 85.2395 292.581 86.8431 291.232 88.1942C289.883 89.5453 288.281 90.6174 286.517 91.3494C284.754 92.0813 282.863 92.4587 280.954 92.46H280.944Z" fill="#FF725E"/>
<path d="M266.394 77.91C266.394 75.1003 267.208 72.3507 268.738 69.9939C270.268 67.6371 272.448 65.774 275.014 64.63L271.374 56.45C267.094 58.27 263.444 61.3095 260.88 65.1897C258.316 69.0699 256.95 73.6191 256.954 78.27C256.954 78.5967 256.954 78.93 256.954 79.27H266.484C266.424 78.81 266.394 78.37 266.394 77.91Z" fill="#E0E0E0"/>
<path d="M300.174 107.92C300.174 108.04 291.404 108.14 280.584 108.14C269.764 108.14 260.994 108.04 260.994 107.92C260.994 107.8 269.764 107.69 280.584 107.69C291.404 107.69 300.174 107.81 300.174 107.92Z" fill="#263238"/>
<path d="M291.444 111.52C291.444 111.64 286.584 111.74 280.584 111.74C274.584 111.74 269.714 111.64 269.714 111.52C269.714 111.4 274.584 111.29 280.584 111.29C286.584 111.29 291.444 111.39 291.444 111.52Z" fill="#263238"/>
<path d="M278.874 74.81V75.81L276.954 80.3H275.274L277.114 76.07H275.674V76.91H274.354V74.81H278.874Z" fill="#263238"/>
<path d="M283.524 78.55C283.524 79.55 282.794 80.41 281.144 80.41C280.406 80.4261 279.677 80.243 279.034 79.88L279.584 78.71C280.032 79.007 280.557 79.1669 281.094 79.17C281.624 79.17 281.974 78.96 281.974 78.59C281.974 78.22 281.744 78.04 280.914 78.04H279.434L279.704 74.85H283.174V76.04H280.954L280.884 76.84H281.244C282.894 76.81 283.524 77.58 283.524 78.55Z" fill="#263238"/>
<path d="M283.794 76.29C283.815 76.0184 283.915 75.7589 284.082 75.5434C284.249 75.3279 284.475 75.1657 284.732 75.0768C284.99 74.9878 285.268 74.9759 285.532 75.0425C285.796 75.1091 286.035 75.2514 286.22 75.4518C286.404 75.6523 286.526 75.9022 286.571 76.171C286.615 76.4398 286.58 76.7157 286.47 76.965C286.36 77.2143 286.18 77.426 285.952 77.5744C285.723 77.7227 285.456 77.8011 285.184 77.8C284.99 77.8038 284.797 77.7664 284.619 77.6903C284.44 77.6141 284.28 77.5009 284.149 77.3581C284.017 77.2154 283.918 77.0463 283.857 76.8622C283.795 76.678 283.774 76.483 283.794 76.29ZM288.414 74.85H289.534L285.804 80.3H284.684L288.414 74.85ZM285.644 76.29C285.644 75.74 285.454 75.52 285.184 75.52C284.914 75.52 284.724 75.74 284.724 76.29C284.724 76.84 284.934 77.06 285.184 77.06C285.434 77.06 285.644 76.81 285.644 76.29ZM287.644 78.86C287.665 78.5884 287.765 78.3289 287.932 78.1134C288.099 77.8979 288.325 77.7357 288.582 77.6468C288.84 77.5578 289.118 77.5459 289.382 77.6125C289.646 77.6791 289.885 77.8214 290.07 78.0218C290.254 78.2223 290.376 78.4722 290.421 78.741C290.465 79.0098 290.43 79.2857 290.32 79.535C290.21 79.7842 290.03 79.996 289.802 80.1443C289.573 80.2927 289.306 80.3711 289.034 80.37C288.84 80.3738 288.647 80.3364 288.469 80.2603C288.29 80.1841 288.13 80.0709 287.999 79.9281C287.867 79.7854 287.768 79.6163 287.706 79.4322C287.645 79.248 287.624 79.053 287.644 78.86ZM289.494 78.86C289.494 78.31 289.294 78.09 289.034 78.09C288.774 78.09 288.574 78.31 288.574 78.86C288.574 79.41 288.774 79.63 289.034 79.63C289.294 79.63 289.494 79.42 289.494 78.86Z" fill="#263238"/>
<path d="M153.034 160.44H146.274V176.01H153.034V160.44Z" fill="#EBEBEB"/>
<path d="M175.964 160.44H169.204V176.01H175.964V160.44Z" fill="#EBEBEB"/>
<path d="M164.504 146.26H157.744V176.01H164.504V146.26Z" fill="#F5F5F5"/>
<path d="M187.434 146.26H180.674V176.01H187.434V146.26Z" fill="#F5F5F5"/>
<path d="M198.894 147.11H192.134V176.01H198.894V147.11Z" fill="#EBEBEB"/>
<path d="M221.824 147.11H215.064V176.01H221.824V147.11Z" fill="#EBEBEB"/>
<path d="M244.754 147.11H237.994V176.01H244.754V147.11Z" fill="#EBEBEB"/>
<path d="M210.364 131.95H203.604V176.02H210.364V131.95Z" fill="#F5F5F5"/>
<path d="M233.294 136.26H226.534V176.01H233.294V136.26Z" fill="#F5F5F5"/>
<path d="M278.624 147.11H271.864V176.01H278.624V147.11Z" fill="#EBEBEB"/>
<path d="M267.164 152.66H260.404V176.01H267.164V152.66Z" fill="#F5F5F5"/>
<path d="M302.604 131.69H295.844V176.01H302.604V131.69Z" fill="#EBEBEB"/>
<path d="M291.144 152.66H284.384V176.01H291.144V152.66Z" fill="#F5F5F5"/>
<path d="M314.084 152.66H307.324V176.01H314.084V152.66Z" fill="#F5F5F5"/>
<path d="M256.224 142.35H249.464V176.01H256.224V142.35Z" fill="#EBEBEB"/>
<path d="M206.424 133.69C207.385 133.69 208.164 132.911 208.164 131.95C208.164 130.989 207.385 130.21 206.424 130.21C205.463 130.21 204.684 130.989 204.684 131.95C204.684 132.911 205.463 133.69 206.424 133.69Z" fill="#686868"/>
<path d="M206.424 135.1C205.798 135.1 205.187 134.914 204.667 134.567C204.147 134.219 203.742 133.725 203.503 133.147C203.265 132.569 203.203 131.933 203.325 131.32C203.448 130.707 203.75 130.144 204.193 129.702C204.636 129.26 205.2 128.96 205.814 128.84C206.427 128.719 207.063 128.783 207.64 129.023C208.217 129.264 208.71 129.671 209.056 130.192C209.402 130.713 209.586 131.325 209.584 131.95C209.581 132.786 209.247 133.588 208.655 134.178C208.062 134.768 207.26 135.1 206.424 135.1ZM206.424 129.04C205.848 129.038 205.284 129.207 204.804 129.526C204.325 129.844 203.95 130.298 203.728 130.829C203.507 131.361 203.447 131.946 203.559 132.512C203.67 133.077 203.946 133.596 204.353 134.004C204.759 134.412 205.278 134.69 205.842 134.803C206.407 134.916 206.993 134.859 207.525 134.639C208.058 134.42 208.513 134.047 208.833 133.568C209.153 133.089 209.324 132.526 209.324 131.95C209.324 131.18 209.019 130.441 208.475 129.896C207.932 129.35 207.194 129.043 206.424 129.04Z" fill="#686868"/>
<path d="M207.814 127.51L207.724 124.09L208.574 124.11L206.984 122.16L205.384 124.12L206.264 124.13L206.354 127.51H207.814Z" fill="#EBEBEB"/>
<path d="M151.574 153.32C151.574 153.664 151.472 154.001 151.281 154.287C151.09 154.573 150.818 154.796 150.5 154.928C150.182 155.059 149.832 155.094 149.495 155.027C149.157 154.959 148.847 154.794 148.604 154.55C148.36 154.307 148.195 153.997 148.127 153.659C148.06 153.322 148.095 152.972 148.226 152.654C148.358 152.336 148.581 152.064 148.867 151.873C149.153 151.682 149.49 151.58 149.834 151.58C150.295 151.58 150.738 151.763 151.064 152.09C151.391 152.416 151.574 152.859 151.574 153.32Z" fill="#686868"/>
<path d="M149.834 156.54C149.208 156.54 148.597 156.354 148.077 156.007C147.557 155.659 147.152 155.165 146.913 154.587C146.675 154.009 146.613 153.373 146.735 152.76C146.858 152.147 147.16 151.584 147.603 151.142C148.046 150.7 148.61 150.4 149.223 150.279C149.837 150.159 150.473 150.223 151.05 150.463C151.627 150.704 152.12 151.111 152.466 151.632C152.812 152.153 152.996 152.765 152.994 153.39C152.994 153.804 152.912 154.215 152.753 154.598C152.594 154.981 152.361 155.328 152.068 155.621C151.774 155.914 151.426 156.145 151.042 156.303C150.659 156.461 150.248 156.541 149.834 156.54ZM149.834 150.48C149.258 150.48 148.696 150.651 148.217 150.97C147.739 151.29 147.366 151.745 147.145 152.276C146.925 152.808 146.867 153.393 146.98 153.958C147.092 154.522 147.369 155.041 147.776 155.448C148.183 155.855 148.702 156.132 149.266 156.244C149.831 156.356 150.416 156.299 150.947 156.078C151.479 155.858 151.934 155.485 152.253 155.007C152.573 154.528 152.744 153.966 152.744 153.39C152.745 153.007 152.671 152.628 152.525 152.275C152.379 151.921 152.165 151.6 151.894 151.329C151.624 151.059 151.303 150.845 150.949 150.699C150.595 150.553 150.216 150.479 149.834 150.48Z" fill="#686868"/>
<path d="M148.794 142.54L148.884 146.1L147.994 146.09L149.654 148.11L151.314 146.07L150.394 146.06L150.304 142.55L148.794 142.54Z" fill="#EBEBEB"/>
<path d="M240.764 135.1L240.854 138.66L239.964 138.65L241.624 140.67L243.284 138.63L242.364 138.62L242.274 135.11L240.764 135.1Z" fill="#EBEBEB"/>
<path d="M261.694 166.62L241.344 147.53C228.444 141.3 208.534 132.13 206.214 132.25C203.614 132.41 154.214 151.87 135.444 159.36L135.074 158.43C137.844 157.33 202.854 131.43 206.154 131.26H206.224C209.834 131.26 238.554 145.09 241.844 146.67L241.964 146.76L261.854 165.41C265.634 163.41 287.264 152 287.634 151.84C287.764 151.78 288.104 151.64 317.854 151.64V152.64C306.434 152.64 289.284 152.64 287.984 152.78C286.854 153.35 270.624 161.91 261.984 166.46L261.694 166.62Z" fill="#686868"/>
<path d="M243.364 146.69C243.364 147.034 243.262 147.371 243.071 147.657C242.879 147.943 242.608 148.166 242.29 148.298C241.972 148.429 241.622 148.464 241.284 148.397C240.947 148.329 240.637 148.164 240.393 147.92C240.15 147.677 239.984 147.367 239.917 147.029C239.85 146.692 239.885 146.342 240.016 146.024C240.148 145.706 240.371 145.434 240.657 145.243C240.943 145.052 241.28 144.95 241.624 144.95C241.852 144.95 242.079 144.995 242.29 145.082C242.501 145.17 242.693 145.298 242.854 145.46C243.016 145.621 243.144 145.813 243.231 146.024C243.319 146.235 243.364 146.462 243.364 146.69Z" fill="#686868"/>
<path d="M241.624 149.91C240.999 149.91 240.388 149.725 239.868 149.377C239.349 149.03 238.944 148.537 238.704 147.959C238.465 147.382 238.403 146.746 238.525 146.133C238.647 145.521 238.947 144.957 239.389 144.516C239.831 144.074 240.394 143.773 241.007 143.651C241.62 143.529 242.256 143.591 242.833 143.831C243.411 144.07 243.904 144.475 244.251 144.994C244.599 145.514 244.784 146.125 244.784 146.75C244.781 147.587 244.447 148.389 243.855 148.982C243.263 149.574 242.461 149.907 241.624 149.91ZM241.624 143.85C241.05 143.85 240.49 144.02 240.013 144.339C239.536 144.657 239.164 145.11 238.945 145.64C238.725 146.17 238.668 146.753 238.78 147.316C238.891 147.878 239.168 148.395 239.573 148.801C239.979 149.206 240.496 149.482 241.058 149.594C241.621 149.706 242.204 149.649 242.734 149.429C243.264 149.21 243.716 148.838 244.035 148.361C244.354 147.884 244.524 147.324 244.524 146.75C244.529 146.366 244.458 145.984 244.315 145.628C244.171 145.271 243.959 144.947 243.689 144.673C243.419 144.4 243.097 144.183 242.743 144.034C242.388 143.886 242.008 143.81 241.624 143.81V143.85Z" fill="#686868"/>
<path d="M289.574 151.87C289.574 152.214 289.472 152.551 289.281 152.837C289.09 153.123 288.818 153.346 288.5 153.478C288.182 153.609 287.832 153.644 287.495 153.577C287.157 153.509 286.847 153.344 286.604 153.1C286.36 152.857 286.195 152.547 286.127 152.209C286.06 151.872 286.095 151.522 286.226 151.204C286.358 150.886 286.581 150.614 286.867 150.423C287.153 150.232 287.49 150.13 287.834 150.13C288.062 150.13 288.289 150.175 288.5 150.262C288.711 150.35 288.903 150.478 289.064 150.64C289.226 150.801 289.354 150.993 289.442 151.204C289.529 151.415 289.574 151.641 289.574 151.87Z" fill="#686868"/>
<path d="M287.834 155.09C287.209 155.09 286.598 154.905 286.078 154.557C285.559 154.21 285.154 153.717 284.914 153.139C284.675 152.562 284.613 151.927 284.735 151.314C284.856 150.701 285.157 150.137 285.599 149.696C286.041 149.254 286.604 148.953 287.217 148.831C287.83 148.709 288.466 148.771 289.043 149.011C289.621 149.25 290.114 149.655 290.461 150.174C290.808 150.694 290.994 151.305 290.994 151.93C290.991 152.767 290.657 153.57 290.065 154.162C289.473 154.754 288.671 155.087 287.834 155.09ZM287.834 149.03C287.257 149.028 286.693 149.197 286.213 149.516C285.733 149.835 285.359 150.29 285.137 150.822C284.916 151.354 284.857 151.94 284.969 152.505C285.081 153.071 285.359 153.59 285.766 153.998C286.174 154.405 286.693 154.683 287.259 154.795C287.824 154.907 288.41 154.848 288.942 154.627C289.474 154.405 289.929 154.031 290.248 153.55C290.567 153.07 290.736 152.506 290.734 151.93C290.734 151.161 290.428 150.423 289.884 149.879C289.341 149.336 288.603 149.03 287.834 149.03Z" fill="#686868"/>
<path d="M286.894 141.54L286.994 145.1L286.104 145.08L287.764 147.11L289.424 145.06H288.504L288.404 141.55L286.894 141.54Z" fill="#EBEBEB"/>
<path d="M322.464 193.36H322.994H323.664L324.574 193.22C325.429 193.056 326.267 192.808 327.074 192.48C328.18 192 329.213 191.367 330.144 190.6C331.314 189.613 332.285 188.412 333.004 187.06C333.857 185.423 334.329 183.615 334.384 181.77C334.384 177.77 334.384 173.12 334.384 167.91C334.384 147.05 334.334 116.91 334.304 79.6C334.304 60.96 334.304 40.54 334.304 18.6C334.304 15.86 334.304 13.09 334.304 10.31C334.403 8.93397 334.289 7.55081 333.964 6.21C333.564 4.89001 332.826 3.69732 331.824 2.75C330.829 1.77243 329.589 1.08147 328.234 0.749999C326.841 0.507894 325.425 0.427363 324.014 0.510001H279.244H118.874C117.104 0.510001 115.294 0.510001 113.574 0.510001C111.858 0.687345 110.269 1.49163 109.11 2.76865C107.951 4.04567 107.304 5.70555 107.294 7.43V33.69C107.294 47.5433 107.294 61.1833 107.294 74.61C107.294 101.43 107.294 127.31 107.294 151.96C107.294 158.127 107.294 164.213 107.294 170.22V179.16C107.222 180.62 107.292 182.084 107.504 183.53C107.905 185.645 108.876 187.611 110.312 189.214C111.748 190.818 113.595 191.999 115.654 192.63C117.011 193.024 118.422 193.196 119.834 193.14H140.834H201.834L290.144 193.22L314.144 193.27H320.384C321.794 193.27 322.514 193.27 322.514 193.27H320.384H314.144H290.144L201.834 193.36H140.834H119.834C118.378 193.412 116.923 193.233 115.524 192.83C113.386 192.178 111.466 190.954 109.973 189.29C108.48 187.627 107.471 185.586 107.054 183.39C106.836 181.914 106.762 180.42 106.834 178.93C106.834 175.93 106.834 172.99 106.834 169.99V151.96C106.834 127.31 106.834 101.43 106.834 74.61V7.48C106.85 5.62933 107.546 3.84912 108.788 2.47752C110.031 1.10591 111.734 0.238484 113.574 0.04C115.404 -0.05 117.144 0.04 118.934 0.04H279.304H326.174C326.908 0.0341056 327.64 0.118063 328.354 0.29C329.778 0.637704 331.086 1.3552 332.144 2.37C333.196 3.37831 333.973 4.63789 334.404 6.03C334.732 7.41443 334.85 8.84042 334.754 10.26V18.55C334.754 40.47 334.754 60.89 334.754 79.55C334.754 116.83 334.684 147 334.664 167.86C334.664 173.07 334.664 177.71 334.664 181.72C334.618 183.428 334.208 185.106 333.461 186.643C332.714 188.179 331.648 189.539 330.334 190.63C329.395 191.397 328.351 192.027 327.234 192.5C326.421 192.828 325.577 193.069 324.714 193.22L323.794 193.35H323.124L322.464 193.36Z" fill="#263238"/>
<path d="M345.997 100.928C347.325 95.2769 343.82 89.62 338.169 88.2925C332.518 86.9651 326.862 90.4698 325.534 96.1205C324.207 101.771 327.711 107.428 333.362 108.755C339.013 110.083 344.67 106.578 345.997 100.928Z" fill="#F5F5F5"/>
<path d="M325.274 98.53C325.36 99.3847 325.5 100.233 325.694 101.07C326.057 102.467 326.709 103.773 327.608 104.903C328.506 106.033 329.63 106.963 330.909 107.632C332.188 108.302 333.593 108.696 335.034 108.791C336.474 108.885 337.918 108.677 339.274 108.18C341.185 107.484 342.846 106.234 344.044 104.59C345.337 102.834 346.034 100.711 346.034 98.53C346.034 96.3494 345.337 94.226 344.044 92.47C343.443 91.6309 342.71 90.8947 341.874 90.29C341.088 89.6871 340.21 89.2145 339.274 88.89C337.66 88.2955 335.923 88.1149 334.222 88.3647C332.52 88.6145 330.908 89.2868 329.534 90.32C327.657 91.7283 326.305 93.7243 325.694 95.99C325.502 96.8273 325.362 97.6756 325.274 98.53C325.205 97.6599 325.283 96.7845 325.504 95.94C326.047 93.5892 327.391 91.5001 329.304 90.03C330.724 88.9339 332.398 88.2136 334.17 87.9357C335.942 87.6578 337.756 87.8312 339.444 88.44C340.423 88.779 341.344 89.2681 342.174 89.89C343.047 90.528 343.816 91.2971 344.454 92.17C345.817 94.0122 346.553 96.2433 346.553 98.535C346.553 100.827 345.817 103.058 344.454 104.9C343.816 105.773 343.047 106.542 342.174 107.18C341.342 107.798 340.422 108.287 339.444 108.63C337.637 109.281 335.689 109.432 333.804 109.07C331.803 108.681 329.957 107.724 328.485 106.315C327.014 104.905 325.979 103.102 325.504 101.12C325.283 100.276 325.205 99.4002 325.274 98.53Z" fill="#263238"/>
<path d="M334.184 101.51C334.081 101.507 333.982 101.473 333.9 101.413C333.817 101.352 333.755 101.267 333.723 101.17C333.69 101.073 333.688 100.968 333.717 100.87C333.745 100.771 333.804 100.684 333.884 100.62L336.584 98.51L333.854 96.45C333.749 96.3689 333.681 96.2498 333.664 96.1186C333.647 95.9874 333.683 95.8548 333.764 95.75C333.803 95.6975 333.853 95.6532 333.909 95.6198C333.966 95.5863 334.028 95.5643 334.093 95.555C334.158 95.5457 334.224 95.5493 334.288 95.5656C334.352 95.5819 334.411 95.6106 334.464 95.65L337.704 98.11C337.765 98.1555 337.814 98.2143 337.849 98.2819C337.883 98.3495 337.902 98.4241 337.904 98.5C337.904 98.5767 337.887 98.6524 337.854 98.7217C337.822 98.7909 337.774 98.8519 337.714 98.9L334.494 101.41C334.405 101.477 334.295 101.512 334.184 101.51Z" fill="#263238"/>
<path d="M115.558 101.567C116.886 95.9161 113.381 90.2592 107.73 88.9318C102.08 87.6044 96.4229 91.109 95.0954 96.7597C93.768 102.41 97.2727 108.067 102.923 109.395C108.574 110.722 114.231 107.217 115.558 101.567Z" fill="#F5F5F5"/>
<path d="M115.844 99.17C115.751 98.3156 115.607 97.4675 115.414 96.63C114.808 94.362 113.455 92.3645 111.574 90.96C110.297 89.9942 108.81 89.3432 107.234 89.06C105.425 88.729 103.561 88.8879 101.834 89.52C100.902 89.8546 100.026 90.3265 99.234 90.92C98.4029 91.5314 97.6739 92.2705 97.074 93.11C95.781 94.8659 95.0835 96.9894 95.0835 99.17C95.0835 101.351 95.781 103.474 97.074 105.23C97.674 106.066 98.4031 106.802 99.234 107.41C100.021 108.011 100.899 108.483 101.834 108.81C103.56 109.445 105.424 109.608 107.234 109.28C108.81 108.997 110.297 108.346 111.574 107.38C113.451 105.972 114.803 103.976 115.414 101.71C115.605 100.872 115.749 100.024 115.844 99.17C115.906 100.04 115.828 100.914 115.614 101.76C115.142 103.742 114.108 105.546 112.635 106.954C111.163 108.363 109.315 109.316 107.314 109.7C105.426 110.067 103.475 109.918 101.664 109.27C99.666 108.542 97.9269 107.241 96.664 105.53C95.2947 103.69 94.5552 101.458 94.5552 99.165C94.5552 96.8717 95.2947 94.6396 96.664 92.8C97.2966 91.9225 98.0665 91.1526 98.944 90.52C99.7721 89.9018 100.689 89.4129 101.664 89.07C103.475 88.424 105.425 88.2721 107.314 88.63C108.946 88.9382 110.483 89.623 111.804 90.63C113.718 92.1013 115.064 94.1894 115.614 96.54C115.832 97.3984 115.91 98.2867 115.844 99.17Z" fill="#263238"/>
<path d="M106.954 102.15C106.845 102.152 106.739 102.117 106.654 102.05L103.404 99.59C103.343 99.5444 103.294 99.4856 103.259 99.418C103.224 99.3505 103.205 99.2759 103.204 99.2C103.203 99.1222 103.221 99.0454 103.256 98.9758C103.29 98.9063 103.341 98.846 103.404 98.8L106.614 96.29C106.665 96.245 106.725 96.211 106.79 96.1901C106.855 96.1692 106.924 96.1619 106.992 96.1685C107.06 96.1751 107.126 96.1955 107.185 96.2286C107.245 96.2616 107.297 96.3065 107.339 96.3606C107.381 96.4146 107.411 96.4766 107.428 96.5427C107.445 96.6089 107.448 96.6778 107.437 96.7452C107.426 96.8126 107.402 96.877 107.365 96.9346C107.328 96.9922 107.28 97.0417 107.224 97.08L104.524 99.19L107.254 101.25C107.338 101.313 107.4 101.401 107.431 101.501C107.462 101.601 107.461 101.709 107.428 101.808C107.395 101.908 107.331 101.994 107.246 102.056C107.161 102.117 107.059 102.15 106.954 102.15Z" fill="#263238"/>
<path d="M395.664 366.81C408.994 361.15 424.434 350.02 431.314 336.37C416.515 342.498 404.035 353.154 395.664 366.81Z" fill="#FF725E"/>
<path d="M398.504 345.64C411.834 339.98 427.264 328.84 434.154 315.19C419.356 321.325 406.878 331.983 398.504 345.64Z" fill="#FF725E"/>
<path d="M402.354 325.03C415.694 319.37 431.124 308.24 438.014 294.59C423.214 300.721 410.732 311.376 402.354 325.03Z" fill="#FF725E"/>
<path d="M407.194 303.46C419.774 296 433.794 282.82 439.014 268.35C425.04 276.491 413.925 288.755 407.194 303.46Z" fill="#FF725E"/>
<path d="M412.364 286.95C421.524 274.95 430.074 257.13 429.954 241.67C419.771 254.709 413.654 270.457 412.364 286.95Z" fill="#FF725E"/>
<path d="M409.794 294.81C407.954 278.59 401.644 258.21 390.954 246.05C392.752 263.698 399.259 280.538 409.794 294.81Z" fill="#FF725E"/>
<path d="M405.494 312.53C402.224 295.82 393.974 275.15 381.824 263.43C385.152 281.628 393.33 298.591 405.494 312.53Z" fill="#FF725E"/>
<path d="M400.534 334.15C397.274 317.44 389.024 296.77 376.874 285.05C380.203 303.246 388.377 320.208 400.534 334.15Z" fill="#FF725E"/>
<path d="M396.564 360.7C393.304 343.99 385.054 323.32 372.904 311.59C376.233 329.789 384.406 346.754 396.564 360.7Z" fill="#FF725E"/>
<path d="M412.954 283.81C412.954 283.81 412.954 283.89 412.854 284.06C412.754 284.23 412.704 284.5 412.594 284.8L411.674 287.7C410.874 290.21 409.784 293.87 408.514 298.41C407.244 302.95 405.834 308.41 404.384 314.41C402.934 320.41 401.514 327.18 400.174 334.25C398.834 341.32 397.774 348.09 396.894 354.25C396.014 360.41 395.384 366 394.894 370.69C394.404 375.38 394.104 379.18 393.944 381.81C393.864 383.1 393.794 384.11 393.754 384.81C393.754 385.13 393.754 385.39 393.754 385.6C393.736 385.689 393.736 385.781 393.754 385.87C393.754 385.87 393.754 385.78 393.754 385.6C393.754 385.42 393.814 385.14 393.844 384.82C393.914 384.09 394.014 383.08 394.134 381.82C394.364 379.19 394.734 375.4 395.254 370.72C395.774 366.04 396.454 360.47 397.334 354.3C398.214 348.13 399.334 341.38 400.644 334.3C401.954 327.22 403.414 320.54 404.814 314.47C406.214 308.4 407.604 302.97 408.814 298.47C410.024 293.97 411.064 290.25 411.814 287.72L412.644 284.81C412.734 284.49 412.794 284.24 412.854 284.04C412.897 283.968 412.93 283.891 412.954 283.81Z" fill="#263238"/>
<path d="M389.164 375.65C394.824 363.81 398.934 347.16 396.164 334.16C389.844 347.015 387.412 361.434 389.164 375.65Z" fill="#455A64"/>
<path d="M379.764 360.32C385.414 348.47 389.534 331.83 386.764 318.83C380.44 331.683 378.007 346.103 379.764 360.32Z" fill="#455A64"/>
<path d="M371.334 344.73C376.984 332.88 381.094 316.24 378.334 303.24C372.01 316.093 369.577 330.513 371.334 344.73Z" fill="#455A64"/>
<path d="M363.024 327.91C367.224 315.38 369.334 298.3 365.024 285.8C360.288 299.346 359.594 313.976 363.024 327.91Z" fill="#455A64"/>
<path d="M357.614 314.15C357.204 300.81 353.274 284.15 344.994 274.27C345.181 288.516 349.571 302.39 357.614 314.15Z" fill="#455A64"/>
<path d="M360.114 320.81C350.304 311.55 335.394 302.36 321.984 301.16C332.475 311.331 345.743 318.168 360.114 320.81Z" fill="#455A64"/>
<path d="M366.724 334.81C355.724 326.1 339.404 317.93 325.294 317.9C337.125 327.514 351.544 333.399 366.724 334.81Z" fill="#455A64"/>
<path d="M374.954 351.7C363.954 342.99 347.634 334.81 333.514 334.78C345.344 344.405 359.768 350.294 374.954 351.7Z" fill="#455A64"/>
<path d="M386.504 371.17C375.504 362.46 359.184 354.28 345.074 354.25C356.9 363.875 371.321 369.764 386.504 371.17Z" fill="#455A64"/>
<path d="M356.334 311.73C356.334 311.73 356.334 311.8 356.394 311.95L356.614 312.57C356.844 313.16 357.154 313.96 357.534 314.97C358.334 317.05 359.534 320.04 361.134 323.7C364.274 331.03 368.914 341.03 374.694 351.75C377.584 357.1 380.484 362.13 383.204 366.65C385.924 371.17 388.474 375.16 390.694 378.48C392.914 381.8 394.694 384.48 396.034 386.27L397.534 388.35L397.934 388.89C397.978 388.952 398.028 389.009 398.084 389.06C398.084 389.06 398.084 388.98 397.974 388.86L397.614 388.29L396.184 386.16C394.934 384.32 393.184 381.63 390.984 378.29C388.784 374.95 386.304 370.92 383.594 366.41C380.884 361.9 378.024 356.86 375.124 351.51C369.364 340.81 364.674 330.81 361.454 323.56C359.844 319.92 358.574 316.96 357.714 314.9L356.714 312.54C356.604 312.29 356.514 312.09 356.434 311.93C356.409 311.859 356.376 311.792 356.334 311.73Z" fill="#263238"/>
<path d="M362.244 377.08H418.414V387.9H412.644L407.784 418.78H373.054L368.054 387.9H362.244V377.08Z" fill="#989898"/>
<path d="M362.244 387.68C362.244 387.53 374.724 387.42 390.124 387.42C405.524 387.42 418.014 387.53 418.014 387.68C418.014 387.83 405.524 387.94 390.124 387.94C374.724 387.94 362.244 387.81 362.244 387.68Z" fill="#263238"/>
<path d="M139.674 276.02C141.94 276.138 144.213 276.018 146.454 275.66C148.061 275.24 149.59 274.565 150.984 273.66C150.984 273.66 155.914 274.34 156.704 273.24C157.182 272.545 157.44 271.723 157.444 270.88L161.064 270.43L164.344 271.05L166.154 273.26C166.154 273.26 167.514 273.26 167.574 272.44C167.574 272.44 169.384 271.62 169.214 271.05C169.044 270.48 168.044 267.77 168.044 267.77L166.664 264.81C166.664 264.81 157.724 264.25 157.384 264.47C157.044 264.69 145.724 269.97 145.724 269.97L141.534 270.97L139.674 276.02Z" fill="#EB996E"/>
<path d="M144.314 261.41L158.494 258.23L168.394 257.7C168.394 257.7 176.834 261.62 176.594 265.13L178.364 266.08C178.364 266.08 178.214 268.7 176.104 268.08C175.077 267.784 174.074 267.409 173.104 266.96L175.374 270.42C174.898 270.689 174.363 270.836 173.817 270.846C173.27 270.857 172.73 270.731 172.244 270.48C171.534 270.14 166.554 266.37 166.554 266.37L162.344 266.25C162.344 266.25 154.524 271.63 150.894 272.25C147.264 272.87 141.084 271.59 141.084 271.59L144.314 261.41Z" fill="#FFBE9D"/>
<path d="M176.104 268.12C176.104 268.06 176.464 268.18 177.044 268.12C177.21 268.083 177.366 268.012 177.502 267.91C177.638 267.808 177.751 267.679 177.834 267.53C178.039 267.115 178.122 266.65 178.074 266.19L178.154 266.33L172.034 262.33L170.194 261.13C169.624 260.76 168.984 260.33 168.524 260.13H167.694H166.784H165.154C164.083 260.186 163.01 260.156 161.944 260.04C162.994 259.857 164.058 259.764 165.124 259.76L166.724 259.68H167.624H168.094H168.444C168.517 259.67 168.591 259.67 168.664 259.68C169.295 260.004 169.906 260.364 170.494 260.76L172.344 261.96C174.704 263.53 176.834 264.96 178.344 266.11L178.424 266.17V266.26C178.459 266.795 178.334 267.327 178.064 267.79C177.956 267.965 177.81 268.113 177.637 268.224C177.464 268.335 177.268 268.405 177.064 268.43C176.815 268.461 176.562 268.437 176.324 268.36C176.184 268.17 176.104 268.14 176.104 268.12Z" fill="#EB996E"/>
<path d="M175.224 270.23C174.666 269.715 174.17 269.138 173.744 268.51C172.874 267.41 171.744 265.86 170.434 264.13H170.484L170.314 264C169.884 263.67 169.454 263.35 169.034 263.07L168.394 262.68C168.202 262.575 167.991 262.507 167.774 262.48C166.953 262.347 166.125 262.263 165.294 262.23C164.513 262.247 163.733 262.186 162.964 262.05C163.732 261.881 164.519 261.817 165.304 261.86C166.16 261.838 167.016 261.885 167.864 262C168.132 262.038 168.392 262.119 168.634 262.24C168.864 262.36 169.084 262.5 169.304 262.64C169.754 262.93 170.194 263.25 170.634 263.59L170.804 263.73C172.074 265.47 173.194 267.05 173.984 268.21C174.476 268.832 174.892 269.51 175.224 270.23Z" fill="#EB996E"/>
<path d="M230.704 376.32L231.034 402.56C231.034 402.56 257.694 409.14 258.234 413.98L207.494 418.35L205.304 377.48L230.704 376.32Z" fill="#474747"/>
<g opacity="0.6">
<path d="M215.204 401.12C214.722 401.293 214.321 401.638 214.078 402.088C213.834 402.538 213.765 403.062 213.884 403.56C214.039 404.048 214.375 404.458 214.824 404.706C215.272 404.953 215.798 405.019 216.294 404.89C216.804 404.706 217.227 404.339 217.482 403.86C217.737 403.382 217.805 402.826 217.674 402.3C217.46 401.807 217.063 401.416 216.567 401.21C216.071 401.003 215.515 400.996 215.014 401.19" fill="white"/>
</g>
<g opacity="0.6">
<path d="M207.494 418.35L207.274 414.23L256.414 411.72C256.954 411.945 257.43 412.301 257.796 412.757C258.163 413.213 258.41 413.754 258.514 414.33L207.494 418.35Z" fill="white"/>
</g>
<path d="M231.844 402.26C231.844 402.51 230.614 402.68 229.434 403.54C228.254 404.4 227.644 405.48 227.434 405.39C227.224 405.3 227.484 403.81 228.954 402.81C230.424 401.81 231.894 402.03 231.844 402.26Z" fill="#263238"/>
<path d="M237.294 404.21C237.354 404.45 236.294 404.92 235.514 406.01C234.734 407.1 234.514 408.23 234.284 408.23C234.054 408.23 233.804 406.83 234.814 405.5C235.824 404.17 237.274 403.97 237.294 404.21Z" fill="#263238"/>
<path d="M240.624 410.45C240.404 410.51 240.004 409.29 240.574 407.9C241.144 406.51 242.274 405.9 242.394 406.11C242.514 406.32 241.824 407.11 241.394 408.22C240.964 409.33 240.874 410.41 240.624 410.45Z" fill="#263238"/>
<path d="M231.114 396.29C231.014 396.52 229.864 396.24 228.464 396.4C227.064 396.56 225.994 397.06 225.854 396.85C225.714 396.64 226.724 395.71 228.374 395.54C230.024 395.37 231.224 396.09 231.114 396.29Z" fill="#263238"/>
<g opacity="0.3">
<path d="M230.764 381.52L230.834 386.19L205.924 388.86L205.584 382.97L230.764 381.52Z" fill="black"/>
</g>
<path d="M230.954 391C230.129 391.264 229.248 391.302 228.404 391.11C227.479 390.989 226.573 390.757 225.704 390.42C225.188 390.218 224.687 389.981 224.204 389.71C223.908 389.568 223.638 389.379 223.404 389.15C223.233 388.982 223.122 388.763 223.09 388.526C223.057 388.289 223.104 388.047 223.224 387.84C223.338 387.66 223.494 387.509 223.679 387.401C223.863 387.294 224.071 387.231 224.284 387.22C224.619 387.2 224.956 387.227 225.284 387.3C226.755 387.59 228.13 388.243 229.284 389.2C230.514 390.2 230.964 391.14 230.884 391.2C230.804 391.26 230.164 390.54 228.884 389.7C228.161 389.211 227.378 388.818 226.554 388.53C226.07 388.359 225.571 388.232 225.064 388.15C224.524 388.03 224.064 388.05 223.934 388.3C223.934 388.39 223.884 388.43 224.004 388.58C224.182 388.742 224.38 388.88 224.594 388.99C225.04 389.249 225.501 389.483 225.974 389.69C226.783 390.045 227.623 390.323 228.484 390.52C229.319 390.614 230.145 390.774 230.954 391Z" fill="#263238"/>
<path d="M230.644 391.37C230.118 390.669 229.837 389.816 229.844 388.94C229.757 388.001 229.831 387.054 230.064 386.14C230.202 385.596 230.393 385.067 230.634 384.56C230.755 384.217 230.962 383.911 231.235 383.671C231.508 383.431 231.838 383.265 232.194 383.19C232.421 383.183 232.646 383.242 232.841 383.359C233.035 383.476 233.193 383.646 233.294 383.85C233.439 384.141 233.543 384.451 233.604 384.77C233.719 385.336 233.746 385.916 233.684 386.49C233.585 387.454 233.24 388.377 232.684 389.17C231.754 390.54 230.734 390.89 230.684 390.8C230.634 390.71 231.434 390.16 232.134 388.86C232.537 388.109 232.772 387.28 232.824 386.43C232.853 385.937 232.813 385.442 232.704 384.96C232.594 384.42 232.374 383.96 232.174 384.06C231.974 384.16 231.514 384.49 231.324 384.94C231.093 385.391 230.906 385.863 230.764 386.35C230.517 387.181 230.392 388.043 230.394 388.91C230.464 390.41 230.774 391.33 230.644 391.37Z" fill="#263238"/>
<path d="M103.634 286.29C103.634 286.29 186.234 272.58 189.914 272.01C204.074 269.83 220.234 271.56 225.624 281.72C228.441 289.239 230.051 297.157 230.394 305.18C231.074 317.67 236.034 391.66 236.034 391.66L201.954 397.33L190.734 315.46L171.494 319.07C172.574 318.94 121.494 328.07 106.074 329.68C94.1639 330.89 80.4339 324.47 77.6939 313.85C75.8939 306.91 71.9839 287.59 71.9839 287.59L103.634 286.29Z" fill="#263238"/>
<path d="M198.804 304.15C197.154 305.729 195.626 307.43 194.234 309.24C192.991 311.158 191.888 313.163 190.934 315.24C191.004 314.547 191.19 313.871 191.484 313.24C192.076 311.708 192.859 310.256 193.814 308.92C194.766 307.58 195.878 306.361 197.124 305.29C197.617 304.82 198.185 304.434 198.804 304.15Z" fill="#455A64"/>
<path d="M33.3039 146.18C32.0926 148.172 31.5074 150.482 31.6239 152.81C31.6239 155.08 33.1839 159.68 37.2039 159.91C36.1339 166.4 40.2939 171.19 47.2039 171.2C54.1139 171.21 62.0339 159.35 68.4439 156.75L87.0439 151.83C88.6739 151.45 89.3439 149.46 89.3139 147.83C89.2839 146.2 88.8539 144.41 89.4439 142.83C90.2539 140.68 92.7539 139.53 93.6039 137.39C94.6039 134.96 93.0739 132.26 91.3439 130.3C89.6139 128.34 87.5139 126.47 86.9639 123.92C86.4539 121.57 87.3639 118.92 86.1839 116.82C84.7439 114.24 80.9539 113.91 79.1839 111.54C78.3339 110.38 78.0639 108.88 77.1839 107.72C75.7539 105.72 72.9939 105.23 70.5639 105.49C68.1339 105.75 65.8039 106.64 63.3739 106.82C60.0339 107.06 56.5839 105.98 53.3739 106.95C49.8339 108.01 47.6839 111.15 45.3739 114.19L42.3739 117.71C41.7609 118.316 41.0912 118.862 40.3739 119.34C39.0373 120.029 37.7683 120.843 36.5839 121.77C36.0361 122.349 35.611 123.032 35.334 123.779C35.057 124.526 34.934 125.322 34.9723 126.117C35.0106 126.913 35.2094 127.693 35.5569 128.41C35.9043 129.127 36.3931 129.767 36.9939 130.29C35.7127 130.73 34.6078 131.573 33.8438 132.692C33.0799 133.811 32.6976 135.146 32.7539 136.5C32.7539 136.5 32.4239 139.58 34.3739 140.95C33.6248 141.568 33.11 142.424 32.9153 143.376C32.7207 144.328 32.8578 145.317 33.3039 146.18Z" fill="#263238"/>
<path d="M45.7639 152.47C44.0986 147.795 42.8438 142.983 42.0139 138.09C41.1834 133.175 41.589 128.13 43.1939 123.41C43.4539 122.71 45.6939 117.98 46.4339 118.05C46.9739 118.11 45.5939 122.52 45.8639 122.98C48.4439 127.41 49.1539 132.75 48.7339 137.86C48.2807 142.826 47.2745 147.727 45.7339 152.47" fill="#263238"/>
<path d="M58.0138 195.74C47.0138 194.36 45.7738 176.74 45.7738 176.74L45.2738 133.56C44.8738 121.13 51.7738 110.56 64.2138 110.47L65.3638 110.53C70.9366 110.837 76.1901 113.229 80.0806 117.23C83.9711 121.232 86.2141 126.551 86.3638 132.13C86.6538 142.91 86.8338 154.83 86.4538 160.58C85.6738 172.49 73.6538 173.71 73.6538 173.71C73.6538 173.71 73.3338 184.4 73.3738 188.08C73.5038 200.76 61.0538 196.02 57.9738 195.75L58.0138 195.74Z" fill="#FFBE9D"/>
<path d="M73.6938 173.7C68.187 173.392 62.8841 171.511 58.4138 168.28C58.4138 168.28 61.6238 177.66 73.5838 177.22L73.6938 173.7Z" fill="#EB996E"/>
<path d="M83.264 141.9C83.2458 142.344 83.0546 142.763 82.7312 143.068C82.4079 143.372 81.9782 143.538 81.534 143.53C81.3166 143.535 81.1003 143.497 80.8979 143.418C80.6955 143.338 80.5111 143.219 80.3555 143.067C80.1999 142.915 80.0762 142.734 79.9918 142.533C79.9074 142.333 79.8639 142.117 79.864 141.9C79.8822 141.456 80.0735 141.037 80.3968 140.732C80.7201 140.428 81.1498 140.262 81.594 140.27C81.8114 140.265 82.0277 140.303 82.2301 140.382C82.4325 140.462 82.6169 140.581 82.7725 140.733C82.9282 140.885 83.0518 141.066 83.1362 141.267C83.2206 141.467 83.2641 141.683 83.264 141.9Z" fill="#263238"/>
<path d="M83.594 136.94C83.364 137.15 82.134 136.12 80.294 136.03C78.454 135.94 77.074 136.78 76.884 136.54C76.694 136.3 77.034 136.05 77.644 135.66C78.462 135.148 79.4208 134.906 80.384 134.97C81.3378 135.019 82.2515 135.369 82.994 135.97C83.534 136.43 83.704 136.81 83.594 136.94Z" fill="#263238"/>
<path d="M66.0438 141.9C66.0256 142.344 65.8343 142.763 65.511 143.068C65.1877 143.372 64.758 143.538 64.3138 143.53C64.0964 143.535 63.8801 143.497 63.6777 143.418C63.4753 143.338 63.2909 143.219 63.1353 143.067C62.9796 142.915 62.856 142.734 62.7716 142.533C62.6872 142.333 62.6437 142.117 62.6438 141.9C62.662 141.456 62.8532 141.037 63.1766 140.732C63.4999 140.428 63.9296 140.262 64.3738 140.27C64.5912 140.265 64.8075 140.303 65.0099 140.382C65.2123 140.462 65.3967 140.581 65.5523 140.733C65.7079 140.885 65.8316 141.066 65.916 141.267C66.0004 141.467 66.0439 141.683 66.0438 141.9Z" fill="#263238"/>
<path d="M65.614 136.71C65.384 136.93 64.144 135.9 62.314 135.81C60.484 135.72 59.094 136.56 58.904 136.32C58.714 136.08 59.044 135.83 59.654 135.44C60.4757 134.927 61.4376 134.686 62.404 134.75C63.3578 134.799 64.2715 135.149 65.014 135.75C65.544 136.21 65.714 136.62 65.614 136.71Z" fill="#263238"/>
<path d="M71.424 151.14C72.4051 150.894 73.4126 150.77 74.424 150.77C74.894 150.77 75.334 150.67 75.424 150.36C75.4905 149.877 75.4067 149.384 75.184 148.95C74.804 147.8 74.414 146.59 73.994 145.32C72.344 140.14 71.174 135.9 71.384 135.84C71.594 135.78 73.104 139.91 74.754 145.09C75.144 146.36 75.524 147.58 75.884 148.74C76.1494 149.32 76.1991 149.976 76.024 150.59C75.9486 150.751 75.8372 150.892 75.6985 151.003C75.5598 151.114 75.3974 151.192 75.224 151.23C74.9617 151.289 74.6926 151.313 74.424 151.3C73.4213 151.377 72.4128 151.323 71.424 151.14Z" fill="#263238"/>
<path d="M65.9539 152.12C66.2539 152.12 66.1539 154.12 67.7739 155.61C69.3939 157.1 71.5339 157.01 71.5339 157.29C71.5339 157.41 71.0439 157.65 70.1439 157.62C68.9785 157.58 67.8654 157.126 67.0039 156.34C66.1754 155.586 65.6733 154.538 65.6039 153.42C65.5839 152.58 65.8339 152.1 65.9539 152.12Z" fill="#263238"/>
<path d="M65.9539 129.28C65.7539 129.76 63.9539 129.43 61.7739 129.57C59.5939 129.71 57.8339 130.21 57.5739 129.75C57.4639 129.53 57.7839 129.08 58.5139 128.63C59.4812 128.087 60.5597 127.773 61.6672 127.71C62.7747 127.648 63.8817 127.839 64.9039 128.27C65.6239 128.63 65.9539 129.04 65.9539 129.28Z" fill="#263238"/>
<path d="M83.164 130.81C82.814 131.2 81.574 130.71 80.064 130.6C78.554 130.49 77.244 130.73 76.974 130.28C76.854 130.06 77.074 129.66 77.664 129.28C78.4369 128.839 79.3285 128.65 80.214 128.74C81.1098 128.806 81.9611 129.157 82.644 129.74C83.164 130.17 83.314 130.61 83.164 130.81Z" fill="#263238"/>
<path d="M45.7739 142.43C45.5739 142.33 37.7139 139.57 37.5339 147.73C37.3539 155.89 45.5939 154.39 45.6139 154.15C45.6339 153.91 45.7739 142.43 45.7739 142.43Z" fill="#FFBE9D"/>
<path d="M43.184 151.01C43.184 151.01 43.044 151.1 42.794 151.21C42.4532 151.343 42.0749 151.343 41.734 151.21C40.874 150.87 40.184 149.49 40.174 148.01C40.176 147.32 40.3261 146.638 40.614 146.01C40.6954 145.755 40.8384 145.524 41.0302 145.337C41.2221 145.151 41.4569 145.014 41.714 144.94C41.8785 144.9 42.0518 144.919 42.2036 144.994C42.3554 145.069 42.4759 145.195 42.544 145.35C42.644 145.58 42.544 145.74 42.634 145.75C42.724 145.76 42.814 145.62 42.754 145.28C42.7131 145.076 42.6037 144.893 42.444 144.76C42.2229 144.587 41.9428 144.508 41.664 144.54C41.3266 144.598 41.0096 144.741 40.7434 144.957C40.4773 145.172 40.2709 145.452 40.144 145.77C39.7875 146.473 39.6025 147.251 39.604 148.04C39.604 149.68 40.434 151.24 41.604 151.61C41.821 151.678 42.0506 151.697 42.2758 151.664C42.5009 151.631 42.7156 151.548 42.904 151.42C43.164 151.2 43.214 151.02 43.184 151.01Z" fill="#EB996E"/>
<path d="M81.2939 118.53C82.6239 117.82 78.7139 113.53 75.4839 111.97C70.6039 109.69 63.1339 108.22 58.5939 109.44C53.1239 110.92 48.5939 113.57 45.7639 118.49C43.0752 123.498 41.7607 129.129 41.9539 134.81C41.8713 136.544 42.2473 138.268 43.0439 139.81C44.1639 141.63 46.3339 142.81 46.2039 145.28C46.1374 146.189 46.432 147.087 47.0239 147.78C48.4939 149.39 50.3439 147.92 51.2039 146.44C53.0439 143.26 53.2839 139.44 53.4939 135.78C53.7761 133.184 53.6342 130.56 53.0739 128.01C52.6939 126.65 52.0739 125.35 51.7639 124.01C51.5679 123.326 51.5228 122.608 51.6315 121.906C51.7403 121.203 52.0004 120.532 52.3939 119.94C52.597 119.7 52.8213 119.48 53.0639 119.28C54.2157 118.301 55.6073 117.646 57.0957 117.383C58.5842 117.119 60.116 117.256 61.5339 117.78C66.1139 119.46 73.9339 121.99 76.0039 120.46C79.0039 118.25 79.7039 116.8 79.7039 116.8L81.2939 118.53Z" fill="#263238"/>
<path d="M59.0338 108.34C61.2788 107.58 63.6518 107.271 66.0166 107.431C68.3813 107.59 70.6913 108.215 72.8138 109.27C73.9498 109.812 74.9649 110.578 75.7982 111.521C76.6316 112.464 77.2661 113.566 77.6638 114.76C78.3138 117.18 77.2438 120.15 74.9038 121.06L74.7438 121.16C71.2538 122.29 68.9938 121.79 65.5338 120.55C62.6238 119.5 60.0438 117.66 57.1338 116.63C54.0108 115.526 50.6288 115.384 47.4238 116.22C50.5343 112.619 54.5387 109.901 59.0338 108.34Z" fill="#263238"/>
<path d="M43.5039 116.41C43.5739 116.47 44.2339 115.69 45.5639 114.77C46.3319 114.234 47.1611 113.79 48.0339 113.45C49.084 113.015 50.2191 112.823 51.3539 112.89C53.4356 113.116 55.4096 113.931 57.0439 115.24C58.3139 116.24 58.8939 117.08 58.9739 117.02C59.0539 116.96 58.8839 116.77 58.6139 116.39C58.2301 115.858 57.7873 115.372 57.2939 114.94C55.6471 113.486 53.5885 112.581 51.4039 112.35C50.1873 112.275 48.9703 112.491 47.8539 112.98C46.9493 113.354 46.1011 113.852 45.3339 114.46C44.5944 114.975 43.971 115.639 43.5039 116.41Z" fill="#455A64"/>
<path d="M68.3838 107.6C69.0891 107.908 69.8101 108.178 70.5438 108.41C73.9857 109.784 76.9145 112.196 78.9238 115.31C79.6838 116.5 80.0538 117.31 80.1338 117.31C79.9793 116.538 79.6808 115.802 79.2538 115.14C77.372 111.801 74.3127 109.284 70.6738 108.08C69.9467 107.78 69.1702 107.617 68.3838 107.6Z" fill="#455A64"/>
<path d="M44.2139 166.81L42.7739 173.02L76.2439 193.81L74.7439 183.45C71.6986 180.324 68.2677 177.599 64.5339 175.34C58.1032 171.741 51.2867 168.88 44.2139 166.81Z" fill="#F5F5F5"/>
<path d="M41.5239 174.81C41.5239 174.81 31.2239 196.64 30.5239 204.93C29.8239 213.22 32.6039 240.81 32.6039 240.81L79.0639 293.81L125.434 296.89C125.434 296.89 103.484 250.73 98.5739 241.73C93.6639 232.73 77.1539 191.94 77.1539 191.94C75.8688 188.564 73.8856 185.497 71.3339 182.94C65.0439 176.27 52.8439 172.16 41.8639 169.94L41.5239 174.81Z" fill="#606060"/>
<path d="M59.214 184.13C66.104 184.94 74.954 190.13 78.024 202.24L81.024 217.24L95.874 247.38L144.524 261.26L138.204 280.32C138.204 280.32 89.954 276.49 83.704 274.81C77.454 273.13 51.514 236.34 51.514 236.34C51.514 236.34 38.514 213.93 41.864 197.42C43.524 189.18 50.714 183.13 59.214 184.13Z" fill="#606060"/>
<path d="M59.2138 184.13H58.0538C56.9183 184.102 55.7828 184.185 54.6638 184.38C52.8593 184.741 51.1328 185.418 49.5638 186.38C47.4396 187.7 45.6496 189.493 44.3338 191.62C43.5559 192.871 42.9378 194.215 42.4938 195.62C42.3694 195.991 42.2659 196.368 42.1838 196.75C42.0732 197.136 41.9929 197.531 41.9438 197.93C41.8338 198.74 41.7238 199.56 41.6038 200.4C41.366 204.082 41.6047 207.779 42.3138 211.4C43.1147 215.539 44.2827 219.598 45.8038 223.53C47.4567 227.928 49.4286 232.199 51.7038 236.31C55.4638 241.6 59.5538 247.18 63.9538 252.95C68.4862 259.023 73.3293 264.857 78.4638 270.43C79.8018 271.867 81.3095 273.137 82.9538 274.21C83.8393 274.626 84.7899 274.887 85.7638 274.98C86.7638 275.13 87.7638 275.3 88.7638 275.41C92.7638 275.94 96.9338 276.36 101.124 276.78C109.484 277.6 118.124 278.36 126.864 279.1L138.204 280.02L137.944 280.2C140.084 273.72 142.187 267.367 144.254 261.14L144.434 261.47L95.7938 247.56H95.6938V247.47L80.8838 217.3C80.2171 214.007 79.6071 210.883 79.0538 207.93C78.6154 205.142 77.9805 202.388 77.1538 199.69C75.7288 195.405 73.1178 191.611 69.6238 188.75C67.4033 186.945 64.8426 185.605 62.0938 184.81C61.3898 184.608 60.6755 184.445 59.9538 184.32L59.2138 184.18C59.2138 184.18 59.4738 184.18 59.9638 184.27C60.6929 184.368 61.4145 184.515 62.1238 184.71C64.8725 185.473 67.4377 186.786 69.6638 188.57C73.2109 191.436 75.8708 195.251 77.3338 199.57C78.1996 202.275 78.8681 205.039 79.3338 207.84C79.9271 210.787 80.5505 213.907 81.2038 217.2L96.0938 247.32L95.9538 247.21L144.614 261.06L144.864 261.13L144.784 261.38C142.724 267.6 140.62 273.957 138.474 280.45L138.404 280.64H138.204L126.864 279.72C118.084 278.97 109.484 278.22 101.114 277.39C96.9238 276.97 92.7938 276.54 88.7438 276.01C87.7438 275.9 86.7438 275.73 85.7438 275.58C85.2438 275.51 84.7438 275.39 84.2438 275.29C83.72 275.208 83.2173 275.025 82.7638 274.75C81.0911 273.628 79.56 272.309 78.2038 270.82C73.0582 265.23 68.2083 259.376 63.6738 253.28C59.2838 247.5 55.2038 241.91 51.4438 236.6C49.1706 232.466 47.202 228.171 45.5538 223.75C43.9866 219.756 42.7817 215.63 41.9538 211.42C41.2523 207.775 41.0271 204.053 41.2838 200.35C41.4038 199.5 41.5238 198.66 41.6338 197.85C41.6896 197.447 41.7766 197.049 41.8938 196.66C41.9779 196.271 42.0848 195.887 42.2138 195.51C42.6687 194.079 43.3038 192.711 44.1038 191.44C45.4456 189.295 47.271 187.493 49.4338 186.18C51.0237 185.21 52.7748 184.532 54.6038 184.18C55.7331 183.989 56.8803 183.925 58.0238 183.99C58.8238 184.08 59.2138 184.13 59.2138 184.13Z" fill="#263238"/>
<path d="M87.4739 259.02C87.6232 258.318 87.8796 257.644 88.2339 257.02C88.9825 255.462 89.8729 253.975 90.8939 252.58C91.9171 251.185 93.0651 249.887 94.3239 248.7C94.8123 248.173 95.3789 247.724 96.0039 247.37C96.1139 247.49 93.6639 249.66 91.3139 252.89C88.9639 256.12 87.6239 259.09 87.4739 259.02Z" fill="#263238"/>
<path d="M78.954 195.81C78.5275 195.429 78.1329 195.015 77.774 194.57C77.414 194.15 76.974 193.65 76.424 193.1C75.874 192.55 75.284 191.89 74.544 191.23C72.8851 189.648 71.1283 188.172 69.284 186.81C67.0137 185.156 64.635 183.656 62.164 182.32C57.6256 179.951 52.8663 178.032 47.954 176.59C46.074 176.03 44.534 175.59 43.474 175.34C42.9142 175.224 42.3654 175.06 41.834 174.85C42.4037 174.905 42.9686 175.002 43.524 175.14C44.604 175.35 46.154 175.72 48.054 176.23C53.0261 177.562 57.838 179.433 62.404 181.81C64.8993 183.152 67.2924 184.676 69.564 186.37C71.4119 187.762 73.1596 189.283 74.794 190.92C75.514 191.59 76.094 192.28 76.624 192.85C77.154 193.42 77.624 193.95 77.924 194.39C78.3046 194.835 78.649 195.31 78.954 195.81Z" fill="#263238"/>
<path d="M221.484 209.3C221.272 209.237 221.051 209.216 220.831 209.239C220.612 209.262 220.399 209.327 220.205 209.432C220.011 209.537 219.839 209.679 219.7 209.85C219.561 210.022 219.457 210.219 219.394 210.43L202.474 267.01L145.794 275.81C144.915 275.948 144.127 276.428 143.602 277.146C143.078 277.864 142.859 278.761 142.994 279.64L205.084 269.96L222.594 211.38C222.719 210.957 222.673 210.502 222.465 210.113C222.257 209.723 221.905 209.432 221.484 209.3Z" fill="#E0E0E0"/>
<path d="M221.484 209.3C221.874 209.395 222.213 209.635 222.434 209.97C222.57 210.175 222.661 210.407 222.7 210.65C222.74 210.893 222.728 211.142 222.664 211.38L222.114 213.29L218.464 225.73L205.314 270.03V269.97V270.19H205.084L205.264 270.03L205.194 270.25L204.984 270.18H205.074L144.194 279.81L143.034 279.99H142.784V279.73C142.666 278.965 142.796 278.181 143.156 277.496C143.516 276.81 144.087 276.258 144.784 275.92C145.129 275.756 145.496 275.645 145.874 275.59L146.924 275.43L149.014 275.1L157.304 273.81L173.304 271.32L202.444 266.81L202.264 266.97C207.604 249.24 212.044 234.48 215.164 224.13L218.814 212.13C219.021 211.463 219.211 210.853 219.384 210.3C219.47 210.072 219.604 209.865 219.776 209.692C219.949 209.52 220.156 209.386 220.384 209.3C220.747 209.157 221.151 209.157 221.514 209.3C221.147 209.217 220.763 209.249 220.414 209.39C220.207 209.478 220.019 209.607 219.864 209.771C219.71 209.934 219.59 210.128 219.514 210.34C219.354 210.873 219.174 211.483 218.974 212.17L215.444 224.17C212.374 234.53 207.984 249.31 202.724 267.06V267.19H202.584L173.344 271.81L157.344 274.31L149.054 275.6L146.964 275.93C146.28 275.989 145.607 276.14 144.964 276.38C144.367 276.669 143.878 277.141 143.569 277.728C143.26 278.314 143.146 278.984 143.244 279.64L142.944 279.43L144.104 279.25L205.044 269.81H205.094L204.814 269.96V269.82H204.954L204.764 270.08V269.99C210.264 251.7 214.864 236.44 218.084 225.73C219.704 220.4 220.984 216.21 221.864 213.33L222.444 211.43C222.507 211.206 222.523 210.971 222.49 210.74C222.457 210.509 222.377 210.288 222.254 210.09C222.08 209.757 221.812 209.482 221.484 209.3Z" fill="#263238"/>
<path d="M205.094 270C204.974 270.08 204.374 269.38 203.634 268.54C202.894 267.7 202.304 266.99 202.404 266.88C202.504 266.77 203.274 267.32 204.034 268.2C204.794 269.08 205.214 269.92 205.094 270Z" fill="#455A64"/>
<path d="M195.744 269.15C195.744 269.09 195.994 268.9 196.394 269.15C196.52 269.216 196.625 269.318 196.696 269.442C196.767 269.566 196.801 269.707 196.794 269.85C196.786 270.03 196.722 270.202 196.61 270.343C196.498 270.484 196.344 270.585 196.171 270.633C195.997 270.681 195.813 270.673 195.645 270.609C195.476 270.546 195.333 270.43 195.234 270.28C195.149 270.167 195.097 270.031 195.085 269.89C195.072 269.749 195.1 269.607 195.164 269.48C195.404 269.06 195.764 269.13 195.744 269.19C195.724 269.25 195.554 269.36 195.504 269.62C195.493 269.69 195.499 269.762 195.522 269.829C195.544 269.896 195.583 269.956 195.634 270.006C195.685 270.055 195.747 270.091 195.815 270.111C195.883 270.131 195.955 270.134 196.024 270.12C196.097 270.099 196.163 270.058 196.215 270.001C196.266 269.945 196.3 269.875 196.314 269.8C196.324 269.737 196.318 269.672 196.295 269.612C196.272 269.553 196.234 269.5 196.184 269.46C195.954 269.21 195.774 269.21 195.744 269.15Z" fill="#455A64"/>
<path d="M199.364 268.59C199.364 268.53 199.614 268.34 200.014 268.59C200.141 268.656 200.247 268.757 200.318 268.881C200.389 269.005 200.422 269.147 200.414 269.29C200.402 269.468 200.334 269.637 200.221 269.775C200.109 269.913 199.956 270.013 199.784 270.06C199.613 270.102 199.433 270.092 199.267 270.031C199.102 269.971 198.958 269.862 198.854 269.72C198.769 269.607 198.717 269.471 198.705 269.33C198.692 269.189 198.72 269.047 198.784 268.92C199.034 268.5 199.384 268.56 199.364 268.62C199.344 268.68 199.174 268.8 199.124 269.05C199.11 269.116 199.113 269.184 199.133 269.249C199.152 269.313 199.187 269.372 199.234 269.42C199.284 269.477 199.349 269.519 199.42 269.544C199.492 269.568 199.569 269.574 199.644 269.56C199.716 269.537 199.781 269.495 199.832 269.439C199.883 269.383 199.918 269.314 199.934 269.24C199.946 269.175 199.941 269.109 199.918 269.047C199.895 268.985 199.855 268.931 199.804 268.89C199.594 268.66 199.394 268.66 199.364 268.59Z" fill="#455A64"/>
<path d="M59.5239 343.11L36.5139 418.7L44.9039 418.78L75.9939 342.32L59.5239 343.11Z" fill="#263238"/>
<path d="M158.474 332.81C158.414 332.81 184.474 418.57 184.474 418.57L192.794 418.69L176.754 331.09L158.474 332.81Z" fill="#263238"/>
<path d="M23.5639 223.02C22.3085 221.861 20.7453 221.089 19.0621 220.796C17.3788 220.504 15.6468 220.703 14.0739 221.37C7.62391 224.12 -1.81609 229.76 0.30391 238.67C2.95391 249.81 33.4539 322.47 43.2939 345.81C44.1924 347.938 45.702 349.751 47.6317 351.02C49.5614 352.29 51.8243 352.958 54.1339 352.94L181.954 351.86C183.29 351.847 184.609 351.551 185.822 350.991C187.036 350.431 188.116 349.62 188.993 348.612C189.87 347.604 190.524 346.421 190.91 345.141C191.296 343.862 191.406 342.515 191.234 341.19L186.454 304.89C185.686 299.058 182.953 293.662 178.706 289.592C174.46 285.522 168.953 283.02 163.094 282.5L80.4339 275.16L23.5639 223.02Z" fill="#455A64"/>
<path d="M39.114 334.52C39.0805 334.433 39.057 334.342 39.044 334.25C39.044 334.05 38.954 333.8 38.884 333.48C38.744 332.76 38.554 331.76 38.314 330.48C37.844 327.84 37.164 324.1 36.314 319.48C35.464 314.86 34.514 309.29 33.434 303.15C32.904 300.08 32.334 296.85 31.754 293.51C31.464 291.83 31.164 290.13 30.864 288.4C30.4613 286.63 30.4137 284.798 30.724 283.01C30.9428 282.102 31.3632 281.254 31.954 280.53C32.5644 279.819 33.3084 279.234 34.144 278.81C35.7191 278.057 37.4092 277.574 39.144 277.38C42.544 277 45.804 276.81 48.924 276.58C55.154 276.15 60.764 275.87 65.484 275.68C70.204 275.49 74.024 275.41 76.664 275.37H79.664H80.454H80.724C80.6343 275.381 80.5437 275.381 80.454 275.37H79.664L76.664 275.49L65.504 275.97C60.784 276.2 55.174 276.52 48.954 276.97C45.854 277.21 42.564 277.42 39.214 277.8C37.5239 277.979 35.8768 278.446 34.344 279.18C33.5735 279.553 32.894 280.09 32.3532 280.753C31.8125 281.416 31.4236 282.19 31.214 283.02C30.9188 284.743 30.9698 286.507 31.364 288.21C31.6573 289.943 31.9473 291.643 32.234 293.31C32.814 296.643 33.364 299.86 33.884 302.96C34.884 309.11 35.884 314.64 36.654 319.31C37.424 323.98 38.044 327.69 38.474 330.31C38.674 331.58 38.834 332.59 38.944 333.31C38.944 333.63 39.024 333.89 39.054 334.1C39.1016 334.235 39.122 334.377 39.114 334.52Z" fill="#263238"/>
<path d="M185.434 331.09C185.434 331.23 152.434 331.35 111.704 331.35C70.9739 331.35 37.9539 331.23 37.9539 331.09C37.9539 330.95 70.9539 330.83 111.694 330.83C152.434 330.83 185.434 330.95 185.434 331.09Z" fill="#263238"/>
<path d="M53.8039 276.32C53.6939 276.42 43.6039 264.81 31.2639 250.4C18.9239 235.99 9.00394 224.23 9.11394 224.13C9.22394 224.03 19.3139 235.64 31.6539 250.06C43.9939 264.48 53.9539 276.23 53.8039 276.32Z" fill="#263238"/>
</svg>
