<svg width="647" height="607" viewBox="0 0 647 607" fill="none" xmlns="http://www.w3.org/2000/svg">
<path d="M520.755 178.054C521.215 174.694 516.465 171.924 512.905 171.634C511.205 171.504 509.435 171.764 507.825 171.204C504.335 169.984 502.935 165.474 499.535 164.034C496.985 162.964 494.055 163.914 491.585 165.164C489.115 166.414 486.685 167.964 483.925 168.164C481.525 168.314 478.925 167.424 476.825 168.604C475.255 169.474 474.435 171.274 472.995 172.334C471.493 173.259 469.757 173.731 467.995 173.694C466.24 173.647 464.493 173.932 462.845 174.534C461.245 175.264 459.935 176.954 460.265 178.674L520.755 178.054Z" fill="#FAFAFA"/>
<path d="M451.245 219.724C452.195 212.724 442.395 207.064 435.025 206.464C431.515 206.184 427.865 206.724 424.535 205.564C417.325 203.054 414.445 193.734 407.415 190.764C402.155 188.544 396.095 190.524 391.005 193.094C385.915 195.664 380.865 198.884 375.165 199.254C370.165 199.564 364.835 197.734 360.495 200.154C357.265 201.954 355.575 205.674 352.595 207.874C349.615 210.074 345.885 210.474 342.265 210.674C338.645 210.874 334.915 210.904 331.625 212.414C328.335 213.924 325.625 217.414 326.285 220.954L451.245 219.724Z" fill="#EBEBEB"/>
<path d="M322.005 172.424C322.595 168.144 316.555 164.624 312.005 164.264C309.835 164.084 307.595 164.414 305.545 163.704C301.105 162.154 299.325 156.424 294.995 154.594C291.755 153.224 287.995 154.444 284.885 156.024C281.775 157.604 278.645 159.594 275.135 159.814C272.085 160.014 268.775 158.884 266.135 160.374C264.135 161.484 263.135 163.774 261.265 165.124C259.395 166.474 257.135 166.734 254.905 166.854C252.675 166.974 250.375 166.994 248.355 167.924C246.335 168.854 244.645 170.994 245.065 173.184L322.005 172.424Z" fill="#F5F5F5"/>
<path d="M249.104 445.305C248.187 443.619 246.968 442.117 245.508 440.872L256.971 434.269C257.599 433.963 258.15 433.52 258.584 432.973C258.801 432.695 258.919 432.353 258.919 432.001C258.919 431.649 258.801 431.307 258.584 431.029C258.328 430.824 258.03 430.677 257.711 430.599C257.392 430.52 257.06 430.513 256.738 430.576C254.498 430.75 252.294 431.243 250.193 432.04L252.94 427.75C253.323 427.154 253.711 426.377 253.329 425.806C252.947 425.236 252.033 425.249 251.385 425.45C249.926 425.891 248.603 426.694 247.538 427.786C246.474 428.877 245.704 430.22 245.3 431.69C245.422 428.505 245.088 425.32 244.309 422.229C244.089 421.355 243.745 420.389 242.922 420.02C242.493 419.873 242.027 419.868 241.594 420.005C241.161 420.143 240.784 420.416 240.518 420.784C239.997 421.532 239.674 422.399 239.579 423.305C238.629 428.739 239.129 434.327 241.03 439.505C238.736 439.667 236.494 440.918 234.505 442.246C227.218 447.175 221.012 453.536 216.264 460.941C216.264 460.941 206.738 477.011 218.726 486.044C222.562 488.928 227.098 490.859 231.893 490.878C236.689 490.898 241.399 489.673 246.026 488.41C249.726 487.399 253.647 486.213 256.109 483.271C259.304 479.454 259.051 473.862 258.118 468.97C256.522 460.614 253.471 452.604 249.104 445.305Z" fill="#263238"/>
<path d="M173.871 452.465L174.046 463.76H267.028V452.465H173.871Z" fill="#FF725E"/>
<path d="M176.969 460.708L189.281 576.641C189.402 577.789 189.944 578.85 190.802 579.622C191.66 580.394 192.773 580.821 193.927 580.821H254.016L259.608 460.708H176.969Z" fill="#FF725E"/>
<path d="M203.161 508.932C203.161 508.932 200.64 511.439 201.8 514.116C202.96 516.792 206.757 521.924 206.757 521.924C207.397 518.757 208.776 515.787 210.781 513.254L213.043 514.505L210.6 504.966L201.431 507.681L203.161 508.932Z" fill="white"/>
<path d="M207.878 523.933C208.271 524.577 208.797 525.129 209.423 525.55C210.048 525.972 210.757 526.254 211.501 526.376C214.093 526.816 219.711 526.492 219.711 526.492L219.607 517.984L209.738 518.107C208.576 519.832 207.93 521.853 207.878 523.933Z" fill="white"/>
<path d="M231.265 495.797C231.265 495.797 230.481 492.336 227.597 491.909C224.713 491.481 218.344 491.954 218.344 491.954C220.679 494.183 222.455 496.931 223.528 499.976L221.266 501.227L230.688 504.214L233.28 495L231.265 495.797Z" fill="white"/>
<path d="M216.05 491.818C215.296 491.805 214.548 491.956 213.859 492.262C213.169 492.567 212.555 493.02 212.058 493.587C210.315 495.531 207.593 500.475 207.593 500.475L214.851 504.914L220.002 496.49C219.157 494.588 217.786 492.967 216.05 491.818Z" fill="white"/>
<path d="M230.001 526.415C230.001 526.415 233.455 527.251 235.133 524.86C236.812 522.468 239.19 516.546 239.19 516.546C236.157 517.658 232.904 518.038 229.697 517.654L229.573 515.062L222.724 522.138L229.852 528.527L230.001 526.415Z" fill="white"/>
<path d="M240.311 514.537C240.654 513.865 240.848 513.127 240.88 512.373C240.911 511.619 240.779 510.867 240.492 510.169C239.52 507.752 236.287 503.119 236.287 503.119L229.1 507.655L234.369 516.001C236.448 516.09 238.51 515.582 240.311 514.537Z" fill="white"/>
<path d="M263.781 463.792C263.781 463.889 243.693 463.961 218.914 463.961C194.134 463.961 174.046 463.889 174.046 463.792C174.046 463.695 194.134 463.624 218.914 463.624C243.693 463.624 263.781 463.669 263.781 463.792Z" fill="#263238"/>
<path d="M266.373 452.465C266.373 452.556 245.637 452.633 220.126 452.633C194.614 452.633 173.871 452.556 173.871 452.465C173.871 452.374 194.575 452.297 220.126 452.297C245.676 452.297 266.373 452.368 266.373 452.465Z" fill="#263238"/>
<g opacity="0.3">
<path d="M259.725 463.792C248.015 464.57 235.943 466.546 224.234 467.317C208.876 468.335 192.961 469.261 178.582 463.792H259.725Z" fill="black"/>
</g>
<path d="M572.106 581.269C572.106 581.425 474.93 581.54 355.068 581.54C235.207 581.54 138 581.425 138 581.269C138 581.112 235.165 580.997 355.068 580.997C474.972 580.997 572.106 581.123 572.106 581.269Z" fill="#263238"/>
<path d="M373.024 355.974L369.122 361.533L368.062 365.987L372.035 371.688L379.572 367.056L386.137 360.606C386.344 360.406 386.47 360.137 386.493 359.85C386.516 359.563 386.434 359.278 386.262 359.047L385.193 357.559L385.327 357.248C385.516 356.828 385.552 356.355 385.431 355.911C385.309 355.467 385.035 355.08 384.658 354.816L383.705 354.147L387.269 349.586C387.517 349.272 387.657 348.886 387.666 348.486C387.676 348.086 387.555 347.693 387.322 347.368L378.244 354.272L374.324 354.192L373.024 355.974Z" fill="#E2A891"/>
<path d="M385.371 357.426C385.025 357.853 384.602 358.213 384.124 358.486C383.637 358.831 383.118 359.129 382.574 359.377C382.213 359.537 381.812 359.581 381.425 359.501C381.208 359.451 381.01 359.341 380.852 359.183C380.695 359.026 380.585 358.827 380.534 358.611C380.457 358.182 380.553 357.74 380.801 357.381C380.999 357.081 381.226 356.8 381.478 356.544L382.681 355.252C383.021 354.829 383.42 354.457 383.866 354.147C383.618 354.632 383.3 355.076 382.921 355.466L381.799 356.82C381.371 357.319 380.855 357.88 380.979 358.513C381.011 358.655 381.084 358.784 381.188 358.885C381.293 358.987 381.425 359.055 381.567 359.083C381.865 359.152 382.177 359.124 382.458 359.003C382.986 358.776 383.498 358.514 383.991 358.219C384.424 357.91 384.886 357.644 385.371 357.426Z" fill="#AA6550"/>
<path d="M386.351 360.143C386.351 360.143 385.95 360.633 385.193 361.31C384.758 361.738 384.274 362.112 383.75 362.424C383.573 362.538 383.375 362.616 383.167 362.654C382.96 362.691 382.747 362.688 382.541 362.643C382.335 362.598 382.14 362.513 381.966 362.393C381.793 362.273 381.645 362.12 381.531 361.942C381.45 361.733 381.42 361.507 381.445 361.283C381.47 361.06 381.548 360.846 381.674 360.66C381.865 360.343 382.086 360.044 382.333 359.769C382.729 359.311 383.17 358.896 383.652 358.53C384.068 358.156 384.56 357.877 385.095 357.711C384.705 358.092 384.291 358.45 383.857 358.78C383.423 359.17 383.021 359.593 382.654 360.045C382.435 360.298 382.239 360.569 382.066 360.856C381.978 360.985 381.921 361.132 381.9 361.286C381.878 361.441 381.892 361.598 381.941 361.746C382.017 361.877 382.123 361.989 382.25 362.071C382.377 362.153 382.521 362.204 382.672 362.219C382.98 362.248 383.29 362.186 383.563 362.04C384.072 361.767 384.55 361.438 384.988 361.06C385.393 360.688 385.853 360.378 386.351 360.143Z" fill="#AA6550"/>
<path d="M375.572 363.421C376.039 362.946 376.435 362.406 376.748 361.818C377.047 361.15 377.185 360.42 377.149 359.689C377.187 358.787 376.94 357.895 376.445 357.141L376.097 356.686L376.659 356.784C377.163 356.864 377.677 356.864 378.182 356.784C378.891 356.676 379.563 356.398 380.142 355.974C380.644 355.602 380.983 355.049 381.086 354.432L381.282 354.646C379.937 354.602 378.823 354.557 378.039 354.513C377.628 354.517 377.218 354.469 376.819 354.37C377.223 354.286 377.636 354.253 378.048 354.272C378.832 354.272 379.946 354.272 381.282 354.272H381.496V354.486C381.454 354.85 381.337 355.202 381.153 355.519C380.969 355.836 380.722 356.112 380.427 356.33C379.796 356.805 379.054 357.112 378.271 357.221C377.72 357.319 377.156 357.319 376.605 357.221L376.81 356.865C377.365 357.697 377.629 358.69 377.558 359.689C377.573 360.472 377.392 361.246 377.033 361.942C376.79 362.4 376.46 362.805 376.062 363.136C375.794 363.359 375.616 363.439 375.572 363.421Z" fill="#AA6550"/>
<path d="M336.81 323.796C336.666 323.419 336.611 323.013 336.65 322.611C336.708 322.146 336.866 321.699 337.113 321.302C337.466 320.777 337.872 320.291 338.325 319.849C338.899 319.297 339.385 318.66 339.768 317.961C340.218 317.098 340.476 316.148 340.525 315.177C340.575 314.205 340.414 313.234 340.053 312.331C339.634 311.344 339.131 310.397 338.548 309.498C337.975 308.629 337.505 307.696 337.149 306.718C336.821 305.823 336.744 304.856 336.926 303.921C337.309 302.139 338.289 300.678 338.708 299.297C339.151 298.225 339.239 297.038 338.957 295.912C338.871 295.597 338.739 295.297 338.565 295.021C338.441 294.843 338.361 294.763 338.343 294.772C338.527 295.136 338.673 295.518 338.779 295.912C338.976 297.001 338.843 298.124 338.396 299.137C337.915 300.455 336.908 301.872 336.463 303.787C336.256 304.797 336.327 305.844 336.668 306.816C337.035 307.829 337.517 308.798 338.102 309.703C338.673 310.578 339.171 311.498 339.59 312.455C339.951 313.341 340.106 314.298 340.044 315.253C339.991 316.117 339.767 316.961 339.385 317.738C339.029 318.41 338.579 319.028 338.049 319.573C337.592 320.042 337.191 320.562 336.855 321.123C336.606 321.56 336.459 322.047 336.427 322.549C336.413 322.854 336.468 323.158 336.588 323.44C336.712 323.707 336.802 323.805 336.81 323.796Z" fill="#263238"/>
<path d="M311.635 316.58C311.348 317.365 310.837 318.049 310.166 318.548C309.495 319.047 308.692 319.338 307.858 319.386C307.023 319.412 306.195 319.235 305.444 318.871C304.693 318.506 304.042 317.964 303.546 317.293C302.56 315.926 302.139 314.232 302.37 312.562C302.529 311.834 302.58 311.087 302.522 310.344C302.343 309.293 301.515 308.455 301.194 307.44C300.615 305.605 301.862 303.565 303.591 302.718C305.388 301.982 307.38 301.872 309.247 302.406" fill="#263238"/>
<path d="M337.381 293.578C339.162 295.199 338.664 297.489 337.951 299.057C337.238 300.625 336.374 302.219 336.454 303.948C336.534 305.676 337.586 307.244 338.165 308.91C338.894 311.031 338.843 313.343 338.022 315.431C337.407 316.99 336.383 318.353 335.759 319.885C335.136 321.417 334.984 323.359 336.027 324.669C335.563 324.597 335.123 324.418 334.741 324.146C334.359 323.873 334.045 323.516 333.826 323.101C333.4 322.274 333.178 321.358 333.176 320.428C333.051 316.865 334.557 313.346 333.933 309.854C333.568 307.823 332.499 305.916 332.517 303.858C332.534 301.801 333.648 299.912 334.414 297.988C335.18 296.063 335.572 293.703 334.307 292.063" fill="#263238"/>
<path d="M332.811 287.101C333.867 287.14 334.901 287.424 335.828 287.931C336.756 288.438 337.553 289.155 338.156 290.023C338.733 290.91 338.976 291.974 338.84 293.024C338.705 294.073 338.2 295.04 337.416 295.752C335.848 296.981 333.523 296.741 331.786 295.752C330.484 295.047 329.463 293.919 328.891 292.554C328.617 291.87 328.512 291.13 328.583 290.397C328.654 289.664 328.9 288.958 329.301 288.34C329.718 287.731 330.314 287.267 331.007 287.012C331.699 286.756 332.454 286.722 333.167 286.914" fill="#263238"/>
<path d="M334.512 286.79C333.932 285.562 333.092 284.474 332.051 283.602C331.01 282.73 329.792 282.094 328.481 281.738C325.849 281.059 323.085 281.08 320.463 281.801C317.854 282.528 315.314 283.485 312.873 284.661C311.024 285.354 309.308 286.364 307.804 287.645C306.433 289.046 305.44 290.771 304.918 292.66C303.849 296.17 303.938 298.683 305.604 301.952C306.334 303.369 305.898 305.026 306.557 306.478C307.216 307.93 309.996 309.551 309.23 310.932" fill="#263238"/>
<path d="M328.837 330.771C328.935 323.644 328.926 320.972 328.935 320.972C328.944 320.972 335.073 319.939 336.321 311.93C336.944 307.948 336.73 301.409 336.383 296.072C336.071 291.271 332.873 285.382 328.089 285.899L313.14 289.712C312.439 289.785 311.791 290.121 311.325 290.65C310.86 291.18 310.611 291.866 310.628 292.571V330.754" fill="#E2A891"/>
<path d="M334.592 301.551C334.593 301.819 334.49 302.076 334.306 302.27C334.122 302.464 333.871 302.58 333.604 302.593C333.345 302.616 333.088 302.534 332.889 302.367C332.69 302.2 332.566 301.961 332.543 301.703C332.538 301.435 332.638 301.177 332.821 300.982C333.004 300.787 333.256 300.672 333.523 300.66C333.782 300.64 334.039 300.722 334.239 300.889C334.438 301.055 334.565 301.293 334.592 301.551Z" fill="#263238"/>
<path d="M334.975 298.968C334.851 299.101 334.085 298.522 332.962 298.531C331.84 298.54 331.047 299.092 330.931 298.959C330.815 298.825 331.002 298.656 331.35 298.398C331.828 298.065 332.397 297.887 332.98 297.89C333.556 297.885 334.119 298.066 334.584 298.406C334.922 298.665 335.038 298.905 334.975 298.968Z" fill="#263238"/>
<path d="M324.125 301.551C324.127 301.819 324.026 302.078 323.841 302.272C323.657 302.467 323.404 302.582 323.136 302.593C322.878 302.613 322.622 302.531 322.424 302.365C322.226 302.198 322.101 301.96 322.076 301.703C322.073 301.435 322.175 301.176 322.359 300.982C322.544 300.787 322.797 300.672 323.065 300.66C323.323 300.64 323.578 300.723 323.777 300.889C323.975 301.056 324.1 301.293 324.125 301.551Z" fill="#263238"/>
<path d="M324.107 299.716C323.982 299.85 323.216 299.271 322.094 299.28C320.971 299.288 320.178 299.841 320.062 299.707C319.947 299.573 320.134 299.404 320.481 299.146C320.959 298.813 321.529 298.636 322.111 298.638C322.687 298.636 323.249 298.817 323.715 299.155C324.053 299.413 324.169 299.654 324.107 299.716Z" fill="#263238"/>
<path d="M328.142 307.903C328.721 307.722 329.319 307.611 329.924 307.573C330.209 307.573 330.476 307.493 330.521 307.297C330.542 307.006 330.477 306.715 330.334 306.46L329.488 304.313C328.713 302.492 328.084 300.612 327.608 298.692C328.525 300.446 329.306 302.269 329.942 304.144C330.221 304.904 330.488 305.625 330.744 306.308C330.922 306.648 330.975 307.038 330.895 307.413C330.853 307.512 330.79 307.601 330.71 307.674C330.63 307.746 330.535 307.8 330.432 307.832C330.275 307.872 330.113 307.893 329.951 307.894C329.351 307.972 328.743 307.975 328.142 307.903Z" fill="#263238"/>
<path d="M328.935 320.981C325.164 321.05 321.447 320.069 318.2 318.148C318.2 318.148 320.918 323.644 328.935 322.878V320.981Z" fill="#AA6550"/>
<path d="M324.597 296.473C324.481 296.776 323.377 296.634 322.085 296.794C320.793 296.954 319.742 297.311 319.564 297.043C319.492 296.91 319.671 296.634 320.089 296.34C320.654 295.985 321.292 295.761 321.955 295.686C322.618 295.61 323.29 295.684 323.92 295.903C324.401 296.09 324.642 296.331 324.597 296.473Z" fill="#263238"/>
<path d="M334.592 296.286C334.396 296.536 333.63 296.286 332.713 296.286C331.795 296.286 331.029 296.455 330.842 296.197C330.655 295.939 330.886 295.814 331.225 295.574C331.68 295.287 332.211 295.144 332.748 295.164C333.287 295.169 333.811 295.344 334.245 295.663C334.539 295.903 334.646 296.161 334.592 296.286Z" fill="#263238"/>
<path d="M327.67 310.451C327.473 310.205 327.217 310.013 326.926 309.891C326.635 309.77 326.318 309.723 326.004 309.756C325.545 309.806 325.124 310.033 324.828 310.388C324.692 310.562 324.613 310.772 324.6 310.992C324.587 311.212 324.642 311.43 324.757 311.618C324.921 311.803 325.137 311.935 325.377 311.995C325.617 312.055 325.87 312.042 326.102 311.956C326.589 311.785 327.038 311.519 327.421 311.172C327.539 311.089 327.638 310.983 327.715 310.861C327.753 310.804 327.774 310.737 327.774 310.669C327.774 310.601 327.753 310.534 327.715 310.478" fill="#AA6550"/>
<path d="M325.069 308.678C325.238 308.678 325.238 309.792 326.201 310.584C327.163 311.377 328.347 311.253 328.356 311.404C328.365 311.556 328.098 311.627 327.59 311.636C326.942 311.644 326.311 311.423 325.809 311.012C325.316 310.616 324.996 310.045 324.918 309.417C324.864 308.954 324.989 308.678 325.069 308.678Z" fill="#263238"/>
<path d="M334.762 288.963C334.379 291.493 330.379 291.912 327.858 291.422C327.016 292.498 325.917 293.346 324.663 293.886C323.408 294.426 322.037 294.642 320.677 294.513C320.314 294.438 319.938 294.454 319.581 294.558C319.241 294.757 318.956 295.039 318.753 295.377C317.69 296.796 316.137 297.768 314.397 298.103C314.204 299.371 313.637 300.551 312.769 301.494C311.901 302.437 310.771 303.099 309.524 303.395C309.524 303.395 308.695 302.985 308.989 299.752C309.135 296.427 309.115 293.097 308.927 289.774L317.666 285.756L328.151 283.796C328.151 283.796 335.412 284.634 334.762 288.963Z" fill="#263238"/>
<path d="M305.738 302.326C305.811 301.553 305.994 300.794 306.281 300.072C306.633 299.252 307.176 298.527 307.867 297.961C308.747 297.226 309.826 296.77 310.967 296.651H311.101V296.509C311.403 295.103 312.127 293.823 313.176 292.839C313.756 292.303 314.479 291.948 315.257 291.815C316.035 291.682 316.835 291.778 317.559 292.09L317.809 292.215L317.898 291.948L317.996 291.663C318.409 290.587 319.109 289.645 320.02 288.94C320.931 288.235 322.018 287.793 323.163 287.663C323.679 287.615 324.2 287.63 324.713 287.707C325.238 287.796 325.776 287.769 326.29 287.627C326.759 287.44 327.17 287.132 327.483 286.736C327.741 286.402 328.04 286.103 328.374 285.845C328.893 285.478 329.484 285.226 330.108 285.107C330.731 284.987 331.374 285.002 331.991 285.15C332.448 285.28 332.89 285.456 333.31 285.676C333.31 285.676 333.221 285.578 333.016 285.427C332.711 285.231 332.382 285.078 332.036 284.972C331.387 284.776 330.703 284.729 330.033 284.834C329.364 284.939 328.727 285.193 328.169 285.578C327.43 286.041 326.993 286.977 326.156 287.262C325.319 287.547 324.25 287.093 323.109 287.262C321.877 287.392 320.705 287.86 319.722 288.615C318.74 289.369 317.985 290.381 317.541 291.538L317.435 291.85L317.773 291.707C316.965 291.351 316.071 291.239 315.201 291.385C314.33 291.53 313.521 291.927 312.873 292.527C311.761 293.58 311.004 294.953 310.709 296.455L310.878 296.295C309.665 296.44 308.525 296.95 307.608 297.756C306.466 298.778 305.772 300.208 305.675 301.738C305.663 301.936 305.684 302.135 305.738 302.326Z" fill="#455A64"/>
<path d="M319.573 293.836C319.778 293.954 320.005 294.03 320.241 294.059C320.865 294.183 321.504 294.216 322.138 294.157C323.202 294.07 324.236 293.765 325.176 293.259C326.116 292.753 326.941 292.058 327.599 291.217L327.305 291.288L327.564 291.404C328.69 291.875 329.932 291.993 331.127 291.743C332.099 291.527 333.001 291.067 333.746 290.407C334.244 289.968 334.658 289.443 334.967 288.856C335.102 288.65 335.188 288.415 335.216 288.17C334.748 288.903 334.181 289.569 333.532 290.148C332.81 290.737 331.953 291.138 331.038 291.315C329.924 291.527 328.772 291.409 327.724 290.977L327.483 290.861L327.305 290.781L327.189 290.932C325.926 292.526 324.092 293.568 322.076 293.836C321.243 293.902 320.406 293.902 319.573 293.836Z" fill="#455A64"/>
<path d="M324.089 289.097C324.089 289.24 325.265 289.097 326.628 289.462C327.991 289.827 328.989 290.353 329.069 290.237C328.461 289.563 327.634 289.125 326.735 288.999C325.869 288.722 324.933 288.757 324.089 289.097Z" fill="#455A64"/>
<path d="M327.118 288.839C327.225 288.919 327.635 288.58 328.151 288.215C328.668 287.85 329.114 287.556 329.042 287.431C328.971 287.306 328.419 287.431 327.848 287.832C327.278 288.233 327.02 288.759 327.118 288.839Z" fill="#455A64"/>
<path d="M314.673 293.498C314.717 293.623 315.733 293.293 317.016 293.337C318.299 293.382 319.287 293.747 319.341 293.623C318.659 293.15 317.855 292.887 317.025 292.865C316.196 292.843 315.379 293.063 314.673 293.498Z" fill="#455A64"/>
<path d="M312.454 297.783C313.557 297.946 314.683 297.798 315.706 297.355C316.783 297.064 317.756 296.474 318.512 295.654C318.432 295.547 317.212 296.331 315.546 296.91C313.88 297.489 312.445 297.649 312.454 297.783Z" fill="#455A64"/>
<path d="M306.976 300.847C307.641 300.408 308.338 300.018 309.06 299.68C309.832 299.481 310.619 299.344 311.412 299.271C311.021 299.08 310.591 298.981 310.156 298.981C309.721 298.981 309.291 299.08 308.9 299.271C307.519 299.725 306.869 300.803 306.976 300.847Z" fill="#455A64"/>
<path d="M307.136 289.346C307.136 289.346 307.27 289.079 307.555 288.652C307.977 288.062 308.529 287.578 309.167 287.235C311.344 286.175 313.739 285.638 316.16 285.667C318.591 285.677 321.01 285.997 323.359 286.62C325.14 287.075 326.289 287.422 326.307 287.351C326.079 287.202 325.83 287.088 325.568 287.012C325.069 286.816 324.347 286.567 323.448 286.3C321.084 285.569 318.625 285.197 316.151 285.195C313.662 285.168 311.208 285.782 309.025 286.977C308.358 287.361 307.805 287.914 307.421 288.58C307.265 288.809 307.167 289.072 307.136 289.346Z" fill="#455A64"/>
<path d="M306.486 293.685C306.825 292.896 307.24 292.141 307.724 291.431C309.004 289.797 310.774 288.617 312.775 288.064C314.79 287.551 316.879 287.392 318.949 287.591C319.815 287.7 320.686 287.76 321.559 287.77C320.724 287.498 319.86 287.327 318.984 287.262C316.868 286.955 314.712 287.073 312.641 287.609C310.546 288.187 308.712 289.467 307.448 291.235C307.076 291.781 306.793 292.382 306.61 293.017C306.526 293.229 306.484 293.456 306.486 293.685Z" fill="#455A64"/>
<path d="M336.499 297.034C337.101 296.841 337.621 296.452 337.978 295.93C338.476 295.341 338.824 294.639 338.993 293.886C339.161 293.133 339.144 292.35 338.943 291.605C338.743 290.86 338.364 290.174 337.841 289.607C337.318 289.04 336.664 288.608 335.938 288.349C335.364 288.075 334.715 288 334.094 288.135C334.675 288.265 335.247 288.438 335.804 288.652C336.455 288.925 337.036 289.344 337.5 289.877C337.965 290.409 338.302 291.04 338.486 291.722C338.67 292.404 338.696 293.12 338.561 293.813C338.427 294.507 338.136 295.161 337.71 295.725C337.334 296.186 336.93 296.624 336.499 297.034Z" fill="#455A64"/>
<path d="M303.804 309.613C303.849 309.533 303.011 309.159 301.818 308.366C301.127 307.901 300.544 307.293 300.107 306.585C299.845 306.171 299.682 305.703 299.631 305.216C299.58 304.729 299.642 304.237 299.813 303.778C300.159 302.847 300.856 302.089 301.755 301.667C302.508 301.348 303.336 301.25 304.143 301.382C304.897 301.543 305.625 301.807 306.308 302.166C306.308 302.166 306.165 301.97 305.827 301.729C305.332 301.406 304.783 301.176 304.205 301.052C303.328 300.857 302.412 300.931 301.577 301.266C301.069 301.489 300.612 301.812 300.232 302.216C299.853 302.621 299.559 303.097 299.368 303.618C299.174 304.142 299.105 304.705 299.169 305.261C299.232 305.816 299.426 306.349 299.733 306.816C300.223 307.549 300.875 308.159 301.64 308.598C302.136 308.9 302.658 309.159 303.199 309.373C303.573 309.578 303.787 309.64 303.804 309.613Z" fill="#263238"/>
<path d="M303.412 309.676C303.27 309.897 303.159 310.137 303.083 310.388C302.831 311.052 302.619 311.73 302.45 312.42C302.182 313.454 302.071 314.523 302.121 315.591C302.178 316.926 302.627 318.215 303.412 319.297C303.82 319.837 304.335 320.286 304.926 320.616C305.516 320.945 306.169 321.149 306.842 321.212C307.395 321.26 307.951 321.176 308.466 320.967C308.98 320.758 309.437 320.43 309.8 320.01C310.302 319.463 310.596 318.756 310.628 318.014C310.655 317.745 310.605 317.473 310.486 317.23C310.441 317.23 310.486 317.515 310.441 317.996C310.317 318.828 309.878 319.581 309.215 320.098C308.552 320.616 307.715 320.858 306.878 320.776C306.269 320.704 305.68 320.509 305.149 320.203C304.618 319.896 304.154 319.485 303.786 318.994C303.061 317.983 302.635 316.788 302.557 315.547C302.487 314.517 302.562 313.482 302.78 312.473C303.154 310.763 303.51 309.703 303.412 309.676Z" fill="#263238"/>
<path d="M314.521 298.095C315.599 299.974 314.984 302.353 314.103 304.331C313.221 306.308 312.054 308.268 312.098 310.433C312.16 314.059 315.572 317.07 315.323 320.687C315.232 321.765 314.818 322.79 314.137 323.631C313.455 324.471 312.537 325.087 311.501 325.399C313.149 324.152 313.167 321.631 312.392 319.716C311.617 317.8 308.178 312.82 307.599 310.807C305.684 304.144 306.299 303.324 308.49 300.812" fill="#263238"/>
<path d="M308.285 303.271C308.285 303.333 308.766 303.413 309.542 303.271C310.556 303.054 311.482 302.54 312.203 301.794C312.923 301.048 313.405 300.105 313.586 299.084C313.72 298.308 313.586 297.827 313.586 297.827C313.457 298.215 313.356 298.611 313.283 299.012C313.03 299.934 312.549 300.777 311.884 301.463C311.219 302.15 310.392 302.658 309.479 302.941C309.074 303.023 308.675 303.133 308.285 303.271Z" fill="#455A64"/>
<path d="M312.223 323.208C312.223 323.208 312.312 323.163 312.455 323.039C312.657 322.856 312.836 322.65 312.989 322.424C313.559 321.568 313.825 320.545 313.746 319.52C313.705 318.805 313.484 318.113 313.105 317.506C312.649 316.846 312.11 316.247 311.501 315.725C310.858 315.179 310.324 314.517 309.925 313.774C309.522 312.974 309.306 312.094 309.292 311.199C309.282 310.303 309.487 309.417 309.889 308.616C310.291 307.863 310.759 307.148 311.288 306.478C312.215 305.319 312.968 304.032 313.524 302.656C313.893 301.719 314.086 300.723 314.094 299.716C314.106 299.345 314.057 298.975 313.951 298.62C313.967 299.96 313.716 301.29 313.212 302.531C312.625 303.857 311.857 305.095 310.931 306.21C310.379 306.897 309.893 307.633 309.479 308.411C309.037 309.273 308.811 310.23 308.82 311.199C308.831 312.17 309.069 313.125 309.515 313.988C309.94 314.774 310.511 315.473 311.198 316.045C311.794 316.53 312.324 317.09 312.775 317.711C313.132 318.26 313.349 318.886 313.408 319.538C313.511 320.501 313.312 321.472 312.838 322.317C312.49 322.914 312.196 323.181 312.223 323.208Z" fill="#455A64"/>
<path d="M307.484 303.066C307.484 303.066 307.279 303.19 307.011 303.511C306.632 303.972 306.331 304.493 306.121 305.052C305.455 306.923 305.481 308.971 306.192 310.825C306.921 312.639 308.012 314.285 309.399 315.662C309.918 316.269 310.518 316.803 311.181 317.248C310.701 316.623 310.183 316.028 309.631 315.466C308.357 314.066 307.341 312.453 306.628 310.7C305.964 308.936 305.892 307.003 306.423 305.195C306.703 304.451 307.058 303.737 307.484 303.066Z" fill="#455A64"/>
<path d="M368.187 361.64L361.478 364.82L353.015 369.372C349.505 359.101 349.657 348.152 348.401 344.001C344.454 330.958 337.149 329.818 337.149 329.818V329.925C336.939 329.774 336.708 329.654 336.463 329.569L330.298 327.653L330.102 324.304L309.265 324.794L309.087 328.999L302.521 330.094C300.491 330.405 298.564 331.194 296.899 332.396C295.234 333.598 293.879 335.178 292.945 337.007C292.811 337.266 292.695 337.542 292.579 337.818C288.286 348.348 278.887 371.519 278.156 373.969C275.626 382.548 284.74 390.076 292.695 388.321C294.261 387.81 295.799 387.215 297.301 386.539C297.282 387.592 297.487 388.638 297.904 389.605C298.32 390.573 298.938 391.441 299.715 392.151C300.318 392.778 301.123 393.172 301.987 393.265L340.196 393.488C341.229 393.488 342.316 392.597 343.189 391.644C344.947 392.373 346.894 392.514 348.739 392.045C352.044 391.376 355.492 389.514 356.294 388.713L375.67 370.486L368.187 361.64ZM301.221 367.466L300.873 369.141L298.744 369.283L301.265 360.865V366.949C301.269 367.122 301.254 367.296 301.221 367.466Z" fill="#CFCFCF"/>
<path d="M311.118 368.463L310.227 368.553L307.626 368.784L298.798 369.506H298.45L298.566 369.176C298.842 368.348 299.109 367.492 299.386 366.602C300.579 362.611 301.595 358.958 302.415 356.348C302.824 355.038 303.172 353.987 303.43 353.265C303.538 352.879 303.694 352.508 303.893 352.161C303.83 352.555 303.732 352.942 303.599 353.319C303.368 354.147 303.083 355.19 302.709 356.437C301.978 359.109 301.016 362.735 299.804 366.735C299.537 367.626 299.261 368.517 298.976 369.319L298.744 369.016C302.308 368.757 305.372 368.561 307.59 368.455C309.809 368.348 311.154 368.348 311.118 368.463Z" fill="#263238"/>
<path d="M315.403 378.049C315.126 378.255 314.827 378.431 314.513 378.575L311.965 379.884C309.809 380.971 306.887 382.557 303.582 384.258C300.76 385.7 297.799 386.852 294.744 387.697C293.577 388 292.615 388.232 291.947 388.347C291.608 388.445 291.257 388.496 290.905 388.499C290.905 388.428 292.348 388.08 294.655 387.376C297.661 386.445 300.579 385.253 303.377 383.813C306.664 382.156 309.613 380.579 311.822 379.564C312.918 379.047 313.809 378.673 314.441 378.388C314.75 378.242 315.072 378.129 315.403 378.049Z" fill="#263238"/>
<path d="M339.358 365.96C339.278 365.916 340.071 364.793 340.837 362.744C341.823 360.082 342.159 357.224 341.817 354.406C341.584 352.858 341.269 351.323 340.873 349.809C340.525 348.401 340.231 347.136 340.08 346.023C339.947 345.156 339.887 344.28 339.902 343.404C339.887 343.082 339.926 342.759 340.018 342.45C340.084 343.644 340.211 344.833 340.401 346.014C340.597 347.083 340.917 348.348 341.292 349.747C341.721 351.274 342.052 352.827 342.28 354.397C342.644 357.286 342.255 360.22 341.149 362.913C340.819 363.723 340.416 364.501 339.946 365.239C339.786 365.506 339.588 365.749 339.358 365.96Z" fill="#263238"/>
<path d="M339.554 366.602C339.082 367.953 338.903 369.389 339.029 370.815C339.187 372.353 339.587 373.856 340.214 375.27C340.882 376.891 341.817 378.593 342.672 380.454C343.534 382.199 344.089 384.08 344.312 386.013C344.483 387.618 344.173 389.236 343.421 390.664C342.931 391.63 342.193 392.447 341.283 393.033C341.036 393.189 340.773 393.317 340.499 393.416C340.312 393.479 340.214 393.506 340.205 393.488C340.196 393.47 340.579 393.31 341.185 392.882C342.02 392.264 342.69 391.451 343.136 390.512C343.801 389.128 344.054 387.582 343.866 386.058C343.627 384.18 343.076 382.356 342.236 380.659C341.39 378.815 340.454 377.096 339.804 375.439C339.178 373.979 338.799 372.426 338.681 370.842C338.603 369.774 338.727 368.701 339.047 367.68C339.131 367.4 339.241 367.128 339.376 366.869C339.483 366.691 339.537 366.602 339.554 366.602Z" fill="#263238"/>
<path d="M339.661 332.125C340.016 333.204 340.14 334.345 340.027 335.475C340.062 336.61 339.855 337.74 339.421 338.789C339.397 337.676 339.445 336.564 339.563 335.457C339.527 334.346 339.56 333.233 339.661 332.125Z" fill="#263238"/>
<path d="M350.182 381.167C349.952 380.6 349.826 379.997 349.808 379.385C349.673 377.92 349.76 376.442 350.067 375.002C350.37 373.565 350.893 372.183 351.617 370.904C351.877 370.352 352.24 369.853 352.686 369.435C350.653 372.99 349.778 377.091 350.182 381.167Z" fill="#263238"/>
<path d="M304.57 338.789C304.481 338.789 304.481 338.219 304.089 337.417C303.551 336.386 302.775 335.498 301.827 334.825C300.915 334.105 299.852 333.602 298.717 333.355C298.523 333.326 298.326 333.308 298.129 333.301C297.96 333.301 297.809 333.301 297.684 333.301C297.559 333.301 297.319 333.399 297.301 333.373C297.283 333.346 297.39 333.266 297.631 333.123C297.787 333.069 297.948 333.027 298.112 332.998C298.325 332.98 298.54 332.98 298.753 332.998C299.982 333.165 301.142 333.66 302.112 334.433C303.124 335.143 303.914 336.125 304.392 337.266C304.624 337.738 304.686 338.276 304.57 338.789Z" fill="#263238"/>
<g opacity="0.3">
<path d="M303.92 366.664C303.11 363.073 302.762 359.394 302.887 355.715L302.548 356.383L301.265 360.838L300.873 369.114L308.267 368.793C307.05 367.685 305.542 366.946 303.92 366.664Z" fill="black"/>
</g>
<path d="M330.022 328.268C330.084 328.408 330.116 328.56 330.116 328.713C330.116 328.867 330.084 329.018 330.022 329.159C329.892 329.547 329.673 329.9 329.384 330.19C329.096 330.481 328.744 330.701 328.356 330.834C325.817 331.641 323.164 332.035 320.499 332.001C317.838 331.99 315.193 331.585 312.651 330.798C311.885 330.56 311.132 330.28 310.397 329.961C310.12 329.855 309.857 329.718 309.613 329.551C309.613 329.48 310.807 329.952 312.749 330.442C315.276 331.122 317.881 331.476 320.499 331.493C323.114 331.518 325.719 331.179 328.241 330.486C328.61 330.386 328.952 330.205 329.242 329.955C329.532 329.705 329.762 329.394 329.915 329.043C329.986 328.791 330.022 328.53 330.022 328.268Z" fill="#263238"/>
<path d="M314.263 370.682C314.352 370.771 313.791 371.519 312.998 372.357C312.205 373.194 311.493 373.8 311.395 373.711C311.297 373.622 311.867 372.873 312.66 372.036C313.452 371.198 314.165 370.593 314.263 370.682Z" fill="#FAFAFA"/>
<path d="M321.096 359.84C320.063 360.654 318.935 361.339 317.737 361.88C316.619 362.564 315.422 363.111 314.174 363.51C315.216 362.705 316.345 362.021 317.541 361.47C318.662 360.796 319.854 360.25 321.096 359.84Z" fill="#FAFAFA"/>
<path d="M327.465 368.74C327.615 367.849 327.917 366.99 328.356 366.201C328.669 365.346 329.13 364.552 329.719 363.858C329.548 364.751 329.228 365.609 328.775 366.397C328.476 367.247 328.033 368.039 327.465 368.74Z" fill="#FAFAFA"/>
<g opacity="0.3">
<path d="M297.435 388.16C299.497 389.174 301.86 389.389 304.072 388.766C306.258 388.131 308.336 387.17 310.236 385.915C311.319 385.162 312.525 384.604 313.8 384.267C315.24 384.084 316.702 384.187 318.103 384.57C321.443 385.238 324.927 385.782 328.223 384.935C331.519 384.089 334.601 381.523 335.038 378.147C335.207 376.784 334.753 375.136 333.452 374.699C332.594 374.344 331.697 374.09 330.779 373.942C316.615 375.091 297.355 386.566 297.372 386.958" fill="black"/>
</g>
<path d="M361.496 548.773L365.086 576.657L352.454 577.459L345.96 550.706L361.496 548.773Z" fill="#E2A891"/>
<path d="M351.269 572.051C351.269 572.051 360.926 577.102 364.454 571.16L365.924 573.628L373.469 591.632C373.719 592.194 373.756 592.828 373.572 593.415C373.388 594.002 372.997 594.502 372.472 594.821C372.066 595.051 371.602 595.16 371.137 595.135C370.671 595.109 370.222 594.951 369.844 594.679C365.746 591.721 350.752 580.782 350.646 579.035L350.075 574.439C350.02 573.974 350.103 573.503 350.316 573.086C350.528 572.668 350.86 572.324 351.269 572.096V572.051Z" fill="#616161"/>
<path opacity="0.6" d="M372.053 594.955L350.423 577.396L350.565 578.394C350.619 579.499 351.153 579.864 351.759 580.488C353.541 582.341 358.432 586.376 369.772 594.643C370.097 594.88 370.475 595.032 370.873 595.086C371.271 595.141 371.677 595.096 372.053 594.955Z" fill="white"/>
<g opacity="0.6">
<path d="M352.793 574.038C353.111 574.212 353.354 574.497 353.477 574.838C353.6 575.179 353.594 575.553 353.461 575.891C353.3 576.218 353.021 576.471 352.68 576.599C352.338 576.727 351.961 576.719 351.626 576.577C351.286 576.391 351.026 576.087 350.897 575.722C350.767 575.357 350.776 574.958 350.922 574.599C351.124 574.275 351.445 574.043 351.816 573.952C352.187 573.86 352.578 573.917 352.908 574.109" fill="white"/>
</g>
<path d="M365.202 585.387C365.354 585.432 365.71 584.122 366.984 583.258C367.811 582.796 368.718 582.494 369.657 582.367C369.657 582.305 369.345 582.162 368.766 582.162C368.026 582.184 367.308 582.419 366.699 582.839C366.085 583.247 365.605 583.826 365.318 584.505C365.131 585.022 365.149 585.378 365.202 585.387Z" fill="#263238"/>
<path d="M367.331 588.291C367.456 588.381 368.106 587.508 369.282 586.982C370.028 586.732 370.786 586.524 371.554 586.358C371.158 586.184 370.725 586.107 370.293 586.134C369.861 586.16 369.441 586.289 369.069 586.51C367.732 587.133 367.198 588.291 367.331 588.291Z" fill="#263238"/>
<path d="M361.505 581.77C362.409 580.962 363.371 580.22 364.383 579.552C366.12 578.554 367.786 578.403 367.768 578.243C366.497 578.18 365.234 578.482 364.129 579.114C363.025 579.745 362.123 580.679 361.532 581.806L361.505 581.77Z" fill="#263238"/>
<path d="M360.311 576.14C360.4 576.274 361.621 575.543 363.313 575.249C365.006 574.955 366.405 575.169 366.44 575.018C365.413 574.634 364.3 574.536 363.221 574.733C362.142 574.931 361.136 575.417 360.311 576.14Z" fill="#263238"/>
<path d="M364.276 575.062C364.261 574.75 364.176 574.446 364.026 574.171C363.69 573.412 363.205 572.728 362.601 572.158C362.198 571.696 361.652 571.383 361.051 571.267C360.848 571.248 360.644 571.291 360.468 571.392C360.291 571.492 360.149 571.645 360.062 571.828C359.924 572.196 359.924 572.601 360.062 572.969C360.368 573.711 360.923 574.324 361.632 574.703C362.34 575.082 363.158 575.202 363.946 575.044C364.72 574.872 365.426 574.474 365.973 573.899C366.52 573.325 366.885 572.601 367.019 571.82C367.054 571.622 367.045 571.42 366.994 571.226C366.944 571.033 366.852 570.852 366.725 570.697C366.579 570.555 366.392 570.463 366.19 570.434C365.989 570.405 365.783 570.441 365.603 570.537C365.086 570.842 364.659 571.278 364.365 571.802C363.918 572.499 363.592 573.267 363.403 574.073C363.313 574.361 363.283 574.664 363.313 574.964C363.624 573.918 364.083 572.923 364.676 572.007C364.948 571.558 365.328 571.184 365.781 570.92C365.878 570.868 365.99 570.849 366.099 570.865C366.208 570.881 366.309 570.931 366.387 571.009C366.464 571.116 366.518 571.237 366.545 571.366C366.573 571.495 366.574 571.628 366.547 571.757C366.414 572.426 366.091 573.043 365.617 573.534C365.143 574.026 364.539 574.37 363.875 574.528C363.209 574.659 362.519 574.56 361.917 574.248C361.315 573.936 360.837 573.428 360.561 572.808C360.468 572.549 360.468 572.266 360.561 572.007C360.607 571.904 360.684 571.819 360.782 571.763C360.879 571.707 360.992 571.683 361.104 571.695C361.61 571.793 362.074 572.045 362.431 572.416C363.197 573.183 363.822 574.078 364.276 575.062Z" fill="#263238"/>
<path d="M322.69 547.544L323.047 576.113L307.617 575.526L305.328 547.882L322.69 547.544Z" fill="#E2A891"/>
<path d="M307.35 572.078C307.35 572.078 290.227 578.492 290.049 581.619L323.162 581.557V572.897L321.951 573.183C317.084 574.303 311.992 573.918 307.35 572.078Z" fill="#616161"/>
<g opacity="0.6">
<path d="M319.359 574.528C319.668 574.634 319.929 574.848 320.093 575.131C320.257 575.415 320.312 575.748 320.25 576.069C320.165 576.392 319.96 576.67 319.677 576.845C319.393 577.021 319.053 577.081 318.726 577.013C318.388 576.911 318.1 576.687 317.918 576.384C317.737 576.08 317.676 575.72 317.746 575.374C317.871 575.048 318.116 574.783 318.432 574.633C318.747 574.484 319.108 574.462 319.439 574.572" fill="white"/>
</g>
<g opacity="0.6">
<path d="M323.154 581.557V578.884L291.314 579.944C291.314 579.944 289.845 580.586 290.014 581.628L323.154 581.557Z" fill="white"/>
</g>
<path d="M306.806 571.909C306.806 572.069 307.626 572.14 308.419 572.657C309.212 573.174 309.639 573.86 309.791 573.788C309.942 573.717 309.702 572.791 308.722 572.185C307.742 571.579 306.771 571.757 306.806 571.909Z" fill="#263238"/>
<path d="M303.341 573.352C303.341 573.503 304 573.779 304.553 574.465C305.105 575.151 305.265 575.873 305.443 575.864C305.622 575.855 305.702 574.973 305.007 574.082C304.312 573.191 303.341 573.191 303.341 573.352Z" fill="#263238"/>
<path d="M301.372 577.512C301.524 577.512 301.746 576.737 301.328 575.855C300.909 574.973 300.152 574.617 300.089 574.75C300.027 574.884 300.49 575.356 300.82 576.087C301.15 576.817 301.212 577.494 301.372 577.512Z" fill="#263238"/>
<path d="M307.172 571.811C307.713 571.966 308.287 571.966 308.829 571.811C309.427 571.701 310.01 571.522 310.566 571.276C310.891 571.128 311.207 570.958 311.51 570.768C311.7 570.667 311.872 570.535 312.018 570.376C312.13 570.258 312.198 570.105 312.211 569.943C312.223 569.781 312.181 569.62 312.089 569.486C312.007 569.373 311.9 569.282 311.776 569.218C311.652 569.155 311.516 569.121 311.376 569.12C311.165 569.12 310.955 569.15 310.753 569.209C310.401 569.296 310.058 569.415 309.728 569.566C309.167 569.817 308.649 570.156 308.196 570.572C307.43 571.285 307.172 571.891 307.225 571.918C307.279 571.944 307.671 571.463 308.454 570.875C308.908 570.531 309.405 570.249 309.933 570.038C310.24 569.915 310.555 569.816 310.878 569.744C311.234 569.655 311.528 569.646 311.617 569.806C311.706 569.967 311.617 569.886 311.617 569.993C311.509 570.105 311.386 570.201 311.252 570.278C310.964 570.46 310.666 570.627 310.361 570.777C309.846 571.03 309.309 571.236 308.757 571.392C308.219 571.492 307.689 571.632 307.172 571.811Z" fill="#263238"/>
<path d="M307.377 572.042C307.439 572.042 307.76 571.49 307.813 570.439C307.838 569.836 307.763 569.234 307.59 568.657C307.48 568.309 307.337 567.972 307.163 567.65C307.073 567.432 306.928 567.24 306.742 567.093C306.557 566.946 306.336 566.85 306.103 566.813C305.955 566.817 305.811 566.862 305.688 566.944C305.566 567.026 305.468 567.141 305.408 567.276C305.327 567.47 305.27 567.674 305.239 567.882C305.164 568.378 305.189 568.883 305.311 569.37C305.434 569.856 305.651 570.313 305.951 570.715C306.602 571.606 307.279 571.757 307.288 571.704C307.296 571.65 306.78 571.312 306.281 570.492C305.996 570.016 305.817 569.484 305.755 568.933C305.711 568.614 305.711 568.29 305.755 567.971C305.809 567.624 305.942 567.338 306.076 567.374C306.21 567.41 306.521 567.632 306.655 567.918C306.818 568.201 306.956 568.5 307.065 568.808C307.253 569.339 307.364 569.894 307.394 570.456C307.466 571.41 307.296 572.015 307.377 572.042Z" fill="#263238"/>
<path d="M352.721 425.817C352.035 410.378 340.178 393.514 340.178 393.514L321.933 391.982V391.92H321.55L300.57 393.63C300.57 393.63 291.323 413.781 293.729 437.799C296.134 461.816 304.25 550.163 304.25 550.163H323.492L323.902 422.343L343.385 554.519H362.654C362.654 554.519 353.407 441.3 352.721 425.817Z" fill="#263238"/>
<path d="M301.907 548.007L304.588 561.031L324.187 560.969L325.372 548.969L301.907 548.007Z" fill="#455A64"/>
<path d="M342.093 552.167L346.387 566.849L364.632 564.301L363.679 547.793L342.093 552.167Z" fill="#455A64"/>
<path d="M324.686 422.227C324.686 422.227 324.588 422.227 324.401 422.227C324.127 422.169 323.869 422.054 323.644 421.888C322.867 421.216 322.353 420.292 322.191 419.278C321.746 416.792 321.301 413.363 320.909 409.559C320.517 405.755 320.223 402.307 320.018 399.813C319.929 398.557 319.866 397.55 319.84 396.846C319.793 396.485 319.793 396.12 319.84 395.759C319.934 396.112 319.994 396.473 320.018 396.837C320.098 397.621 320.214 398.619 320.338 399.777C320.606 402.37 320.953 405.764 321.336 409.514C321.719 413.265 322.12 416.757 322.485 419.207C322.61 420.168 323.045 421.063 323.724 421.755C324.016 421.964 324.341 422.123 324.686 422.227Z" fill="#455A64"/>
<path d="M323.056 394.842C323.056 394.842 323.207 394.726 323.519 394.681C323.964 394.636 324.412 394.74 324.793 394.975C325.087 395.154 325.341 395.394 325.536 395.678C325.731 395.962 325.863 396.284 325.924 396.624C326.004 397.042 325.931 397.475 325.719 397.844C325.492 398.252 325.13 398.567 324.695 398.735C324.293 398.904 323.848 398.946 323.422 398.855C322.995 398.764 322.606 398.545 322.307 398.227C322.09 397.955 321.941 397.636 321.871 397.295C321.802 396.955 321.814 396.602 321.906 396.267C322.013 395.823 322.252 395.422 322.592 395.118C322.842 394.922 323.011 394.877 323.02 394.895C322.621 395.285 322.345 395.784 322.227 396.33C322.169 396.613 322.174 396.905 322.243 397.186C322.313 397.466 322.444 397.728 322.628 397.951C322.877 398.186 323.188 398.345 323.524 398.408C323.861 398.472 324.208 398.436 324.526 398.307C324.849 398.203 325.126 397.988 325.305 397.699C325.485 397.41 325.556 397.067 325.506 396.73C325.46 396.443 325.358 396.167 325.205 395.92C325.052 395.672 324.851 395.457 324.615 395.287C324.144 395.001 323.606 394.848 323.056 394.842Z" fill="#455A64"/>
<path d="M313.212 367.751L311.35 358.691C311.315 358.521 311.319 358.345 311.361 358.177C311.403 358.009 311.482 357.852 311.592 357.718C311.702 357.584 311.841 357.477 311.997 357.403C312.154 357.329 312.326 357.291 312.499 357.292L335.938 357.408C336.101 357.408 336.263 357.443 336.412 357.51C336.561 357.577 336.695 357.674 336.804 357.796C336.913 357.918 336.996 358.061 337.046 358.217C337.096 358.373 337.113 358.537 337.096 358.7L334.673 379.457C334.626 379.853 334.435 380.217 334.136 380.481C333.836 380.744 333.45 380.887 333.051 380.882L317.764 380.766C317.406 380.762 317.06 380.64 316.778 380.42C316.496 380.199 316.295 379.892 316.205 379.546L313.212 367.751Z" fill="#455A64"/>
<path d="M311.118 362.985C311.616 362.983 312.103 363.131 312.515 363.411C312.926 363.691 313.244 364.089 313.425 364.553C313.809 365.55 314.37 366.726 314.993 367.065C316.143 367.688 318.129 368.196 319.18 367.68C320.232 367.163 324.41 363.403 325.14 363.822C325.871 364.241 326.503 365.176 325.773 366.014C325.042 366.851 321.167 369.363 321.898 370.201C322.628 371.038 330.806 367.359 332.053 367.68C333.301 368 334.04 368.775 333.309 369.283C332.579 369.791 327.029 371.875 326.717 372.606C326.717 372.606 335.082 370.414 335.403 370.931C335.724 371.448 336.24 372.294 335.403 372.606C334.566 372.918 327.385 374.806 326.717 375.118C325.678 375.554 324.593 375.871 323.483 376.062C323.261 376.062 321.621 376.615 320.116 377.132C318.42 377.721 316.568 377.674 314.904 376.998L314.013 376.65C313.371 376.387 312.827 375.929 312.456 375.342C312.086 374.754 311.908 374.066 311.947 373.372L312.125 370.521L311.234 368.161L311.118 362.985Z" fill="#E2A891"/>
<path d="M325.185 360.784C325.185 360.962 325.131 361.136 325.031 361.284C324.931 361.431 324.789 361.545 324.624 361.611C324.458 361.677 324.277 361.692 324.103 361.653C323.929 361.615 323.771 361.526 323.648 361.397C323.525 361.268 323.444 361.105 323.415 360.929C323.386 360.754 323.41 360.573 323.484 360.411C323.559 360.25 323.68 360.114 323.832 360.021C323.984 359.929 324.161 359.885 324.338 359.893C324.567 359.905 324.782 360.004 324.94 360.17C325.097 360.335 325.185 360.556 325.185 360.784Z" fill="#FAFAFA"/>
<path d="M401.593 355.983C402.91 350.299 399.453 344.603 393.872 343.261C388.29 341.919 382.697 345.44 381.38 351.125C380.062 356.809 383.519 362.505 389.101 363.847C394.683 365.189 400.275 361.668 401.593 355.983Z" stroke="#858585" stroke-width="3" stroke-miterlimit="10"/>
<path d="M572.922 352.497H400.705V354.585H572.922V352.497Z" fill="#858585"/>
<path d="M392.504 344.145H390.454V331.617C390.453 331.48 390.479 331.343 390.53 331.216C390.581 331.089 390.656 330.973 390.751 330.876L453.457 267.192C453.552 267.095 453.666 267.018 453.791 266.966C453.916 266.915 454.049 266.888 454.184 266.889H511.416V268.977H454.605L392.504 332.045V344.145Z" fill="#858585"/>
<path d="M541.144 449.589H464.261C464.126 449.59 463.993 449.563 463.868 449.512C463.743 449.46 463.629 449.383 463.533 449.286L390.751 375.162C390.656 375.065 390.581 374.949 390.53 374.822C390.479 374.695 390.453 374.558 390.454 374.421V363.981H392.504V373.993L464.681 447.501H541.144V449.589Z" fill="#858585"/>
<path d="M489.889 382.773H448.71C448.441 382.772 448.184 382.663 447.993 382.47L420.315 354.46L421.76 352.977L449.141 380.685H489.889V382.773Z" fill="#858585"/>
<path d="M461.401 354.366L459.945 352.894L487.531 324.612C487.727 324.421 487.987 324.313 488.259 324.309H529.868V326.397H488.689L461.401 354.366Z" fill="#858585"/>
<path d="M618.027 301.341H455.271C455.135 301.34 455.001 301.312 454.876 301.259C454.751 301.205 454.638 301.126 454.543 301.028L438.203 284.219L439.659 282.747L455.701 299.253H618.027V301.341Z" fill="#858585"/>
<path d="M472.841 268.674L471.437 267.192L498.089 240.048C498.185 239.951 498.299 239.874 498.424 239.823C498.549 239.771 498.682 239.744 498.817 239.745H584.198V241.833H499.197L472.841 268.674Z" fill="#858585"/>
<path d="M489.509 500.745L448.157 458.641C447.975 458.454 447.868 458.204 447.859 457.941V432.885H449.91V457.513L490.914 499.273L489.509 500.745Z" fill="#858585"/>
<path d="M480.191 448.952L478.736 447.501L505.921 419.637C506.118 419.446 506.378 419.338 506.649 419.334H609.826V421.422H507.08L480.191 448.952Z" fill="#858585"/>
<path d="M575.997 478.821H530.042C529.907 478.822 529.773 478.795 529.648 478.744C529.524 478.692 529.41 478.615 529.314 478.518L500.437 449.109L501.893 447.637L530.462 476.733H575.997V478.821Z" fill="#858585"/>
<path d="M584.198 245.571C586.791 245.571 588.893 243.43 588.893 240.789C588.893 238.148 586.791 236.008 584.198 236.008C581.605 236.008 579.503 238.148 579.503 240.789C579.503 243.43 581.605 245.571 584.198 245.571Z" fill="#858585"/>
<path d="M520.642 278.978C518.497 278.978 516.4 278.331 514.616 277.117C512.833 275.903 511.443 274.178 510.622 272.16C509.801 270.142 509.586 267.921 510.005 265.778C510.423 263.635 511.456 261.667 512.973 260.123C514.49 258.578 516.422 257.526 518.526 257.1C520.63 256.673 522.81 256.892 524.792 257.728C526.774 258.564 528.468 259.98 529.66 261.796C530.851 263.613 531.487 265.748 531.487 267.933C531.487 270.862 530.345 273.672 528.311 275.743C526.277 277.815 523.518 278.978 520.642 278.978ZM520.642 258.975C518.902 258.975 517.202 259.501 515.755 260.485C514.309 261.469 513.182 262.868 512.516 264.505C511.85 266.142 511.676 267.943 512.015 269.681C512.355 271.418 513.192 273.014 514.422 274.267C515.653 275.52 517.22 276.373 518.926 276.718C520.632 277.064 522.4 276.887 524.008 276.209C525.615 275.531 526.988 274.383 527.955 272.91C528.921 271.436 529.437 269.705 529.437 267.933C529.434 265.558 528.507 263.281 526.858 261.602C525.209 259.923 522.974 258.978 520.642 258.975Z" fill="#858585"/>
<path d="M520.642 272.715C523.235 272.715 525.337 270.574 525.337 267.933C525.337 265.292 523.235 263.151 520.642 263.151C518.049 263.151 515.947 265.292 515.947 267.933C515.947 270.574 518.049 272.715 520.642 272.715Z" fill="#858585"/>
<path d="M622.722 300.475C622.72 301.42 622.443 302.343 621.926 303.128C621.408 303.913 620.674 304.524 619.816 304.885C618.958 305.245 618.015 305.338 617.105 305.152C616.194 304.967 615.359 304.511 614.703 303.841C614.048 303.172 613.602 302.32 613.421 301.393C613.241 300.466 613.334 299.505 613.69 298.632C614.046 297.759 614.648 297.013 615.419 296.488C616.191 295.963 617.099 295.683 618.027 295.683C618.644 295.683 619.256 295.807 619.826 296.048C620.396 296.288 620.914 296.642 621.35 297.087C621.786 297.532 622.132 298.06 622.367 298.642C622.603 299.223 622.723 299.846 622.722 300.475Z" fill="#858585"/>
<path d="M529.868 330.135C532.461 330.135 534.563 327.994 534.563 325.353C534.563 322.712 532.461 320.571 529.868 320.571C527.275 320.571 525.173 322.712 525.173 325.353C525.173 327.994 527.275 330.135 529.868 330.135Z" fill="#858585"/>
<path d="M582.148 364.587C580.003 364.587 577.906 363.939 576.123 362.725C574.339 361.511 572.949 359.786 572.128 357.768C571.307 355.75 571.092 353.529 571.511 351.386C571.929 349.244 572.962 347.275 574.479 345.731C575.996 344.186 577.928 343.134 580.032 342.708C582.136 342.282 584.317 342.5 586.299 343.336C588.28 344.172 589.974 345.588 591.166 347.404C592.358 349.221 592.994 351.356 592.994 353.541C592.994 356.47 591.851 359.28 589.817 361.351C587.783 363.423 585.025 364.587 582.148 364.587ZM582.148 344.583C580.409 344.583 578.708 345.109 577.262 346.093C575.815 347.077 574.688 348.476 574.022 350.113C573.357 351.75 573.182 353.551 573.522 355.289C573.861 357.026 574.699 358.622 575.929 359.875C577.159 361.128 578.726 361.981 580.432 362.326C582.138 362.672 583.907 362.495 585.514 361.817C587.121 361.139 588.495 359.991 589.461 358.518C590.428 357.044 590.943 355.313 590.943 353.541C590.941 351.166 590.013 348.889 588.364 347.21C586.716 345.531 584.48 344.586 582.148 344.583Z" fill="#858585"/>
<path d="M582.148 358.323C584.741 358.323 586.843 356.182 586.843 353.541C586.843 350.9 584.741 348.759 582.148 348.759C579.555 348.759 577.453 350.9 577.453 353.541C577.453 356.182 579.555 358.323 582.148 358.323Z" fill="#858585"/>
<path d="M489.889 386.51C492.482 386.51 494.584 384.37 494.584 381.729C494.584 379.088 492.482 376.947 489.889 376.947C487.296 376.947 485.194 379.088 485.194 381.729C485.194 384.37 487.296 386.51 489.889 386.51Z" fill="#858585"/>
<path d="M609.826 425.138C612.419 425.138 614.521 422.998 614.521 420.357C614.521 417.716 612.419 415.575 609.826 415.575C607.233 415.575 605.131 417.716 605.131 420.357C605.131 422.998 607.233 425.138 609.826 425.138Z" fill="#858585"/>
<path d="M550.37 459.423C548.222 459.426 546.122 458.779 544.336 457.565C542.549 456.352 541.156 454.626 540.333 452.606C539.51 450.586 539.293 448.362 539.711 446.217C540.129 444.072 541.162 442.101 542.68 440.553C544.197 439.006 546.132 437.952 548.238 437.525C550.344 437.097 552.527 437.316 554.512 438.152C556.496 438.989 558.192 440.406 559.385 442.224C560.578 444.042 561.215 446.18 561.215 448.367C561.215 451.298 560.073 454.108 558.039 456.182C556.006 458.255 553.247 459.421 550.37 459.423ZM550.37 439.41C548.627 439.408 546.923 439.932 545.474 440.917C544.024 441.902 542.894 443.302 542.226 444.941C541.558 446.58 541.383 448.384 541.723 450.125C542.062 451.866 542.901 453.464 544.133 454.719C545.365 455.974 546.935 456.828 548.644 457.174C550.353 457.52 552.125 457.341 553.734 456.661C555.343 455.981 556.719 454.83 557.685 453.354C558.652 451.877 559.167 450.142 559.165 448.367C559.162 445.993 558.235 443.716 556.586 442.037C554.937 440.357 552.702 439.413 550.37 439.41Z" fill="#858585"/>
<path d="M555.065 448.368C555.065 449.313 554.789 450.238 554.274 451.024C553.758 451.81 553.024 452.423 552.166 452.785C551.309 453.147 550.365 453.242 549.454 453.057C548.543 452.873 547.707 452.417 547.05 451.749C546.393 451.08 545.946 450.228 545.765 449.3C545.584 448.373 545.677 447.411 546.032 446.538C546.388 445.664 546.989 444.917 547.761 444.392C548.533 443.866 549.441 443.586 550.37 443.586C551.614 443.589 552.807 444.093 553.687 444.99C554.567 445.886 555.062 447.1 555.065 448.368Z" fill="#858585"/>
<path d="M575.997 482.559C578.59 482.559 580.692 480.418 580.692 477.777C580.692 475.136 578.59 472.996 575.997 472.996C573.404 472.996 571.302 475.136 571.302 477.777C571.302 480.418 573.404 482.559 575.997 482.559Z" fill="#858585"/>
<path d="M494.932 500.045C494.934 500.994 494.66 501.921 494.144 502.711C493.628 503.5 492.894 504.116 492.035 504.48C491.175 504.844 490.229 504.941 489.315 504.757C488.402 504.573 487.563 504.118 486.903 503.448C486.244 502.778 485.795 501.924 485.613 500.995C485.431 500.065 485.523 499.101 485.879 498.225C486.235 497.348 486.838 496.599 487.612 496.072C488.386 495.545 489.296 495.264 490.227 495.264C491.472 495.267 492.666 495.771 493.547 496.667C494.429 497.563 494.927 498.777 494.932 500.045Z" fill="#858585"/>
<path d="M613.691 228H596.571C595.716 228 595.023 228.706 595.023 229.576V253.307C595.023 254.177 595.716 254.883 596.571 254.883H613.691C614.545 254.883 615.239 254.177 615.239 253.307V229.576C615.239 228.706 614.545 228 613.691 228Z" fill="#858585"/>
<path opacity="0.6" d="M613.691 228H596.571C595.716 228 595.023 228.706 595.023 229.576V253.307C595.023 254.177 595.716 254.883 596.571 254.883H613.691C614.545 254.883 615.239 254.177 615.239 253.307V229.576C615.239 228.706 614.545 228 613.691 228Z" fill="white"/>
<path d="M612.215 231.821H598.037V233.272H612.215V231.821Z" fill="#858585"/>
<path d="M612.215 234.358H598.037V235.809H612.215V234.358Z" fill="#858585"/>
<path d="M612.215 236.905H598.037V238.356H612.215V236.905Z" fill="#858585"/>
<path d="M612.215 239.442H598.037V240.893H612.215V239.442Z" fill="#858585"/>
<path d="M612.215 241.99H598.037V243.441H612.215V241.99Z" fill="#858585"/>
<path d="M612.215 244.537H598.037V245.988H612.215V244.537Z" fill="#858585"/>
<path d="M612.215 247.074H598.037V248.525H612.215V247.074Z" fill="#858585"/>
<path d="M607.222 249.621H598.037V251.072H607.222V249.621Z" fill="#858585"/>
<path d="M518.438 370.548H501.319C500.464 370.548 499.771 371.254 499.771 372.124V395.854C499.771 396.725 500.464 397.431 501.319 397.431H518.438C519.293 397.431 519.986 396.725 519.986 395.854V372.124C519.986 371.254 519.293 370.548 518.438 370.548Z" fill="#858585"/>
<path opacity="0.6" d="M518.438 370.548H501.319C500.464 370.548 499.771 371.254 499.771 372.124V395.854C499.771 396.725 500.464 397.431 501.319 397.431H518.438C519.293 397.431 519.986 396.725 519.986 395.854V372.124C519.986 371.254 519.293 370.548 518.438 370.548Z" fill="white"/>
<path d="M516.962 374.358H502.784V375.81H516.962V374.358Z" fill="#858585"/>
<path d="M516.962 376.906H502.784V378.357H516.962V376.906Z" fill="#858585"/>
<path d="M516.962 379.443H502.784V380.894H516.962V379.443Z" fill="#858585"/>
<path d="M516.962 381.99H502.784V383.441H516.962V381.99Z" fill="#858585"/>
<path d="M516.962 384.527H502.784V385.978H516.962V384.527Z" fill="#858585"/>
<path d="M516.962 387.074H502.784V388.525H516.962V387.074Z" fill="#858585"/>
<path d="M516.962 389.622H502.784V391.073H516.962V389.622Z" fill="#858585"/>
<path d="M511.969 392.159H502.784V393.61H511.969V392.159Z" fill="#858585"/>
<path d="M636.694 399.477H619.575C618.72 399.477 618.027 400.183 618.027 401.053V424.784C618.027 425.654 618.72 426.36 619.575 426.36H636.694C637.549 426.36 638.242 425.654 638.242 424.784V401.053C638.242 400.183 637.549 399.477 636.694 399.477Z" fill="#858585"/>
<path opacity="0.6" d="M636.694 399.477H619.575C618.72 399.477 618.027 400.183 618.027 401.053V424.784C618.027 425.654 618.72 426.36 619.575 426.36H636.694C637.549 426.36 638.242 425.654 638.242 424.784V401.053C638.242 400.183 637.549 399.477 636.694 399.477Z" fill="white"/>
<path d="M635.218 403.298H621.041V404.749H635.218V403.298Z" fill="#858585"/>
<path d="M635.218 405.835H621.041V407.286H635.218V405.835Z" fill="#858585"/>
<path d="M635.218 408.382H621.041V409.833H635.218V408.382Z" fill="#858585"/>
<path d="M635.218 410.93H621.041V412.381H635.218V410.93Z" fill="#858585"/>
<path d="M635.218 413.467H621.041V414.918H635.218V413.467Z" fill="#858585"/>
<path d="M635.218 416.014H621.041V417.465H635.218V416.014Z" fill="#858585"/>
<path d="M635.218 418.551H621.041V420.002H635.218V418.551Z" fill="#858585"/>
<path d="M630.225 421.098H621.041V422.549H630.225V421.098Z" fill="#858585"/>
<path d="M644.71 279.542H627.591C626.736 279.542 626.043 280.248 626.043 281.119V304.849C626.043 305.719 626.736 306.425 627.591 306.425H644.71C645.565 306.425 646.258 305.719 646.258 304.849V281.119C646.258 280.248 645.565 279.542 644.71 279.542Z" fill="#858585"/>
<path opacity="0.6" d="M644.71 279.542H627.591C626.736 279.542 626.043 280.248 626.043 281.119V304.849C626.043 305.719 626.736 306.425 627.591 306.425H644.71C645.565 306.425 646.258 305.719 646.258 304.849V281.119C646.258 280.248 645.565 279.542 644.71 279.542Z" fill="white"/>
<path d="M643.234 283.363H629.057V284.815H643.234V283.363Z" fill="#858585"/>
<path d="M643.234 285.9H629.057V287.351H643.234V285.9Z" fill="#858585"/>
<path d="M643.234 288.448H629.057V289.899H643.234V288.448Z" fill="#858585"/>
<path d="M643.234 290.995H629.057V292.446H643.234V290.995Z" fill="#858585"/>
<path d="M643.234 293.532H629.057V294.983H643.234V293.532Z" fill="#858585"/>
<path d="M643.234 296.079H629.057V297.53H643.234V296.079Z" fill="#858585"/>
<path d="M643.234 298.616H629.057V300.067H643.234V298.616Z" fill="#858585"/>
<path d="M638.242 301.164H629.057V302.615H638.242V301.164Z" fill="#858585"/>
<path d="M518.817 494.7H501.698C500.843 494.7 500.15 495.406 500.15 496.277V520.007C500.15 520.877 500.843 521.583 501.698 521.583H518.817C519.672 521.583 520.365 520.877 520.365 520.007V496.277C520.365 495.406 519.672 494.7 518.817 494.7Z" fill="#858585"/>
<path opacity="0.6" d="M518.817 494.7H501.698C500.843 494.7 500.15 495.406 500.15 496.277V520.007C500.15 520.877 500.843 521.583 501.698 521.583H518.817C519.672 521.583 520.365 520.877 520.365 520.007V496.277C520.365 495.406 519.672 494.7 518.817 494.7Z" fill="white"/>
<path d="M517.341 498.521H503.164V499.972H517.341V498.521Z" fill="#858585"/>
<path d="M517.341 501.058H503.164V502.509H517.341V501.058Z" fill="#858585"/>
<path d="M517.341 503.606H503.164V505.057H517.341V503.606Z" fill="#858585"/>
<path d="M517.341 506.143H503.164V507.594H517.341V506.143Z" fill="#858585"/>
<path d="M517.341 508.69H503.164V510.141H517.341V508.69Z" fill="#858585"/>
<path d="M517.341 511.237H503.164V512.688H517.341V511.237Z" fill="#858585"/>
<path d="M517.341 513.774H503.164V515.225H517.341V513.774Z" fill="#858585"/>
<path d="M512.349 516.322H503.164V517.773H512.349V516.322Z" fill="#858585"/>
<path d="M643.039 328.955H599.042C598.17 328.955 597.463 329.675 597.463 330.563V375.371C597.463 376.259 598.17 376.979 599.042 376.979H643.039C643.911 376.979 644.618 376.259 644.618 375.371V330.563C644.618 329.675 643.911 328.955 643.039 328.955Z" fill="#858585"/>
<path opacity="0.5" d="M621.04 369.149C629.816 369.149 636.93 361.904 636.93 352.967C636.93 344.03 629.816 336.785 621.04 336.785C612.265 336.785 605.151 344.03 605.151 352.967C605.151 361.904 612.265 369.149 621.04 369.149Z" fill="white"/>
<path opacity="0.7" d="M621.04 352.967H636.93C636.921 356.522 635.761 359.975 633.631 362.792C631.5 365.608 628.516 367.63 625.143 368.544C621.769 369.459 618.194 369.215 614.97 367.85C611.746 366.485 609.055 364.076 607.312 360.996C605.569 357.915 604.872 354.335 605.329 350.81C605.786 347.285 607.372 344.013 609.841 341.499C612.309 338.985 615.523 337.37 618.984 336.905C622.445 336.44 625.96 337.15 628.985 338.925L621.04 352.967Z" fill="white"/>
<path d="M621.041 365.495C627.834 365.495 633.342 359.886 633.342 352.967C633.342 346.048 627.834 340.439 621.041 340.439C614.247 340.439 608.739 346.048 608.739 352.967C608.739 359.886 614.247 365.495 621.041 365.495Z" fill="#858585"/>
<path opacity="0.3" d="M621.041 365.495C627.834 365.495 633.342 359.886 633.342 352.967C633.342 346.048 627.834 340.439 621.041 340.439C614.247 340.439 608.739 346.048 608.739 352.967C608.739 359.886 614.247 365.495 621.041 365.495Z" fill="white"/>
<path d="M617.494 355.321C617.207 355.321 616.953 355.27 616.733 355.168C616.514 355.065 616.343 354.924 616.221 354.744C616.098 354.563 616.037 354.356 616.039 354.125C616.037 353.944 616.073 353.777 616.145 353.623C616.218 353.468 616.317 353.34 616.442 353.236C616.569 353.132 616.711 353.066 616.867 353.038V353.013C616.662 352.96 616.499 352.845 616.378 352.668C616.256 352.489 616.196 352.286 616.198 352.059C616.196 351.842 616.251 351.647 616.363 351.476C616.474 351.304 616.628 351.169 616.823 351.07C617.019 350.971 617.243 350.922 617.494 350.922C617.742 350.922 617.964 350.971 618.159 351.07C618.354 351.169 618.508 351.304 618.619 351.476C618.732 351.647 618.789 351.842 618.791 352.059C618.789 352.286 618.727 352.489 618.604 352.668C618.483 352.845 618.322 352.96 618.121 353.013V353.038C618.276 353.066 618.416 353.132 618.54 353.236C618.664 353.34 618.763 353.468 618.837 353.623C618.91 353.777 618.948 353.944 618.949 354.125C618.948 354.356 618.885 354.563 618.761 354.744C618.639 354.924 618.468 355.065 618.249 355.168C618.032 355.27 617.78 355.321 617.494 355.321ZM617.494 354.861C617.688 354.861 617.855 354.83 617.996 354.767C618.137 354.704 618.245 354.616 618.322 354.501C618.399 354.387 618.438 354.253 618.439 354.1C618.438 353.938 618.396 353.795 618.314 353.671C618.232 353.547 618.119 353.45 617.977 353.379C617.836 353.307 617.675 353.272 617.494 353.272C617.312 353.272 617.148 353.307 617.005 353.379C616.863 353.45 616.75 353.547 616.668 353.671C616.587 353.795 616.548 353.938 616.549 354.1C616.548 354.253 616.585 354.387 616.66 354.501C616.737 354.616 616.846 354.704 616.988 354.767C617.13 354.83 617.299 354.861 617.494 354.861ZM617.494 352.829C617.647 352.829 617.783 352.798 617.902 352.737C618.022 352.675 618.116 352.59 618.184 352.479C618.252 352.369 618.287 352.24 618.289 352.093C618.287 351.948 618.253 351.822 618.186 351.714C618.119 351.605 618.027 351.522 617.908 351.463C617.79 351.403 617.652 351.373 617.494 351.373C617.334 351.373 617.194 351.403 617.074 351.463C616.954 351.522 616.861 351.605 616.796 351.714C616.73 351.822 616.698 351.948 616.7 352.093C616.698 352.24 616.731 352.369 616.798 352.479C616.866 352.59 616.96 352.675 617.08 352.737C617.2 352.798 617.338 352.829 617.494 352.829ZM621.148 355.321C620.833 355.321 620.564 355.235 620.343 355.064C620.121 354.891 619.952 354.641 619.834 354.313C619.717 353.984 619.659 353.587 619.659 353.121C619.659 352.659 619.717 352.263 619.834 351.936C619.953 351.607 620.123 351.356 620.345 351.183C620.568 351.009 620.835 350.922 621.148 350.922C621.46 350.922 621.727 351.009 621.948 351.183C622.171 351.356 622.341 351.607 622.459 351.936C622.577 352.263 622.636 352.659 622.636 353.121C622.636 353.587 622.578 353.984 622.461 354.313C622.344 354.641 622.174 354.891 621.953 355.064C621.731 355.235 621.463 355.321 621.148 355.321ZM621.148 354.861C621.46 354.861 621.702 354.711 621.875 354.409C622.048 354.108 622.134 353.679 622.134 353.121C622.134 352.751 622.095 352.435 622.015 352.174C621.937 351.914 621.824 351.715 621.677 351.578C621.53 351.442 621.354 351.373 621.148 351.373C620.838 351.373 620.596 351.526 620.422 351.831C620.248 352.135 620.161 352.565 620.161 353.121C620.161 353.492 620.2 353.807 620.278 354.066C620.356 354.326 620.468 354.523 620.614 354.658C620.762 354.793 620.94 354.861 621.148 354.861ZM625.614 354.46V354.234C625.614 354.078 625.646 353.935 625.71 353.805C625.776 353.674 625.87 353.57 625.994 353.491C626.12 353.412 626.272 353.372 626.45 353.372C626.631 353.372 626.783 353.412 626.906 353.491C627.029 353.57 627.121 353.674 627.184 353.805C627.247 353.935 627.278 354.078 627.278 354.234V354.46C627.278 354.616 627.246 354.759 627.182 354.89C627.119 355.02 627.026 355.125 626.902 355.204C626.779 355.282 626.629 355.321 626.45 355.321C626.269 355.321 626.116 355.282 625.992 355.204C625.868 355.125 625.774 355.02 625.71 354.89C625.646 354.759 625.614 354.616 625.614 354.46ZM626.04 354.234V354.46C626.04 354.589 626.071 354.706 626.132 354.809C626.194 354.911 626.3 354.961 626.45 354.961C626.597 354.961 626.7 354.911 626.76 354.809C626.821 354.706 626.852 354.589 626.852 354.46V354.234C626.852 354.104 626.822 353.988 626.764 353.887C626.705 353.784 626.601 353.732 626.45 353.732C626.304 353.732 626.199 353.784 626.134 353.887C626.072 353.988 626.04 354.104 626.04 354.234ZM623.481 352.009V351.783C623.481 351.627 623.513 351.484 623.577 351.355C623.643 351.223 623.738 351.119 623.862 351.041C623.987 350.961 624.139 350.922 624.317 350.922C624.499 350.922 624.651 350.961 624.773 351.041C624.896 351.119 624.989 351.223 625.051 351.355C625.114 351.484 625.145 351.627 625.145 351.783V352.009C625.145 352.165 625.113 352.309 625.049 352.44C624.987 352.569 624.893 352.674 624.769 352.753C624.646 352.831 624.496 352.87 624.317 352.87C624.136 352.87 623.984 352.831 623.86 352.753C623.735 352.674 623.641 352.569 623.577 352.44C623.513 352.309 623.481 352.165 623.481 352.009ZM623.908 351.783V352.009C623.908 352.139 623.938 352.255 624 352.358C624.061 352.46 624.167 352.511 624.317 352.511C624.464 352.511 624.567 352.46 624.627 352.358C624.688 352.255 624.719 352.139 624.719 352.009V351.783C624.719 351.654 624.69 351.538 624.631 351.436C624.573 351.333 624.468 351.281 624.317 351.281C624.171 351.281 624.066 351.333 624.002 351.436C623.939 351.538 623.908 351.654 623.908 351.783ZM623.64 355.263L626.584 350.98H627.061L624.117 355.263H623.64Z" fill="white"/>
<path d="M599.247 430.275H565.767C565.105 430.275 564.568 430.822 564.568 431.497V465.594C564.568 466.268 565.105 466.815 565.767 466.815H599.247C599.909 466.815 600.446 466.268 600.446 465.594V431.497C600.446 430.822 599.909 430.275 599.247 430.275Z" fill="#858585"/>
<path opacity="0.5" d="M593.937 460.687H589.324V463.078H593.937V460.687Z" fill="white"/>
<path d="M593.937 436.831H589.324V439.222H593.937V436.831Z" fill="white"/>
<path d="M593.937 440.809H589.324V443.2H593.937V440.809Z" fill="white"/>
<path opacity="0.75" d="M593.937 444.787H589.324V447.177H593.937V444.787Z" fill="white"/>
<path opacity="0.5" d="M593.937 448.754H589.324V451.145H593.937V448.754Z" fill="white"/>
<path opacity="0.5" d="M593.937 452.731H589.324V455.122H593.937V452.731Z" fill="white"/>
<path opacity="0.5" d="M593.937 456.709H589.324V459.1H593.937V456.709Z" fill="white"/>
<path opacity="0.5" d="M587.663 460.687H583.05V463.078H587.663V460.687Z" fill="white"/>
<path d="M587.663 448.754H583.05V451.145H587.663V448.754Z" fill="white"/>
<path opacity="0.75" d="M587.663 452.731H583.05V455.122H587.663V452.731Z" fill="white"/>
<path opacity="0.5" d="M587.663 456.709H583.05V459.1H587.663V456.709Z" fill="white"/>
<path opacity="0.5" d="M581.379 460.687H576.766V463.078H581.379V460.687Z" fill="white"/>
<path d="M581.379 444.787H576.766V447.177H581.379V444.787Z" fill="white"/>
<path opacity="0.75" d="M581.379 448.754H576.766V451.145H581.379V448.754Z" fill="white"/>
<path opacity="0.5" d="M581.379 452.731H576.766V455.122H581.379V452.731Z" fill="white"/>
<path opacity="0.5" d="M581.379 456.709H576.766V459.1H581.379V456.709Z" fill="white"/>
<path opacity="0.5" d="M575.106 460.687H570.493V463.078H575.106V460.687Z" fill="white"/>
<path d="M575.106 452.731H570.493V455.122H575.106V452.731Z" fill="white"/>
<path opacity="0.75" d="M575.106 456.709H570.493V459.1H575.106V456.709Z" fill="white"/>
<path d="M571.805 254.445H538.325C537.662 254.445 537.125 254.991 537.125 255.666V289.763C537.125 290.438 537.662 290.985 538.325 290.985H571.805C572.467 290.985 573.004 290.438 573.004 289.763V255.666C573.004 254.991 572.467 254.445 571.805 254.445Z" fill="#858585"/>
<path opacity="0.9" d="M557.658 268.747V266.461L556.5 266.357C556.348 265.611 556.056 264.902 555.639 264.269L556.377 263.35L554.798 261.669L553.896 262.431C553.274 262.009 552.578 261.711 551.846 261.554L551.733 260.374H549.488L549.386 261.554C548.654 261.712 547.959 262.01 547.336 262.431L546.444 261.669L544.855 263.287L545.593 264.206C545.184 264.843 544.892 265.55 544.732 266.294L543.584 266.398V268.685L544.732 268.8C544.895 269.542 545.186 270.249 545.593 270.888L544.855 271.806L546.444 273.424L547.336 272.662C547.959 273.084 548.654 273.381 549.386 273.539L549.488 274.719H551.733L551.846 273.539C552.578 273.383 553.274 273.085 553.896 272.662L554.798 273.424L556.377 271.806L555.639 270.888C556.054 270.254 556.346 269.545 556.5 268.8L557.658 268.747ZM550.595 270.7C549.987 270.7 549.393 270.516 548.887 270.172C548.381 269.828 547.987 269.338 547.754 268.766C547.521 268.194 547.461 267.564 547.579 266.957C547.698 266.349 547.991 265.791 548.421 265.353C548.851 264.915 549.399 264.617 549.995 264.496C550.592 264.375 551.21 264.437 551.772 264.674C552.334 264.911 552.815 265.313 553.152 265.828C553.49 266.343 553.671 266.948 553.671 267.568C553.671 268.398 553.347 269.195 552.77 269.782C552.193 270.37 551.411 270.7 550.595 270.7Z" fill="white"/>
<path opacity="0.6" d="M566.772 275.241V273.445L565.869 273.362C565.747 272.77 565.518 272.208 565.193 271.702L565.777 270.992L564.537 269.718L563.83 270.313C563.337 269.983 562.787 269.749 562.21 269.624L562.118 268.706H560.365L560.272 269.624C559.695 269.749 559.146 269.983 558.653 270.313L557.945 269.718L556.705 270.992L557.289 271.702C556.96 272.205 556.731 272.769 556.613 273.362L555.7 273.445V275.241L556.613 275.325C556.731 275.914 556.96 276.474 557.289 276.974L556.705 277.694L557.945 278.958L558.653 278.373C559.146 278.7 559.696 278.931 560.272 279.052L560.365 279.981H562.118L562.21 279.052C562.787 278.931 563.336 278.7 563.83 278.373L564.537 278.958L565.777 277.694L565.193 276.974C565.518 276.472 565.747 275.913 565.869 275.325L566.772 275.241ZM561.236 276.765C560.763 276.765 560.301 276.622 559.908 276.355C559.515 276.087 559.209 275.706 559.028 275.261C558.848 274.816 558.801 274.326 558.894 273.854C558.987 273.382 559.216 272.949 559.551 272.609C559.886 272.269 560.312 272.038 560.776 271.946C561.24 271.853 561.721 271.903 562.157 272.088C562.593 272.274 562.966 272.588 563.227 272.989C563.488 273.39 563.627 273.862 563.624 274.343C563.62 274.661 563.555 274.975 563.432 275.268C563.308 275.56 563.13 275.825 562.906 276.047C562.683 276.269 562.418 276.444 562.128 276.562C561.838 276.68 561.528 276.738 561.215 276.734L561.236 276.765Z" fill="white"/>
<path opacity="0.4" d="M557.658 280.294V278.791L556.9 278.717C556.796 278.219 556.602 277.744 556.326 277.319L556.818 276.723L555.793 275.679L555.198 276.181C554.787 275.894 554.323 275.695 553.835 275.596L553.763 274.823H552.287L552.215 275.596C551.728 275.699 551.264 275.897 550.852 276.181L550.267 275.679L549.242 276.723L549.724 277.319C549.451 277.745 549.26 278.219 549.16 278.717L548.402 278.791V280.294L549.16 280.367C549.262 280.861 549.453 281.332 549.724 281.756L549.242 282.351L550.267 283.395L550.852 282.904C551.267 283.18 551.729 283.375 552.215 283.478L552.287 284.251H553.763L553.835 283.478C554.321 283.378 554.784 283.183 555.198 282.904L555.793 283.395L556.818 282.351L556.326 281.756C556.6 281.333 556.794 280.862 556.9 280.367L557.658 280.294ZM553.004 281.578C552.609 281.578 552.223 281.459 551.894 281.235C551.565 281.011 551.309 280.693 551.158 280.321C551.006 279.949 550.967 279.54 551.044 279.145C551.121 278.75 551.311 278.387 551.591 278.103C551.87 277.818 552.227 277.624 552.614 277.546C553.002 277.467 553.404 277.507 553.769 277.661C554.135 277.815 554.447 278.076 554.666 278.411C554.886 278.746 555.003 279.14 555.003 279.542C554.99 280.078 554.776 280.588 554.403 280.967C554.031 281.346 553.53 281.565 553.004 281.578Z" fill="white"/>
<path d="M569.529 314.652H538.007V335.532H569.529V314.652Z" fill="#858585"/>
<path opacity="0.6" d="M569.529 314.652H538.007V335.532H569.529V314.652Z" fill="white"/>
<path d="M568.371 318.567H539.155V334.488H568.371V318.567Z" fill="#858585"/>
<path d="M563.143 320.947H541.533V321.636H563.143V320.947Z" fill="white"/>
<path d="M551.908 323.046H541.533V323.735H551.908V323.046Z" fill="white"/>
<path d="M554.593 325.144H541.533V325.833H554.593V325.144Z" fill="white"/>
<path d="M546.136 327.243H541.533V327.932H546.136V327.243Z" fill="white"/>
<path d="M544.517 329.341H541.533V330.03H544.517V329.341Z" fill="white"/>
<path d="M619.759 473.862H588.237V494.742H619.759V473.862Z" fill="#858585"/>
<path opacity="0.6" d="M619.759 473.862H588.237V494.742H619.759V473.862Z" fill="white"/>
<path d="M618.601 477.777H589.385V493.698H618.601V477.777Z" fill="#858585"/>
<path d="M613.373 480.157H591.764V480.846H613.373V480.157Z" fill="white"/>
<path d="M602.138 482.256H591.764V482.945H602.138V482.256Z" fill="white"/>
<path d="M604.823 484.354H591.764V485.043H604.823V484.354Z" fill="white"/>
<path d="M596.366 486.453H591.764V487.142H596.366V486.453Z" fill="white"/>
<path d="M594.747 488.551H591.764V489.24H594.747V488.551Z" fill="white"/>
<g opacity="0.4">
<path d="M572.922 352.497H398.654V354.585H572.922V352.497Z" fill="white"/>
<path d="M392.504 344.145H390.453V331.617C390.453 331.48 390.478 331.343 390.529 331.216C390.58 331.089 390.656 330.973 390.751 330.876L453.456 267.192C453.552 267.095 453.666 267.018 453.791 266.966C453.916 266.915 454.049 266.888 454.184 266.889H511.416V268.977H454.604L392.504 332.045V344.145Z" fill="white"/>
<path d="M541.144 449.589H464.261C464.126 449.59 463.992 449.564 463.867 449.512C463.742 449.46 463.629 449.383 463.533 449.286L390.751 375.162C390.656 375.065 390.58 374.949 390.529 374.822C390.478 374.695 390.453 374.558 390.453 374.421V363.981H392.504V373.993L464.681 447.501H541.144V449.589Z" fill="white"/>
<path d="M489.889 382.773H448.71C448.441 382.772 448.183 382.663 447.993 382.47L420.315 354.46L421.76 352.977L449.141 380.685H489.889V382.773Z" fill="white"/>
<path d="M461.401 354.366L459.945 352.894L487.531 324.612C487.727 324.421 487.987 324.313 488.259 324.309H529.868V326.397H488.689L461.401 354.366Z" fill="white"/>
<path d="M618.027 301.341H455.271C455.135 301.341 455.001 301.313 454.876 301.259C454.751 301.205 454.638 301.127 454.543 301.028L438.203 284.219L439.659 282.747L455.701 299.253H618.027V301.341Z" fill="white"/>
<path d="M472.841 268.674L471.437 267.192L498.089 240.048C498.185 239.951 498.299 239.874 498.424 239.823C498.549 239.771 498.682 239.744 498.817 239.745H584.198V241.833H499.197L472.841 268.674Z" fill="white"/>
<path d="M489.509 500.745L448.157 458.641C447.975 458.454 447.868 458.204 447.859 457.941V432.885H449.91V457.513L490.914 499.273L489.509 500.745Z" fill="white"/>
<path d="M480.191 448.952L478.736 447.501L505.921 419.637C506.118 419.446 506.378 419.338 506.649 419.334H609.826V421.422H507.08L480.191 448.952Z" fill="white"/>
<path d="M575.997 478.821H530.042C529.907 478.822 529.773 478.796 529.648 478.744C529.524 478.692 529.41 478.615 529.314 478.518L500.437 449.109L501.893 447.637L530.462 476.733H575.997V478.821Z" fill="white"/>
<path d="M584.198 245.571C586.791 245.571 588.893 243.43 588.893 240.789C588.893 238.148 586.791 236.008 584.198 236.008C581.605 236.008 579.503 238.148 579.503 240.789C579.503 243.43 581.605 245.571 584.198 245.571Z" fill="white"/>
<path d="M520.642 278.979C518.497 278.979 516.4 278.331 514.616 277.117C512.833 275.903 511.443 274.178 510.622 272.16C509.801 270.142 509.586 267.921 510.005 265.778C510.423 263.636 511.456 261.667 512.973 260.123C514.49 258.578 516.422 257.526 518.526 257.1C520.63 256.674 522.81 256.892 524.792 257.728C526.774 258.564 528.468 259.98 529.66 261.796C530.851 263.613 531.487 265.748 531.487 267.933C531.487 270.862 530.345 273.672 528.311 275.743C526.277 277.815 523.518 278.979 520.642 278.979ZM520.642 258.976C518.902 258.976 517.202 259.501 515.755 260.485C514.309 261.469 513.182 262.868 512.516 264.505C511.85 266.142 511.676 267.943 512.015 269.681C512.355 271.418 513.192 273.014 514.422 274.267C515.653 275.52 517.22 276.373 518.926 276.718C520.632 277.064 522.4 276.887 524.008 276.209C525.615 275.531 526.988 274.383 527.955 272.91C528.921 271.437 529.437 269.705 529.437 267.933C529.434 265.558 528.507 263.281 526.858 261.602C525.209 259.923 522.974 258.978 520.642 258.976Z" fill="white"/>
<path d="M622.722 300.475C622.72 301.42 622.443 302.343 621.926 303.128C621.408 303.913 620.674 304.524 619.816 304.885C618.958 305.245 618.015 305.338 617.105 305.153C616.194 304.967 615.359 304.511 614.703 303.841C614.048 303.172 613.602 302.32 613.421 301.393C613.241 300.466 613.334 299.505 613.69 298.632C614.046 297.759 614.648 297.013 615.419 296.488C616.191 295.963 617.099 295.683 618.027 295.683C618.644 295.683 619.256 295.807 619.826 296.048C620.396 296.289 620.914 296.642 621.35 297.087C621.786 297.532 622.132 298.06 622.367 298.642C622.603 299.223 622.723 299.846 622.722 300.475Z" fill="white"/>
<path d="M529.868 330.135C532.461 330.135 534.563 327.994 534.563 325.353C534.563 322.712 532.461 320.572 529.868 320.572C527.275 320.572 525.173 322.712 525.173 325.353C525.173 327.994 527.275 330.135 529.868 330.135Z" fill="white"/>
<path d="M582.148 364.587C580.003 364.587 577.906 363.939 576.123 362.725C574.339 361.511 572.949 359.786 572.128 357.768C571.307 355.75 571.092 353.529 571.511 351.386C571.929 349.244 572.962 347.275 574.479 345.731C575.996 344.186 577.928 343.134 580.032 342.708C582.136 342.282 584.317 342.5 586.299 343.336C588.28 344.172 589.974 345.588 591.166 347.404C592.358 349.221 592.994 351.356 592.994 353.541C592.994 356.47 591.851 359.28 589.817 361.351C587.783 363.423 585.025 364.587 582.148 364.587ZM582.148 344.583C580.409 344.583 578.708 345.109 577.262 346.093C575.815 347.077 574.688 348.476 574.022 350.113C573.357 351.75 573.182 353.551 573.522 355.289C573.861 357.026 574.699 358.622 575.929 359.875C577.159 361.128 578.726 361.981 580.432 362.326C582.138 362.672 583.907 362.495 585.514 361.817C587.121 361.139 588.495 359.991 589.461 358.518C590.428 357.044 590.943 355.313 590.943 353.541C590.941 351.166 590.013 348.889 588.364 347.21C586.716 345.531 584.48 344.586 582.148 344.583Z" fill="white"/>
<path d="M489.889 386.511C492.482 386.511 494.584 384.37 494.584 381.729C494.584 379.088 492.482 376.948 489.889 376.948C487.296 376.948 485.194 379.088 485.194 381.729C485.194 384.37 487.296 386.511 489.889 386.511Z" fill="white"/>
<path d="M609.826 425.139C612.419 425.139 614.521 422.998 614.521 420.357C614.521 417.716 612.419 415.576 609.826 415.576C607.233 415.576 605.131 417.716 605.131 420.357C605.131 422.998 607.233 425.139 609.826 425.139Z" fill="white"/>
<path d="M550.37 459.424C548.222 459.426 546.122 458.779 544.336 457.565C542.549 456.352 541.156 454.626 540.333 452.606C539.51 450.586 539.293 448.362 539.711 446.217C540.129 444.072 541.162 442.101 542.68 440.553C544.197 439.006 546.132 437.952 548.238 437.525C550.344 437.097 552.527 437.316 554.512 438.152C556.496 438.989 558.192 440.406 559.385 442.224C560.578 444.042 561.215 446.18 561.215 448.368C561.215 451.298 560.073 454.109 558.039 456.182C556.006 458.255 553.247 459.421 550.37 459.424ZM550.37 439.41C548.627 439.408 546.923 439.932 545.474 440.917C544.024 441.902 542.894 443.302 542.226 444.941C541.558 446.58 541.383 448.384 541.723 450.125C542.062 451.866 542.901 453.464 544.133 454.719C545.365 455.974 546.935 456.828 548.644 457.174C550.353 457.52 552.125 457.341 553.734 456.661C555.343 455.981 556.719 454.83 557.685 453.354C558.652 451.877 559.167 450.142 559.165 448.368C559.162 445.993 558.235 443.716 556.586 442.037C554.937 440.357 552.702 439.413 550.37 439.41Z" fill="white"/>
<path d="M575.997 482.558C578.59 482.558 580.692 480.418 580.692 477.777C580.692 475.136 578.59 472.995 575.997 472.995C573.404 472.995 571.302 475.136 571.302 477.777C571.302 480.418 573.404 482.558 575.997 482.558Z" fill="white"/>
<path d="M494.932 500.046C494.934 500.994 494.66 501.921 494.144 502.711C493.628 503.5 492.894 504.116 492.035 504.48C491.175 504.844 490.229 504.941 489.315 504.757C488.402 504.573 487.563 504.118 486.903 503.448C486.244 502.778 485.795 501.925 485.613 500.995C485.431 500.065 485.523 499.101 485.879 498.225C486.235 497.348 486.838 496.599 487.612 496.072C488.386 495.545 489.296 495.264 490.227 495.264C491.472 495.267 492.666 495.771 493.547 496.667C494.429 497.563 494.927 498.777 494.932 500.046Z" fill="white"/>
<path d="M391.479 365.704C389.122 365.7 386.82 364.984 384.863 363.649C382.905 362.313 381.381 360.416 380.481 358.199C379.581 355.981 379.347 353.541 379.807 351.188C380.268 348.835 381.403 346.673 383.069 344.976C384.735 343.28 386.858 342.124 389.168 341.655C391.479 341.185 393.874 341.424 396.052 342.34C398.23 343.257 400.092 344.81 401.403 346.803C402.715 348.797 403.417 351.141 403.421 353.541C403.424 355.139 403.117 356.722 402.518 358.199C401.918 359.676 401.039 361.017 399.929 362.147C398.82 363.277 397.502 364.173 396.052 364.783C394.602 365.394 393.048 365.706 391.479 365.704ZM391.479 344.552C389.729 344.552 388.018 345.081 386.564 346.071C385.109 347.061 383.975 348.468 383.305 350.114C382.636 351.76 382.461 353.572 382.802 355.32C383.143 357.067 383.986 358.673 385.223 359.933C386.46 361.193 388.037 362.051 389.753 362.399C391.469 362.746 393.248 362.568 394.864 361.886C396.481 361.204 397.862 360.049 398.834 358.567C399.806 357.086 400.325 355.344 400.325 353.562C400.323 351.173 399.39 348.883 397.731 347.194C396.073 345.505 393.824 344.555 391.479 344.552Z" fill="white"/>
</g>
</svg>
